<?xml version="1.0" encoding="UTF-8"?>
<svg version="1.1" xmlns="http://www.w3.org/2000/svg" width="417" height="419">
<path d="M0 0 C137.61 0 275.22 0 417 0 C417 138.27 417 276.54 417 419 C279.39 419 141.78 419 0 419 C0 280.73 0 142.46 0 0 Z " fill="#FCFDFD" transform="translate(0,0)"/>
<path d="M0 0 C28.76611183 -0.20081834 28.76611183 -0.20081834 43.09042931 -0.25126934 C50.80279526 -0.27885588 58.51488751 -0.31374219 66.22705078 -0.37719727 C72.99630528 -0.43286702 79.76526359 -0.46150585 86.53473282 -0.47438622 C89.10444921 -0.48355354 91.67415126 -0.50145301 94.24374008 -0.52865028 C120.74590208 -0.79774544 142.01786936 4.19306568 163 21 C163.63035156 21.47824219 164.26070312 21.95648438 164.91015625 22.44921875 C180.24213418 34.63796658 192.87706469 56.00013688 195.31640625 75.53369141 C195.9870851 81.68334951 196.48929131 87.83221047 197 94 C204.26 94 211.52 94 219 94 C218.9175 92.040625 218.835 90.08125 218.75 88.0625 C218.79771133 64.42153557 229.91891466 43.78280543 246 27 C246.58523437 26.36320312 247.17046875 25.72640625 247.7734375 25.0703125 C260.90525071 11.19867883 282.30764772 0.60090476 301.48731804 -0.08954048 C304.47305308 -0.12278737 307.45720945 -0.1236575 310.44311523 -0.11352539 C312.14176979 -0.11374443 312.14176979 -0.11374443 313.8747406 -0.1139679 C317.60271141 -0.11327349 321.33063171 -0.10550316 325.05859375 -0.09765625 C327.64933749 -0.0957904 330.24008159 -0.09436728 332.83082581 -0.09336853 C338.94339814 -0.08994577 345.05594976 -0.08207125 351.16851431 -0.07201904 C358.81481337 -0.05971911 366.46111539 -0.05426546 374.10742188 -0.04882812 C387.73829526 -0.03910505 401.36912938 -0.01907008 415 0 C415 21.78 415 43.56 415 66 C403.58792969 66.03867187 403.58792969 66.03867187 391.9453125 66.078125 C387.11455001 66.10330271 382.28384955 66.12964287 377.453125 66.16015625 C369.79199009 66.2084377 362.13099884 66.25250273 354.46972656 66.27099609 C348.29038517 66.28618216 342.11142053 66.32066328 335.93224716 66.36830902 C333.57928626 66.38310254 331.22627157 66.39103984 328.87326431 66.39188385 C325.56761138 66.39426126 322.26299307 66.42140501 318.95751953 66.45410156 C317.51065514 66.44655602 317.51065514 66.44655602 316.03456116 66.43885803 C307.98643587 66.56135755 301.58676285 68.79276132 294.75 73 C290.79237171 77.04165094 290.79237171 77.04165094 286 88 C308.77 88 331.54 88 355 88 C355 109.78 355 131.56 355 154 C331.9 154 308.8 154 285 154 C285 167.86 285 181.72 285 196 C262.89 196 240.78 196 218 196 C218 184.12 218 172.24 218 160 C211.07 160 204.14 160 197 160 C197 171.88 197 183.76 197 196 C174.89 196 152.78 196 130 196 C130 182.14 130 168.28 130 154 C107.23 154 84.46 154 61 154 C61 132.22 61 110.44 61 88 C83.44 88 105.88 88 129 88 C123.23951145 76.47902291 120.67807153 71.82628822 109.35968018 67.65476036 C105.04200397 66.45669833 100.72358271 66.56104928 96.26953125 66.56762695 C95.22473099 66.5574353 94.17993073 66.54724365 93.10346985 66.53674316 C89.67309132 66.50671056 86.2429925 66.4973619 82.8125 66.48828125 C80.42495808 66.4714274 78.03742499 66.4532762 75.64990234 66.43388367 C69.38314576 66.3864546 63.11642501 66.35659916 56.84954834 66.33044434 C49.32114003 66.29535131 41.79286928 66.23835866 34.26457214 66.18505096 C22.8430657 66.10662031 11.42173832 66.05595108 0 66 C0 44.22 0 22.44 0 0 Z " fill="#004C97" transform="translate(1,221)"/>
<path d="M0 0 C22.11 0 44.22 0 67 0 C67 11.88 67 23.76 67 36 C74.26 36 81.52 36 89 36 C89 24.12 89 12.24 89 0 C110.78 0 132.56 0 155 0 C155 13.86 155 27.72 155 42 C177.77 42 200.54 42 224 42 C224 63.45 224 84.9 224 107 C201.56 107 179.12 107 156 107 C160.79729596 117.79391592 163.55689605 122.86212674 174 128 C176.90152355 128.87751288 179.51797253 129.13336362 182.54315186 129.15821838 C183.448965 129.1680072 184.35477814 129.17779602 185.28804016 129.18788147 C186.27418808 129.19363693 187.260336 129.1993924 188.27636719 129.20532227 C189.84269142 129.22017166 189.84269142 129.22017166 191.44065857 129.23532104 C194.89270764 129.26691248 198.34477046 129.29168428 201.796875 129.31640625 C204.19012815 129.3369778 206.58337769 129.35797433 208.97662354 129.37937927 C215.27631705 129.43457911 221.57604323 129.48399767 227.87579346 129.53222656 C235.43409297 129.59128787 242.99233275 129.65750441 250.55058289 129.72252655 C262.03368545 129.82050981 273.51682629 129.90938395 285 130 C285 151.78 285 173.56 285 196 C256.52395911 196.20081834 256.52395911 196.20081834 242.33266354 196.25126934 C234.6953293 196.27884391 227.05827178 196.31370103 219.42114258 196.37719727 C212.7167093 196.43291171 206.01263724 196.46151441 199.30796242 196.47438622 C196.76419181 196.48354613 194.22043551 196.50143056 191.67679405 196.52865028 C160.83957309 196.84518571 137.07037138 189.56648635 114.625 168 C97.05769323 149.72433409 88.74167746 127.05728622 89 102 C81.74 102 74.48 102 67 102 C66.6596875 106.7334375 66.6596875 106.7334375 66.3125 111.5625 C64.54556269 131.54355178 56.70049252 150.24906189 43 165 C42.17886719 165.91265625 41.35773438 166.8253125 40.51171875 167.765625 C25.79892796 183.3720816 4.33716269 195.29553982 -17.47376823 196.09012032 C-20.43341269 196.12274327 -23.39150838 196.12365837 -26.35131836 196.11352539 C-27.47400116 196.11367142 -28.59668396 196.11381744 -29.75338745 196.1139679 C-33.44889282 196.11327354 -37.14434723 196.10550347 -40.83984375 196.09765625 C-43.40816724 196.09579038 -45.97649109 196.09436727 -48.54481506 196.09336853 C-54.60426353 196.0899459 -60.6636911 196.08207154 -66.72313172 196.07201904 C-74.30304786 196.05971866 -81.88296699 196.05426536 -89.46289062 196.04882812 C-102.97527455 196.03910533 -116.48761886 196.01907032 -130 196 C-130 174.22 -130 152.44 -130 130 C-122.45253906 129.96261719 -114.90507813 129.92523438 -107.12890625 129.88671875 C-102.33917014 129.85643245 -97.54947089 129.82528016 -92.75976562 129.79101562 C-85.1622099 129.73674659 -77.5647271 129.68563408 -69.96704102 129.65356445 C-63.83962397 129.62749985 -57.71245258 129.58707446 -51.58518791 129.53681374 C-49.25093587 129.52016649 -46.91664136 129.50863891 -44.58233833 129.50238609 C-41.30536447 129.49272198 -38.02901609 129.46463389 -34.75219727 129.43237305 C-33.31396606 129.43452568 -33.31396606 129.43452568 -31.84667969 129.4367218 C-22.30212699 129.30438224 -13.84978072 126.92439707 -7 120 C-4.08367922 115.83175987 -2.2342235 111.93689401 -1 107 C-23.44 107 -45.88 107 -69 107 C-69 85.22 -69 63.44 -69 41 C-46.23 41 -23.46 41 0 41 C0 27.47 0 13.94 0 0 Z " fill="#004C97" transform="translate(131,2)"/>
<path d="M0 0 C3.50776393 0.06197316 7.01557207 0.12133875 10.52337646 0.18096924 C17.32810754 0.29700707 24.13278845 0.41576993 30.93743896 0.53643799 C30.93743896 0.86643799 30.93743896 1.19643799 30.93743896 1.53643799 C9.15743896 1.53643799 -12.62256104 1.53643799 -35.06256104 1.53643799 C-35.06256104 13.41643799 -35.06256104 25.29643799 -35.06256104 37.53643799 C-42.32256104 37.53643799 -49.58256104 37.53643799 -57.06256104 37.53643799 C-57.06256104 25.65643799 -57.06256104 13.77643799 -57.06256104 1.53643799 C-79.17256104 1.53643799 -101.28256104 1.53643799 -124.06256104 1.53643799 C-124.06256104 1.20643799 -124.06256104 0.87643799 -124.06256104 0.53643799 C-115.64553655 0.4036595 -107.22848073 0.2731561 -98.81138039 0.14528656 C-94.89981018 0.08579768 -90.9882534 0.02562483 -87.07672119 -0.03631592 C-58.0396418 -0.49508958 -29.03694591 -0.51713559 0 0 Z " fill="#EFF4F8" transform="translate(255.06256103515625,0.46356201171875)"/>
</svg>
