<?xml version="1.0" standalone="no"?>
<!DOCTYPE svg PUBLIC "-//W3C//DTD SVG 1.1//EN" "http://www.w3.org/Graphics/SVG/1.1/DTD/svg11.dtd" >
<svg xmlns="http://www.w3.org/2000/svg" xmlns:xlink="http://www.w3.org/1999/xlink" version="1.1">
<metadata>
Created by FontForge 20230101 at Tue Jul  4 00:45:17 2023
 By Isaac Wang
(C) 2017 Frere-Jones Type LLC
</metadata>
<defs>
<font id="ExchangeBold" horiz-adv-x="0" >
  <font-face 
    font-family="Exchange"
    font-weight="700"
    font-stretch="normal"
    units-per-em="1000"
    panose-1="2 6 8 4 6 5 5 2 4 3"
    ascent="800"
    descent="-200"
    x-height="522"
    cap-height="694"
    bbox="-200 -341 1594 1135"
    underline-thickness="0"
    underline-position="0"
    unicode-range="U+0020-FB04"
  />
<missing-glyph horiz-adv-x="700" 
d="M600 -240h-500v1200h500v-1200zM507 910h-315l158 -481zM550 874l-172 -514l172 -514v1028zM150 -154l171 514l-171 514v-1028zM507 -190l-157 481l-158 -481h315z" />
    <glyph glyph-name="f_f" unicode="ff" horiz-adv-x="675" 
d="M251 71l34 -15v-56h-264v61l48 10l23 43v326h-74v69l74 15v16q0 52 13 89t40 64q28 28 69.5 43t92.5 15q56 0 93 -17t46 -47l6 6q28 28 67 43t86 15q65 0 102.5 -23t37.5 -61q0 -35 -26 -51.5t-66 -8.5l-41 77q-37 -2 -54 -31.5t-17 -93.5v-37h128v-82h-128v-326l23 -43
l58 -10v-61h-256v56l25 19l8 25v340h-165v-336zM232 559v-37h167v18q0 20 1.5 36.5t5.5 30.5q-10 -3 -22 -3t-26 3l-43 77h-2q-43 0 -62 -30t-19 -95z" />
    <glyph glyph-name="fi" unicode="fi" horiz-adv-x="626" 
d="M251 71l34 -15v-56h-264v61l48 10l23 43v326h-74v69l74 15v16q0 44 12.5 81t35.5 60q34 34 84.5 52t113.5 18q75 0 115 -23t40 -65q0 -36 -30 -54.5t-73 -13.5l-37 90q-61 1 -90 -30t-29 -96v-37h307v-408l23 -43l46 -10v-61h-244v56l25 19l8 25v340h-165v-336z" />
    <glyph glyph-name="fl" unicode="fl" horiz-adv-x="626" 
d="M251 71l34 -15v-56h-264v61l48 10l23 43v326h-74v69l74 15v16q0 52 13 89t40 64q28 28 69.5 43t92.5 15q49 0 84.5 -15t49.5 -42l50 51h50v-631l23 -43l46 -10v-61h-244v56l25 19l8 25v340h-165v-336zM232 559v-37h169v83q-8 -1 -18 -0.5t-22 2.5l-43 77h-5
q-43 0 -62 -30t-19 -95z" />
    <glyph glyph-name="f_f_i" unicode="ffi" horiz-adv-x="933" 
d="M251 71l34 -15v-56h-264v61l48 10l23 43v326h-74v69l74 15v16q0 52 13 89t40 64q28 28 69.5 43t92.5 15q59 0 96.5 -18.5t43.5 -51.5q34 34 84.5 52t113.5 18q75 0 115 -23t40 -65q0 -36 -30 -54.5t-73 -13.5l-37 90q-61 1 -90 -30t-29 -96v-37h307v-408l23 -43l46 -10
v-61h-244v56l25 19l8 25v340h-165v-336l17 -33l34 -15v-56h-226v56l25 19l8 25v340h-165v-336zM232 559v-37h167v18q0 17 2.5 34.5t6.5 33.5q-12 -3 -24 -3.5t-26 2.5l-43 77h-2q-43 0 -62 -30t-19 -95z" />
    <glyph glyph-name="f_f_l" unicode="ffl" horiz-adv-x="933" 
d="M251 71l34 -15v-56h-264v61l48 10l23 43v326h-74v69l74 15v16q0 52 13 89t40 64q28 28 69.5 43t92.5 15q56 0 93 -17t46 -47l6 6q28 28 69.5 43t92.5 15q50 0 85 -15t48 -42l49 51h52v-631l23 -43l46 -10v-61h-244v56l25 19l8 25v340h-165v-336l17 -33l34 -15v-56h-226
v56l25 19l8 25v340h-165v-336zM539 559v-37h169v83q-8 -1 -18 -0.5t-22 2.5l-43 77h-5q-43 0 -62 -30t-19 -95zM232 559v-37h167v18q0 20 1.5 36.5t5.5 30.5q-10 -3 -22 -3t-26 3l-43 77h-2q-43 0 -62 -30t-19 -95z" />
    <glyph glyph-name="f_j" unicode="fj" horiz-adv-x="616" 
d="M470 -127q-32 -32 -69 -47.5t-82 -15.5q-46 0 -73.5 19.5t-27.5 51.5q0 28 20 45.5t52 17.5l65 -65q25 14 34.5 43.5t9.5 90.5v427h-165v-336l17 -33l34 -15v-56h-264v61l48 10l23 43v326h-74v69l74 15v16q0 44 12.5 81t35.5 60q34 34 84.5 52t113.5 18q75 0 115 -23
t40 -65q0 -36 -30 -54.5t-73 -13.5l-37 90q-61 1 -90 -30t-29 -96v-37h307v-427q0 -83 -16 -133t-55 -89z" />
    <glyph glyph-name="f_b" unicode="fb" horiz-adv-x="917" 
d="M667 -12q-42 0 -76 13t-79 47l-71 -63h-52l10 154v301h-165v-336l17 -33l34 -15v-56h-264v61l48 10l23 43v326h-74v69l74 15v16q0 52 13 89t40 64q28 28 69.5 43t92.5 15q49 0 84.5 -15t49.5 -42l50 51h50v-228l-8 -92l8 -4q29 55 70.5 84.5t91.5 29.5q82 0 132.5 -71.5
t50.5 -193.5q0 -129 -61 -205.5t-158 -76.5zM232 559v-37h169v83q-8 -1 -18 -0.5t-22 2.5l-43 77h-5q-43 0 -62 -30t-19 -95zM629 79q47 0 74.5 44.5t27.5 126.5q0 88 -24.5 134t-70.5 46q-15 0 -28.5 -6.5t-26.5 -19.5q-22 -22 -31 -45t-9 -59v-195q33 -16 51.5 -21
t36.5 -5z" />
    <glyph glyph-name="f_h" unicode="fh" horiz-adv-x="920" 
d="M251 71l34 -15v-56h-264v61l48 10l23 43v326h-74v69l74 15v16q0 52 13 89t40 64q28 28 69.5 43t92.5 15q49 0 84.5 -15t49.5 -42l50 51h50v-248l-10 -94l8 -4q42 75 80.5 105.5t88.5 30.5q65 0 100.5 -40.5t35.5 -115.5v-265l23 -43l43 -10v-61h-237v56l19 19l8 25v254
q0 32 -15.5 48t-45.5 16q-17 0 -35 -8.5t-32 -22.5q-17 -17 -24 -41.5t-7 -69.5v-172l17 -33l34 -15v-56h-226v56l25 19l8 25v340h-165v-336zM232 559v-37h169v83q-8 -1 -18 -0.5t-22 2.5l-43 77h-5q-43 0 -62 -30t-19 -95z" />
    <glyph glyph-name="f_k" unicode="fk" horiz-adv-x="881" 
d="M251 71l34 -15v-56h-264v61l48 10l23 43v326h-74v69l74 15v16q0 52 13 89t40 64q28 28 69.5 43t92.5 15q49 0 84.5 -15t49.5 -42l50 51h50v-440h21l90 98l28 119h172v-61l-53 -16l-124 -128l149 -241l46 -15v-61h-197v49l-109 192h-23v-137l17 -33l34 -15v-56h-226v56
l25 19l8 25v340h-165v-336zM232 559v-37h169v83q-8 -1 -18 -0.5t-22 2.5l-43 77h-5q-43 0 -62 -30t-19 -95z" />
    <glyph glyph-name="f_f_j" unicode="ffj" horiz-adv-x="923" 
d="M777 -127q-32 -32 -69 -47.5t-82 -15.5q-46 0 -73.5 19.5t-27.5 51.5q0 28 20 45.5t52 17.5l65 -65q25 14 34.5 43.5t9.5 90.5v427h-165v-336l17 -33l34 -15v-56h-226v56l25 19l8 25v340h-165v-336l17 -33l34 -15v-56h-264v61l48 10l23 43v326h-74v69l74 15v16
q0 52 13 89t40 64q28 28 69.5 43t92.5 15q59 0 96.5 -18.5t43.5 -51.5q34 34 84.5 52t113.5 18q75 0 115 -23t40 -65q0 -36 -30 -54.5t-73 -13.5l-37 90q-61 1 -90 -30t-29 -96v-37h307v-427q0 -83 -16 -133t-55 -89zM232 559v-37h167v18q0 17 2.5 34.5t6.5 33.5
q-12 -3 -24 -3.5t-26 2.5l-43 77h-2q-43 0 -62 -30t-19 -95z" />
    <glyph glyph-name="f_f_b" unicode="ffb" horiz-adv-x="1224" 
d="M974 -12q-42 0 -76 13t-79 47l-71 -63h-52l10 154v301h-165v-336l17 -33l34 -15v-56h-226v56l25 19l8 25v340h-165v-336l17 -33l34 -15v-56h-264v61l48 10l23 43v326h-74v69l74 15v16q0 52 13 89t40 64q28 28 69.5 43t92.5 15q56 0 93 -17t46 -47l6 6q28 28 69.5 43
t92.5 15q49 0 84.5 -15t49.5 -42l50 51h50v-227l-8 -93l8 -4q29 55 70.5 84.5t91.5 29.5q82 0 132.5 -71.5t50.5 -193.5q0 -129 -61 -205.5t-158 -76.5zM539 559v-37h169v83q-8 -1 -18 -0.5t-22 2.5l-43 77h-5q-43 0 -62 -30t-19 -95zM232 559v-37h167v18q0 20 1.5 36.5
t5.5 30.5q-10 -3 -22 -3t-26 3l-43 77h-2q-43 0 -62 -30t-19 -95zM936 79q47 0 74.5 44.5t27.5 126.5q0 88 -24.5 134t-70.5 46q-15 0 -28.5 -6.5t-26.5 -19.5q-22 -22 -31 -45.5t-9 -58.5v-195q33 -16 51.5 -21t36.5 -5z" />
    <glyph glyph-name="f_f_h" unicode="ffh" horiz-adv-x="1227" 
d="M251 71l34 -15v-56h-264v61l48 10l23 43v326h-74v69l74 15v16q0 52 13 89t40 64q28 28 69.5 43t92.5 15q56 0 93 -17t46 -47l6 6q28 28 69.5 43t92.5 15q50 0 85 -15t48 -42l49 51h54v-248l-12 -94l8 -4q42 75 80.5 105.5t88.5 30.5q65 0 100.5 -40.5t35.5 -115.5v-265
l23 -43l43 -10v-61h-237v56l19 19l8 25v254q0 32 -15.5 48t-45.5 16q-17 0 -35 -8.5t-32 -22.5q-17 -17 -24 -41.5t-7 -69.5v-172l17 -33l34 -15v-56h-226v56l25 19l8 25v340h-165v-336l17 -33l34 -15v-56h-226v56l25 19l8 25v340h-165v-336zM539 559v-37h169v83
q-8 -1 -18 -0.5t-22 2.5l-43 77h-5q-43 0 -62 -30t-19 -95zM232 559v-37h167v18q0 20 1.5 36.5t5.5 30.5q-10 -3 -22 -3t-26 3l-43 77h-2q-43 0 -62 -30t-19 -95z" />
    <glyph glyph-name="f_f_k" unicode="ffk" horiz-adv-x="1188" 
d="M251 71l34 -15v-56h-264v61l48 10l23 43v326h-74v69l74 15v16q0 52 13 89t40 64q28 28 69.5 43t92.5 15q56 0 93 -17t46 -47l6 6q28 28 69.5 43t92.5 15q50 0 85 -15t48 -42l49 51h52v-440h21l90 98l28 119h172v-61l-53 -16l-124 -128l149 -241l46 -15v-61h-197v49
l-109 192h-23v-137l17 -33l34 -15v-56h-226v56l25 19l8 25v340h-165v-336l17 -33l34 -15v-56h-226v56l25 19l8 25v340h-165v-336zM539 559v-37h169v83q-8 -1 -18 -0.5t-22 2.5l-43 77h-5q-43 0 -62 -30t-19 -95zM232 559v-37h167v18q0 20 1.5 36.5t5.5 30.5q-10 -3 -22 -3
t-26 3l-43 77h-2q-43 0 -62 -30t-19 -95z" />
    <glyph glyph-name=".notdef" horiz-adv-x="700" 
d="M600 -240h-500v1200h500v-1200zM507 910h-315l158 -481zM550 874l-172 -514l172 -514v1028zM150 -154l171 514l-171 514v-1028zM507 -190l-157 481l-158 -481h315z" />
    <glyph glyph-name=".null" 
 />
    <glyph glyph-name="nonmarkingreturn" horiz-adv-x="333" 
 />
    <glyph glyph-name="NUL" 
 />
    <glyph glyph-name="space" unicode=" " horiz-adv-x="196" 
 />
    <glyph glyph-name="exclam" unicode="!" horiz-adv-x="310" 
d="M181 250h-52l-55 270q-6 27 -8.5 52.5t-2.5 51.5q0 42 22 61t70 19t70 -19t22 -61q0 -26 -2.5 -51.5t-8.5 -52.5zM250 79q0 -40 -27.5 -67.5t-67.5 -27.5t-67.5 27.5t-27.5 67.5t27.5 67.5t67.5 27.5t67.5 -27.5t27.5 -67.5z" />
    <glyph glyph-name="quotedbl" unicode="&#x22;" horiz-adv-x="516" 
d="M270 688l-186 -292l-54 8l57 297h183v-13zM500 688l-186 -292l-54 8l57 297h183v-13z" />
    <glyph glyph-name="numbersign" unicode="#" horiz-adv-x="620" 
d="M386 -8h-66l31 162h-157l-31 -162h-66l31 162h-104v115h126l31 160h-104v115h127l30 158h66l-30 -158h157l30 158h66l-30 -158h103v-115h-126l-31 -160h104v-115h-126zM247 429l-31 -160h157l31 160h-157z" />
    <glyph glyph-name="dollar" unicode="$" horiz-adv-x="579" 
d="M532 209q0 -93 -74.5 -153t-184.5 -64l-13 -120h-56l13 124q-76 12 -133 52t-57 85q0 32 18.5 51.5t47.5 19.5q20 0 38.5 -9t31.5 -24l-6 -74q19 -10 36.5 -16t35.5 -9l22 217q-110 40 -154.5 87t-44.5 122q0 86 67 142.5t170 61.5l10 86h56l-9 -89q74 -10 129.5 -49
t55.5 -83q0 -30 -17.5 -48.5t-44.5 -18.5q-22 0 -42 9t-32 23l5 73q-23 9 -37.5 13t-28.5 6l-21 -205q130 -48 174.5 -92.5t44.5 -117.5zM180 535q0 -34 20 -57t66 -42l20 191q-50 -3 -78 -27.5t-28 -64.5zM401 170q0 35 -22.5 57t-80.5 45l-21 -203q59 2 91.5 28t32.5 73z
" />
    <glyph glyph-name="percent" unicode="%" horiz-adv-x="740" 
d="M346 527q0 -80 -45.5 -131.5t-114.5 -51.5t-114.5 51.5t-45.5 131.5t45.5 131.5t114.5 51.5t114.5 -51.5t45.5 -131.5zM175 -3h-69l242 361l218 339h69l-243 -361zM128 527q0 -72 13.5 -102.5t44.5 -30.5t44.5 30.5t13.5 102.5t-13.5 102.5t-44.5 30.5t-44.5 -30.5
t-13.5 -102.5zM714 167q0 -80 -45.5 -131.5t-114.5 -51.5t-114.5 51.5t-45.5 131.5t45.5 131.5t114.5 51.5t114.5 -51.5t45.5 -131.5zM496 167q0 -72 13.5 -102.5t44.5 -30.5t44.5 30.5t13.5 102.5t-13.5 102.5t-44.5 30.5t-44.5 -30.5t-13.5 -102.5z" />
    <glyph glyph-name="ampersand" unicode="&#x26;" horiz-adv-x="718" 
d="M495 0l-22 50l-29 35q-46 -51 -97 -74t-113 -23q-87 0 -147 51.5t-60 133.5q0 69 42 118t129 81l1 11q-41 43 -57.5 77.5t-16.5 73.5q0 79 57.5 127.5t146.5 48.5q84 0 135 -42.5t51 -111.5q0 -53 -36 -96.5t-104 -73.5l-2 -10l36 -32l77 -90l23 32l21 109h165v-70
l-80 -20l-82 -107l80 -94l90 -36v-68h-208zM268 561q0 -30 13 -56t49 -68l6 -7q39 23 59.5 56t20.5 73q0 36 -20 58.5t-52 22.5q-34 0 -55 -21.5t-21 -57.5zM169 198q0 -52 32.5 -85t80.5 -33q31 0 60.5 14.5t56.5 44.5l-154 183q-39 -27 -57.5 -57t-18.5 -67z" />
    <glyph glyph-name="quotesingle" unicode="'" horiz-adv-x="290" 
d="M274 688l-190 -292l-54 8l57 297h187v-13z" />
    <glyph glyph-name="parenleft" unicode="(" horiz-adv-x="408" 
d="M383 -145l-37 -41q-154 113 -225.5 233t-71.5 262t71.5 262t225.5 233l37 -42q-98 -99 -143 -208t-45 -245t45 -244.5t143 -209.5z" />
    <glyph glyph-name="parenright" unicode=")" horiz-adv-x="408" 
d="M25 763l37 41q154 -113 225.5 -233t71.5 -262t-71.5 -262t-225.5 -233l-37 42q98 99 143 208t45 245t-45 244.5t-143 209.5z" />
    <glyph glyph-name="asterisk" unicode="*" horiz-adv-x="469" 
d="M243 552h-17l-41 116v30h99v-30zM398 512l-122 3l-5 16l97 74l29 10l30 -94zM198 531l-5 -16l-122 -3l-29 9l30 94l29 -10zM180 353l-17 -24l-80 59l18 23l103 71l13 -10zM386 388l-80 -59l-17 24l-37 119l13 10l103 -71z" />
    <glyph glyph-name="plus" unicode="+" horiz-adv-x="540" 
d="M310 118h-80v189h-189v78h189v189h80v-189h189v-78h-189v-189z" />
    <glyph glyph-name="comma" unicode="," horiz-adv-x="290" 
d="M145 182q42 0 70 -31t28 -78q0 -63 -52.5 -128t-150.5 -127l-34 41q38 36 62.5 68t39.5 65l-61 61q0 58 27 93.5t71 35.5z" />
    <glyph glyph-name="hyphen" unicode="-" horiz-adv-x="360" 
d="M319 221h-278v130h278v-130z" />
    <glyph glyph-name="period" unicode="." horiz-adv-x="290" 
d="M244 83q0 -41 -29 -70t-70 -29t-70 29t-29 70t29 70t70 29t70 -29t29 -70z" />
    <glyph glyph-name="slash" unicode="/" horiz-adv-x="376" 
d="M39 -176h-67l170 493l164 477h67l-171 -499z" />
    <glyph glyph-name="zero" unicode="0" horiz-adv-x="637" 
d="M602 349q0 -161 -81.5 -263t-202.5 -102q-122 0 -202.5 100t-80.5 261t81.5 263t202.5 102q122 0 202.5 -100t80.5 -261zM208 349q0 -146 27 -215t84 -69q59 0 84.5 65.5t25.5 214.5q0 142 -27.5 213t-83.5 71q-58 0 -84 -67t-26 -213z" />
    <glyph glyph-name="one" unicode="1" horiz-adv-x="455" 
d="M440 0h-400v70l104 10l23 43v408l-23 40l-113 -7v66l275 76l15 -15v-568l22 -43l97 -10v-70z" />
    <glyph glyph-name="two" unicode="2" horiz-adv-x="577" 
d="M448 260h76v-260h-479v32q0 101 37.5 166t127.5 129q99 73 122 105t23 81t-25 77t-69 28q-28 0 -51 -8t-41 -24l41 -95q-8 -24 -30 -39.5t-49 -15.5q-36 0 -58 25t-22 67q0 75 71 128t172 53q100 0 162 -52.5t62 -139.5q0 -69 -34.5 -113.5t-140.5 -102.5
q-88 -49 -131.5 -91.5t-49.5 -85.5h196l68 15z" />
    <glyph glyph-name="three" unicode="3" horiz-adv-x="556" 
d="M513 184q0 -89 -74 -144t-188 -55q-93 0 -160 42t-67 102q0 35 21 57.5t54 22.5q26 0 47.5 -16.5t29.5 -41.5l-19 -62q17 -12 38 -17.5t49 -5.5q52 0 81 33.5t29 93.5q0 64 -38.5 92t-133.5 28h-19v86h15q85 0 126 32.5t41 98.5q0 48 -26 73t-73 25q-26 0 -44.5 -5.5
t-34.5 -19.5l23 -59q-6 -28 -26.5 -44.5t-49.5 -16.5q-30 0 -49 20t-19 51q0 64 68.5 109.5t158.5 45.5q105 0 168 -47t63 -129q0 -68 -41.5 -109t-131.5 -61v-9q99 -18 140.5 -58t41.5 -112z" />
    <glyph glyph-name="four" unicode="4" horiz-adv-x="600" 
d="M549 0h-338v65l76 10l23 43v71h-295v71l258 441h182v-436h127v-76h-127v-71l22 -43l72 -10v-65zM110 268l5 -13l83 10h112v199l11 126l-22 5l-40 -88l-105 -185z" />
    <glyph glyph-name="five" unicode="5" horiz-adv-x="548" 
d="M284 440q101 0 162.5 -57.5t61.5 -157.5q0 -106 -74 -173t-187 -67q-94 0 -161 42.5t-67 97.5q0 35 20.5 56t52.5 21q27 0 48.5 -16.5t28.5 -41.5l-16 -62q17 -9 35 -12.5t41 -3.5q54 0 87 39.5t33 106.5q0 64 -30.5 99t-85.5 35q-27 0 -54.5 -10t-60.5 -33l-61 30
l25 361h414v-38l-81 -94h-259l-12 -150l7 -5q36 19 65.5 26t67.5 7z" />
    <glyph glyph-name="six" unicode="6" horiz-adv-x="580" 
d="M358 441q81 0 135 -56.5t54 -146.5q0 -110 -75 -182t-180 -72q-113 0 -185.5 91.5t-72.5 241.5q0 173 84 282.5t218 109.5q79 0 129 -33.5t50 -86.5q0 -35 -20 -57t-50 -22q-20 0 -38.5 9t-30.5 24v75q-11 5 -21 7.5t-22 2.5q-63 0 -102 -74t-39 -193l8 -3q35 45 72 64
t86 19zM197 208q0 -64 26.5 -103.5t68.5 -39.5q46 0 70.5 40t24.5 113q0 67 -23 101.5t-68 34.5q-48 0 -73.5 -38t-25.5 -108z" />
    <glyph glyph-name="seven" unicode="7" horiz-adv-x="541" 
d="M305 157l-40 -169l-153 20l250 497l41 61l-5 9l-84 -7h-109l-69 -15l-17 -134h-80v275h469v-106z" />
    <glyph glyph-name="eight" unicode="8" horiz-adv-x="582" 
d="M543 190q0 -90 -74 -148t-184 -58t-178 51t-68 136q0 59 32.5 101t101.5 73v8q-57 30 -85 71t-28 96q0 81 69 135.5t172 54.5q98 0 159.5 -49t61.5 -127q0 -51 -26 -88.5t-83 -66.5v-8q69 -34 99.5 -77.5t30.5 -103.5zM404 529q0 49 -26.5 77t-71.5 28t-71 -26.5
t-26 -69.5q0 -34 25.5 -61.5t106.5 -66.5q31 23 47 53t16 66zM158 166q0 -46 33 -76t85 -30q51 0 84.5 31t33.5 77q0 37 -26.5 66.5t-117.5 75.5q-46 -28 -69 -64t-23 -80z" />
    <glyph glyph-name="nine" unicode="9" horiz-adv-x="580" 
d="M288 710q113 0 185.5 -91.5t72.5 -241.5q0 -173 -85 -282.5t-220 -109.5q-82 0 -136.5 35t-54.5 87q0 35 20 57t50 22q20 0 38.5 -9t30.5 -24v-75q12 -5 27.5 -8.5t27.5 -3.5q64 0 104 70.5t40 186.5l-8 3q-35 -45 -72 -64t-86 -19q-82 0 -135.5 57.5t-53.5 150.5
q0 112 73 185.5t182 73.5zM193 471q0 -70 23 -105.5t68 -35.5q48 0 73.5 39.5t25.5 111.5q0 65 -27 106.5t-68 41.5q-46 0 -70.5 -40.5t-24.5 -117.5z" />
    <glyph glyph-name="colon" unicode=":" horiz-adv-x="300" 
d="M249 439q0 -41 -29 -70t-70 -29t-70 29t-29 70t29 70t70 29t70 -29t29 -70zM249 83q0 -41 -29 -70t-70 -29t-70 29t-29 70t29 70t70 29t70 -29t29 -70z" />
    <glyph glyph-name="semicolon" unicode=";" horiz-adv-x="300" 
d="M249 439q0 -41 -29 -70t-70 -29t-70 29t-29 70t29 70t70 29t70 -29t29 -70zM150 182q42 0 70 -31t28 -78q0 -63 -52.5 -128t-150.5 -127l-34 41q38 36 62.5 68t39.5 65l-61 61q0 58 27 93.5t71 35.5z" />
    <glyph glyph-name="less" unicode="&#x3c;" horiz-adv-x="540" 
d="M480 199v-85l-431 197v70l431 197v-83l-344 -149z" />
    <glyph glyph-name="equal" unicode="=" horiz-adv-x="540" 
d="M491 406h-442v79h442v-79zM491 207h-442v79h442v-79z" />
    <glyph glyph-name="greater" unicode="&#x3e;" horiz-adv-x="540" 
d="M491 311l-431 -197v83l344 149l-344 147v85l431 -197v-70z" />
    <glyph glyph-name="question" unicode="?" horiz-adv-x="520" 
d="M484 536q0 -43 -21.5 -77t-72.5 -68q-34 -23 -54 -37.5t-27 -19.5q-22 -18 -31.5 -36.5t-12.5 -47.5h-70q-21 49 -9 89.5t59 80.5q51 44 63.5 66.5t12.5 54.5q0 40 -25 62.5t-66 22.5q-24 0 -43.5 -6t-35.5 -19l38 -79q-6 -22 -28.5 -38.5t-48.5 -16.5q-33 0 -55 26
t-22 68q0 63 64 105.5t158 42.5q100 0 163.5 -46.5t63.5 -126.5zM325 79q0 -40 -27.5 -67.5t-67.5 -27.5t-67.5 27.5t-27.5 67.5t27.5 67.5t67.5 27.5t67.5 -27.5t27.5 -67.5z" />
    <glyph glyph-name="at" unicode="@" horiz-adv-x="1012" 
d="M448 -117q68 0 138 20t134 58l19 -38q-71 -41 -146 -62.5t-147 -21.5q-172 0 -272.5 100t-100.5 271q0 106 37.5 204t107.5 174q72 79 166.5 121.5t199.5 42.5q163 0 263 -92.5t100 -241.5q0 -68 -17 -128t-49 -109q-39 -57 -94 -90t-110 -33q-57 0 -87 29.5t-30 84.5
v9.5t1 15.5v1.5v1.5l-12 3q-37 -70 -76 -104t-85 -34q-56 0 -87.5 36.5t-31.5 102.5q0 57 23 115t65 108q45 54 100.5 85t106.5 31q29 0 57 -8t53 -24l52 30l31 -6l-78 -280q-6 -20 -9 -40t-3 -36q0 -34 11.5 -47.5t37.5 -13.5q36 0 75 31.5t66 84.5q20 39 30.5 86t10.5 99
q0 130 -86.5 209.5t-232.5 79.5q-96 0 -181.5 -39.5t-149.5 -113.5q-60 -69 -92.5 -158.5t-32.5 -187.5q0 -152 86 -239t239 -87zM497 186q32 32 56 74.5t35 86.5l28 112q-10 11 -21 15t-28 4q-65 0 -117.5 -82t-52.5 -173q0 -33 10.5 -50t30.5 -17q16 0 28.5 6t30.5 24z
" />
    <glyph glyph-name="A" unicode="A" horiz-adv-x="708" 
d="M198 85l44 -18v-67h-242v70l63 23l201 606h180l199 -605l65 -24v-70h-313v67l53 15l16 41l-24 79h-234l-27 -85zM311 576l-29 -130l-49 -156h179l-48 156l-29 130h-24z" />
    <glyph glyph-name="B" unicode="B" horiz-adv-x="654" 
d="M320 0h-297v70l58 10l23 43v448l-23 43l-58 10v70h306q133 0 202 -39.5t69 -116.5q0 -68 -43.5 -107.5t-144.5 -59.5v-9q110 -17 157.5 -57.5t47.5 -111.5q0 -96 -75 -144.5t-222 -48.5zM265 618v-218h22q77 0 111 29.5t34 94.5q0 51 -29.5 72.5t-101.5 21.5h-36z
M265 328v-252h26q82 0 120 30t38 93q0 66 -40 97.5t-123 31.5h-21z" />
    <glyph glyph-name="C" unicode="C" horiz-adv-x="659" 
d="M599 238v-176q-45 -34 -107.5 -56t-117.5 -22q-152 0 -245 97t-93 259q0 159 95.5 264t235.5 105q38 0 69.5 -8t67.5 -29l50 35h40v-252h-84l-43 139q-20 16 -41.5 22.5t-51.5 6.5q-72 0 -114.5 -75t-42.5 -203q0 -135 44.5 -205t129.5 -70q21 0 40.5 5t37.5 15l46 148
h84z" />
    <glyph glyph-name="D" unicode="D" horiz-adv-x="708" 
d="M310 0h-287v70l58 10l23 43v448l-23 43l-58 10v70h311q160 0 249 -85.5t89 -241.5q0 -173 -96.5 -270t-265.5 -97zM268 611v-528h43q96 0 140 63.5t44 199.5t-45 200.5t-141 64.5h-41z" />
    <glyph glyph-name="E" unicode="E" horiz-adv-x="638" 
d="M602 0h-579v70l58 10l23 43v448l-23 43l-58 10v70h566v-214h-84l-14 91l-61 40h-162v-216h54l64 14l5 70h60v-250h-60l-5 70l-64 14h-54v-230h175l61 40l14 101h84v-224z" />
    <glyph glyph-name="F" unicode="F" horiz-adv-x="609" 
d="M369 0h-346v70l58 10l23 43v448l-23 43l-58 10v70h561v-214h-84l-14 91l-61 40h-157v-226h54l64 14l5 70h60v-255h-60l-5 75l-64 14h-54v-180l23 -43l78 -10v-70z" />
    <glyph glyph-name="G" unicode="G" horiz-adv-x="685" 
d="M606 238v-177q-57 -39 -116.5 -58t-123.5 -19q-151 0 -240.5 97t-89.5 261q0 74 23.5 139.5t67.5 115.5q47 54 110.5 83t133.5 29q39 0 71.5 -9t64.5 -28l50 35h40v-237h-86l-47 126q-20 14 -41.5 20.5t-46.5 6.5q-75 0 -117.5 -73.5t-42.5 -202.5q0 -133 43 -206.5
t121 -73.5q22 0 40 5t34 15v139l-22 41l-69 12v65h302v-57l-41 -15z" />
    <glyph glyph-name="H" unicode="H" horiz-adv-x="750" 
d="M347 0h-324v70l58 10l23 43v448l-23 43l-58 10v70h324v-61l-57 -11l-22 -41v-183h214v183l-22 41l-57 11v61h324v-70l-58 -10l-23 -43v-448l23 -43l58 -10v-70h-324v61l57 11l22 41v197h-214v-197l22 -41l57 -11v-61z" />
    <glyph glyph-name="I" unicode="I" horiz-adv-x="384" 
d="M359 0h-334v70l62 10l23 43v448l-23 43l-62 10v70h334v-70l-62 -10l-23 -43v-448l23 -43l62 -10v-70z" />
    <glyph glyph-name="J" unicode="J" horiz-adv-x="556" 
d="M460 571v-358q0 -103 -67.5 -166t-170.5 -63q-86 0 -147 48.5t-61 120.5q0 44 24 73.5t60 29.5q38 0 59.5 -24.5t16.5 -60.5l-47 -60q16 -19 35.5 -27t45.5 -8q42 0 65 31.5t23 90.5v373l-23 43l-68 10v70h336v-70l-58 -10z" />
    <glyph glyph-name="K" unicode="K" horiz-adv-x="687" 
d="M290 72l57 -11v-61h-324v70l58 10l23 43v448l-23 43l-58 10v70h324v-61l-57 -11l-22 -41v-188h23l144 171l32 130h195v-70l-73 -17l-175 -201l212 -321l52 -15v-70h-221l-14 69l-148 241h-27v-197z" />
    <glyph glyph-name="L" unicode="L" horiz-adv-x="589" 
d="M563 0h-540v70l58 10l23 43v448l-23 43l-58 10v70h346v-70l-78 -10l-23 -43v-488h136l61 40l14 111h84v-234z" />
    <glyph glyph-name="M" unicode="M" horiz-adv-x="938" 
d="M497 0h-117l-165 581h-25l13 -130v-338l17 -41l52 -11v-61h-249v70l58 10l23 43v448l-23 43l-58 10v70h316l94 -341l22 -130h24l24 130l96 341h316v-70l-58 -10l-23 -43v-448l23 -43l58 -10v-70h-312v61l52 11l17 41v338l13 130h-25z" />
    <glyph glyph-name="N" unicode="N" horiz-adv-x="729" 
d="M291 0h-268v70l58 10l23 43v448l-23 43l-58 10v70h285l175 -366l41 -130h24l-16 144v239l-22 41l-62 11v61h263v-70l-53 -10l-23 -43v-571h-169l-209 433l-42 130h-24l16 -144v-306l22 -41l62 -11v-61z" />
    <glyph glyph-name="O" unicode="O" horiz-adv-x="730" 
d="M694 349q0 -161 -91.5 -263t-238.5 -102t-237.5 100.5t-90.5 260.5q0 161 91.5 263t238.5 102t237.5 -100.5t90.5 -260.5zM217 349q0 -138 38 -210t111 -72t110 70t37 208t-38 210t-111 72t-110 -70t-37 -208z" />
    <glyph glyph-name="P" unicode="P" horiz-adv-x="625" 
d="M367 0h-344v70l58 10l23 43v448l-23 43l-58 10v70h288q157 0 231.5 -50t74.5 -153q0 -110 -85 -167.5t-246 -57.5h-20v-143l23 -43l78 -10v-70zM266 611v-263h29q83 0 117 31.5t34 107.5q0 65 -32 94.5t-103 29.5h-45z" />
    <glyph glyph-name="Q" unicode="Q" horiz-adv-x="730" 
d="M704 -75v-20l-158 -77l-200 160q-139 6 -224.5 104.5t-85.5 252.5q0 161 91.5 263t238.5 102t237.5 -100.5t90.5 -260.5q0 -122 -55.5 -211.5t-151.5 -120.5v-9l80 -40zM217 349q0 -138 38 -210t111 -72t110 70t37 208t-38 210t-111 72t-110 -70t-37 -208z" />
    <glyph glyph-name="R" unicode="R" horiz-adv-x="691" 
d="M344 0h-321v70l58 10l23 43v448l-23 43l-58 10v70h310q141 0 215.5 -45t74.5 -131q0 -79 -51.5 -128.5t-152.5 -68.5v-9q54 -12 86.5 -35.5t62.5 -82.5l47 -96l73 -28v-70h-227l-11 72l-67 137q-21 43 -40.5 58t-58.5 15h-19v-169l22 -41l57 -11v-61zM265 611v-246h53
q64 0 99 35t35 100q0 56 -31 83.5t-95 27.5h-61z" />
    <glyph glyph-name="S" unicode="S" horiz-adv-x="594" 
d="M357 419q110 -42 153 -91.5t43 -120.5q0 -96 -70 -157.5t-176 -61.5q-44 0 -86.5 11.5t-83.5 34.5l-50 -35h-40v233h86l44 -125q29 -19 60.5 -29t62.5 -10q49 0 78.5 26t29.5 72q0 36 -28.5 62.5t-124.5 62.5q-109 42 -152 89.5t-43 114.5q0 90 66.5 150.5t164.5 60.5
q34 0 68 -8.5t73 -27.5l50 35h40v-227h-88l-42 120q-26 16 -46.5 22.5t-40.5 6.5q-46 0 -73 -24.5t-27 -66.5q0 -23 14 -42t44 -35q11 -6 26 -12.5t68 -27.5z" />
    <glyph glyph-name="T" unicode="T" horiz-adv-x="672" 
d="M509 0h-346v70l68 10l23 43v488h-65l-61 -40l-14 -121h-84v244h612v-244h-84l-14 121l-61 40h-65v-488l23 -43l68 -10v-70z" />
    <glyph glyph-name="U" unicode="U" horiz-adv-x="713" 
d="M361 -15q-127 0 -196 61.5t-69 175.5v349l-23 43l-58 10v70h329v-61l-62 -11l-22 -41v-366q0 -63 32 -95.5t94 -32.5q61 0 93.5 33t32.5 95v366l-22 41l-62 11v61h270v-70l-58 -10l-23 -43v-344q0 -117 -67 -179.5t-189 -62.5z" />
    <glyph glyph-name="V" unicode="V" horiz-adv-x="699" 
d="M438 -7h-172l-201 607l-65 24v70h319v-67l-53 -15l-16 -41l98 -312l25 -130h24l27 130l96 318l-19 32l-44 18v67h242v-70l-63 -23z" />
    <glyph glyph-name="W" unicode="W" horiz-adv-x="1028" 
d="M396 -7h-168l-158 607l-65 24v70h305v-67l-53 -15l-16 -41l60 -281l17 -130h24l19 130l95 404h158l93 -404l18 -130h24l18 130l60 287l-19 32l-44 18v67h259v-70l-63 -23l-158 -608h-168l-89 371l-17 130h-24l-17 -130z" />
    <glyph glyph-name="X" unicode="X" horiz-adv-x="675" 
d="M257 0h-246v70l61 17l189 249l-184 273l-56 15v70h304v-62l-39 -17l-10 -30l35 -61l37 -71h24l39 71l40 59l-10 32l-35 17v62h240v-70l-55 -17l-176 -231l196 -291l54 -15v-70h-302v62l39 17l10 30l-47 80l-37 71h-24l-40 -71l-52 -78l10 -32l35 -17v-62z" />
    <glyph glyph-name="Y" unicode="Y" horiz-adv-x="648" 
d="M501 0h-346v70l68 10l23 43v163l-193 323l-54 15v70h311v-62l-48 -17l-10 -32l71 -129l30 -78h24l29 78l65 123l-11 35l-44 20v62h234v-70l-54 -17l-186 -319v-165l23 -43l68 -10v-70z" />
    <glyph glyph-name="Z" unicode="Z" horiz-adv-x="614" 
d="M578 0h-549v82l278 412l78 98l-7 23l-123 -4h-45l-61 -40l-14 -116h-84v239h524v-82l-278 -412l-78 -98l7 -23l123 4h70l61 40l14 126h84v-249z" />
    <glyph glyph-name="bracketleft" unicode="[" horiz-adv-x="426" 
d="M393 -158l-297 -13v960l297 -13v-53l-171 6v-840l171 6v-53z" />
    <glyph glyph-name="backslash" unicode="\" horiz-adv-x="376" 
d="M233 323l171 -499h-67l-164 477l-170 493h67z" />
    <glyph glyph-name="bracketright" unicode="]" horiz-adv-x="426" 
d="M330 789v-960l-297 13v53l171 -6v840l-171 -6v53z" />
    <glyph glyph-name="asciicircum" unicode="^" horiz-adv-x="540" 
d="M128 356h-84l186 338h83l183 -338h-85l-141 260z" />
    <glyph glyph-name="underscore" unicode="_" horiz-adv-x="465" 
d="M467 -128h-469v69h469v-69z" />
    <glyph glyph-name="grave" unicode="`" horiz-adv-x="500" 
d="M146 584zM340 607l-40 -23l-113 110q-25 25 -33 39t-8 30q0 24 21 42.5t46 18.5q23 0 37.5 -13.5t27.5 -47.5z" />
    <glyph glyph-name="a" unicode="a" horiz-adv-x="560" 
d="M544 56v-43l-103 -26q-40 7 -66 32.5t-32 62.5h-7q-36 -51 -72 -72.5t-83 -21.5q-66 0 -106 41t-40 109q0 30 10.5 55.5t30.5 45.5q28 28 79.5 42t127.5 14h53v56q0 53 -25 79t-76 26q-16 0 -28.5 -2t-23.5 -7l20 -69q-15 -21 -34 -31t-42 -10q-31 0 -49 17.5t-18 47.5
q0 28 19.5 52t56.5 43q40 20 80.5 29.5t82.5 9.5q87 0 133 -42.5t46 -122.5v-243q0 -30 13 -45t53 -27zM336 183v56h-33q-65 0 -97 -21.5t-32 -64.5q0 -35 17.5 -54.5t48.5 -19.5q19 0 37.5 8t33.5 23q12 12 18.5 30.5t6.5 42.5z" />
    <glyph glyph-name="b" unicode="b" horiz-adv-x="588" 
d="M112 -15h-52l10 154v491l-23 43l-48 10v61h215v-226l-10 -93l8 -4q29 55 70.5 84.5t91.5 29.5q82 0 132.5 -71.5t50.5 -193.5q0 -129 -61 -205.5t-158 -76.5q-42 0 -76 13t-79 47zM300 79q47 0 74.5 44.5t27.5 126.5q0 88 -24.5 134t-70.5 46q-15 0 -28.5 -6.5
t-26.5 -19.5q-22 -22 -31 -45.5t-9 -58.5v-195q33 -16 51.5 -21t36.5 -5z" />
    <glyph glyph-name="c" unicode="c" horiz-adv-x="511" 
d="M440 128l36 -64q-53 -41 -102 -59.5t-101 -18.5q-110 0 -177 73t-67 198q0 121 74.5 201t183.5 80q79 0 135 -40t56 -98q0 -38 -21.5 -62t-53.5 -24q-26 0 -44.5 12.5t-26.5 34.5l27 80q-15 9 -31 13.5t-35 4.5q-47 0 -77.5 -51t-30.5 -132q0 -89 37 -140t98 -51
q29 0 54.5 9t65.5 34z" />
    <glyph glyph-name="d" unicode="d" horiz-adv-x="598" 
d="M214 -13q-82 0 -132.5 71.5t-50.5 192.5q0 127 59.5 205t144.5 78q36 0 68.5 -12.5t71.5 -43.5l7 4l-8 63v85l-23 43l-48 10v61h215v-630l23 -43l48 -10v-61h-215v16l10 94l-8 4q-33 -64 -73.5 -95.5t-88.5 -31.5zM186 273q0 -87 24.5 -132t70.5 -45q15 0 28.5 6.5
t26.5 19.5q22 22 31 45t9 58v191q-31 16 -50.5 21.5t-37.5 5.5q-47 0 -74.5 -44.5t-27.5 -125.5z" />
    <glyph glyph-name="e" unicode="e" horiz-adv-x="543" 
d="M470 117l29 -58q-56 -38 -109 -56.5t-106 -18.5q-116 0 -185.5 74t-69.5 195q0 123 72.5 204t182.5 81q107 0 166 -72.5t59 -200.5v-32h-326q6 -80 40 -117.5t101 -37.5q31 0 64 8.5t82 30.5zM273 469q-43 0 -66 -43t-25 -129h175q-2 92 -21.5 132t-62.5 40z" />
    <glyph glyph-name="f" unicode="f" horiz-adv-x="370" 
d="M259 71l58 -10v-61h-296v61l48 10l23 43v324h-74v71l74 15v16q0 52 13 89t40 64q28 28 68 43t87 15q65 0 102.5 -23t37.5 -61q0 -35 -26 -51.5t-66 -8.5l-41 77q-37 -2 -54 -31.5t-17 -93.5v-37h128v-84h-128v-324z" />
    <glyph glyph-name="g" unicode="g" horiz-adv-x="582" 
d="M542 3q0 -79 -92 -135.5t-210 -56.5q-114 0 -180.5 31.5t-66.5 86.5q0 31 25.5 56t80.5 50v9q-24 13 -38 30t-14 36q0 27 24.5 50t74.5 42v8q-53 23 -82 61.5t-29 87.5q0 75 63.5 126t151.5 51q49 0 85.5 -12t68.5 -39l134 51h20v-107h-97l-4 -8q10 -16 15 -33.5t5 -33.5
q0 -73 -62.5 -119.5t-155.5 -46.5q-13 0 -27 1t-30 4q-11 -10 -16 -18.5t-5 -16.5q0 -13 17.5 -19t64.5 -10l132 -12q70 -6 108.5 -36t38.5 -78zM185 367q0 -55 19 -88t53 -33t53 29.5t19 81.5q0 54 -19.5 87t-52.5 33q-34 0 -53 -29t-19 -81zM130 -55q0 -35 30 -53t88 -18
q73 0 123.5 26t50.5 62q0 24 -24.5 34.5t-86.5 16.5l-151 15q-15 -22 -22.5 -42.5t-7.5 -40.5z" />
    <glyph glyph-name="h" unicode="h" horiz-adv-x="603" 
d="M275 0h-266v61l48 10l23 43v516l-23 43l-48 10v61h215v-247l-10 -94l8 -4q42 75 80.5 105.5t88.5 30.5q65 0 100.5 -40.5t35.5 -115.5v-265l23 -43l43 -10v-61h-237v56l19 19l8 25v254q0 32 -15.5 48t-45.5 16q-17 0 -35 -8.5t-32 -22.5q-17 -17 -24 -41.5t-7 -69.5v-172
l17 -33l34 -15v-56z" />
    <glyph glyph-name="i" unicode="i" horiz-adv-x="323" 
d="M245 681q0 -35 -25.5 -59t-63.5 -24t-63.5 24t-25.5 59t25.5 59t63.5 24t63.5 -24t25.5 -59zM307 0h-287v61l51 10l23 43v294l-23 43l-51 10v61h218v-408l23 -43l46 -10v-61z" />
    <glyph glyph-name="j" unicode="j" horiz-adv-x="313" 
d="M245 681q0 -35 -25.5 -59t-63.5 -24t-63.5 24t-25.5 59t25.5 59t63.5 24t63.5 -24t25.5 -59zM165 -127q-32 -32 -69 -47.5t-82 -15.5q-46 0 -73.5 19.5t-27.5 51.5q0 28 20 45.5t52 17.5l65 -65q25 14 34.5 43.5t9.5 90.5v395l-23 43l-51 10v61h218v-427
q0 -81 -16.5 -131.5t-56.5 -90.5z" />
    <glyph glyph-name="k" unicode="k" horiz-adv-x="564" 
d="M241 71l34 -15v-56h-266v61l48 10l23 43v516l-23 43l-48 10v61h215v-439h21l90 98l28 119h172v-61l-53 -16l-124 -128l149 -241l46 -15v-61h-197v49l-109 192h-23v-137z" />
    <glyph glyph-name="l" unicode="l" horiz-adv-x="314" 
d="M298 0h-287v61l51 10l23 43v516l-23 43l-51 10v61h218v-630l23 -43l46 -10v-61z" />
    <glyph glyph-name="m" unicode="m" horiz-adv-x="903" 
d="M284 0h-266v61l48 10l23 43v294l-23 43l-48 10v61h215v-25l-10 -94l8 -4q37 72 76 104t88 32q58 0 90 -31t39 -95l8 -4q37 71 74.5 100.5t90.5 29.5q61 0 95.5 -39.5t34.5 -110.5v-271l23 -43l43 -10v-61h-242v56l22 19l10 25v254q0 32 -14.5 48t-43.5 16q-16 0 -33 -8.5
t-31 -22.5q-17 -17 -24 -41.5t-7 -69.5v-172l17 -33l34 -15v-56h-227v56l22 19l10 25v254q0 32 -14.5 48t-43.5 16q-16 0 -33 -8.5t-31 -22.5q-17 -17 -24 -41.5t-7 -69.5v-172l17 -33l34 -15v-56z" />
    <glyph glyph-name="n" unicode="n" horiz-adv-x="612" 
d="M284 0h-266v61l48 10l23 43v294l-23 43l-48 10v61h215v-25l-10 -94l8 -4q42 75 80.5 105.5t88.5 30.5q65 0 100.5 -40.5t35.5 -115.5v-265l23 -43l43 -10v-61h-237v56l19 19l8 25v254q0 32 -15.5 48t-45.5 16q-17 0 -35 -8.5t-32 -22.5q-17 -17 -24 -41.5t-7 -69.5v-172
l17 -33l34 -15v-56z" />
    <glyph glyph-name="o" unicode="o" horiz-adv-x="584" 
d="M555 264q0 -121 -74.5 -200.5t-188.5 -79.5q-119 0 -191 75.5t-72 198.5q0 121 74.5 200.5t188.5 79.5q119 0 191 -75.5t72 -198.5zM190 272q0 -104 28 -159t81 -55q47 0 71 48.5t24 143.5q0 104 -28 159t-81 55q-47 0 -71 -48.5t-24 -143.5z" />
    <glyph glyph-name="p" unicode="p" horiz-adv-x="598" 
d="M302 -182h-293v61l48 10l23 43v476l-23 43l-48 10v61h215v-16l-10 -93l8 -4q31 61 72.5 93.5t88.5 32.5q84 0 134 -71.5t50 -193.5q0 -128 -59.5 -205t-146.5 -77q-35 0 -65.5 11.5t-72.5 44.5l-7 -4l8 -63v-60l18 -28l60 -10v-61zM311 79q47 0 74 45t27 126
q0 86 -24.5 131t-70.5 45q-15 0 -28.5 -6.5t-26.5 -19.5q-22 -22 -31 -45t-9 -58v-191q28 -15 49 -21t40 -6z" />
    <glyph glyph-name="q" unicode="q" horiz-adv-x="588" 
d="M589 -182h-293v61l60 10l18 28v91l10 94l-8 4q-31 -58 -72.5 -88.5t-89.5 -30.5q-82 0 -132.5 71.5t-50.5 193.5q0 129 61.5 205.5t157.5 76.5q42 0 74 -12t81 -48l71 63h52l-10 -154v-451l23 -43l48 -10v-61zM186 272q0 -88 24.5 -134t70.5 -46q15 0 28.5 6.5t26.5 19.5
q22 22 31 45t9 58v196q-31 15 -50 20.5t-38 5.5q-47 0 -74.5 -44.5t-27.5 -126.5z" />
    <glyph glyph-name="r" unicode="r" horiz-adv-x="484" 
d="M256 71l53 -10v-61h-291v61l48 10l23 43v294l-23 43l-48 10v61h215v-25l-10 -127l8 -4q34 85 72.5 127t82.5 42q37 0 60.5 -23.5t23.5 -58.5q0 -44 -31.5 -70.5t-76.5 -23.5l-49 53q-40 -28 -60 -68.5t-20 -92.5v-137z" />
    <glyph glyph-name="s" unicode="s" horiz-adv-x="486" 
d="M287 322q89 -33 123.5 -71t34.5 -99q0 -76 -60.5 -121t-157.5 -45q-53 0 -103.5 12t-90.5 34v145h80l22 -100q20 -12 43 -17.5t49 -5.5q37 0 61 18t24 46q0 32 -26 51.5t-100 47.5q-78 30 -110 67t-32 93q0 69 58 114t144 45q41 0 84.5 -10t89.5 -30v-128h-79l-21 85
q-15 8 -33 11.5t-40 3.5q-31 0 -52 -17t-21 -43t19.5 -42t93.5 -44z" />
    <glyph glyph-name="t" unicode="t" horiz-adv-x="415" 
d="M228 -13q-66 0 -101 36t-35 104v311h-78v71l79 16l54 140h89v-143h148v-84h-148v-293q0 -34 15.5 -51t45.5 -17q16 0 33.5 4t41.5 13l19 -52q-44 -28 -83.5 -41.5t-79.5 -13.5z" />
    <glyph glyph-name="u" unicode="u" horiz-adv-x="603" 
d="M212 -13q-65 0 -100.5 40.5t-35.5 115.5v265l-23 43l-43 10v61h210v-354q0 -32 15.5 -48t45.5 -16q17 0 35 8.5t32 22.5q17 17 24 41.5t7 69.5v172l-20 38l-51 10v56h215v-408l23 -43l48 -10v-61h-215v25l10 94l-8 4q-42 -75 -80.5 -105.5t-88.5 -30.5z" />
    <glyph glyph-name="v" unicode="v" horiz-adv-x="555" 
d="M334 -9h-113l-167 451l-52 19v61h263v-53l-42 -13l-10 -33l61 -187l22 -112h17l23 112l62 192l-15 30l-31 11v53h201v-61l-51 -19z" />
    <glyph glyph-name="w" unicode="w" horiz-adv-x="834" 
d="M319 -7h-135l-130 449l-52 19v61h256v-53l-42 -13l-10 -33l44 -188l14 -112h17l15 112l73 289h140l72 -289l15 -112h17l14 112l46 193l-15 30l-31 11v53h205v-61l-51 -19l-131 -449h-125l-83 287l-14 112h-18l-16 -112z" />
    <glyph glyph-name="x" unicode="x" horiz-adv-x="561" 
d="M211 0h-202v61l58 16l138 173l-137 196l-54 15v61h262v-48l-25 -9l-12 -24l24 -36l34 -68h15l42 67l30 33l-14 27l-27 10v48h202v-61l-58 -16l-134 -164l147 -205l54 -15v-61h-262v48l24 9l13 24l-31 46l-35 68h-15l-44 -67l-34 -43l14 -27l27 -10v-48z" />
    <glyph glyph-name="y" unicode="y" horiz-adv-x="558" 
d="M505 442l-157 -420q-41 -110 -89 -158.5t-115 -48.5q-43 0 -69.5 20t-26.5 50q0 26 21 45.5t48 21.5l69 -57q23 13 37.5 34t20.5 51l-190 462l-52 19v61h266v-53l-42 -13l-10 -33l64 -183l21 -108h17l23 108l56 188l-15 30l-31 11v53h205v-61z" />
    <glyph glyph-name="z" unicode="z" horiz-adv-x="532" 
d="M488 0h-450v78l212 278l69 80l-6 16l-106 -4h-21l-45 -30l-11 -80h-75v184h433v-78l-212 -278l-69 -80l6 -16l106 4h38l45 30l11 87h75v-191z" />
    <glyph glyph-name="braceleft" unicode="{" horiz-adv-x="481" 
d="M448 -120v-49l-117 10q-100 9 -145 44t-45 104q0 16 4.5 36t18.5 62q14 41 18 59.5t4 32.5q0 31 -25.5 51t-126.5 60v38q101 40 126.5 60t25.5 51q0 14 -4 33t-18 60q-14 42 -18.5 62t-4.5 35q0 69 45 104.5t145 43.5l117 10v-49l-85 -17q-48 -9 -68 -26.5t-20 -50.5
q0 -10 3.5 -26t16.5 -55q15 -49 20 -72t5 -39q0 -36 -42.5 -65t-168.5 -77v-5q127 -47 169 -75t42 -64q0 -16 -5 -39t-20 -72q-13 -39 -16.5 -55t-3.5 -26q0 -33 20 -50.5t68 -26.5z" />
    <glyph glyph-name="bar" unicode="|" horiz-adv-x="300" 
d="M183 -176h-66v970h66v-970z" />
    <glyph glyph-name="braceright" unicode="}" horiz-adv-x="481" 
d="M33 738v49l117 -10q100 -9 145 -44t45 -104q0 -16 -4.5 -36t-18.5 -62q-14 -41 -18 -59.5t-4 -32.5q0 -31 25.5 -51t126.5 -60v-38q-101 -40 -126.5 -60t-25.5 -51q0 -14 4 -33t18 -60q14 -42 18.5 -62t4.5 -35q0 -69 -45 -104.5t-145 -43.5l-117 -10v49l85 17
q48 9 68 26.5t20 50.5q0 10 -3.5 26t-16.5 55q-15 49 -20 72t-5 39q0 36 42.5 65t168.5 77v5q-127 47 -169 75t-42 64q0 16 5 39t20 72q13 39 16.5 55t3.5 26q0 33 -20 50.5t-68 26.5z" />
    <glyph glyph-name="asciitilde" unicode="~" horiz-adv-x="540" 
d="M165 464q29 0 57.5 -17.5t75.5 -71.5q32 -37 46.5 -47.5t27.5 -10.5q22 0 32.5 37t10.5 114h76q0 -122 -28.5 -179t-87.5 -57q-29 0 -57.5 17.5t-75.5 71.5q-32 37 -46.5 47.5t-27.5 10.5q-22 0 -32.5 -37t-10.5 -114h-76q0 122 28.5 179t87.5 57z" />
    <glyph glyph-name="uni00A0" unicode="&#xa0;" horiz-adv-x="196" 
 />
    <glyph glyph-name="exclamdown" unicode="&#xa1;" horiz-adv-x="310" 
d="M129 444h52l55 -270q6 -27 8.5 -52.5t2.5 -51.5q0 -42 -22 -61t-70 -19t-70 19t-22 61q0 26 2.5 51.5t8.5 52.5zM60 615q0 40 27.5 67.5t67.5 27.5t67.5 -27.5t27.5 -67.5t-27.5 -67.5t-67.5 -27.5t-67.5 27.5t-27.5 67.5z" />
    <glyph glyph-name="cent" unicode="&#xa2;" horiz-adv-x="534" 
d="M467 219l35 -61q-51 -39 -102.5 -59.5t-105.5 -23.5l-11 -123h-58l11 126q-93 15 -147 84.5t-54 180.5q0 118 69.5 197.5t179.5 89.5l9 99h58l-9 -99q73 -7 119.5 -43t46.5 -85q0 -37 -20 -60t-49 -23q-23 0 -40 10t-26 30l18 74q-12 9 -27 14t-33 7l-33 -390h12
q39 0 76 13t81 42zM183 327q0 -58 16.5 -95.5t49.5 -54.5l32 372q-45 -16 -71.5 -76t-26.5 -146z" />
    <glyph glyph-name="sterling" unicode="&#xa3;" horiz-adv-x="581" 
d="M465 248h74v-248h-490l-25 94l41 31q53 40 70.5 66.5t17.5 62.5q0 13 -3.5 28t-10.5 35h-110v75h78q-14 36 -19.5 62t-5.5 50q0 88 70 146t178 58q92 0 150.5 -40t58.5 -102q0 -38 -23 -63t-55 -25q-24 0 -42.5 10t-31.5 29l24 96q-15 9 -33 13t-43 4q-44 0 -73.5 -26
t-29.5 -66q0 -22 7 -48.5t36 -97.5h178v-75h-154q2 -7 2.5 -14.5t0.5 -15.5q0 -45 -21 -77t-82 -70l-41 -26l5 -14l94 17h114l71 15z" />
    <glyph glyph-name="yen" unicode="&#xa5;" horiz-adv-x="632" 
d="M417 80l66 -10v-70h-332v70l66 10l23 43v92h-191v62h191v9l-46 80h-145v62h110l-103 181l-54 15v70h300v-62l-48 -17l-10 -32l67 -129l30 -78h24l29 78l59 123l-11 35l-44 20v62h223v-70l-54 -17l-97 -179h114v-62h-148l-42 -78v-11h190v-62h-190v-92z" />
    <glyph glyph-name="section" unicode="&#xa7;" horiz-adv-x="605" 
d="M514 -18q0 -75 -62.5 -122.5t-156.5 -47.5q-96 0 -160.5 38t-64.5 96q0 33 20.5 54t50.5 21q23 0 41.5 -8.5t32.5 -26.5v-90q17 -10 37 -13.5t51 -3.5q39 0 64.5 20t25.5 51q0 37 -33 60.5t-127 57.5q-120 43 -160.5 81t-40.5 102q0 54 43 97.5t104 53.5v5
q-44 25 -66 58.5t-22 74.5q0 75 62.5 122.5t156.5 47.5q96 0 160.5 -37.5t64.5 -95.5q0 -32 -21 -53t-50 -21q-23 0 -41.5 8.5t-32.5 26.5v88q-16 9 -37 13t-51 4q-39 0 -64.5 -20t-25.5 -51q0 -38 32 -61t128 -57q122 -44 161.5 -81.5t39.5 -100.5q0 -54 -43 -98t-104 -54
v-4q43 -25 65.5 -59t22.5 -75zM265 185q36 -15 61 -21t52 -6q33 0 56 22t23 53q0 34 -22.5 54t-94.5 50q-36 15 -61 21t-52 6q-33 0 -56 -22t-23 -53q0 -34 22.5 -54t94.5 -50z" />
    <glyph glyph-name="dieresis" unicode="&#xa8;" horiz-adv-x="500" 
d="M66 593zM434 672q0 -34 -21.5 -56.5t-54.5 -22.5t-54.5 21.5t-21.5 55.5t21.5 57t54.5 23t54.5 -22t21.5 -56zM218 672q0 -34 -21.5 -56.5t-54.5 -22.5t-54.5 21.5t-21.5 55.5t21.5 57t54.5 23t54.5 -22t21.5 -56z" />
    <glyph glyph-name="copyright" unicode="&#xa9;" horiz-adv-x="864" 
d="M820 348q0 -168 -111 -281t-277 -113t-277 113t-111 281q0 167 111 279.5t277 112.5t277 -112.5t111 -279.5zM85 346q0 -153 98.5 -255t248.5 -102t248.5 102t98.5 255q0 154 -98.5 256.5t-248.5 102.5t-248.5 -102.5t-98.5 -256.5zM589 293v-104q-28 -20 -67 -32.5
t-74 -12.5q-97 0 -155.5 55.5t-58.5 149.5q0 91 60 151.5t149 60.5q24 0 44 -4.5t42 -16.5l32 20h25v-148h-56l-27 82q-12 8 -25 11t-30 3q-45 0 -71 -42t-26 -114q0 -76 27.5 -115.5t79.5 -39.5q11 0 22 2.5t25 7.5l28 86h56z" />
    <glyph glyph-name="ordfeminine" unicode="&#xaa;" horiz-adv-x="444" 
d="M411 378v-30l-74 -17q-29 5 -48 22.5t-23 41.5h-5q-26 -35 -52 -49.5t-59 -14.5q-48 0 -77 28t-29 74q0 20 7.5 38t21.5 32q20 20 57.5 29.5t92.5 9.5h38v35q0 36 -18 54t-55 18q-10 0 -19 -1.5t-18 -5.5l14 -45q-10 -14 -23.5 -21t-30.5 -7q-22 0 -35.5 12t-13.5 32
q0 18 13.5 34t38.5 29q27 14 58 21t62 7q63 0 96 -28.5t33 -83.5v-165q0 -20 9.5 -30.5t38.5 -18.5zM261 465v36h-24q-46 0 -69.5 -14.5t-23.5 -42.5q0 -23 13 -36.5t35 -13.5q14 0 28 6t24 16q8 8 12.5 20.5t4.5 28.5zM399 204h-352v61h352v-61z" />
    <glyph glyph-name="guillemotleft" unicode="&#xab;" horiz-adv-x="555" 
d="M279 69l-52 -35l-198 207v52l198 207l52 -35l-122 -198zM506 69l-52 -35l-198 207v52l198 207l52 -35l-122 -198z" />
    <glyph glyph-name="uni00AD" unicode="&#xad;" horiz-adv-x="360" 
d="M41 221zM319 221h-278v130h278v-130z" />
    <glyph glyph-name="registered" unicode="&#xae;" horiz-adv-x="568" 
d="M509 500q0 -94 -64 -156t-162 -62t-161 62t-63 156t63.5 156t162.5 62q98 0 161 -62t63 -156zM86 499q0 -85 55 -139t143 -54t143 54t55 139q0 86 -55 140.5t-143 54.5t-143 -54.5t-55 -140.5zM287 390h-115v22l20 3l8 14v147l-8 13l-20 3v23h114q52 0 79 -15t27 -44
q0 -25 -19.5 -40.5t-60.5 -22.5v-6q26 -4 39 -11.5t21 -23.5l16 -32l28 -9v-21h-87l-4 23l-22 43q-6 13 -14 18.5t-21 5.5h-8v-55l7 -12l20 -4v-19zM259 588v-82h21q22 0 34.5 12t12.5 34q0 18 -11.5 27t-35.5 9h-21z" />
    <glyph glyph-name="macron" unicode="&#xaf;" horiz-adv-x="500" 
d="M96 611zM404 611h-308v82h308v-82z" />
    <glyph glyph-name="degree" unicode="&#xb0;" horiz-adv-x="434" 
d="M403 524q0 -78 -54.5 -132t-132.5 -54t-131.5 54t-53.5 132t54.5 132t132.5 54t131.5 -54t53.5 -132zM119 524q0 -49 27.5 -80.5t70.5 -31.5t70.5 31.5t27.5 80.5t-27.5 80.5t-70.5 31.5t-70.5 -31.5t-27.5 -80.5z" />
    <glyph glyph-name="plusminus" unicode="&#xb1;" horiz-adv-x="540" 
d="M310 145h-80v188h-189v78h189v188h80v-188h189v-78h-189v-188zM491 0h-442v76h442v-76z" />
    <glyph glyph-name="two.sup" unicode="&#xb2;" horiz-adv-x="422" 
d="M52 447zM307 592h51v-145h-306v15q0 61 23.5 99t81.5 75q63 40 78 58t15 48q0 25 -16.5 41t-42.5 16q-17 0 -31 -4.5t-25 -12.5l24 -55q-5 -15 -19.5 -24.5t-30.5 -9.5q-22 0 -36.5 15t-14.5 38q0 43 45 74.5t108 31.5q62 0 101.5 -31.5t39.5 -81.5q0 -42 -21.5 -67
t-92.5 -60q-50 -24 -77 -48t-31 -47h122l40 8z" />
    <glyph glyph-name="three.sup" unicode="&#xb3;" horiz-adv-x="410" 
d="M43 439zM356 553q0 -50 -48 -82t-119 -32q-59 0 -102.5 24.5t-43.5 57.5q0 20 13.5 33t34.5 13q19 0 33 -10t18 -24l-10 -34q12 -6 24 -8.5t30 -2.5q32 0 50.5 18t18.5 50q0 36 -24.5 52.5t-78.5 16.5h-21v51h18q49 0 74 17.5t25 51.5q0 26 -17 42t-43 16q-16 0 -28 -2.5
t-23 -8.5l13 -33q-3 -16 -16.5 -26t-32.5 -10q-20 0 -33 11.5t-13 29.5q0 36 44.5 62t101.5 26q65 0 106.5 -27.5t41.5 -73.5q0 -38 -26 -61.5t-81 -33.5v-6q59 -9 86.5 -32.5t27.5 -64.5z" />
    <glyph glyph-name="acute" unicode="&#xb4;" horiz-adv-x="500" 
d="M161 584zM314 694l-113 -110l-40 23l62 156q13 34 27.5 47.5t37.5 13.5q25 0 46 -18.5t21 -42.5q0 -16 -8 -30t-33 -39z" />
    <glyph glyph-name="uni00B5" unicode="&#xb5;" horiz-adv-x="585" 
d="M223 -10q-34 0 -59 17t-49 55l-9 -4l34 -139l62 -20v-43q-11 -21 -32 -33t-47 -12q-41 0 -63 24t-22 69q0 16 2 34t9 54q10 55 13.5 91t3.5 76v363h144v-354q0 -31 14 -47.5t39 -16.5q17 0 32.5 6t27.5 18q20 20 28 50t8 80v264h144v-393q0 -31 13 -46t53 -27v-43
l-103 -26q-45 9 -69 36t-24 70q0 5 0.5 11.5t1.5 14.5l-11 4q-23 -65 -59 -99t-82 -34z" />
    <glyph glyph-name="paragraph" unicode="&#xb6;" horiz-adv-x="571" 
d="M348 0h-59v295q-127 7 -198 59.5t-71 142.5q0 95 70 146t198 51h261v-70l-58 -10l-23 -43v-571h-59v611h-61v-611z" />
    <glyph glyph-name="periodcentered" unicode="&#xb7;" horiz-adv-x="290" 
d="M244 286q0 -41 -29 -70t-70 -29t-70 29t-29 70t29 70t70 29t70 -29t29 -70z" />
    <glyph glyph-name="cedilla" unicode="&#xb8;" horiz-adv-x="500" 
d="M125 0zM381 -151q0 -47 -37 -74.5t-98 -27.5q-30 0 -58.5 8t-62.5 27l20 37q24 -12 46 -18t42 -6q26 0 40.5 11.5t14.5 30.5q0 23 -20 33.5t-64 10.5h-16l-19 25l78 112h54l-56 -83q65 1 100.5 -21.5t35.5 -64.5z" />
    <glyph glyph-name="one.sup" unicode="&#xb9;" horiz-adv-x="335" 
d="M47 447zM293 447h-236v42l62 6l13 24v226l-13 24l-72 -6v40l164 43l15 -15v-312l13 -24l54 -6v-42z" />
    <glyph glyph-name="ordmasculine" unicode="&#xba;" horiz-adv-x="452" 
d="M415 520q0 -82 -53.5 -136t-135.5 -54q-86 0 -137.5 51t-51.5 135q0 82 53.5 136t135.5 54q86 0 137.5 -51t51.5 -135zM153 525q0 -68 20 -103.5t58 -35.5q34 0 51 31.5t17 93.5q0 68 -20 103.5t-58 35.5q-34 0 -51 -31.5t-17 -93.5zM402 204h-352v61h352v-61z" />
    <glyph glyph-name="guillemotright" unicode="&#xbb;" horiz-adv-x="555" 
d="M299 241l-198 -207l-52 35l122 198l-122 198l52 35l198 -207v-52zM526 241l-198 -207l-52 35l122 198l-122 198l52 35l198 -207v-52z" />
    <glyph glyph-name="onequarter" unicode="&#xbc;" horiz-adv-x="891" 
d="M47 0zM47 297zM293 297h-236v42l62 6l13 24v226l-13 24l-72 -6v40l164 43l15 -15v-312l13 -24l54 -6v-42zM240 -18h-75l237 378l210 352h75l-237 -378zM835 0h-207v42l48 6l14 21v40h-194v42l166 248h115v-242h73v-48h-73v-39l14 -22l44 -6v-42zM560 159l4 -9l48 7h79
v100l9 81l-16 3l-29 -51l-69 -106z" />
    <glyph glyph-name="onehalf" unicode="&#xbd;" horiz-adv-x="899" 
d="M47 0zM47 297zM293 297h-236v42l62 6l13 24v226l-13 24l-72 -6v40l164 43l15 -15v-312l13 -24l54 -6v-42zM240 -18h-75l237 378l210 352h75l-237 -378zM784 145h51v-145h-306v15q0 61 23.5 99t81.5 75q63 40 78 58t15 48q0 25 -16.5 41t-42.5 16q-17 0 -31 -4.5
t-25 -12.5l24 -55q-5 -15 -19.5 -24.5t-30.5 -9.5q-22 0 -36.5 15t-14.5 38q0 43 45 74.5t108 31.5q62 0 101.5 -31.5t39.5 -81.5q0 -42 -21.5 -67t-92.5 -60q-50 -24 -77 -48t-31 -47h122l40 8z" />
    <glyph glyph-name="threequarters" unicode="&#xbe;" horiz-adv-x="926" 
d="M43 0zM43 289zM356 403q0 -50 -48 -82t-119 -32q-59 0 -102.5 24.5t-43.5 57.5q0 20 13.5 33t34.5 13q19 0 33 -10t18 -24l-10 -34q12 -6 24 -8.5t30 -2.5q32 0 50.5 18t18.5 50q0 36 -24.5 52.5t-78.5 16.5h-21v51h18q49 0 74 17.5t25 51.5q0 26 -17 42t-43 16
q-16 0 -28 -2.5t-23 -8.5l13 -33q-3 -16 -16.5 -26t-32.5 -10q-20 0 -33 11.5t-13 29.5q0 36 44.5 62t101.5 26q65 0 106.5 -27.5t41.5 -73.5q0 -38 -26 -61.5t-81 -33.5v-6q59 -9 86.5 -32.5t27.5 -64.5zM275 -18h-75l237 378l210 352h75l-237 -378zM870 0h-207v42l48 6
l14 21v40h-194v42l166 248h115v-242h73v-48h-73v-39l14 -22l44 -6v-42zM595 159l4 -9l48 7h79v100l9 81l-16 3l-29 -51l-69 -106z" />
    <glyph glyph-name="questiondown" unicode="&#xbf;" horiz-adv-x="520" 
d="M36 158q0 43 21.5 77t72.5 68q34 23 54 37.5t27 19.5q22 18 31.5 36.5t12.5 47.5h70q21 -49 9 -89.5t-59 -80.5q-51 -44 -63.5 -66.5t-12.5 -54.5q0 -40 25 -62.5t66 -22.5q24 0 43.5 6t35.5 19l-38 79q6 22 28.5 38.5t48.5 16.5q33 0 55 -26t22 -68q0 -63 -64 -105.5
t-158 -42.5q-100 0 -163.5 46.5t-63.5 126.5zM195 615q0 40 27.5 67.5t67.5 27.5t67.5 -27.5t27.5 -67.5t-27.5 -67.5t-67.5 -27.5t-67.5 27.5t-27.5 67.5z" />
    <glyph glyph-name="Agrave" unicode="&#xc0;" horiz-adv-x="708" 
d="M0 0zM198 85l44 -18v-67h-242v70l63 23l201 606h180l199 -605l65 -24v-70h-313v67l53 15l16 41l-24 79h-234l-27 -85zM311 576l-29 -130l-49 -156h179l-48 156l-29 130h-24zM410 781l-33 -33l-118 65q-45 25 -62 43.5t-17 40.5q0 25 19 44t43 19q21 0 40.5 -15t47.5 -54z
" />
    <glyph glyph-name="Aacute" unicode="&#xc1;" horiz-adv-x="708" 
d="M0 0zM198 85l44 -18v-67h-242v70l63 23l201 606h180l199 -605l65 -24v-70h-313v67l53 15l16 41l-24 79h-234l-27 -85zM311 576l-29 -130l-49 -156h179l-48 156l-29 130h-24zM441 813l-118 -65l-33 33l80 110q28 39 47.5 54t40.5 15q24 0 43 -19t19 -44q0 -22 -17 -40.5
t-62 -43.5z" />
    <glyph glyph-name="Acircumflex" unicode="&#xc2;" horiz-adv-x="708" 
d="M0 0zM198 85l44 -18v-67h-242v70l63 23l201 606h180l199 -605l65 -24v-70h-313v67l53 15l16 41l-24 79h-234l-27 -85zM311 576l-29 -130l-49 -156h179l-48 156l-29 130h-24zM348 822l-138 -86l-29 29l127 164h85l126 -164l-29 -29z" />
    <glyph glyph-name="Atilde" unicode="&#xc3;" horiz-adv-x="708" 
d="M0 0zM198 85l44 -18v-67h-242v70l63 23l201 606h180l199 -605l65 -24v-70h-313v67l53 15l16 41l-24 79h-234l-27 -85zM311 576l-29 -130l-49 -156h179l-48 156l-29 130h-24zM266 820q-16 0 -28 -14t-30 -55l-58 21q25 84 53 117t70 33q16 0 36.5 -7t60.5 -29
q32 -16 45 -21t22 -5q16 0 28 14.5t31 55.5l58 -21q-26 -85 -54 -118t-70 -33q-16 0 -36.5 7t-61.5 29q-31 16 -44 21t-22 5z" />
    <glyph glyph-name="Adieresis" unicode="&#xc4;" horiz-adv-x="708" 
d="M0 0zM198 85l44 -18v-67h-242v70l63 23l201 606h180l199 -605l65 -24v-70h-313v67l53 15l16 41l-24 79h-234l-27 -85zM311 576l-29 -130l-49 -156h179l-48 156l-29 130h-24zM542 831q0 -36 -22 -59t-57 -23q-34 0 -56.5 22.5t-22.5 57.5t22.5 59t56.5 24t56.5 -23
t22.5 -58zM316 831q0 -36 -22.5 -59t-56.5 -23t-56.5 22.5t-22.5 57.5t22.5 59t56.5 24t56.5 -23t22.5 -58z" />
    <glyph glyph-name="Aring" unicode="&#xc5;" horiz-adv-x="708" 
d="M198 85l44 -18v-67h-242v70l63 23l193 584q-18 16 -28 37t-10 45q0 49 38.5 82t93.5 33t93.5 -33t38.5 -82q0 -23 -8.5 -42t-24.5 -35l194 -588l65 -24v-70h-313v67l53 15l16 41l-24 79h-234l-27 -85zM274 759q0 -29 21.5 -48.5t54.5 -19.5t54.5 19.5t21.5 48.5
t-21.5 48.5t-54.5 19.5t-54.5 -19.5t-21.5 -48.5zM311 576l-29 -130l-49 -156h179l-48 156l-29 130h-24z" />
    <glyph glyph-name="AE" unicode="&#xc6;" horiz-adv-x="995" 
d="M190 85l44 -18v-67h-243v70l63 23l254 485l-19 36l-68 10v70h725v-214h-84l-14 91l-61 40h-162v-216h54l64 14l5 70h60v-250h-60l-5 70l-64 14h-54v-230h175l61 40l14 101h84v-224h-567v67l53 15l16 41v79h-238l-43 -85zM419 616l-49 -125l-102 -201h193v326h-42z" />
    <glyph glyph-name="Ccedilla" unicode="&#xc7;" horiz-adv-x="659" 
d="M481 -151q0 -47 -37 -74.5t-98 -27.5q-30 0 -58.5 8t-62.5 27l20 37q24 -12 46 -18t42 -6q26 0 40.5 11.5t14.5 30.5q0 23 -20 33.5t-64 10.5h-16l-19 25l56 81q-133 16 -211 110.5t-78 242.5q0 159 95.5 264t235.5 105q38 0 69.5 -8t67.5 -29l50 35h40v-252h-84l-43 139
q-20 16 -41.5 22.5t-51.5 6.5q-72 0 -114.5 -75t-42.5 -203q0 -135 44.5 -205t129.5 -70q21 0 40.5 5t37.5 15l46 148h84v-176q-45 -34 -106.5 -56t-114.5 -22l-33 -49q65 1 100.5 -21.5t35.5 -64.5z" />
    <glyph glyph-name="Egrave" unicode="&#xc8;" horiz-adv-x="638" 
d="M23 0zM602 0h-579v70l58 10l23 43v448l-23 43l-58 10v70h566v-214h-84l-14 91l-61 40h-162v-216h54l64 14l5 70h60v-250h-60l-5 70l-64 14h-54v-230h175l61 40l14 101h84v-224zM388 776l-33 -33l-118 65q-45 25 -62 43.5t-17 40.5q0 25 19 44t43 19q21 0 40.5 -15
t47.5 -54z" />
    <glyph glyph-name="Eacute" unicode="&#xc9;" horiz-adv-x="638" 
d="M23 0zM602 0h-579v70l58 10l23 43v448l-23 43l-58 10v70h566v-214h-84l-14 91l-61 40h-162v-216h54l64 14l5 70h60v-250h-60l-5 70l-64 14h-54v-230h175l61 40l14 101h84v-224zM419 808l-118 -65l-33 33l80 110q28 39 47.5 54t40.5 15q24 0 43 -19t19 -44
q0 -22 -17 -40.5t-62 -43.5z" />
    <glyph glyph-name="Ecircumflex" unicode="&#xca;" horiz-adv-x="638" 
d="M23 0zM602 0h-579v70l58 10l23 43v448l-23 43l-58 10v70h566v-214h-84l-14 91l-61 40h-162v-216h54l64 14l5 70h60v-250h-60l-5 70l-64 14h-54v-230h175l61 40l14 101h84v-224zM326 822l-138 -86l-29 29l127 164h85l126 -164l-29 -29z" />
    <glyph glyph-name="Edieresis" unicode="&#xcb;" horiz-adv-x="638" 
d="M23 0zM602 0h-579v70l58 10l23 43v448l-23 43l-58 10v70h566v-214h-84l-14 91l-61 40h-162v-216h54l64 14l5 70h60v-250h-60l-5 70l-64 14h-54v-230h175l61 40l14 101h84v-224zM520 826q0 -36 -22 -59t-57 -23q-34 0 -56.5 22.5t-22.5 57.5t22.5 59t56.5 24t56.5 -23
t22.5 -58zM294 826q0 -36 -22.5 -59t-56.5 -23t-56.5 22.5t-22.5 57.5t22.5 59t56.5 24t56.5 -23t22.5 -58z" />
    <glyph glyph-name="Igrave" unicode="&#xcc;" horiz-adv-x="384" 
d="M22 0zM359 0h-334v70l62 10l23 43v448l-23 43l-62 10v70h334v-70l-62 -10l-23 -43v-448l23 -43l62 -10v-70zM252 776l-33 -33l-118 65q-45 25 -62 43.5t-17 40.5q0 25 19 44t43 19q21 0 40.5 -15t47.5 -54z" />
    <glyph glyph-name="Iacute" unicode="&#xcd;" horiz-adv-x="384" 
d="M25 0zM359 0h-334v70l62 10l23 43v448l-23 43l-62 10v70h334v-70l-62 -10l-23 -43v-448l23 -43l62 -10v-70zM283 808l-118 -65l-33 33l80 110q28 39 47.5 54t40.5 15q24 0 43 -19t19 -44q0 -22 -17 -40.5t-62 -43.5z" />
    <glyph glyph-name="Icircumflex" unicode="&#xce;" horiz-adv-x="384" 
d="M23 0zM359 0h-334v70l62 10l23 43v448l-23 43l-62 10v70h334v-70l-62 -10l-23 -43v-448l23 -43l62 -10v-70zM190 822l-138 -86l-29 29l127 164h85l126 -164l-29 -29z" />
    <glyph glyph-name="Idieresis" unicode="&#xcf;" horiz-adv-x="384" 
d="M0 0zM359 0h-334v70l62 10l23 43v448l-23 43l-62 10v70h334v-70l-62 -10l-23 -43v-448l23 -43l62 -10v-70zM384 826q0 -36 -22 -59t-57 -23q-34 0 -56.5 22.5t-22.5 57.5t22.5 59t56.5 24t56.5 -23t22.5 -58zM158 826q0 -36 -22.5 -59t-56.5 -23t-56.5 22.5t-22.5 57.5
t22.5 59t56.5 24t56.5 -23t22.5 -58z" />
    <glyph glyph-name="Eth" unicode="&#xd0;" horiz-adv-x="708" 
d="M672 367q0 -173 -96.5 -270t-265.5 -97h-287v70l58 10l23 43v187h-77v88h77v173l-23 43l-58 10v70h311q160 0 249 -85.5t89 -241.5zM268 310v-227h43q96 0 140 63.5t44 199.5t-45 200.5t-141 64.5h-41v-213h124v-88h-124z" />
    <glyph glyph-name="Ntilde" unicode="&#xd1;" horiz-adv-x="729" 
d="M23 0zM291 0h-268v70l58 10l23 43v448l-23 43l-58 10v70h285l175 -366l41 -130h24l-16 144v239l-22 41l-62 11v61h263v-70l-53 -10l-23 -43v-571h-169l-209 433l-42 130h-24l16 -144v-306l22 -41l62 -11v-61zM292 815q-16 0 -28 -14t-30 -55l-58 21q25 84 53 117t70 33
q16 0 36.5 -7t60.5 -29q32 -16 45 -21t22 -5q16 0 28 14.5t31 55.5l58 -21q-26 -85 -54 -118t-70 -33q-16 0 -36.5 7t-61.5 29q-31 16 -44 21t-22 5z" />
    <glyph glyph-name="Ograve" unicode="&#xd2;" horiz-adv-x="730" 
d="M36 0zM694 349q0 -161 -91.5 -263t-238.5 -102t-237.5 100.5t-90.5 260.5q0 161 91.5 263t238.5 102t237.5 -100.5t90.5 -260.5zM217 349q0 -138 38 -210t111 -72t110 70t37 208t-38 210t-111 72t-110 -70t-37 -208zM425 781l-33 -33l-118 65q-45 25 -62 43.5t-17 40.5
q0 25 19 44t43 19q21 0 40.5 -15t47.5 -54z" />
    <glyph glyph-name="Oacute" unicode="&#xd3;" horiz-adv-x="730" 
d="M36 0zM694 349q0 -161 -91.5 -263t-238.5 -102t-237.5 100.5t-90.5 260.5q0 161 91.5 263t238.5 102t237.5 -100.5t90.5 -260.5zM217 349q0 -138 38 -210t111 -72t110 70t37 208t-38 210t-111 72t-110 -70t-37 -208zM456 813l-118 -65l-33 33l80 110q28 39 47.5 54
t40.5 15q24 0 43 -19t19 -44q0 -22 -17 -40.5t-62 -43.5z" />
    <glyph glyph-name="Ocircumflex" unicode="&#xd4;" horiz-adv-x="730" 
d="M36 0zM694 349q0 -161 -91.5 -263t-238.5 -102t-237.5 100.5t-90.5 260.5q0 161 91.5 263t238.5 102t237.5 -100.5t90.5 -260.5zM217 349q0 -138 38 -210t111 -72t110 70t37 208t-38 210t-111 72t-110 -70t-37 -208zM363 827l-138 -86l-29 29l127 164h85l126 -164
l-29 -29z" />
    <glyph glyph-name="Otilde" unicode="&#xd5;" horiz-adv-x="730" 
d="M36 0zM694 349q0 -161 -91.5 -263t-238.5 -102t-237.5 100.5t-90.5 260.5q0 161 91.5 263t238.5 102t237.5 -100.5t90.5 -260.5zM217 349q0 -138 38 -210t111 -72t110 70t37 208t-38 210t-111 72t-110 -70t-37 -208zM281 820q-16 0 -28 -14t-30 -55l-58 21q25 84 53 117
t70 33q16 0 36.5 -7t60.5 -29q32 -16 45 -21t22 -5q16 0 28 14.5t31 55.5l58 -21q-26 -85 -54 -118t-70 -33q-16 0 -36.5 7t-61.5 29q-31 16 -44 21t-22 5z" />
    <glyph glyph-name="Odieresis" unicode="&#xd6;" horiz-adv-x="730" 
d="M36 0zM694 349q0 -161 -91.5 -263t-238.5 -102t-237.5 100.5t-90.5 260.5q0 161 91.5 263t238.5 102t237.5 -100.5t90.5 -260.5zM217 349q0 -138 38 -210t111 -72t110 70t37 208t-38 210t-111 72t-110 -70t-37 -208zM557 831q0 -36 -22 -59t-57 -23q-34 0 -56.5 22.5
t-22.5 57.5t22.5 59t56.5 24t56.5 -23t22.5 -58zM331 831q0 -36 -22.5 -59t-56.5 -23t-56.5 22.5t-22.5 57.5t22.5 59t56.5 24t56.5 -23t22.5 -58z" />
    <glyph glyph-name="multiply" unicode="&#xd7;" horiz-adv-x="540" 
d="M270 293l-149 -151l-55 55l151 149l-151 149l55 55l149 -151l149 151l55 -55l-151 -149l151 -149l-55 -55z" />
    <glyph glyph-name="Oslash" unicode="&#xd8;" horiz-adv-x="730" 
d="M694 349q0 -161 -91.5 -263t-238.5 -102q-56 0 -105.5 15.5t-90.5 46.5l-51 -62h-111l103 122q-36 47 -54.5 108t-18.5 131q0 161 91.5 263t238.5 102q53 0 101 -14.5t88 -42.5l48 57h111l-98 -116q38 -48 58 -110.5t20 -134.5zM363 629q-75 0 -112.5 -69.5t-37.5 -209.5
q0 -37 2.5 -67.5t7.5 -57.5l256 330q-19 37 -48 55.5t-68 18.5zM367 65q75 0 112.5 69.5t37.5 209.5q0 38 -3 71.5t-9 62.5l-258 -332q19 -41 49 -61t71 -20z" />
    <glyph glyph-name="Ugrave" unicode="&#xd9;" horiz-adv-x="713" 
d="M15 0zM361 -15q-127 0 -196 61.5t-69 175.5v349l-23 43l-58 10v70h329v-61l-62 -11l-22 -41v-366q0 -63 32 -95.5t94 -32.5q61 0 93.5 33t32.5 95v366l-22 41l-62 11v61h270v-70l-58 -10l-23 -43v-344q0 -117 -67 -179.5t-189 -62.5zM445 776l-33 -33l-118 65
q-45 25 -62 43.5t-17 40.5q0 25 19 44t43 19q21 0 40.5 -15t47.5 -54z" />
    <glyph glyph-name="Uacute" unicode="&#xda;" horiz-adv-x="713" 
d="M15 0zM361 -15q-127 0 -196 61.5t-69 175.5v349l-23 43l-58 10v70h329v-61l-62 -11l-22 -41v-366q0 -63 32 -95.5t94 -32.5q61 0 93.5 33t32.5 95v366l-22 41l-62 11v61h270v-70l-58 -10l-23 -43v-344q0 -117 -67 -179.5t-189 -62.5zM476 808l-118 -65l-33 33l80 110
q28 39 47.5 54t40.5 15q24 0 43 -19t19 -44q0 -22 -17 -40.5t-62 -43.5z" />
    <glyph glyph-name="Ucircumflex" unicode="&#xdb;" horiz-adv-x="713" 
d="M15 0zM361 -15q-127 0 -196 61.5t-69 175.5v349l-23 43l-58 10v70h329v-61l-62 -11l-22 -41v-366q0 -63 32 -95.5t94 -32.5q61 0 93.5 33t32.5 95v366l-22 41l-62 11v61h270v-70l-58 -10l-23 -43v-344q0 -117 -67 -179.5t-189 -62.5zM383 822l-138 -86l-29 29l127 164h85
l126 -164l-29 -29z" />
    <glyph glyph-name="Udieresis" unicode="&#xdc;" horiz-adv-x="713" 
d="M15 0zM361 -15q-127 0 -196 61.5t-69 175.5v349l-23 43l-58 10v70h329v-61l-62 -11l-22 -41v-366q0 -63 32 -95.5t94 -32.5q61 0 93.5 33t32.5 95v366l-22 41l-62 11v61h270v-70l-58 -10l-23 -43v-344q0 -117 -67 -179.5t-189 -62.5zM577 826q0 -36 -22 -59t-57 -23
q-34 0 -56.5 22.5t-22.5 57.5t22.5 59t56.5 24t56.5 -23t22.5 -58zM351 826q0 -36 -22.5 -59t-56.5 -23t-56.5 22.5t-22.5 57.5t22.5 59t56.5 24t56.5 -23t22.5 -58z" />
    <glyph glyph-name="Yacute" unicode="&#xdd;" horiz-adv-x="648" 
d="M0 0zM501 0h-346v70l68 10l23 43v163l-193 323l-54 15v70h311v-62l-48 -17l-10 -32l71 -129l30 -78h24l29 78l65 123l-11 35l-44 20v62h234v-70l-54 -17l-186 -319v-165l23 -43l68 -10v-70zM450 808l-118 -65l-33 33l80 110q28 39 47.5 54t40.5 15q24 0 43 -19t19 -44
q0 -22 -17 -40.5t-62 -43.5z" />
    <glyph glyph-name="Thorn" unicode="&#xde;" horiz-adv-x="646" 
d="M265 145v-34l16 -31l85 -10v-70h-343v70l58 10l23 43v448l-23 43l-58 10v70h343v-70l-85 -10l-16 -31v-30h53q158 0 234 -48t76 -145q0 -105 -86 -160t-247 -55h-30zM265 470v-243h34q83 0 116.5 28.5t33.5 100.5q0 60 -32 87t-104 27h-48z" />
    <glyph glyph-name="germandbls" unicode="&#xdf;" horiz-adv-x="637" 
d="M608 189q0 -89 -58.5 -143t-151.5 -54q-29 0 -53 4t-48 13v151h68l23 -100q1 -1 2.5 -1h4.5q31 0 46.5 30.5t15.5 90.5q0 71 -31.5 112.5t-115.5 68.5v61q45 26 64.5 63t19.5 93q0 53 -20 79.5t-60 26.5t-59 -33.5t-19 -103.5v-547h-215v61l48 10l23 43v324h-74v71l74 15
v7q0 107 60 163.5t175 56.5q100 0 160 -44t60 -120q0 -65 -38.5 -111t-114.5 -72v-10q110 -18 162 -69t52 -136z" />
    <glyph glyph-name="agrave" unicode="&#xe0;" horiz-adv-x="560" 
d="M35 0zM544 56v-43l-103 -26q-40 7 -66 32.5t-32 62.5h-7q-36 -51 -72 -72.5t-83 -21.5q-66 0 -106 41t-40 109q0 30 10.5 55.5t30.5 45.5q28 28 79.5 42t127.5 14h53v56q0 53 -25 79t-76 26q-16 0 -28.5 -2t-23.5 -7l20 -69q-15 -21 -34 -31t-42 -10q-31 0 -49 17.5
t-18 47.5q0 28 19.5 52t56.5 43q40 20 80.5 29.5t82.5 9.5q87 0 133 -42.5t46 -122.5v-243q0 -30 13 -45t53 -27zM336 183v56h-33q-65 0 -97 -21.5t-32 -64.5q0 -35 17.5 -54.5t48.5 -19.5q19 0 37.5 8t33.5 23q12 12 18.5 30.5t6.5 42.5zM334 612l-40 -23l-113 110
q-25 25 -33 39t-8 30q0 24 21 42.5t46 18.5q23 0 37.5 -13.5t27.5 -47.5z" />
    <glyph glyph-name="aacute" unicode="&#xe1;" horiz-adv-x="560" 
d="M35 0zM544 56v-43l-103 -26q-40 7 -66 32.5t-32 62.5h-7q-36 -51 -72 -72.5t-83 -21.5q-66 0 -106 41t-40 109q0 30 10.5 55.5t30.5 45.5q28 28 79.5 42t127.5 14h53v56q0 53 -25 79t-76 26q-16 0 -28.5 -2t-23.5 -7l20 -69q-15 -21 -34 -31t-42 -10q-31 0 -49 17.5
t-18 47.5q0 28 19.5 52t56.5 43q40 20 80.5 29.5t82.5 9.5q87 0 133 -42.5t46 -122.5v-243q0 -30 13 -45t53 -27zM336 183v56h-33q-65 0 -97 -21.5t-32 -64.5q0 -35 17.5 -54.5t48.5 -19.5q19 0 37.5 8t33.5 23q12 12 18.5 30.5t6.5 42.5zM378 699l-113 -110l-40 23l62 156
q13 34 27.5 47.5t37.5 13.5q25 0 46 -18.5t21 -42.5q0 -16 -8 -30t-33 -39z" />
    <glyph glyph-name="acircumflex" unicode="&#xe2;" horiz-adv-x="560" 
d="M35 0zM544 56v-43l-103 -26q-40 7 -66 32.5t-32 62.5h-7q-36 -51 -72 -72.5t-83 -21.5q-66 0 -106 41t-40 109q0 30 10.5 55.5t30.5 45.5q28 28 79.5 42t127.5 14h53v56q0 53 -25 79t-76 26q-16 0 -28.5 -2t-23.5 -7l20 -69q-15 -21 -34 -31t-42 -10q-31 0 -49 17.5
t-18 47.5q0 28 19.5 52t56.5 43q40 20 80.5 29.5t82.5 9.5q87 0 133 -42.5t46 -122.5v-243q0 -30 13 -45t53 -27zM336 183v56h-33q-65 0 -97 -21.5t-32 -64.5q0 -35 17.5 -54.5t48.5 -19.5q19 0 37.5 8t33.5 23q12 12 18.5 30.5t6.5 42.5zM277 696l-123 -108l-33 27l118 191
h81l117 -191l-33 -27z" />
    <glyph glyph-name="atilde" unicode="&#xe3;" horiz-adv-x="560" 
d="M35 0zM544 56v-43l-103 -26q-40 7 -66 32.5t-32 62.5h-7q-36 -51 -72 -72.5t-83 -21.5q-66 0 -106 41t-40 109q0 30 10.5 55.5t30.5 45.5q28 28 79.5 42t127.5 14h53v56q0 53 -25 79t-76 26q-16 0 -28.5 -2t-23.5 -7l20 -69q-15 -21 -34 -31t-42 -10q-31 0 -49 17.5
t-18 47.5q0 28 19.5 52t56.5 43q40 20 80.5 29.5t82.5 9.5q87 0 133 -42.5t46 -122.5v-243q0 -30 13 -45t53 -27zM336 183v56h-33q-65 0 -97 -21.5t-32 -64.5q0 -35 17.5 -54.5t48.5 -19.5q19 0 37.5 8t33.5 23q12 12 18.5 30.5t6.5 42.5zM198 672q-14 0 -25 -15.5
t-29 -64.5l-57 21q27 97 53.5 129.5t70.5 32.5q14 0 33 -8t57 -33q31 -20 44 -26t22 -6q14 0 25 15.5t30 65.5l57 -21q-28 -98 -54.5 -130.5t-70.5 -32.5q-14 0 -33 8t-57 33q-31 20 -44 26t-22 6z" />
    <glyph glyph-name="adieresis" unicode="&#xe4;" horiz-adv-x="560" 
d="M35 0zM544 56v-43l-103 -26q-40 7 -66 32.5t-32 62.5h-7q-36 -51 -72 -72.5t-83 -21.5q-66 0 -106 41t-40 109q0 30 10.5 55.5t30.5 45.5q28 28 79.5 42t127.5 14h53v56q0 53 -25 79t-76 26q-16 0 -28.5 -2t-23.5 -7l20 -69q-15 -21 -34 -31t-42 -10q-31 0 -49 17.5
t-18 47.5q0 28 19.5 52t56.5 43q40 20 80.5 29.5t82.5 9.5q87 0 133 -42.5t46 -122.5v-243q0 -30 13 -45t53 -27zM336 183v56h-33q-65 0 -97 -21.5t-32 -64.5q0 -35 17.5 -54.5t48.5 -19.5q19 0 37.5 8t33.5 23q12 12 18.5 30.5t6.5 42.5zM463 677q0 -34 -21.5 -56.5
t-54.5 -22.5t-54.5 21.5t-21.5 55.5t21.5 57t54.5 23t54.5 -22t21.5 -56zM247 677q0 -34 -21.5 -56.5t-54.5 -22.5t-54.5 21.5t-21.5 55.5t21.5 57t54.5 23t54.5 -22t21.5 -56z" />
    <glyph glyph-name="aring" unicode="&#xe5;" horiz-adv-x="560" 
d="M35 0zM544 56v-43l-103 -26q-40 7 -66 32.5t-32 62.5h-7q-36 -51 -72 -72.5t-83 -21.5q-66 0 -106 41t-40 109q0 30 10.5 55.5t30.5 45.5q28 28 79.5 42t127.5 14h53v56q0 53 -25 79t-76 26q-16 0 -28.5 -2t-23.5 -7l20 -69q-15 -21 -34 -31t-42 -10q-31 0 -49 17.5
t-18 47.5q0 28 19.5 52t56.5 43q40 20 80.5 29.5t82.5 9.5q87 0 133 -42.5t46 -122.5v-243q0 -30 13 -45t53 -27zM336 183v56h-33q-65 0 -97 -21.5t-32 -64.5q0 -35 17.5 -54.5t48.5 -19.5q19 0 37.5 8t33.5 23q12 12 18.5 30.5t6.5 42.5zM406 717q0 -51 -37 -87t-90 -36
t-90 36t-37 87t37 87t90 36t90 -36t37 -87zM208 717q0 -34 19.5 -55t51.5 -21t51.5 21t19.5 55t-19.5 55t-51.5 21t-51.5 -21t-19.5 -55z" />
    <glyph glyph-name="ae" unicode="&#xe6;" horiz-adv-x="857" 
d="M784 117l29 -58q-53 -37 -106.5 -55t-108.5 -18q-61 0 -111.5 22.5t-85.5 64.5q-56 -46 -105.5 -66.5t-100.5 -20.5q-76 0 -118 40t-42 112q0 28 10.5 54t30.5 46q28 28 83 42.5t132 14.5h54v56q0 53 -27 79t-83 26q-16 0 -28.5 -2t-23.5 -7l20 -69q-15 -21 -34 -31
t-42 -10q-31 0 -49 17.5t-18 47.5q0 28 20 52.5t58 43.5q39 19 78.5 28.5t82.5 9.5q53 0 88 -15t57 -47q28 29 68.5 45.5t85.5 16.5q107 0 166 -72t59 -199v-32h-326q6 -79 40 -116t101 -37q33 0 67 8.5t79 28.5zM587 467q-43 0 -66 -43t-25 -127h175q-2 91 -21.5 130.5
t-62.5 39.5zM174 150q0 -34 19.5 -54t52.5 -20q28 0 56 12.5t64 42.5q-11 25 -16.5 52t-5.5 56h-36q-69 0 -101.5 -21.5t-32.5 -67.5z" />
    <glyph glyph-name="ccedilla" unicode="&#xe7;" horiz-adv-x="511" 
d="M394 -151q0 -47 -37 -74.5t-98 -27.5q-30 0 -58.5 8t-62.5 27l20 37q24 -12 46 -18t42 -6q26 0 40.5 11.5t14.5 30.5q0 23 -20 33.5t-64 10.5h-16l-19 25l57 82q-96 11 -153 83t-57 186q0 121 74.5 201t183.5 80q79 0 135 -40t56 -98q0 -38 -21.5 -62t-53.5 -24
q-26 0 -44.5 12.5t-26.5 34.5l27 80q-15 9 -31 13.5t-35 4.5q-47 0 -77.5 -51t-30.5 -132q0 -89 37 -140t98 -51q29 0 54.5 9t65.5 34l36 -64q-47 -36 -92 -55t-91 -22l-35 -52q65 1 100.5 -21.5t35.5 -64.5z" />
    <glyph glyph-name="egrave" unicode="&#xe8;" horiz-adv-x="543" 
d="M29 0zM470 117l29 -58q-56 -38 -109 -56.5t-106 -18.5q-116 0 -185.5 74t-69.5 195q0 123 72.5 204t182.5 81q107 0 166 -72.5t59 -200.5v-32h-326q6 -80 40 -117.5t101 -37.5q31 0 64 8.5t82 30.5zM273 469q-43 0 -66 -43t-25 -129h175q-2 92 -21.5 132t-62.5 40z
M335 612l-40 -23l-113 110q-25 25 -33 39t-8 30q0 24 21 42.5t46 18.5q23 0 37.5 -13.5t27.5 -47.5z" />
    <glyph glyph-name="eacute" unicode="&#xe9;" horiz-adv-x="543" 
d="M29 0zM470 117l29 -58q-56 -38 -109 -56.5t-106 -18.5q-116 0 -185.5 74t-69.5 195q0 123 72.5 204t182.5 81q107 0 166 -72.5t59 -200.5v-32h-326q6 -80 40 -117.5t101 -37.5q31 0 64 8.5t82 30.5zM273 469q-43 0 -66 -43t-25 -129h175q-2 92 -21.5 132t-62.5 40z
M379 699l-113 -110l-40 23l62 156q13 34 27.5 47.5t37.5 13.5q25 0 46 -18.5t21 -42.5q0 -16 -8 -30t-33 -39z" />
    <glyph glyph-name="ecircumflex" unicode="&#xea;" horiz-adv-x="543" 
d="M29 0zM470 117l29 -58q-56 -38 -109 -56.5t-106 -18.5q-116 0 -185.5 74t-69.5 195q0 123 72.5 204t182.5 81q107 0 166 -72.5t59 -200.5v-32h-326q6 -80 40 -117.5t101 -37.5q31 0 64 8.5t82 30.5zM273 469q-43 0 -66 -43t-25 -129h175q-2 92 -21.5 132t-62.5 40z
M278 696l-123 -108l-33 27l118 191h81l117 -191l-33 -27z" />
    <glyph glyph-name="edieresis" unicode="&#xeb;" horiz-adv-x="543" 
d="M29 0zM470 117l29 -58q-56 -38 -109 -56.5t-106 -18.5q-116 0 -185.5 74t-69.5 195q0 123 72.5 204t182.5 81q107 0 166 -72.5t59 -200.5v-32h-326q6 -80 40 -117.5t101 -37.5q31 0 64 8.5t82 30.5zM273 469q-43 0 -66 -43t-25 -129h175q-2 92 -21.5 132t-62.5 40z
M464 677q0 -34 -21.5 -56.5t-54.5 -22.5t-54.5 21.5t-21.5 55.5t21.5 57t54.5 23t54.5 -22t21.5 -56zM248 677q0 -34 -21.5 -56.5t-54.5 -22.5t-54.5 21.5t-21.5 55.5t21.5 57t54.5 23t54.5 -22t21.5 -56z" />
    <glyph glyph-name="igrave" unicode="&#xec;" horiz-adv-x="323" 
d="M7 0zM307 0h-287v61l51 10l23 43v294l-23 43l-51 10v61h218v-408l23 -43l46 -10v-61zM201 607l-40 -23l-113 110q-25 25 -33 39t-8 30q0 24 21 42.5t46 18.5q23 0 37.5 -13.5t27.5 -47.5z" />
    <glyph glyph-name="iacute" unicode="&#xed;" horiz-adv-x="323" 
d="M20 0zM307 0h-287v61l51 10l23 43v294l-23 43l-51 10v61h218v-408l23 -43l46 -10v-61zM245 694l-113 -110l-40 23l62 156q13 34 27.5 47.5t37.5 13.5q25 0 46 -18.5t21 -42.5q0 -16 -8 -30t-33 -39z" />
    <glyph glyph-name="icircumflex" unicode="&#xee;" horiz-adv-x="323" 
d="M0 0zM307 0h-287v61l51 10l23 43v294l-23 43l-51 10v61h218v-408l23 -43l46 -10v-61zM144 691l-123 -108l-33 27l118 191h81l117 -191l-33 -27z" />
    <glyph glyph-name="idieresis" unicode="&#xef;" horiz-adv-x="323" 
d="M0 0zM307 0h-287v61l51 10l23 43v294l-23 43l-51 10v61h218v-408l23 -43l46 -10v-61zM330 672q0 -34 -21.5 -56.5t-54.5 -22.5t-54.5 21.5t-21.5 55.5t21.5 57t54.5 23t54.5 -22t21.5 -56zM114 672q0 -34 -21.5 -56.5t-54.5 -22.5t-54.5 21.5t-21.5 55.5t21.5 57t54.5 23
t54.5 -22t21.5 -56z" />
    <glyph glyph-name="eth" unicode="&#xf0;" horiz-adv-x="570" 
d="M428 619q57 -57 85 -133.5t28 -174.5q0 -155 -69.5 -241t-190.5 -86q-111 0 -181.5 69.5t-70.5 185.5q0 112 61.5 187t149.5 75q42 0 74 -17t61 -55l8 3q-3 44 -21 83t-51 72q-7 7 -11 10.5t-8 6.5l-82 -61l-41 51l66 50q-20 11 -41.5 20.5t-42.5 17.5l29 71
q37 -11 70 -24t62 -27l90 68l44 -52l-72 -53q15 -11 28.5 -22.5t25.5 -23.5zM190 243q0 -85 27 -135t73 -50q45 0 67.5 46t22.5 137q0 85 -27 133.5t-75 48.5q-43 0 -65.5 -46t-22.5 -134z" />
    <glyph glyph-name="ntilde" unicode="&#xf1;" horiz-adv-x="612" 
d="M18 0zM284 0h-266v61l48 10l23 43v294l-23 43l-48 10v61h215v-25l-10 -94l8 -4q42 75 80.5 105.5t88.5 30.5q65 0 100.5 -40.5t35.5 -115.5v-265l23 -43l43 -10v-61h-237v56l19 19l8 25v254q0 32 -15.5 48t-45.5 16q-17 0 -35 -8.5t-32 -22.5q-17 -17 -24 -41.5t-7 -69.5
v-172l17 -33l34 -15v-56zM229 672q-14 0 -25 -15.5t-29 -64.5l-57 21q27 97 53.5 129.5t70.5 32.5q14 0 33 -8t57 -33q31 -20 44 -26t22 -6q14 0 25 15.5t30 65.5l57 -21q-28 -98 -54.5 -130.5t-70.5 -32.5q-14 0 -33 8t-57 33q-31 20 -44 26t-22 6z" />
    <glyph glyph-name="ograve" unicode="&#xf2;" horiz-adv-x="584" 
d="M29 0zM555 264q0 -121 -74.5 -200.5t-188.5 -79.5q-119 0 -191 75.5t-72 198.5q0 121 74.5 200.5t188.5 79.5q119 0 191 -75.5t72 -198.5zM190 272q0 -104 28 -159t81 -55q47 0 71 48.5t24 143.5q0 104 -28 159t-81 55q-47 0 -71 -48.5t-24 -143.5zM347 612l-40 -23
l-113 110q-25 25 -33 39t-8 30q0 24 21 42.5t46 18.5q23 0 37.5 -13.5t27.5 -47.5z" />
    <glyph glyph-name="oacute" unicode="&#xf3;" horiz-adv-x="584" 
d="M29 0zM555 264q0 -121 -74.5 -200.5t-188.5 -79.5q-119 0 -191 75.5t-72 198.5q0 121 74.5 200.5t188.5 79.5q119 0 191 -75.5t72 -198.5zM190 272q0 -104 28 -159t81 -55q47 0 71 48.5t24 143.5q0 104 -28 159t-81 55q-47 0 -71 -48.5t-24 -143.5zM391 699l-113 -110
l-40 23l62 156q13 34 27.5 47.5t37.5 13.5q25 0 46 -18.5t21 -42.5q0 -16 -8 -30t-33 -39z" />
    <glyph glyph-name="ocircumflex" unicode="&#xf4;" horiz-adv-x="584" 
d="M29 0zM555 264q0 -121 -74.5 -200.5t-188.5 -79.5q-119 0 -191 75.5t-72 198.5q0 121 74.5 200.5t188.5 79.5q119 0 191 -75.5t72 -198.5zM190 272q0 -104 28 -159t81 -55q47 0 71 48.5t24 143.5q0 104 -28 159t-81 55q-47 0 -71 -48.5t-24 -143.5zM290 696l-123 -108
l-33 27l118 191h81l117 -191l-33 -27z" />
    <glyph glyph-name="otilde" unicode="&#xf5;" horiz-adv-x="584" 
d="M29 0zM555 264q0 -121 -74.5 -200.5t-188.5 -79.5q-119 0 -191 75.5t-72 198.5q0 121 74.5 200.5t188.5 79.5q119 0 191 -75.5t72 -198.5zM190 272q0 -104 28 -159t81 -55q47 0 71 48.5t24 143.5q0 104 -28 159t-81 55q-47 0 -71 -48.5t-24 -143.5zM211 672
q-14 0 -25 -15.5t-29 -64.5l-57 21q27 97 53.5 129.5t70.5 32.5q14 0 33 -8t57 -33q31 -20 44 -26t22 -6q14 0 25 15.5t30 65.5l57 -21q-28 -98 -54.5 -130.5t-70.5 -32.5q-14 0 -33 8t-57 33q-31 20 -44 26t-22 6z" />
    <glyph glyph-name="odieresis" unicode="&#xf6;" horiz-adv-x="584" 
d="M29 0zM555 264q0 -121 -74.5 -200.5t-188.5 -79.5q-119 0 -191 75.5t-72 198.5q0 121 74.5 200.5t188.5 79.5q119 0 191 -75.5t72 -198.5zM190 272q0 -104 28 -159t81 -55q47 0 71 48.5t24 143.5q0 104 -28 159t-81 55q-47 0 -71 -48.5t-24 -143.5zM476 677
q0 -34 -21.5 -56.5t-54.5 -22.5t-54.5 21.5t-21.5 55.5t21.5 57t54.5 23t54.5 -22t21.5 -56zM260 677q0 -34 -21.5 -56.5t-54.5 -22.5t-54.5 21.5t-21.5 55.5t21.5 57t54.5 23t54.5 -22t21.5 -56z" />
    <glyph glyph-name="divide" unicode="&#xf7;" horiz-adv-x="540" 
d="M343 523q0 -29 -22 -51t-51 -22t-51 22t-22 51t22 51t51 22t51 -22t22 -51zM499 307h-458v78h458v-78zM343 167q0 -29 -22 -51t-51 -22t-51 22t-22 51t22 51t51 22t51 -22t22 -51z" />
    <glyph glyph-name="oslash" unicode="&#xf8;" horiz-adv-x="584" 
d="M555 264q0 -121 -74.5 -200.5t-188.5 -79.5q-46 0 -85.5 11.5t-70.5 33.5l-37 -45h-83l74 87q-30 37 -45.5 84.5t-15.5 102.5q0 121 74.5 200.5t188.5 79.5q46 0 85.5 -11.5t70.5 -33.5l37 45h83l-74 -87q30 -37 45.5 -84.5t15.5 -102.5zM284 466q-49 0 -74 -49.5
t-25 -144.5q0 -28 1.5 -51t5.5 -41l180 227q-15 30 -37 44.5t-51 14.5zM300 56q49 0 74 49t25 145q0 28 -1.5 51t-5.5 41l-180 -227q15 -30 37 -44.5t51 -14.5z" />
    <glyph glyph-name="ugrave" unicode="&#xf9;" horiz-adv-x="603" 
d="M10 0zM212 -13q-65 0 -100.5 40.5t-35.5 115.5v265l-23 43l-43 10v61h210v-354q0 -32 15.5 -48t45.5 -16q17 0 35 8.5t32 22.5q17 17 24 41.5t7 69.5v172l-20 38l-51 10v56h215v-408l23 -43l48 -10v-61h-215v25l10 94l-8 4q-42 -75 -80.5 -105.5t-88.5 -30.5zM345 607
l-40 -23l-113 110q-25 25 -33 39t-8 30q0 24 21 42.5t46 18.5q23 0 37.5 -13.5t27.5 -47.5z" />
    <glyph glyph-name="uacute" unicode="&#xfa;" horiz-adv-x="603" 
d="M10 0zM212 -13q-65 0 -100.5 40.5t-35.5 115.5v265l-23 43l-43 10v61h210v-354q0 -32 15.5 -48t45.5 -16q17 0 35 8.5t32 22.5q17 17 24 41.5t7 69.5v172l-20 38l-51 10v56h215v-408l23 -43l48 -10v-61h-215v25l10 94l-8 4q-42 -75 -80.5 -105.5t-88.5 -30.5zM389 694
l-113 -110l-40 23l62 156q13 34 27.5 47.5t37.5 13.5q25 0 46 -18.5t21 -42.5q0 -16 -8 -30t-33 -39z" />
    <glyph glyph-name="ucircumflex" unicode="&#xfb;" horiz-adv-x="603" 
d="M10 0zM212 -13q-65 0 -100.5 40.5t-35.5 115.5v265l-23 43l-43 10v61h210v-354q0 -32 15.5 -48t45.5 -16q17 0 35 8.5t32 22.5q17 17 24 41.5t7 69.5v172l-20 38l-51 10v56h215v-408l23 -43l48 -10v-61h-215v25l10 94l-8 4q-42 -75 -80.5 -105.5t-88.5 -30.5zM288 691
l-123 -108l-33 27l118 191h81l117 -191l-33 -27z" />
    <glyph glyph-name="udieresis" unicode="&#xfc;" horiz-adv-x="603" 
d="M10 0zM212 -13q-65 0 -100.5 40.5t-35.5 115.5v265l-23 43l-43 10v61h210v-354q0 -32 15.5 -48t45.5 -16q17 0 35 8.5t32 22.5q17 17 24 41.5t7 69.5v172l-20 38l-51 10v56h215v-408l23 -43l48 -10v-61h-215v25l10 94l-8 4q-42 -75 -80.5 -105.5t-88.5 -30.5zM474 672
q0 -34 -21.5 -56.5t-54.5 -22.5t-54.5 21.5t-21.5 55.5t21.5 57t54.5 23t54.5 -22t21.5 -56zM258 672q0 -34 -21.5 -56.5t-54.5 -22.5t-54.5 21.5t-21.5 55.5t21.5 57t54.5 23t54.5 -22t21.5 -56z" />
    <glyph glyph-name="yacute" unicode="&#xfd;" horiz-adv-x="558" 
d="M2 0zM505 442l-157 -420q-41 -110 -89 -158.5t-115 -48.5q-43 0 -69.5 20t-26.5 50q0 26 21 45.5t48 21.5l69 -57q23 13 37.5 34t20.5 51l-190 462l-52 19v61h266v-53l-42 -13l-10 -33l64 -183l21 -108h17l23 108l56 188l-15 30l-31 11v53h205v-61zM400 694l-113 -110
l-40 23l62 156q13 34 27.5 47.5t37.5 13.5q25 0 46 -18.5t21 -42.5q0 -16 -8 -30t-33 -39z" />
    <glyph glyph-name="thorn" unicode="&#xfe;" horiz-adv-x="588" 
d="M292 -182h-293v61l48 10l23 43v698l-23 43l-48 10v61h215v-226l-10 -93l8 -4q29 55 70.5 84.5t91.5 29.5q82 0 132.5 -71.5t50.5 -193.5q0 -128 -59.5 -205t-146.5 -77q-35 0 -65.5 11.5t-72.5 44.5l-7 -4l8 -63v-60l18 -28l60 -10v-61zM301 79q47 0 74 45t27 126
q0 88 -24.5 134t-70.5 46q-15 0 -28.5 -6.5t-26.5 -19.5q-22 -22 -31 -45.5t-9 -58.5v-194q29 -15 49.5 -21t39.5 -6z" />
    <glyph glyph-name="ydieresis" unicode="&#xff;" horiz-adv-x="558" 
d="M2 0zM505 442l-157 -420q-41 -110 -89 -158.5t-115 -48.5q-43 0 -69.5 20t-26.5 50q0 26 21 45.5t48 21.5l69 -57q23 13 37.5 34t20.5 51l-190 462l-52 19v61h266v-53l-42 -13l-10 -33l64 -183l21 -108h17l23 108l56 188l-15 30l-31 11v53h205v-61zM485 672
q0 -34 -21.5 -56.5t-54.5 -22.5t-54.5 21.5t-21.5 55.5t21.5 57t54.5 23t54.5 -22t21.5 -56zM269 672q0 -34 -21.5 -56.5t-54.5 -22.5t-54.5 21.5t-21.5 55.5t21.5 57t54.5 23t54.5 -22t21.5 -56z" />
    <glyph glyph-name="Amacron" unicode="&#x100;" horiz-adv-x="708" 
d="M0 0zM198 85l44 -18v-67h-242v70l63 23l201 606h180l199 -605l65 -24v-70h-313v67l53 15l16 41l-24 79h-234l-27 -85zM311 576l-29 -130l-49 -156h179l-48 156l-29 130h-24zM524 774h-348v84h348v-84z" />
    <glyph glyph-name="amacron" unicode="&#x101;" horiz-adv-x="560" 
d="M35 0zM544 56v-43l-103 -26q-40 7 -66 32.5t-32 62.5h-7q-36 -51 -72 -72.5t-83 -21.5q-66 0 -106 41t-40 109q0 30 10.5 55.5t30.5 45.5q28 28 79.5 42t127.5 14h53v56q0 53 -25 79t-76 26q-16 0 -28.5 -2t-23.5 -7l20 -69q-15 -21 -34 -31t-42 -10q-31 0 -49 17.5
t-18 47.5q0 28 19.5 52t56.5 43q40 20 80.5 29.5t82.5 9.5q87 0 133 -42.5t46 -122.5v-243q0 -30 13 -45t53 -27zM336 183v56h-33q-65 0 -97 -21.5t-32 -64.5q0 -35 17.5 -54.5t48.5 -19.5q19 0 37.5 8t33.5 23q12 12 18.5 30.5t6.5 42.5zM433 616h-308v82h308v-82z" />
    <glyph glyph-name="Abreve" unicode="&#x102;" horiz-adv-x="708" 
d="M0 0zM198 85l44 -18v-67h-242v70l63 23l201 606h180l199 -605l65 -24v-70h-313v67l53 15l16 41l-24 79h-234l-27 -85zM311 576l-29 -130l-49 -156h179l-48 156l-29 130h-24zM350 761q-66 0 -110 41t-65 121l47 19q27 -43 57.5 -62.5t71.5 -19.5t71.5 19.5t57.5 62.5
l45 -19q-21 -80 -65 -121t-110 -41z" />
    <glyph glyph-name="abreve" unicode="&#x103;" horiz-adv-x="560" 
d="M35 0zM544 56v-43l-103 -26q-40 7 -66 32.5t-32 62.5h-7q-36 -51 -72 -72.5t-83 -21.5q-66 0 -106 41t-40 109q0 30 10.5 55.5t30.5 45.5q28 28 79.5 42t127.5 14h53v56q0 53 -25 79t-76 26q-16 0 -28.5 -2t-23.5 -7l20 -69q-15 -21 -34 -31t-42 -10q-31 0 -49 17.5
t-18 47.5q0 28 19.5 52t56.5 43q40 20 80.5 29.5t82.5 9.5q87 0 133 -42.5t46 -122.5v-243q0 -30 13 -45t53 -27zM336 183v56h-33q-65 0 -97 -21.5t-32 -64.5q0 -35 17.5 -54.5t48.5 -19.5q19 0 37.5 8t33.5 23q12 12 18.5 30.5t6.5 42.5zM279 603q-68 0 -109.5 49
t-51.5 141l47 13q21 -57 46 -80.5t67 -23.5t67 23.5t46 80.5l49 -13q-10 -92 -51.5 -141t-109.5 -49z" />
    <glyph glyph-name="Aogonek" unicode="&#x104;" horiz-adv-x="708" 
d="M655 -154l22 -39q-30 -29 -63.5 -44.5t-67.5 -15.5q-44 0 -73 23.5t-29 61.5q0 28 19.5 60.5t62.5 77.5l29 30h-160v67l53 15l16 41l-24 79h-234l-27 -85l19 -32l44 -18v-67h-242v70l63 23l201 606h180l199 -605l65 -24v-70h-93l-39 -50q-23 -29 -32.5 -48.5t-9.5 -35.5
q0 -20 14 -32.5t35 -12.5q17 0 35.5 6.5t36.5 18.5zM311 576l-29 -130l-49 -156h179l-48 156l-29 130h-24z" />
    <glyph glyph-name="aogonek" unicode="&#x105;" horiz-adv-x="560" 
d="M523 -154l22 -39q-30 -29 -63.5 -44.5t-67.5 -15.5q-44 0 -73 23.5t-29 61.5q0 28 19.5 60.5t62.5 77.5l23 24q-30 10 -49.5 33.5t-24.5 54.5h-7q-36 -51 -72 -72.5t-83 -21.5q-66 0 -106 41t-40 109q0 30 10.5 55.5t30.5 45.5q28 28 79.5 42t127.5 14h53v56q0 53 -25 79
t-76 26q-16 0 -28.5 -2t-23.5 -7l20 -69q-15 -21 -34 -31t-42 -10q-31 0 -49 17.5t-18 47.5q0 28 19.5 52t56.5 43q40 20 80.5 29.5t82.5 9.5q87 0 133 -42.5t46 -122.5v-243q0 -30 13 -45t53 -27v-43l-63 -16l-37 -47q-23 -29 -32.5 -48.5t-9.5 -35.5q0 -20 14 -32.5
t35 -12.5q17 0 35.5 6.5t36.5 18.5zM336 183v56h-33q-65 0 -97 -21.5t-32 -64.5q0 -35 17.5 -54.5t48.5 -19.5q19 0 37.5 8t33.5 23q12 12 18.5 30.5t6.5 42.5z" />
    <glyph glyph-name="Cacute" unicode="&#x106;" horiz-adv-x="659" 
d="M36 0zM599 238v-176q-45 -34 -107.5 -56t-117.5 -22q-152 0 -245 97t-93 259q0 159 95.5 264t235.5 105q38 0 69.5 -8t67.5 -29l50 35h40v-252h-84l-43 139q-20 16 -41.5 22.5t-51.5 6.5q-72 0 -114.5 -75t-42.5 -203q0 -135 44.5 -205t129.5 -70q21 0 40.5 5t37.5 15
l46 148h84zM461 813l-118 -65l-33 33l80 110q28 39 47.5 54t40.5 15q24 0 43 -19t19 -44q0 -22 -17 -40.5t-62 -43.5z" />
    <glyph glyph-name="cacute" unicode="&#x107;" horiz-adv-x="511" 
d="M29 0zM440 128l36 -64q-53 -41 -102 -59.5t-101 -18.5q-110 0 -177 73t-67 198q0 121 74.5 201t183.5 80q79 0 135 -40t56 -98q0 -38 -21.5 -62t-53.5 -24q-26 0 -44.5 12.5t-26.5 34.5l27 80q-15 9 -31 13.5t-35 4.5q-47 0 -77.5 -51t-30.5 -132q0 -89 37 -140t98 -51
q29 0 54.5 9t65.5 34zM379 699l-113 -110l-40 23l62 156q13 34 27.5 47.5t37.5 13.5q25 0 46 -18.5t21 -42.5q0 -16 -8 -30t-33 -39z" />
    <glyph glyph-name="Ccircumflex" unicode="&#x108;" horiz-adv-x="659" 
d="M36 0zM599 238v-176q-45 -34 -107.5 -56t-117.5 -22q-152 0 -245 97t-93 259q0 159 95.5 264t235.5 105q38 0 69.5 -8t67.5 -29l50 35h40v-252h-84l-43 139q-20 16 -41.5 22.5t-51.5 6.5q-72 0 -114.5 -75t-42.5 -203q0 -135 44.5 -205t129.5 -70q21 0 40.5 5t37.5 15
l46 148h84zM368 827l-138 -86l-29 29l127 164h85l126 -164l-29 -29z" />
    <glyph glyph-name="ccircumflex" unicode="&#x109;" horiz-adv-x="511" 
d="M29 0zM440 128l36 -64q-53 -41 -102 -59.5t-101 -18.5q-110 0 -177 73t-67 198q0 121 74.5 201t183.5 80q79 0 135 -40t56 -98q0 -38 -21.5 -62t-53.5 -24q-26 0 -44.5 12.5t-26.5 34.5l27 80q-15 9 -31 13.5t-35 4.5q-47 0 -77.5 -51t-30.5 -132q0 -89 37 -140t98 -51
q29 0 54.5 9t65.5 34zM278 696l-123 -108l-33 27l118 191h81l117 -191l-33 -27z" />
    <glyph glyph-name="Cdotaccent" unicode="&#x10a;" horiz-adv-x="659" 
d="M36 0zM599 238v-176q-45 -34 -107.5 -56t-117.5 -22q-152 0 -245 97t-93 259q0 159 95.5 264t235.5 105q38 0 69.5 -8t67.5 -29l50 35h40v-252h-84l-43 139q-20 16 -41.5 22.5t-51.5 6.5q-72 0 -114.5 -75t-42.5 -203q0 -135 44.5 -205t129.5 -70q21 0 40.5 5t37.5 15
l46 148h84zM452 844q0 -37 -23 -61t-59 -24t-59 23t-23 60t23.5 61.5t58.5 24.5q36 0 59 -24t23 -60z" />
    <glyph glyph-name="cdotaccent" unicode="&#x10b;" horiz-adv-x="511" 
d="M29 0zM440 128l36 -64q-53 -41 -102 -59.5t-101 -18.5q-110 0 -177 73t-67 198q0 121 74.5 201t183.5 80q79 0 135 -40t56 -98q0 -38 -21.5 -62t-53.5 -24q-26 0 -44.5 12.5t-26.5 34.5l27 80q-15 9 -31 13.5t-35 4.5q-47 0 -77.5 -51t-30.5 -132q0 -89 37 -140t98 -51
q29 0 54.5 9t65.5 34zM359 681q0 -36 -22 -59t-57 -23t-57 22.5t-22 57.5q0 36 22.5 59.5t56.5 23.5t56.5 -23t22.5 -58z" />
    <glyph glyph-name="Ccaron" unicode="&#x10c;" horiz-adv-x="659" 
d="M36 0zM599 238v-176q-45 -34 -107.5 -56t-117.5 -22q-152 0 -245 97t-93 259q0 159 95.5 264t235.5 105q38 0 69.5 -8t67.5 -29l50 35h40v-252h-84l-43 139q-20 16 -41.5 22.5t-51.5 6.5q-72 0 -114.5 -75t-42.5 -203q0 -135 44.5 -205t129.5 -70q21 0 40.5 5t37.5 15
l46 148h84zM372 863l138 86l29 -29l-127 -164h-85l-126 164l29 29z" />
    <glyph glyph-name="ccaron" unicode="&#x10d;" horiz-adv-x="511" 
d="M29 0zM440 128l36 -64q-53 -41 -102 -59.5t-101 -18.5q-110 0 -177 73t-67 198q0 121 74.5 201t183.5 80q79 0 135 -40t56 -98q0 -38 -21.5 -62t-53.5 -24q-26 0 -44.5 12.5t-26.5 34.5l27 80q-15 9 -31 13.5t-35 4.5q-47 0 -77.5 -51t-30.5 -132q0 -89 37 -140t98 -51
q29 0 54.5 9t65.5 34zM122 789l33 27l127 -108l123 108l33 -27l-118 -191h-81z" />
    <glyph glyph-name="Dcaron" unicode="&#x10e;" horiz-adv-x="708" 
d="M23 0zM310 0h-287v70l58 10l23 43v448l-23 43l-58 10v70h311q160 0 249 -85.5t89 -241.5q0 -173 -96.5 -270t-265.5 -97zM268 611v-528h43q96 0 140 63.5t44 199.5t-45 200.5t-141 64.5h-41zM362 858l138 86l29 -29l-127 -164h-85l-126 164l29 29z" />
    <glyph glyph-name="dcaron" unicode="&#x10f;" horiz-adv-x="603" 
d="M31 0zM214 -13q-82 0 -132.5 71.5t-50.5 192.5q0 127 59.5 205t144.5 78q36 0 68.5 -12.5t71.5 -43.5l7 4l-8 63v85l-23 43l-48 10v61h215v-630l23 -43l48 -10v-61h-215v16l10 94l-8 4q-33 -64 -73.5 -95.5t-88.5 -31.5zM186 273q0 -87 24.5 -132t70.5 -45q15 0 28.5 6.5
t26.5 19.5q22 22 31 45t9 58v191q-31 16 -50.5 21.5t-37.5 5.5q-47 0 -74.5 -44.5t-27.5 -125.5zM693 702l-65 -137l-44 4v180q0 33 15.5 50.5t45.5 17.5t47 -14.5t17 -41.5q0 -13 -3.5 -26.5t-12.5 -32.5z" />
    <glyph glyph-name="Dcroat" unicode="&#x110;" horiz-adv-x="708" 
d="M23 0zM672 367q0 -173 -96.5 -270t-265.5 -97h-287v70l58 10l23 43v187h-77v88h77v173l-23 43l-58 10v70h311q160 0 249 -85.5t89 -241.5zM268 310v-227h43q96 0 140 63.5t44 199.5t-45 200.5t-141 64.5h-41v-213h124v-88h-124z" />
    <glyph glyph-name="dcroat" unicode="&#x111;" horiz-adv-x="598" 
d="M384 110l-8 4q-35 -67 -72 -97t-83 -30q-83 0 -136.5 71t-53.5 187q0 121 59.5 196t144.5 75q36 0 68.5 -12.5t71.5 -43.5l7 4l-8 63v32h-110v68h110v15l-16 31l-55 10v61h215v-117h62v-68h-62v-445l23 -43l48 -10v-61h-215v16zM186 263q0 -82 23 -124.5t67 -42.5
q18 0 28.5 4.5t29.5 23.5q25 25 33.5 43.5t8.5 43.5v187q-30 15 -50.5 21t-39.5 6q-45 0 -72.5 -43t-27.5 -119z" />
    <glyph glyph-name="Emacron" unicode="&#x112;" horiz-adv-x="638" 
d="M23 0zM602 0h-579v70l58 10l23 43v448l-23 43l-58 10v70h566v-214h-84l-14 91l-61 40h-162v-216h54l64 14l5 70h60v-250h-60l-5 70l-64 14h-54v-230h175l61 40l14 101h84v-224zM502 769h-348v84h348v-84z" />
    <glyph glyph-name="emacron" unicode="&#x113;" horiz-adv-x="543" 
d="M29 0zM470 117l29 -58q-56 -38 -109 -56.5t-106 -18.5q-116 0 -185.5 74t-69.5 195q0 123 72.5 204t182.5 81q107 0 166 -72.5t59 -200.5v-32h-326q6 -80 40 -117.5t101 -37.5q31 0 64 8.5t82 30.5zM273 469q-43 0 -66 -43t-25 -129h175q-2 92 -21.5 132t-62.5 40z
M434 616h-308v82h308v-82z" />
    <glyph glyph-name="Ebreve" unicode="&#x114;" horiz-adv-x="638" 
d="M23 0zM602 0h-579v70l58 10l23 43v448l-23 43l-58 10v70h566v-214h-84l-14 91l-61 40h-162v-216h54l64 14l5 70h60v-250h-60l-5 70l-64 14h-54v-230h175l61 40l14 101h84v-224zM328 756q-66 0 -110 41t-65 121l47 19q27 -43 57.5 -62.5t71.5 -19.5t71.5 19.5t57.5 62.5
l45 -19q-21 -80 -65 -121t-110 -41z" />
    <glyph glyph-name="ebreve" unicode="&#x115;" horiz-adv-x="543" 
d="M29 0zM470 117l29 -58q-56 -38 -109 -56.5t-106 -18.5q-116 0 -185.5 74t-69.5 195q0 123 72.5 204t182.5 81q107 0 166 -72.5t59 -200.5v-32h-326q6 -80 40 -117.5t101 -37.5q31 0 64 8.5t82 30.5zM273 469q-43 0 -66 -43t-25 -129h175q-2 92 -21.5 132t-62.5 40z
M280 603q-68 0 -109.5 49t-51.5 141l47 13q21 -57 46 -80.5t67 -23.5t67 23.5t46 80.5l49 -13q-10 -92 -51.5 -141t-109.5 -49z" />
    <glyph glyph-name="Edotaccent" unicode="&#x116;" horiz-adv-x="638" 
d="M23 0zM602 0h-579v70l58 10l23 43v448l-23 43l-58 10v70h566v-214h-84l-14 91l-61 40h-162v-216h54l64 14l5 70h60v-250h-60l-5 70l-64 14h-54v-230h175l61 40l14 101h84v-224zM410 839q0 -37 -23 -61t-59 -24t-59 23t-23 60t23.5 61.5t58.5 24.5q36 0 59 -24t23 -60z
" />
    <glyph glyph-name="edotaccent" unicode="&#x117;" horiz-adv-x="543" 
d="M29 0zM470 117l29 -58q-56 -38 -109 -56.5t-106 -18.5q-116 0 -185.5 74t-69.5 195q0 123 72.5 204t182.5 81q107 0 166 -72.5t59 -200.5v-32h-326q6 -80 40 -117.5t101 -37.5q31 0 64 8.5t82 30.5zM273 469q-43 0 -66 -43t-25 -129h175q-2 92 -21.5 132t-62.5 40z
M359 681q0 -36 -22 -59t-57 -23t-57 22.5t-22 57.5q0 36 22.5 59.5t56.5 23.5t56.5 -23t22.5 -58z" />
    <glyph glyph-name="Eogonek" unicode="&#x118;" horiz-adv-x="638" 
d="M588 -154l22 -39q-30 -29 -63.5 -44.5t-67.5 -15.5q-44 0 -73 23.5t-29 61.5q0 28 19.5 60.5t62.5 77.5l29 30h-465v70l58 10l23 43v448l-23 43l-58 10v70h566v-214h-84l-14 91l-61 40h-162v-216h54l64 14l5 70h60v-250h-60l-5 70l-64 14h-54v-230h175l61 40l14 101h84
v-224h-54l-39 -50q-23 -29 -32.5 -48.5t-9.5 -35.5q0 -20 14 -32.5t35 -12.5q17 0 35.5 6.5t36.5 18.5z" />
    <glyph glyph-name="eogonek" unicode="&#x119;" horiz-adv-x="543" 
d="M478 -154l22 -39q-30 -29 -63.5 -44.5t-67.5 -15.5q-44 0 -73 23.5t-29 61.5q0 32 24.5 68.5t75.5 81.5l32 27l-5 7q-30 -16 -59 -24t-60 -8q-111 0 -178.5 75t-67.5 194q0 123 72.5 204t182.5 81q107 0 166 -72.5t59 -200.5v-32h-326q6 -80 40 -117.5t101 -37.5
q31 0 64 8.5t82 30.5l29 -58l-82 -89q-30 -32 -45 -58t-15 -46t14 -32.5t35 -12.5q17 0 35.5 6.5t36.5 18.5zM273 469q-43 0 -66 -43t-25 -129h175q-2 92 -21.5 132t-62.5 40z" />
    <glyph glyph-name="Ecaron" unicode="&#x11a;" horiz-adv-x="638" 
d="M23 0zM602 0h-579v70l58 10l23 43v448l-23 43l-58 10v70h566v-214h-84l-14 91l-61 40h-162v-216h54l64 14l5 70h60v-250h-60l-5 70l-64 14h-54v-230h175l61 40l14 101h84v-224zM330 858l138 86l29 -29l-127 -164h-85l-126 164l29 29z" />
    <glyph glyph-name="ecaron" unicode="&#x11b;" horiz-adv-x="543" 
d="M29 0zM470 117l29 -58q-56 -38 -109 -56.5t-106 -18.5q-116 0 -185.5 74t-69.5 195q0 123 72.5 204t182.5 81q107 0 166 -72.5t59 -200.5v-32h-326q6 -80 40 -117.5t101 -37.5q31 0 64 8.5t82 30.5zM273 469q-43 0 -66 -43t-25 -129h175q-2 92 -21.5 132t-62.5 40z
M122 789l33 27l127 -108l123 108l33 -27l-118 -191h-81z" />
    <glyph glyph-name="Gcircumflex" unicode="&#x11c;" horiz-adv-x="685" 
d="M36 0zM606 238v-177q-57 -39 -116.5 -58t-123.5 -19q-151 0 -240.5 97t-89.5 261q0 74 23.5 139.5t67.5 115.5q47 54 110.5 83t133.5 29q39 0 71.5 -9t64.5 -28l50 35h40v-237h-86l-47 126q-20 14 -41.5 20.5t-46.5 6.5q-75 0 -117.5 -73.5t-42.5 -202.5
q0 -133 43 -206.5t121 -73.5q22 0 40 5t34 15v139l-22 41l-69 12v65h302v-57l-41 -15zM357 827l-138 -86l-29 29l127 164h85l126 -164l-29 -29z" />
    <glyph glyph-name="gcircumflex" unicode="&#x11d;" horiz-adv-x="582" 
d="M0 0zM542 3q0 -79 -92 -135.5t-210 -56.5q-114 0 -180.5 31.5t-66.5 86.5q0 31 25.5 56t80.5 50v9q-24 13 -38 30t-14 36q0 27 24.5 50t74.5 42v8q-53 23 -82 61.5t-29 87.5q0 75 63.5 126t151.5 51q49 0 85.5 -12t68.5 -39l134 51h20v-107h-97l-4 -8q10 -16 15 -33.5
t5 -33.5q0 -73 -62.5 -119.5t-155.5 -46.5q-13 0 -27 1t-30 4q-11 -10 -16 -18.5t-5 -16.5q0 -13 17.5 -19t64.5 -10l132 -12q70 -6 108.5 -36t38.5 -78zM185 367q0 -55 19 -88t53 -33t53 29.5t19 81.5q0 54 -19.5 87t-52.5 33q-34 0 -53 -29t-19 -81zM130 -55q0 -35 30 -53
t88 -18q73 0 123.5 26t50.5 62q0 24 -24.5 34.5t-86.5 16.5l-151 15q-15 -22 -22.5 -42.5t-7.5 -40.5zM268 696l-123 -108l-33 27l118 191h81l117 -191l-33 -27z" />
    <glyph glyph-name="Gbreve" unicode="&#x11e;" horiz-adv-x="685" 
d="M36 0zM606 238v-177q-57 -39 -116.5 -58t-123.5 -19q-151 0 -240.5 97t-89.5 261q0 74 23.5 139.5t67.5 115.5q47 54 110.5 83t133.5 29q39 0 71.5 -9t64.5 -28l50 35h40v-237h-86l-47 126q-20 14 -41.5 20.5t-46.5 6.5q-75 0 -117.5 -73.5t-42.5 -202.5
q0 -133 43 -206.5t121 -73.5q22 0 40 5t34 15v139l-22 41l-69 12v65h302v-57l-41 -15zM359 761q-66 0 -110 41t-65 121l47 19q27 -43 57.5 -62.5t71.5 -19.5t71.5 19.5t57.5 62.5l45 -19q-21 -80 -65 -121t-110 -41z" />
    <glyph glyph-name="gbreve" unicode="&#x11f;" horiz-adv-x="582" 
d="M0 0zM542 3q0 -79 -92 -135.5t-210 -56.5q-114 0 -180.5 31.5t-66.5 86.5q0 31 25.5 56t80.5 50v9q-24 13 -38 30t-14 36q0 27 24.5 50t74.5 42v8q-53 23 -82 61.5t-29 87.5q0 75 63.5 126t151.5 51q49 0 85.5 -12t68.5 -39l134 51h20v-107h-97l-4 -8q10 -16 15 -33.5
t5 -33.5q0 -73 -62.5 -119.5t-155.5 -46.5q-13 0 -27 1t-30 4q-11 -10 -16 -18.5t-5 -16.5q0 -13 17.5 -19t64.5 -10l132 -12q70 -6 108.5 -36t38.5 -78zM185 367q0 -55 19 -88t53 -33t53 29.5t19 81.5q0 54 -19.5 87t-52.5 33q-34 0 -53 -29t-19 -81zM130 -55q0 -35 30 -53
t88 -18q73 0 123.5 26t50.5 62q0 24 -24.5 34.5t-86.5 16.5l-151 15q-15 -22 -22.5 -42.5t-7.5 -40.5zM270 603q-68 0 -109.5 49t-51.5 141l47 13q21 -57 46 -80.5t67 -23.5t67 23.5t46 80.5l49 -13q-10 -92 -51.5 -141t-109.5 -49z" />
    <glyph glyph-name="Gdotaccent" unicode="&#x120;" horiz-adv-x="685" 
d="M36 0zM606 238v-177q-57 -39 -116.5 -58t-123.5 -19q-151 0 -240.5 97t-89.5 261q0 74 23.5 139.5t67.5 115.5q47 54 110.5 83t133.5 29q39 0 71.5 -9t64.5 -28l50 35h40v-237h-86l-47 126q-20 14 -41.5 20.5t-46.5 6.5q-75 0 -117.5 -73.5t-42.5 -202.5
q0 -133 43 -206.5t121 -73.5q22 0 40 5t34 15v139l-22 41l-69 12v65h302v-57l-41 -15zM441 844q0 -37 -23 -61t-59 -24t-59 23t-23 60t23.5 61.5t58.5 24.5q36 0 59 -24t23 -60z" />
    <glyph glyph-name="gdotaccent" unicode="&#x121;" horiz-adv-x="582" 
d="M0 0zM542 3q0 -79 -92 -135.5t-210 -56.5q-114 0 -180.5 31.5t-66.5 86.5q0 31 25.5 56t80.5 50v9q-24 13 -38 30t-14 36q0 27 24.5 50t74.5 42v8q-53 23 -82 61.5t-29 87.5q0 75 63.5 126t151.5 51q49 0 85.5 -12t68.5 -39l134 51h20v-107h-97l-4 -8q10 -16 15 -33.5
t5 -33.5q0 -73 -62.5 -119.5t-155.5 -46.5q-13 0 -27 1t-30 4q-11 -10 -16 -18.5t-5 -16.5q0 -13 17.5 -19t64.5 -10l132 -12q70 -6 108.5 -36t38.5 -78zM185 367q0 -55 19 -88t53 -33t53 29.5t19 81.5q0 54 -19.5 87t-52.5 33q-34 0 -53 -29t-19 -81zM130 -55q0 -35 30 -53
t88 -18q73 0 123.5 26t50.5 62q0 24 -24.5 34.5t-86.5 16.5l-151 15q-15 -22 -22.5 -42.5t-7.5 -40.5zM349 681q0 -36 -22 -59t-57 -23t-57 22.5t-22 57.5q0 36 22.5 59.5t56.5 23.5t56.5 -23t22.5 -58z" />
    <glyph glyph-name="uni0122" unicode="&#x122;" horiz-adv-x="685" 
d="M36 0zM606 238v-177q-57 -39 -116.5 -58t-123.5 -19q-151 0 -240.5 97t-89.5 261q0 74 23.5 139.5t67.5 115.5q47 54 110.5 83t133.5 29q39 0 71.5 -9t64.5 -28l50 35h40v-237h-86l-47 126q-20 14 -41.5 20.5t-46.5 6.5q-75 0 -117.5 -73.5t-42.5 -202.5
q0 -133 43 -206.5t121 -73.5q22 0 40 5t34 15v139l-22 41l-69 12v65h302v-57l-41 -15zM357 -55q34 0 57 -25.5t23 -65.5q0 -53 -41.5 -104t-113.5 -86l-25 37q26 17 50.5 44.5t34.5 52.5l-64 37q-1 4 -1 7v6q0 43 22 70t58 27z" />
    <glyph glyph-name="uni0123" unicode="&#x123;" horiz-adv-x="582" 
d="M0 0zM542 3q0 -79 -92 -135.5t-210 -56.5q-114 0 -180.5 31.5t-66.5 86.5q0 31 25.5 56t80.5 50v9q-24 13 -38 30t-14 36q0 27 24.5 50t74.5 42v8q-53 23 -82 61.5t-29 87.5q0 75 63.5 126t151.5 51q49 0 85.5 -12t68.5 -39l134 51h20v-107h-97l-4 -8q10 -16 15 -33.5
t5 -33.5q0 -73 -62.5 -119.5t-155.5 -46.5q-13 0 -27 1t-30 4q-11 -10 -16 -18.5t-5 -16.5q0 -13 17.5 -19t64.5 -10l132 -12q70 -6 108.5 -36t38.5 -78zM185 367q0 -55 19 -88t53 -33t53 29.5t19 81.5q0 54 -19.5 87t-52.5 33q-34 0 -53 -29t-19 -81zM130 -55q0 -35 30 -53
t88 -18q73 0 123.5 26t50.5 62q0 24 -24.5 34.5t-86.5 16.5l-151 15q-15 -22 -22.5 -42.5t-7.5 -40.5zM351 696q0 -43 -22 -70t-58 -27q-34 0 -57 25.5t-23 65.5q0 53 41.5 104t113.5 86l25 -37q-26 -17 -50.5 -44.5t-34.5 -52.5l64 -37q1 -4 1 -7v-6z" />
    <glyph glyph-name="Hcircumflex" unicode="&#x124;" horiz-adv-x="750" 
d="M23 0zM347 0h-324v70l58 10l23 43v448l-23 43l-58 10v70h324v-61l-57 -11l-22 -41v-183h214v183l-22 41l-57 11v61h324v-70l-58 -10l-23 -43v-448l23 -43l58 -10v-70h-324v61l57 11l22 41v197h-214v-197l22 -41l57 -11v-61zM373 822l-138 -86l-29 29l127 164h85l126 -164
l-29 -29z" />
    <glyph glyph-name="hcircumflex" unicode="&#x125;" horiz-adv-x="603" 
d="M0 0zM275 0h-266v61l48 10l23 43v516l-23 43l-48 10v61h215v-247l-10 -94l8 -4q42 75 80.5 105.5t88.5 30.5q65 0 100.5 -40.5t35.5 -115.5v-265l23 -43l43 -10v-61h-237v56l19 19l8 25v254q0 32 -15.5 48t-45.5 16q-17 0 -35 -8.5t-32 -22.5q-17 -17 -24 -41.5t-7 -69.5
v-172l17 -33l34 -15v-56zM148 897l-123 -108l-33 27l118 191h81l117 -191l-33 -27z" />
    <glyph glyph-name="Hbar" unicode="&#x126;" horiz-adv-x="750" 
d="M290 72l57 -11v-61h-324v70l58 10l23 43v336h-77v86h77v38l-16 31l-65 10v70h324v-61l-69 -11l-18 -35v-52h230v52l-18 35l-69 11v61h324v-70l-65 -10l-16 -31v-38h77v-86h-77v-336l23 -43l58 -10v-70h-324v61l57 11l22 41v191h-214v-191zM260 469v-77h230v77h-230z" />
    <glyph glyph-name="hbar" unicode="&#x127;" horiz-adv-x="603" 
d="M241 71l34 -15v-56h-266v61l48 10l23 43v445h-66v68h66v15l-16 31l-55 10v61h215v-117h105v-68h-105v-80l-10 -94l8 -4q42 75 80.5 105.5t88.5 30.5q65 0 100.5 -40.5t35.5 -115.5v-247l23 -43l43 -10v-61h-237v56l19 19l8 25v236q0 32 -15.5 48t-45.5 16q-17 0 -35 -8.5
t-32 -22.5q-17 -17 -24 -41.5t-7 -69.5v-154z" />
    <glyph glyph-name="Itilde" unicode="&#x128;" horiz-adv-x="384" 
d="M0 0zM359 0h-334v70l62 10l23 43v448l-23 43l-62 10v70h334v-70l-62 -10l-23 -43v-448l23 -43l62 -10v-70zM108 815q-16 0 -28 -14t-30 -55l-58 21q25 84 53 117t70 33q16 0 36.5 -7t60.5 -29q32 -16 45 -21t22 -5q16 0 28 14.5t31 55.5l58 -21q-26 -85 -54 -118t-70 -33
q-16 0 -36.5 7t-61.5 29q-31 16 -44 21t-22 5z" />
    <glyph glyph-name="itilde" unicode="&#x129;" horiz-adv-x="323" 
d="M0 0zM307 0h-287v61l51 10l23 43v294l-23 43l-51 10v61h218v-408l23 -43l46 -10v-61zM65 667q-14 0 -25 -15.5t-29 -64.5l-57 21q27 97 53.5 129.5t70.5 32.5q14 0 33 -8t57 -33q31 -20 44 -26t22 -6q14 0 25 15.5t30 65.5l57 -21q-28 -98 -54.5 -130.5t-70.5 -32.5
q-14 0 -33 8t-57 33q-31 20 -44 26t-22 6z" />
    <glyph glyph-name="Imacron" unicode="&#x12a;" horiz-adv-x="384" 
d="M25 0zM359 0h-334v70l62 10l23 43v448l-23 43l-62 10v70h334v-70l-62 -10l-23 -43v-448l23 -43l62 -10v-70zM346 769h-308v84h308v-84z" />
    <glyph glyph-name="imacron" unicode="&#x12b;" horiz-adv-x="323" 
d="M12 0zM307 0h-287v61l51 10l23 43v294l-23 43l-51 10v61h218v-408l23 -43l46 -10v-61zM280 611h-268v82h268v-82z" />
    <glyph glyph-name="Ibreve" unicode="&#x12c;" horiz-adv-x="384" 
d="M17 0zM359 0h-334v70l62 10l23 43v448l-23 43l-62 10v70h334v-70l-62 -10l-23 -43v-448l23 -43l62 -10v-70zM192 756q-66 0 -110 41t-65 121l47 19q27 -43 57.5 -62.5t71.5 -19.5t71.5 19.5t57.5 62.5l45 -19q-21 -80 -65 -121t-110 -41z" />
    <glyph glyph-name="ibreve" unicode="&#x12d;" horiz-adv-x="323" 
d="M0 0zM307 0h-287v61l51 10l23 43v294l-23 43l-51 10v61h218v-408l23 -43l46 -10v-61zM146 598q-68 0 -109.5 49t-51.5 141l47 13q21 -57 46 -80.5t67 -23.5t67 23.5t46 80.5l49 -13q-10 -92 -51.5 -141t-109.5 -49z" />
    <glyph glyph-name="Iogonek" unicode="&#x12e;" horiz-adv-x="384" 
d="M278 -154l22 -39q-30 -29 -63.5 -44.5t-67.5 -15.5q-44 0 -73 23.5t-29 61.5q0 28 19.5 60.5t62.5 77.5l29 30h-153v70l62 10l23 43v448l-23 43l-62 10v70h334v-70l-62 -10l-23 -43v-448l23 -43l62 -10v-70h-121l-39 -50q-23 -29 -32.5 -48.5t-9.5 -35.5q0 -20 14 -32.5
t35 -12.5q17 0 35.5 6.5t36.5 18.5z" />
    <glyph glyph-name="iogonek" unicode="&#x12f;" horiz-adv-x="323" 
d="M245 681q0 -35 -25.5 -59t-63.5 -24t-63.5 24t-25.5 59t25.5 59t63.5 24t63.5 -24t25.5 -59zM248 -154l22 -39q-30 -29 -63.5 -44.5t-67.5 -15.5q-44 0 -73 23.5t-29 61.5q0 28 19.5 60.5t62.5 77.5l29 30h-128v61l51 10l23 43v294l-23 43l-51 10v61h218v-408l23 -43
l46 -10v-61h-99l-39 -50q-23 -29 -32.5 -48.5t-9.5 -35.5q0 -20 14 -32.5t35 -12.5q17 0 35.5 6.5t36.5 18.5z" />
    <glyph glyph-name="Idotaccent" unicode="&#x130;" horiz-adv-x="384" 
d="M25 0zM359 0h-334v70l62 10l23 43v448l-23 43l-62 10v70h334v-70l-62 -10l-23 -43v-448l23 -43l62 -10v-70zM274 839q0 -37 -23 -61t-59 -24t-59 23t-23 60t23.5 61.5t58.5 24.5q36 0 59 -24t23 -60z" />
    <glyph glyph-name="dotlessi" unicode="&#x131;" horiz-adv-x="323" 
d="M307 0h-287v61l51 10l23 43v294l-23 43l-51 10v61h218v-408l23 -43l46 -10v-61z" />
    <glyph glyph-name="Jcircumflex" unicode="&#x134;" horiz-adv-x="556" 
d="M14 0zM460 571v-358q0 -103 -67.5 -166t-170.5 -63q-86 0 -147 48.5t-61 120.5q0 44 24 73.5t60 29.5q38 0 59.5 -24.5t16.5 -60.5l-47 -60q16 -19 35.5 -27t45.5 -8q42 0 65 31.5t23 90.5v373l-23 43l-68 10v70h336v-70l-58 -10zM371 822l-138 -86l-29 29l127 164h85
l126 -164l-29 -29z" />
    <glyph glyph-name="jcircumflex" unicode="&#x135;" horiz-adv-x="313" 
d="M0 0zM165 -127q-32 -32 -69 -47.5t-82 -15.5q-46 0 -73.5 19.5t-27.5 51.5q0 28 20 45.5t52 17.5l65 -65q25 14 34.5 43.5t9.5 90.5v395l-23 43l-51 10v61h218v-427q0 -81 -16.5 -131.5t-56.5 -90.5zM143 691l-123 -108l-33 27l118 191h81l117 -191l-33 -27z" />
    <glyph glyph-name="uni0136" unicode="&#x136;" horiz-adv-x="687" 
d="M23 0zM290 72l57 -11v-61h-324v70l58 10l23 43v448l-23 43l-58 10v70h324v-61l-57 -11l-22 -41v-188h23l144 171l32 130h195v-70l-73 -17l-175 -201l212 -321l52 -15v-70h-221l-14 69l-148 241h-27v-197zM351 -50q34 0 57 -25.5t23 -65.5q0 -53 -41.5 -104t-113.5 -86
l-25 37q26 17 50.5 44.5t34.5 52.5l-64 37q-1 4 -1 7v6q0 43 22 70t58 27z" />
    <glyph glyph-name="uni0137" unicode="&#x137;" horiz-adv-x="564" 
d="M9 0zM241 71l34 -15v-56h-266v61l48 10l23 43v516l-23 43l-48 10v61h215v-439h21l90 98l28 119h172v-61l-53 -16l-124 -128l149 -241l46 -15v-61h-197v49l-109 192h-23v-137zM281 -55q34 0 57 -25.5t23 -65.5q0 -53 -41.5 -104t-113.5 -86l-25 37q26 17 50.5 44.5
t34.5 52.5l-64 37q-1 4 -1 7v6q0 43 22 70t58 27z" />
    <glyph glyph-name="Lacute" unicode="&#x139;" horiz-adv-x="589" 
d="M23 0zM563 0h-540v70l58 10l23 43v448l-23 43l-58 10v70h346v-70l-78 -10l-23 -43v-488h136l61 40l14 111h84v-234zM271 808l-118 -65l-33 33l80 110q28 39 47.5 54t40.5 15q24 0 43 -19t19 -44q0 -22 -17 -40.5t-62 -43.5z" />
    <glyph glyph-name="lacute" unicode="&#x13a;" horiz-adv-x="314" 
d="M11 0zM298 0h-287v61l51 10l23 43v516l-23 43l-51 10v61h218v-630l23 -43l46 -10v-61zM252 900l-113 -110l-40 23l62 156q13 34 27.5 47.5t37.5 13.5q25 0 46 -18.5t21 -42.5q0 -16 -8 -30t-33 -39z" />
    <glyph glyph-name="uni013B" unicode="&#x13b;" horiz-adv-x="589" 
d="M23 0zM563 0h-540v70l58 10l23 43v448l-23 43l-58 10v70h346v-70l-78 -10l-23 -43v-488h136l61 40l14 111h84v-234zM311 -50q34 0 57 -25.5t23 -65.5q0 -53 -41.5 -104t-113.5 -86l-25 37q26 17 50.5 44.5t34.5 52.5l-64 37q-1 4 -1 7v6q0 43 22 70t58 27z" />
    <glyph glyph-name="uni013C" unicode="&#x13c;" horiz-adv-x="314" 
d="M11 0zM298 0h-287v61l51 10l23 43v516l-23 43l-51 10v61h218v-630l23 -43l46 -10v-61zM156 -55q34 0 57 -25.5t23 -65.5q0 -53 -41.5 -104t-113.5 -86l-25 37q26 17 50.5 44.5t34.5 52.5l-64 37q-1 4 -1 7v6q0 43 22 70t58 27z" />
    <glyph glyph-name="Lcaron" unicode="&#x13d;" horiz-adv-x="589" 
d="M23 0zM563 0h-540v70l58 10l23 43v448l-23 43l-58 10v70h346v-70l-78 -10l-23 -43v-488h136l61 40l14 111h84v-234zM526 623l-65 -137l-44 4v180q0 33 15.5 50.5t45.5 17.5t47 -14.5t17 -41.5q0 -13 -3.5 -26.5t-12.5 -32.5z" />
    <glyph glyph-name="lcaron" unicode="&#x13e;" horiz-adv-x="319" 
d="M11 0zM298 0h-287v61l51 10l23 43v516l-23 43l-51 10v61h218v-630l23 -43l46 -10v-61zM404 702l-65 -137l-44 4v180q0 33 15.5 50.5t45.5 17.5t47 -14.5t17 -41.5q0 -13 -3.5 -26.5t-12.5 -32.5z" />
    <glyph glyph-name="Lslash" unicode="&#x141;" horiz-adv-x="579" 
d="M479 234h84v-234h-540v70l58 10l23 43v122l-77 -37v97l77 37v229l-23 43l-58 10v70h346v-70l-78 -10l-23 -43v-154l134 65v-100l-134 -65v-234h136l61 40z" />
    <glyph glyph-name="lslash" unicode="&#x142;" horiz-adv-x="340" 
d="M265 71l46 -10v-61h-287v61l51 10l23 43v184l-82 -40v78l82 39v255l-23 43l-51 10v61h218v-306l78 39v-80l-78 -37v-246z" />
    <glyph glyph-name="Nacute" unicode="&#x143;" horiz-adv-x="729" 
d="M23 0zM291 0h-268v70l58 10l23 43v448l-23 43l-58 10v70h285l175 -366l41 -130h24l-16 144v239l-22 41l-62 11v61h263v-70l-53 -10l-23 -43v-571h-169l-209 433l-42 130h-24l16 -144v-306l22 -41l62 -11v-61zM470 805l-118 -65l-33 33l80 110q28 39 47.5 54t40.5 15
q24 0 43 -19t19 -44q0 -22 -17 -40.5t-62 -43.5z" />
    <glyph glyph-name="nacute" unicode="&#x144;" horiz-adv-x="612" 
d="M18 0zM284 0h-266v61l48 10l23 43v294l-23 43l-48 10v61h215v-25l-10 -94l8 -4q42 75 80.5 105.5t88.5 30.5q65 0 100.5 -40.5t35.5 -115.5v-265l23 -43l43 -10v-61h-237v56l19 19l8 25v254q0 32 -15.5 48t-45.5 16q-17 0 -35 -8.5t-32 -22.5q-17 -17 -24 -41.5t-7 -69.5
v-172l17 -33l34 -15v-56zM409 699l-113 -110l-40 23l62 156q13 34 27.5 47.5t37.5 13.5q25 0 46 -18.5t21 -42.5q0 -16 -8 -30t-33 -39z" />
    <glyph glyph-name="uni0145" unicode="&#x145;" horiz-adv-x="729" 
d="M23 0zM291 0h-268v70l58 10l23 43v448l-23 43l-58 10v70h285l175 -366l41 -130h24l-16 144v239l-22 41l-62 11v61h263v-70l-53 -10l-23 -43v-571h-169l-209 433l-42 130h-24l16 -144v-306l22 -41l62 -11v-61zM359 -45q34 0 57 -25.5t23 -65.5q0 -53 -41.5 -104
t-113.5 -86l-25 37q26 17 50.5 44.5t34.5 52.5l-64 37q-1 4 -1 7v6q0 43 22 70t58 27z" />
    <glyph glyph-name="uni0146" unicode="&#x146;" horiz-adv-x="612" 
d="M18 0zM284 0h-266v61l48 10l23 43v294l-23 43l-48 10v61h215v-25l-10 -94l8 -4q42 75 80.5 105.5t88.5 30.5q65 0 100.5 -40.5t35.5 -115.5v-265l23 -43l43 -10v-61h-237v56l19 19l8 25v254q0 32 -15.5 48t-45.5 16q-17 0 -35 -8.5t-32 -22.5q-17 -17 -24 -41.5t-7 -69.5
v-172l17 -33l34 -15v-56zM306 -55q34 0 57 -25.5t23 -65.5q0 -53 -41.5 -104t-113.5 -86l-25 37q26 17 50.5 44.5t34.5 52.5l-64 37q-1 4 -1 7v6q0 43 22 70t58 27z" />
    <glyph glyph-name="Ncaron" unicode="&#x147;" horiz-adv-x="729" 
d="M23 0zM291 0h-268v70l58 10l23 43v448l-23 43l-58 10v70h285l175 -366l41 -130h24l-16 144v239l-22 41l-62 11v61h263v-70l-53 -10l-23 -43v-571h-169l-209 433l-42 130h-24l16 -144v-306l22 -41l62 -11v-61zM381 855l138 86l29 -29l-127 -164h-85l-126 164l29 29z" />
    <glyph glyph-name="ncaron" unicode="&#x148;" horiz-adv-x="612" 
d="M18 0zM284 0h-266v61l48 10l23 43v294l-23 43l-48 10v61h215v-25l-10 -94l8 -4q42 75 80.5 105.5t88.5 30.5q65 0 100.5 -40.5t35.5 -115.5v-265l23 -43l43 -10v-61h-237v56l19 19l8 25v254q0 32 -15.5 48t-45.5 16q-17 0 -35 -8.5t-32 -22.5q-17 -17 -24 -41.5t-7 -69.5
v-172l17 -33l34 -15v-56zM152 789l33 27l127 -108l123 108l33 -27l-118 -191h-81z" />
    <glyph glyph-name="Eng" unicode="&#x14a;" horiz-adv-x="729" 
d="M557 -130q-29 -29 -66 -44.5t-77 -15.5q-45 0 -73 23t-28 58q0 28 20 45.5t52 17.5l67 -67q19 10 29 38.5t12 84.5h-32l-204 423l-42 130h-24l16 -144v-306l22 -41l62 -11v-61h-268v70l58 10l23 43v448l-23 43l-58 10v70h285l175 -366l41 -130h24l-16 144v239l-22 41
l-62 11v61h263v-70l-53 -10l-23 -43v-458q0 -81 -20 -143t-58 -100z" />
    <glyph glyph-name="eng" unicode="&#x14b;" horiz-adv-x="602" 
d="M463 -127q-32 -32 -66.5 -47.5t-74.5 -15.5q-46 0 -73.5 19.5t-27.5 51.5q0 28 17.5 45.5t44.5 17.5l74 -66q20 12 27.5 40.5t7.5 94.5v341q0 32 -15.5 48t-45.5 16q-17 0 -35 -8.5t-32 -22.5q-17 -17 -24 -41.5t-7 -69.5v-172l17 -33l34 -15v-56h-266v61l48 10l23 43
v294l-23 43l-48 10v61h215v-25l-10 -94l8 -4q42 75 80.5 105.5t88.5 30.5q65 0 100.5 -40.5t35.5 -115.5v-284q0 -81 -16.5 -131.5t-56.5 -90.5z" />
    <glyph glyph-name="Omacron" unicode="&#x14c;" horiz-adv-x="730" 
d="M36 0zM694 349q0 -161 -91.5 -263t-238.5 -102t-237.5 100.5t-90.5 260.5q0 161 91.5 263t238.5 102t237.5 -100.5t90.5 -260.5zM217 349q0 -138 38 -210t111 -72t110 70t37 208t-38 210t-111 72t-110 -70t-37 -208zM539 774h-348v84h348v-84z" />
    <glyph glyph-name="omacron" unicode="&#x14d;" horiz-adv-x="584" 
d="M29 0zM555 264q0 -121 -74.5 -200.5t-188.5 -79.5q-119 0 -191 75.5t-72 198.5q0 121 74.5 200.5t188.5 79.5q119 0 191 -75.5t72 -198.5zM190 272q0 -104 28 -159t81 -55q47 0 71 48.5t24 143.5q0 104 -28 159t-81 55q-47 0 -71 -48.5t-24 -143.5zM446 616h-308v82h308
v-82z" />
    <glyph glyph-name="Obreve" unicode="&#x14e;" horiz-adv-x="730" 
d="M36 0zM694 349q0 -161 -91.5 -263t-238.5 -102t-237.5 100.5t-90.5 260.5q0 161 91.5 263t238.5 102t237.5 -100.5t90.5 -260.5zM217 349q0 -138 38 -210t111 -72t110 70t37 208t-38 210t-111 72t-110 -70t-37 -208zM365 761q-66 0 -110 41t-65 121l47 19
q27 -43 57.5 -62.5t71.5 -19.5t71.5 19.5t57.5 62.5l45 -19q-21 -80 -65 -121t-110 -41z" />
    <glyph glyph-name="obreve" unicode="&#x14f;" horiz-adv-x="584" 
d="M29 0zM555 264q0 -121 -74.5 -200.5t-188.5 -79.5q-119 0 -191 75.5t-72 198.5q0 121 74.5 200.5t188.5 79.5q119 0 191 -75.5t72 -198.5zM190 272q0 -104 28 -159t81 -55q47 0 71 48.5t24 143.5q0 104 -28 159t-81 55q-47 0 -71 -48.5t-24 -143.5zM292 603
q-68 0 -109.5 49t-51.5 141l47 13q21 -57 46 -80.5t67 -23.5t67 23.5t46 80.5l49 -13q-10 -92 -51.5 -141t-109.5 -49z" />
    <glyph glyph-name="Ohungarumlaut" unicode="&#x150;" horiz-adv-x="730" 
d="M36 0zM694 349q0 -161 -91.5 -263t-238.5 -102t-237.5 100.5t-90.5 260.5q0 161 91.5 263t238.5 102t237.5 -100.5t90.5 -260.5zM217 349q0 -138 38 -210t111 -72t110 70t37 208t-38 210t-111 72t-110 -70t-37 -208zM360 818l-111 -70l-33 33l80 110q34 48 49 58.5
t35 10.5q23 0 40 -18t17 -42q0 -19 -17 -37t-60 -45zM556 818l-115 -70l-33 33l84 110q38 51 52 60t32 9q23 0 40 -18t17 -42q0 -19 -17 -37t-60 -45z" />
    <glyph glyph-name="ohungarumlaut" unicode="&#x151;" horiz-adv-x="584" 
d="M29 0zM555 264q0 -121 -74.5 -200.5t-188.5 -79.5q-119 0 -191 75.5t-72 198.5q0 121 74.5 200.5t188.5 79.5q119 0 191 -75.5t72 -198.5zM190 272q0 -104 28 -159t81 -55q47 0 71 48.5t24 143.5q0 104 -28 159t-81 55q-47 0 -71 -48.5t-24 -143.5zM314 701l-105 -111
l-37 21l59 148q16 39 30.5 54.5t36.5 15.5q25 0 42 -15.5t17 -38.5q0 -15 -9.5 -31.5t-33.5 -42.5zM499 701l-105 -111l-37 21l59 148q16 39 30.5 54.5t36.5 15.5q25 0 42 -15.5t17 -38.5q0 -15 -9.5 -31.5t-33.5 -42.5z" />
    <glyph glyph-name="OE" unicode="&#x152;" horiz-adv-x="974" 
d="M938 224v-224h-558q-162 0 -253 88t-91 244q0 171 94.5 266.5t261.5 95.5h533v-214h-84l-14 91l-61 40h-162v-216h54l64 14l5 70h60v-250h-60l-5 70l-64 14h-54v-230h175l61 40l14 101h84zM440 83v528h-44q-96 0 -139.5 -63t-43.5 -201q0 -135 45 -199.5t139 -64.5h43z
" />
    <glyph glyph-name="oe" unicode="&#x153;" horiz-adv-x="908" 
d="M835 117l29 -58q-53 -37 -106.5 -55t-108.5 -18q-56 0 -101.5 21.5t-77.5 63.5q-34 -41 -79.5 -63t-98.5 -22q-119 0 -191 75t-72 197q0 120 74.5 199t188.5 79q60 0 106 -21t79 -64q35 43 78 64t94 21q107 0 166 -72t59 -199v-32h-326q6 -79 40 -116t101 -37
q33 0 67 8.5t79 28.5zM638 467q-43 0 -66 -43t-25 -127h175q-2 91 -21.5 130.5t-62.5 39.5zM190 272q0 -103 28 -157.5t81 -54.5q47 0 71 48t24 142q0 103 -28 157.5t-81 54.5q-47 0 -71 -48t-24 -142z" />
    <glyph glyph-name="Racute" unicode="&#x154;" horiz-adv-x="691" 
d="M23 0zM344 0h-321v70l58 10l23 43v448l-23 43l-58 10v70h310q141 0 215.5 -45t74.5 -131q0 -79 -51.5 -128.5t-152.5 -68.5v-9q54 -12 86.5 -35.5t62.5 -82.5l47 -96l73 -28v-70h-227l-11 72l-67 137q-21 43 -40.5 58t-58.5 15h-19v-169l22 -41l57 -11v-61zM265 611v-246
h53q64 0 99 35t35 100q0 56 -31 83.5t-95 27.5h-61zM430 808l-118 -65l-33 33l80 110q28 39 47.5 54t40.5 15q24 0 43 -19t19 -44q0 -22 -17 -40.5t-62 -43.5z" />
    <glyph glyph-name="racute" unicode="&#x155;" horiz-adv-x="484" 
d="M18 0zM256 71l53 -10v-61h-291v61l48 10l23 43v294l-23 43l-48 10v61h215v-25l-10 -127l8 -4q34 85 72.5 127t82.5 42q37 0 60.5 -23.5t23.5 -58.5q0 -44 -31.5 -70.5t-76.5 -23.5l-49 53q-40 -28 -60 -68.5t-20 -92.5v-137zM335 694l-113 -110l-40 23l62 156
q13 34 27.5 47.5t37.5 13.5q25 0 46 -18.5t21 -42.5q0 -16 -8 -30t-33 -39z" />
    <glyph glyph-name="uni0156" unicode="&#x156;" horiz-adv-x="691" 
d="M23 0zM344 0h-321v70l58 10l23 43v448l-23 43l-58 10v70h310q141 0 215.5 -45t74.5 -131q0 -79 -51.5 -128.5t-152.5 -68.5v-9q54 -12 86.5 -35.5t62.5 -82.5l47 -96l73 -28v-70h-227l-11 72l-67 137q-21 43 -40.5 58t-58.5 15h-19v-169l22 -41l57 -11v-61zM265 611v-246
h53q64 0 99 35t35 100q0 56 -31 83.5t-95 27.5h-61zM356 -50q34 0 57 -25.5t23 -65.5q0 -53 -41.5 -104t-113.5 -86l-25 37q26 17 50.5 44.5t34.5 52.5l-64 37q-1 4 -1 7v6q0 43 22 70t58 27z" />
    <glyph glyph-name="uni0157" unicode="&#x157;" horiz-adv-x="484" 
d="M18 0zM256 71l53 -10v-61h-291v61l48 10l23 43v294l-23 43l-48 10v61h215v-25l-10 -127l8 -4q34 85 72.5 127t82.5 42q37 0 60.5 -23.5t23.5 -58.5q0 -44 -31.5 -70.5t-76.5 -23.5l-49 53q-40 -28 -60 -68.5t-20 -92.5v-137zM164 -55q34 0 57 -25.5t23 -65.5
q0 -53 -41.5 -104t-113.5 -86l-25 37q26 17 50.5 44.5t34.5 52.5l-64 37q-1 4 -1 7v6q0 43 22 70t58 27z" />
    <glyph glyph-name="Rcaron" unicode="&#x158;" horiz-adv-x="691" 
d="M23 0zM344 0h-321v70l58 10l23 43v448l-23 43l-58 10v70h310q141 0 215.5 -45t74.5 -131q0 -79 -51.5 -128.5t-152.5 -68.5v-9q54 -12 86.5 -35.5t62.5 -82.5l47 -96l73 -28v-70h-227l-11 72l-67 137q-21 43 -40.5 58t-58.5 15h-19v-169l22 -41l57 -11v-61zM265 611v-246
h53q64 0 99 35t35 100q0 56 -31 83.5t-95 27.5h-61zM341 858l138 86l29 -29l-127 -164h-85l-126 164l29 29z" />
    <glyph glyph-name="rcaron" unicode="&#x159;" horiz-adv-x="484" 
d="M18 0zM256 71l53 -10v-61h-291v61l48 10l23 43v294l-23 43l-48 10v61h215v-25l-10 -127l8 -4q34 85 72.5 127t82.5 42q37 0 60.5 -23.5t23.5 -58.5q0 -44 -31.5 -70.5t-76.5 -23.5l-49 53q-40 -28 -60 -68.5t-20 -92.5v-137zM78 784l33 27l127 -108l123 108l33 -27
l-118 -191h-81z" />
    <glyph glyph-name="Sacute" unicode="&#x15a;" horiz-adv-x="594" 
d="M47 0zM357 419q110 -42 153 -91.5t43 -120.5q0 -96 -70 -157.5t-176 -61.5q-44 0 -86.5 11.5t-83.5 34.5l-50 -35h-40v233h86l44 -125q29 -19 60.5 -29t62.5 -10q49 0 78.5 26t29.5 72q0 36 -28.5 62.5t-124.5 62.5q-109 42 -152 89.5t-43 114.5q0 90 66.5 150.5
t164.5 60.5q34 0 68 -8.5t73 -27.5l50 35h40v-227h-88l-42 120q-26 16 -46.5 22.5t-40.5 6.5q-46 0 -73 -24.5t-27 -66.5q0 -23 14 -42t44 -35q11 -6 26 -12.5t68 -27.5zM398 813l-118 -65l-33 33l80 110q28 39 47.5 54t40.5 15q24 0 43 -19t19 -44q0 -22 -17 -40.5
t-62 -43.5z" />
    <glyph glyph-name="sacute" unicode="&#x15b;" horiz-adv-x="486" 
d="M33 0zM287 322q89 -33 123.5 -71t34.5 -99q0 -76 -60.5 -121t-157.5 -45q-53 0 -103.5 12t-90.5 34v145h80l22 -100q20 -12 43 -17.5t49 -5.5q37 0 61 18t24 46q0 32 -26 51.5t-100 47.5q-78 30 -110 67t-32 93q0 69 58 114t144 45q41 0 84.5 -10t89.5 -30v-128h-79
l-21 85q-15 8 -33 11.5t-40 3.5q-31 0 -52 -17t-21 -43t19.5 -42t93.5 -44zM346 699l-113 -110l-40 23l62 156q13 34 27.5 47.5t37.5 13.5q25 0 46 -18.5t21 -42.5q0 -16 -8 -30t-33 -39z" />
    <glyph glyph-name="Scircumflex" unicode="&#x15c;" horiz-adv-x="594" 
d="M47 0zM357 419q110 -42 153 -91.5t43 -120.5q0 -96 -70 -157.5t-176 -61.5q-44 0 -86.5 11.5t-83.5 34.5l-50 -35h-40v233h86l44 -125q29 -19 60.5 -29t62.5 -10q49 0 78.5 26t29.5 72q0 36 -28.5 62.5t-124.5 62.5q-109 42 -152 89.5t-43 114.5q0 90 66.5 150.5
t164.5 60.5q34 0 68 -8.5t73 -27.5l50 35h40v-227h-88l-42 120q-26 16 -46.5 22.5t-40.5 6.5q-46 0 -73 -24.5t-27 -66.5q0 -23 14 -42t44 -35q11 -6 26 -12.5t68 -27.5zM305 827l-138 -86l-29 29l127 164h85l126 -164l-29 -29z" />
    <glyph glyph-name="scircumflex" unicode="&#x15d;" horiz-adv-x="486" 
d="M33 0zM287 322q89 -33 123.5 -71t34.5 -99q0 -76 -60.5 -121t-157.5 -45q-53 0 -103.5 12t-90.5 34v145h80l22 -100q20 -12 43 -17.5t49 -5.5q37 0 61 18t24 46q0 32 -26 51.5t-100 47.5q-78 30 -110 67t-32 93q0 69 58 114t144 45q41 0 84.5 -10t89.5 -30v-128h-79
l-21 85q-15 8 -33 11.5t-40 3.5q-31 0 -52 -17t-21 -43t19.5 -42t93.5 -44zM245 696l-123 -108l-33 27l118 191h81l117 -191l-33 -27z" />
    <glyph glyph-name="uni015E" unicode="&#x15e;" horiz-adv-x="594" 
d="M415 -151q0 -47 -37 -74.5t-98 -27.5q-30 0 -58.5 8t-62.5 27l20 37q24 -12 46 -18t42 -6q26 0 40.5 11.5t14.5 30.5q0 23 -20 33.5t-64 10.5h-16l-19 25l59 85q-32 4 -63 14.5t-62 28.5l-50 -35h-40v233h86l44 -125q29 -19 60.5 -29t62.5 -10q49 0 78.5 26t29.5 72
q0 36 -28.5 62.5t-124.5 62.5q-109 42 -152 89.5t-43 114.5q0 90 66.5 150.5t164.5 60.5q34 0 68 -8.5t73 -27.5l50 35h40v-227h-88l-42 120q-26 16 -46.5 22.5t-40.5 6.5q-46 0 -73 -24.5t-27 -66.5q0 -23 14 -42t44 -35q11 -6 26 -12.5t68 -27.5q110 -42 153 -91.5
t43 -120.5q0 -94 -67.5 -155.5t-170.5 -63.5l-36 -53q65 1 100.5 -21.5t35.5 -64.5z" />
    <glyph glyph-name="uni015F" unicode="&#x15f;" horiz-adv-x="486" 
d="M360 -151q0 -47 -37 -74.5t-98 -27.5q-30 0 -58.5 8t-62.5 27l20 37q24 -12 46 -18t42 -6q26 0 40.5 11.5t14.5 30.5q0 23 -20 33.5t-64 10.5h-16l-19 25l56 81q-48 2 -91.5 13.5t-79.5 31.5v145h80l22 -100q20 -12 43 -17.5t49 -5.5q37 0 61 18t24 46q0 32 -26 51.5
t-100 47.5q-78 30 -110 67t-32 93q0 69 58 114t144 45q41 0 84.5 -10t89.5 -30v-128h-79l-21 85q-15 8 -33 11.5t-40 3.5q-31 0 -52 -17t-21 -43t19.5 -42t93.5 -44q89 -33 123.5 -71t34.5 -99q0 -69 -50.5 -113t-135.5 -52l-35 -52q65 1 100.5 -21.5t35.5 -64.5z" />
    <glyph glyph-name="Scaron" unicode="&#x160;" horiz-adv-x="594" 
d="M47 0zM357 419q110 -42 153 -91.5t43 -120.5q0 -96 -70 -157.5t-176 -61.5q-44 0 -86.5 11.5t-83.5 34.5l-50 -35h-40v233h86l44 -125q29 -19 60.5 -29t62.5 -10q49 0 78.5 26t29.5 72q0 36 -28.5 62.5t-124.5 62.5q-109 42 -152 89.5t-43 114.5q0 90 66.5 150.5
t164.5 60.5q34 0 68 -8.5t73 -27.5l50 35h40v-227h-88l-42 120q-26 16 -46.5 22.5t-40.5 6.5q-46 0 -73 -24.5t-27 -66.5q0 -23 14 -42t44 -35q11 -6 26 -12.5t68 -27.5zM309 863l138 86l29 -29l-127 -164h-85l-126 164l29 29z" />
    <glyph glyph-name="scaron" unicode="&#x161;" horiz-adv-x="486" 
d="M33 0zM287 322q89 -33 123.5 -71t34.5 -99q0 -76 -60.5 -121t-157.5 -45q-53 0 -103.5 12t-90.5 34v145h80l22 -100q20 -12 43 -17.5t49 -5.5q37 0 61 18t24 46q0 32 -26 51.5t-100 47.5q-78 30 -110 67t-32 93q0 69 58 114t144 45q41 0 84.5 -10t89.5 -30v-128h-79
l-21 85q-15 8 -33 11.5t-40 3.5q-31 0 -52 -17t-21 -43t19.5 -42t93.5 -44zM89 789l33 27l127 -108l123 108l33 -27l-118 -191h-81z" />
    <glyph glyph-name="uni0162" unicode="&#x162;" horiz-adv-x="672" 
d="M458 -151q0 -47 -37 -74.5t-98 -27.5q-30 0 -58.5 8t-62.5 27l20 37q24 -12 46 -18t42 -6q26 0 40.5 11.5t14.5 30.5q0 23 -20 33.5t-64 10.5h-16l-19 25l65 94h-148v70l68 10l23 43v488h-65l-61 -40l-14 -121h-84v244h612v-244h-84l-14 121l-61 40h-65v-488l23 -43
l68 -10v-70h-143l-44 -65q65 1 100.5 -21.5t35.5 -64.5z" />
    <glyph glyph-name="uni0163" unicode="&#x163;" horiz-adv-x="415" 
d="M354 -151q0 -47 -37 -74.5t-98 -27.5q-30 0 -58.5 8t-62.5 27l20 37q24 -12 46 -18t42 -6q26 0 40.5 11.5t14.5 30.5q0 23 -20 33.5t-64 10.5h-16l-19 25l58 83q-53 8 -80.5 43t-27.5 95v311h-78v71l79 16l54 140h89v-143h148v-84h-148v-293q0 -34 15.5 -51t45.5 -17
q16 0 33.5 4t41.5 13l19 -52q-36 -23 -69.5 -36.5t-67.5 -17.5l-36 -53q65 1 100.5 -21.5t35.5 -64.5z" />
    <glyph glyph-name="Tcaron" unicode="&#x164;" horiz-adv-x="672" 
d="M30 0zM509 0h-346v70l68 10l23 43v488h-65l-61 -40l-14 -121h-84v244h612v-244h-84l-14 121l-61 40h-65v-488l23 -43l68 -10v-70zM338 858l138 86l29 -29l-127 -164h-85l-126 164l29 29z" />
    <glyph glyph-name="tcaron" unicode="&#x165;" horiz-adv-x="415" 
d="M14 0zM228 -13q-66 0 -101 36t-35 104v311h-78v71l79 16l54 140h89v-143h148v-84h-148v-293q0 -34 15.5 -51t45.5 -17q16 0 33.5 4t41.5 13l19 -52q-44 -28 -83.5 -41.5t-79.5 -13.5zM402 702l-65 -137l-44 4v180q0 33 15.5 50.5t45.5 17.5t47 -14.5t17 -41.5
q0 -13 -3.5 -26.5t-12.5 -32.5z" />
    <glyph glyph-name="Tbar" unicode="&#x166;" horiz-adv-x="672" 
d="M441 80l68 -10v-70h-346v70l68 10l23 43v164h-110v88h110v236h-65l-61 -40l-14 -121h-84v244h612v-244h-84l-14 121l-61 40h-65v-236h110v-88h-110v-164z" />
    <glyph glyph-name="tbar" unicode="&#x167;" horiz-adv-x="415" 
d="M372 94l19 -52q-44 -28 -83.5 -41.5t-79.5 -13.5q-66 0 -101 36t-35 104v101h-68v69h68v141h-78v71l79 16l54 140h89v-143h148v-84h-148v-141h123v-69h-123v-83q0 -34 15.5 -51t45.5 -17q16 0 33.5 4t41.5 13z" />
    <glyph glyph-name="Utilde" unicode="&#x168;" horiz-adv-x="713" 
d="M15 0zM361 -15q-127 0 -196 61.5t-69 175.5v349l-23 43l-58 10v70h329v-61l-62 -11l-22 -41v-366q0 -63 32 -95.5t94 -32.5q61 0 93.5 33t32.5 95v366l-22 41l-62 11v61h270v-70l-58 -10l-23 -43v-344q0 -117 -67 -179.5t-189 -62.5zM301 815q-16 0 -28 -14t-30 -55
l-58 21q25 84 53 117t70 33q16 0 36.5 -7t60.5 -29q32 -16 45 -21t22 -5q16 0 28 14.5t31 55.5l58 -21q-26 -85 -54 -118t-70 -33q-16 0 -36.5 7t-61.5 29q-31 16 -44 21t-22 5z" />
    <glyph glyph-name="utilde" unicode="&#x169;" horiz-adv-x="603" 
d="M10 0zM212 -13q-65 0 -100.5 40.5t-35.5 115.5v265l-23 43l-43 10v61h210v-354q0 -32 15.5 -48t45.5 -16q17 0 35 8.5t32 22.5q17 17 24 41.5t7 69.5v172l-20 38l-51 10v56h215v-408l23 -43l48 -10v-61h-215v25l10 94l-8 4q-42 -75 -80.5 -105.5t-88.5 -30.5zM209 667
q-14 0 -25 -15.5t-29 -64.5l-57 21q27 97 53.5 129.5t70.5 32.5q14 0 33 -8t57 -33q31 -20 44 -26t22 -6q14 0 25 15.5t30 65.5l57 -21q-28 -98 -54.5 -130.5t-70.5 -32.5q-14 0 -33 8t-57 33q-31 20 -44 26t-22 6z" />
    <glyph glyph-name="Umacron" unicode="&#x16a;" horiz-adv-x="713" 
d="M15 0zM361 -15q-127 0 -196 61.5t-69 175.5v349l-23 43l-58 10v70h329v-61l-62 -11l-22 -41v-366q0 -63 32 -95.5t94 -32.5q61 0 93.5 33t32.5 95v366l-22 41l-62 11v61h270v-70l-58 -10l-23 -43v-344q0 -117 -67 -179.5t-189 -62.5zM559 769h-348v84h348v-84z" />
    <glyph glyph-name="umacron" unicode="&#x16b;" horiz-adv-x="603" 
d="M10 0zM212 -13q-65 0 -100.5 40.5t-35.5 115.5v265l-23 43l-43 10v61h210v-354q0 -32 15.5 -48t45.5 -16q17 0 35 8.5t32 22.5q17 17 24 41.5t7 69.5v172l-20 38l-51 10v56h215v-408l23 -43l48 -10v-61h-215v25l10 94l-8 4q-42 -75 -80.5 -105.5t-88.5 -30.5zM444 611
h-308v82h308v-82z" />
    <glyph glyph-name="Ubreve" unicode="&#x16c;" horiz-adv-x="713" 
d="M15 0zM361 -15q-127 0 -196 61.5t-69 175.5v349l-23 43l-58 10v70h329v-61l-62 -11l-22 -41v-366q0 -63 32 -95.5t94 -32.5q61 0 93.5 33t32.5 95v366l-22 41l-62 11v61h270v-70l-58 -10l-23 -43v-344q0 -117 -67 -179.5t-189 -62.5zM385 756q-66 0 -110 41t-65 121
l47 19q27 -43 57.5 -62.5t71.5 -19.5t71.5 19.5t57.5 62.5l45 -19q-21 -80 -65 -121t-110 -41z" />
    <glyph glyph-name="ubreve" unicode="&#x16d;" horiz-adv-x="603" 
d="M10 0zM212 -13q-65 0 -100.5 40.5t-35.5 115.5v265l-23 43l-43 10v61h210v-354q0 -32 15.5 -48t45.5 -16q17 0 35 8.5t32 22.5q17 17 24 41.5t7 69.5v172l-20 38l-51 10v56h215v-408l23 -43l48 -10v-61h-215v25l10 94l-8 4q-42 -75 -80.5 -105.5t-88.5 -30.5zM290 598
q-68 0 -109.5 49t-51.5 141l47 13q21 -57 46 -80.5t67 -23.5t67 23.5t46 80.5l49 -13q-10 -92 -51.5 -141t-109.5 -49z" />
    <glyph glyph-name="Uring" unicode="&#x16e;" horiz-adv-x="713" 
d="M15 0zM361 -15q-127 0 -196 61.5t-69 175.5v349l-23 43l-58 10v70h329v-61l-62 -11l-22 -41v-366q0 -63 32 -95.5t94 -32.5q61 0 93.5 33t32.5 95v366l-22 41l-62 11v61h270v-70l-58 -10l-23 -43v-344q0 -117 -67 -179.5t-189 -62.5zM517 862q0 -49 -38.5 -82t-93.5 -33
t-93.5 33t-38.5 82t38.5 82t93.5 33t93.5 -33t38.5 -82zM309 862q0 -29 21.5 -48.5t54.5 -19.5t54.5 19.5t21.5 48.5t-21.5 48.5t-54.5 19.5t-54.5 -19.5t-21.5 -48.5z" />
    <glyph glyph-name="uring" unicode="&#x16f;" horiz-adv-x="603" 
d="M10 0zM212 -13q-65 0 -100.5 40.5t-35.5 115.5v265l-23 43l-43 10v61h210v-354q0 -32 15.5 -48t45.5 -16q17 0 35 8.5t32 22.5q17 17 24 41.5t7 69.5v172l-20 38l-51 10v56h215v-408l23 -43l48 -10v-61h-215v25l10 94l-8 4q-42 -75 -80.5 -105.5t-88.5 -30.5zM417 712
q0 -51 -37 -87t-90 -36t-90 36t-37 87t37 87t90 36t90 -36t37 -87zM219 712q0 -34 19.5 -55t51.5 -21t51.5 21t19.5 55t-19.5 55t-51.5 21t-51.5 -21t-19.5 -55z" />
    <glyph glyph-name="Uhungarumlaut" unicode="&#x170;" horiz-adv-x="713" 
d="M15 0zM361 -15q-127 0 -196 61.5t-69 175.5v349l-23 43l-58 10v70h329v-61l-62 -11l-22 -41v-366q0 -63 32 -95.5t94 -32.5q61 0 93.5 33t32.5 95v366l-22 41l-62 11v61h270v-70l-58 -10l-23 -43v-344q0 -117 -67 -179.5t-189 -62.5zM380 813l-111 -70l-33 33l80 110
q34 48 49 58.5t35 10.5q23 0 40 -18t17 -42q0 -19 -17 -37t-60 -45zM576 813l-115 -70l-33 33l84 110q38 51 52 60t32 9q23 0 40 -18t17 -42q0 -19 -17 -37t-60 -45z" />
    <glyph glyph-name="uhungarumlaut" unicode="&#x171;" horiz-adv-x="603" 
d="M10 0zM212 -13q-65 0 -100.5 40.5t-35.5 115.5v265l-23 43l-43 10v61h210v-354q0 -32 15.5 -48t45.5 -16q17 0 35 8.5t32 22.5q17 17 24 41.5t7 69.5v172l-20 38l-51 10v56h215v-408l23 -43l48 -10v-61h-215v25l10 94l-8 4q-42 -75 -80.5 -105.5t-88.5 -30.5zM312 696
l-105 -111l-37 21l59 148q16 39 30.5 54.5t36.5 15.5q25 0 42 -15.5t17 -38.5q0 -15 -9.5 -31.5t-33.5 -42.5zM497 696l-105 -111l-37 21l59 148q16 39 30.5 54.5t36.5 15.5q25 0 42 -15.5t17 -38.5q0 -15 -9.5 -31.5t-33.5 -42.5z" />
    <glyph glyph-name="Uogonek" unicode="&#x172;" horiz-adv-x="713" 
d="M458 -154l22 -39q-30 -29 -63.5 -44.5t-67.5 -15.5q-44 0 -73 23.5t-29 61.5q0 28 19.5 60.5t62.5 77.5l15 15q-120 5 -184 66t-64 171v349l-23 43l-58 10v70h329v-61l-62 -11l-22 -41v-366q0 -63 32 -95.5t94 -32.5q61 0 93.5 33t32.5 95v366l-22 41l-62 11v61h270v-70
l-58 -10l-23 -43v-344q0 -104 -54 -165.5t-155 -73.5l-29 -38q-23 -29 -32.5 -48.5t-9.5 -35.5q0 -20 14 -32.5t35 -12.5q17 0 35.5 6.5t36.5 18.5z" />
    <glyph glyph-name="uogonek" unicode="&#x173;" horiz-adv-x="603" 
d="M559 -154l22 -39q-30 -29 -63.5 -44.5t-67.5 -15.5q-44 0 -73 23.5t-29 61.5q0 28 19.5 60.5t62.5 77.5l29 30h-80v25l10 94l-8 4q-42 -75 -80.5 -105.5t-88.5 -30.5q-65 0 -100.5 40.5t-35.5 115.5v265l-23 43l-43 10v61h210v-354q0 -32 15.5 -48t45.5 -16q17 0 35 8.5
t32 22.5q17 17 24 41.5t7 69.5v172l-20 38l-51 10v56h215v-408l23 -43l48 -10v-61h-75l-39 -50q-23 -29 -32.5 -48.5t-9.5 -35.5q0 -20 14 -32.5t35 -12.5q17 0 35.5 6.5t36.5 18.5z" />
    <glyph glyph-name="Wcircumflex" unicode="&#x174;" horiz-adv-x="1028" 
d="M5 0zM396 -7h-168l-158 607l-65 24v70h305v-67l-53 -15l-16 -41l60 -281l17 -130h24l19 130l95 404h158l93 -404l18 -130h24l18 130l60 287l-19 32l-44 18v67h259v-70l-63 -23l-158 -608h-168l-89 371l-17 130h-24l-17 -130zM530 822l-138 -86l-29 29l127 164h85
l126 -164l-29 -29z" />
    <glyph glyph-name="wcircumflex" unicode="&#x175;" horiz-adv-x="834" 
d="M2 0zM319 -7h-135l-130 449l-52 19v61h256v-53l-42 -13l-10 -33l44 -188l14 -112h17l15 112l73 289h140l72 -289l15 -112h17l14 112l46 193l-15 30l-31 11v53h205v-61l-51 -19l-131 -449h-125l-83 287l-14 112h-18l-16 -112zM438 691l-123 -108l-33 27l118 191h81
l117 -191l-33 -27z" />
    <glyph glyph-name="Ycircumflex" unicode="&#x176;" horiz-adv-x="648" 
d="M0 0zM501 0h-346v70l68 10l23 43v163l-193 323l-54 15v70h311v-62l-48 -17l-10 -32l71 -129l30 -78h24l29 78l65 123l-11 35l-44 20v62h234v-70l-54 -17l-186 -319v-165l23 -43l68 -10v-70zM357 822l-138 -86l-29 29l127 164h85l126 -164l-29 -29z" />
    <glyph glyph-name="ycircumflex" unicode="&#x177;" horiz-adv-x="558" 
d="M2 0zM505 442l-157 -420q-41 -110 -89 -158.5t-115 -48.5q-43 0 -69.5 20t-26.5 50q0 26 21 45.5t48 21.5l69 -57q23 13 37.5 34t20.5 51l-190 462l-52 19v61h266v-53l-42 -13l-10 -33l64 -183l21 -108h17l23 108l56 188l-15 30l-31 11v53h205v-61zM299 691l-123 -108
l-33 27l118 191h81l117 -191l-33 -27z" />
    <glyph glyph-name="Ydieresis" unicode="&#x178;" horiz-adv-x="648" 
d="M0 0zM501 0h-346v70l68 10l23 43v163l-193 323l-54 15v70h311v-62l-48 -17l-10 -32l71 -129l30 -78h24l29 78l65 123l-11 35l-44 20v62h234v-70l-54 -17l-186 -319v-165l23 -43l68 -10v-70zM551 826q0 -36 -22 -59t-57 -23q-34 0 -56.5 22.5t-22.5 57.5t22.5 59t56.5 24
t56.5 -23t22.5 -58zM325 826q0 -36 -22.5 -59t-56.5 -23t-56.5 22.5t-22.5 57.5t22.5 59t56.5 24t56.5 -23t22.5 -58z" />
    <glyph glyph-name="Zacute" unicode="&#x179;" horiz-adv-x="614" 
d="M29 0zM578 0h-549v82l278 412l78 98l-7 23l-123 -4h-45l-61 -40l-14 -116h-84v239h524v-82l-278 -412l-78 -98l7 -23l123 4h70l61 40l14 126h84v-249zM409 808l-118 -65l-33 33l80 110q28 39 47.5 54t40.5 15q24 0 43 -19t19 -44q0 -22 -17 -40.5t-62 -43.5z" />
    <glyph glyph-name="zacute" unicode="&#x17a;" horiz-adv-x="532" 
d="M38 0zM488 0h-450v78l212 278l69 80l-6 16l-106 -4h-21l-45 -30l-11 -80h-75v184h433v-78l-212 -278l-69 -80l6 -16l106 4h38l45 30l11 87h75v-191zM374 694l-113 -110l-40 23l62 156q13 34 27.5 47.5t37.5 13.5q25 0 46 -18.5t21 -42.5q0 -16 -8 -30t-33 -39z" />
    <glyph glyph-name="Zdotaccent" unicode="&#x17b;" horiz-adv-x="614" 
d="M29 0zM578 0h-549v82l278 412l78 98l-7 23l-123 -4h-45l-61 -40l-14 -116h-84v239h524v-82l-278 -412l-78 -98l7 -23l123 4h70l61 40l14 126h84v-249zM400 839q0 -37 -23 -61t-59 -24t-59 23t-23 60t23.5 61.5t58.5 24.5q36 0 59 -24t23 -60z" />
    <glyph glyph-name="zdotaccent" unicode="&#x17c;" horiz-adv-x="532" 
d="M38 0zM488 0h-450v78l212 278l69 80l-6 16l-106 -4h-21l-45 -30l-11 -80h-75v184h433v-78l-212 -278l-69 -80l6 -16l106 4h38l45 30l11 87h75v-191zM354 676q0 -36 -22 -59t-57 -23t-57 22.5t-22 57.5q0 36 22.5 59.5t56.5 23.5t56.5 -23t22.5 -58z" />
    <glyph glyph-name="Zcaron" unicode="&#x17d;" horiz-adv-x="614" 
d="M29 0zM578 0h-549v82l278 412l78 98l-7 23l-123 -4h-45l-61 -40l-14 -116h-84v239h524v-82l-278 -412l-78 -98l7 -23l123 4h70l61 40l14 126h84v-249zM320 858l138 86l29 -29l-127 -164h-85l-126 164l29 29z" />
    <glyph glyph-name="zcaron" unicode="&#x17e;" horiz-adv-x="532" 
d="M38 0zM488 0h-450v78l212 278l69 80l-6 16l-106 -4h-21l-45 -30l-11 -80h-75v184h433v-78l-212 -278l-69 -80l6 -16l106 4h38l45 30l11 87h75v-191zM117 784l33 27l127 -108l123 108l33 -27l-118 -191h-81z" />
    <glyph glyph-name="uni018F" unicode="&#x18f;" horiz-adv-x="671" 
d="M313 710q147 0 233 -92.5t86 -253.5q0 -169 -89 -274.5t-230 -105.5q-131 0 -201.5 89.5t-70.5 253.5v40h410q-1 131 -42 194t-126 63q-17 0 -33 -2t-31 -6l-44 -129h-88v161q49 28 109 45t117 17zM326 67q60 0 89.5 52t34.5 165h-232q2 -120 26.5 -168.5t81.5 -48.5z
" />
    <glyph glyph-name="Ohorn" unicode="&#x1a0;" horiz-adv-x="760" 
d="M694 349q0 -161 -91.5 -263t-238.5 -102t-237.5 100.5t-90.5 260.5q0 161 91.5 263t238.5 102q19 0 40 -1.5t62 -7.5q42 -6 63.5 -7.5t40.5 -1.5q31 0 49.5 5.5t30.5 19.5l-38 58q13 24 34 38t46 14q33 0 54.5 -23t21.5 -60q0 -56 -45 -88.5t-118 -28.5l-7 -16
q48 -53 71 -117t23 -145zM217 349q0 -138 38 -210t111 -72t110 70t37 208t-38 210t-111 72t-110 -70t-37 -208z" />
    <glyph glyph-name="ohorn" unicode="&#x1a1;" horiz-adv-x="604" 
d="M555 264q0 -121 -74.5 -200.5t-188.5 -79.5q-119 0 -191 75.5t-72 198.5q0 121 74.5 200.5t188.5 79.5q13 0 27.5 -1t43.5 -4q29 -4 43.5 -5t27.5 -1q29 0 46.5 6.5t28.5 20.5l-34 52q10 22 29 34.5t42 12.5q30 0 49 -20.5t19 -53.5q0 -47 -32.5 -75t-89.5 -30l-7 -15
q34 -36 52 -86.5t18 -108.5zM190 272q0 -104 28 -159t81 -55q47 0 71 48.5t24 143.5q0 104 -28 159t-81 55q-47 0 -71 -48.5t-24 -143.5z" />
    <glyph glyph-name="Uhorn" unicode="&#x1af;" horiz-adv-x="788" 
d="M617 606v-379q0 -117 -67 -179.5t-189 -62.5q-127 0 -196 61.5t-69 175.5v349l-23 43l-58 10v70h329v-61l-62 -11l-22 -41v-366q0 -63 32 -95.5t94 -32.5q61 0 93.5 33t32.5 95v366l-22 41l-62 11v61h189q25 0 40.5 4.5t24.5 15.5l-40 61q13 24 34 38t46 14
q33 0 54.5 -23t21.5 -60q0 -55 -43 -86t-115 -29z" />
    <glyph glyph-name="uhorn" unicode="&#x1b0;" horiz-adv-x="683" 
d="M359 456l-51 10v56h199q34 0 53 7t28 24l-34 53q10 22 29 34.5t42 12.5q30 0 49 -20.5t19 -53.5q0 -48 -36 -79t-91 -31h-12t-8 1l-23 -23v-333l23 -43l48 -10v-61h-215v25l10 94l-8 4q-42 -75 -80.5 -105.5t-88.5 -30.5q-65 0 -100.5 40.5t-35.5 115.5v265l-23 43
l-43 10v61h210v-354q0 -32 15.5 -48t45.5 -16q17 0 35 8.5t32 22.5q17 17 24 41.5t7 69.5v172z" />
    <glyph glyph-name="uni01CD" unicode="&#x1cd;" horiz-adv-x="708" 
d="M0 0zM198 85l44 -18v-67h-242v70l63 23l201 606h180l199 -605l65 -24v-70h-313v67l53 15l16 41l-24 79h-234l-27 -85zM311 576l-29 -130l-49 -156h179l-48 156l-29 130h-24zM352 863l138 86l29 -29l-127 -164h-85l-126 164l29 29z" />
    <glyph glyph-name="uni01CE" unicode="&#x1ce;" horiz-adv-x="560" 
d="M35 0zM544 56v-43l-103 -26q-40 7 -66 32.5t-32 62.5h-7q-36 -51 -72 -72.5t-83 -21.5q-66 0 -106 41t-40 109q0 30 10.5 55.5t30.5 45.5q28 28 79.5 42t127.5 14h53v56q0 53 -25 79t-76 26q-16 0 -28.5 -2t-23.5 -7l20 -69q-15 -21 -34 -31t-42 -10q-31 0 -49 17.5
t-18 47.5q0 28 19.5 52t56.5 43q40 20 80.5 29.5t82.5 9.5q87 0 133 -42.5t46 -122.5v-243q0 -30 13 -45t53 -27zM336 183v56h-33q-65 0 -97 -21.5t-32 -64.5q0 -35 17.5 -54.5t48.5 -19.5q19 0 37.5 8t33.5 23q12 12 18.5 30.5t6.5 42.5zM121 789l33 27l127 -108l123 108
l33 -27l-118 -191h-81z" />
    <glyph glyph-name="uni01CF" unicode="&#x1cf;" horiz-adv-x="384" 
d="M23 0zM359 0h-334v70l62 10l23 43v448l-23 43l-62 10v70h334v-70l-62 -10l-23 -43v-448l23 -43l62 -10v-70zM194 858l138 86l29 -29l-127 -164h-85l-126 164l29 29z" />
    <glyph glyph-name="uni01D0" unicode="&#x1d0;" horiz-adv-x="323" 
d="M0 0zM307 0h-287v61l51 10l23 43v294l-23 43l-51 10v61h218v-408l23 -43l46 -10v-61zM-12 784l33 27l127 -108l123 108l33 -27l-118 -191h-81z" />
    <glyph glyph-name="uni01D1" unicode="&#x1d1;" horiz-adv-x="730" 
d="M36 0zM694 349q0 -161 -91.5 -263t-238.5 -102t-237.5 100.5t-90.5 260.5q0 161 91.5 263t238.5 102t237.5 -100.5t90.5 -260.5zM217 349q0 -138 38 -210t111 -72t110 70t37 208t-38 210t-111 72t-110 -70t-37 -208zM367 863l138 86l29 -29l-127 -164h-85l-126 164l29 29
z" />
    <glyph glyph-name="uni01D2" unicode="&#x1d2;" horiz-adv-x="584" 
d="M29 0zM555 264q0 -121 -74.5 -200.5t-188.5 -79.5q-119 0 -191 75.5t-72 198.5q0 121 74.5 200.5t188.5 79.5q119 0 191 -75.5t72 -198.5zM190 272q0 -104 28 -159t81 -55q47 0 71 48.5t24 143.5q0 104 -28 159t-81 55q-47 0 -71 -48.5t-24 -143.5zM134 789l33 27
l127 -108l123 108l33 -27l-118 -191h-81z" />
    <glyph glyph-name="uni01D3" unicode="&#x1d3;" horiz-adv-x="713" 
d="M15 0zM361 -15q-127 0 -196 61.5t-69 175.5v349l-23 43l-58 10v70h329v-61l-62 -11l-22 -41v-366q0 -63 32 -95.5t94 -32.5q61 0 93.5 33t32.5 95v366l-22 41l-62 11v61h270v-70l-58 -10l-23 -43v-344q0 -117 -67 -179.5t-189 -62.5zM387 858l138 86l29 -29l-127 -164
h-85l-126 164l29 29z" />
    <glyph glyph-name="uni01D4" unicode="&#x1d4;" horiz-adv-x="603" 
d="M10 0zM212 -13q-65 0 -100.5 40.5t-35.5 115.5v265l-23 43l-43 10v61h210v-354q0 -32 15.5 -48t45.5 -16q17 0 35 8.5t32 22.5q17 17 24 41.5t7 69.5v172l-20 38l-51 10v56h215v-408l23 -43l48 -10v-61h-215v25l10 94l-8 4q-42 -75 -80.5 -105.5t-88.5 -30.5zM132 784
l33 27l127 -108l123 108l33 -27l-118 -191h-81z" />
    <glyph glyph-name="uni01D5" unicode="&#x1d5;" horiz-adv-x="713" 
d="M15 0zM361 -15q-127 0 -196 61.5t-69 175.5v349l-23 43l-58 10v70h329v-61l-62 -11l-22 -41v-366q0 -63 32 -95.5t94 -32.5q61 0 93.5 33t32.5 95v366l-22 41l-62 11v61h270v-70l-58 -10l-23 -43v-344q0 -117 -67 -179.5t-189 -62.5zM559 969h-348v84h348v-84zM351 826
q0 -36 -22.5 -59t-56.5 -23t-56.5 22.5t-22.5 57.5t22.5 59t56.5 24t56.5 -23t22.5 -58zM577 826q0 -36 -22 -59t-57 -23q-34 0 -56.5 22.5t-22.5 57.5t22.5 59t56.5 24t56.5 -23t22.5 -58z" />
    <glyph glyph-name="uni01D6" unicode="&#x1d6;" horiz-adv-x="603" 
d="M10 0zM212 -13q-65 0 -100.5 40.5t-35.5 115.5v265l-23 43l-43 10v61h210v-354q0 -32 15.5 -48t45.5 -16q17 0 35 8.5t32 22.5q17 17 24 41.5t7 69.5v172l-20 38l-51 10v56h215v-408l23 -43l48 -10v-61h-215v25l10 94l-8 4q-42 -75 -80.5 -105.5t-88.5 -30.5zM444 813
h-308v82h308v-82zM258 672q0 -34 -21.5 -56.5t-54.5 -22.5t-54.5 21.5t-21.5 55.5t21.5 57t54.5 23t54.5 -22t21.5 -56zM474 672q0 -34 -21.5 -56.5t-54.5 -22.5t-54.5 21.5t-21.5 55.5t21.5 57t54.5 23t54.5 -22t21.5 -56z" />
    <glyph glyph-name="uni01D7" unicode="&#x1d7;" horiz-adv-x="713" 
d="M15 0zM361 -15q-127 0 -196 61.5t-69 175.5v349l-23 43l-58 10v70h329v-61l-62 -11l-22 -41v-366q0 -63 32 -95.5t94 -32.5q61 0 93.5 33t32.5 95v366l-22 41l-62 11v61h270v-70l-58 -10l-23 -43v-344q0 -117 -67 -179.5t-189 -62.5zM469 987l-107 -53l-33 33l77 93
q25 30 42 41t37 11t36 -17t16 -39q0 -17 -16.5 -34t-51.5 -35zM577 826q0 -36 -22 -59t-57 -23q-34 0 -56.5 22.5t-22.5 57.5t22.5 59t56.5 24t56.5 -23t22.5 -58zM351 826q0 -36 -22.5 -59t-56.5 -23t-56.5 22.5t-22.5 57.5t22.5 59t56.5 24t56.5 -23t22.5 -58z" />
    <glyph glyph-name="uni01D8" unicode="&#x1d8;" horiz-adv-x="603" 
d="M10 0zM212 -13q-65 0 -100.5 40.5t-35.5 115.5v265l-23 43l-43 10v61h210v-354q0 -32 15.5 -48t45.5 -16q17 0 35 8.5t32 22.5q17 17 24 41.5t7 69.5v172l-20 38l-51 10v56h215v-408l23 -43l48 -10v-61h-215v25l10 94l-8 4q-42 -75 -80.5 -105.5t-88.5 -30.5zM379 864
l-93 -83l-40 23l48 114q16 38 31.5 53t39.5 15q21 0 38 -16t17 -37q0 -18 -9 -33.5t-32 -35.5zM474 672q0 -34 -21.5 -56.5t-54.5 -22.5t-54.5 21.5t-21.5 55.5t21.5 57t54.5 23t54.5 -22t21.5 -56zM258 672q0 -34 -21.5 -56.5t-54.5 -22.5t-54.5 21.5t-21.5 55.5t21.5 57
t54.5 23t54.5 -22t21.5 -56z" />
    <glyph glyph-name="uni01D9" unicode="&#x1d9;" horiz-adv-x="713" 
d="M15 0zM361 -15q-127 0 -196 61.5t-69 175.5v349l-23 43l-58 10v70h329v-61l-62 -11l-22 -41v-366q0 -63 32 -95.5t94 -32.5q61 0 93.5 33t32.5 95v366l-22 41l-62 11v61h270v-70l-58 -10l-23 -43v-344q0 -117 -67 -179.5t-189 -62.5zM387 1042l138 72l29 -39l-129 -130
h-81l-128 130l29 39zM577 826q0 -36 -22 -59t-57 -23q-34 0 -56.5 22.5t-22.5 57.5t22.5 59t56.5 24t56.5 -23t22.5 -58zM351 826q0 -36 -22.5 -59t-56.5 -23t-56.5 22.5t-22.5 57.5t22.5 59t56.5 24t56.5 -23t22.5 -58z" />
    <glyph glyph-name="uni01DA" unicode="&#x1da;" horiz-adv-x="603" 
d="M10 0zM212 -13q-65 0 -100.5 40.5t-35.5 115.5v265l-23 43l-43 10v61h210v-354q0 -32 15.5 -48t45.5 -16q17 0 35 8.5t32 22.5q17 17 24 41.5t7 69.5v172l-20 38l-51 10v56h215v-408l23 -43l48 -10v-61h-215v25l10 94l-8 4q-42 -75 -80.5 -105.5t-88.5 -30.5zM116 937
l32 31l144 -89l139 89l32 -31l-133 -149h-81zM474 672q0 -34 -21.5 -56.5t-54.5 -22.5t-54.5 21.5t-21.5 55.5t21.5 57t54.5 23t54.5 -22t21.5 -56zM258 672q0 -34 -21.5 -56.5t-54.5 -22.5t-54.5 21.5t-21.5 55.5t21.5 57t54.5 23t54.5 -22t21.5 -56z" />
    <glyph glyph-name="uni01DB" unicode="&#x1db;" horiz-adv-x="713" 
d="M15 0zM361 -15q-127 0 -196 61.5t-69 175.5v349l-23 43l-58 10v70h329v-61l-62 -11l-22 -41v-366q0 -63 32 -95.5t94 -32.5q61 0 93.5 33t32.5 95v366l-22 41l-62 11v61h270v-70l-58 -10l-23 -43v-344q0 -117 -67 -179.5t-189 -62.5zM445 967l-33 -33l-107 53
q-35 18 -51.5 35t-16.5 34q0 22 16 39t36 17t37 -11t42 -41zM577 826q0 -36 -22 -59t-57 -23q-34 0 -56.5 22.5t-22.5 57.5t22.5 59t56.5 24t56.5 -23t22.5 -58zM351 826q0 -36 -22.5 -59t-56.5 -23t-56.5 22.5t-22.5 57.5t22.5 59t56.5 24t56.5 -23t22.5 -58z" />
    <glyph glyph-name="uni01DC" unicode="&#x1dc;" horiz-adv-x="603" 
d="M10 0zM212 -13q-65 0 -100.5 40.5t-35.5 115.5v265l-23 43l-43 10v61h210v-354q0 -32 15.5 -48t45.5 -16q17 0 35 8.5t32 22.5q17 17 24 41.5t7 69.5v172l-20 38l-51 10v56h215v-408l23 -43l48 -10v-61h-215v25l10 94l-8 4q-42 -75 -80.5 -105.5t-88.5 -30.5zM334 804
l-40 -23l-93 83q-23 20 -32 35.5t-9 33.5q0 21 17 37t38 16q24 0 39.5 -15t31.5 -53zM474 672q0 -34 -21.5 -56.5t-54.5 -22.5t-54.5 21.5t-21.5 55.5t21.5 57t54.5 23t54.5 -22t21.5 -56zM258 672q0 -34 -21.5 -56.5t-54.5 -22.5t-54.5 21.5t-21.5 55.5t21.5 57t54.5 23
t54.5 -22t21.5 -56z" />
    <glyph glyph-name="Gcaron" unicode="&#x1e6;" horiz-adv-x="685" 
d="M36 0zM606 238v-177q-57 -39 -116.5 -58t-123.5 -19q-151 0 -240.5 97t-89.5 261q0 74 23.5 139.5t67.5 115.5q47 54 110.5 83t133.5 29q39 0 71.5 -9t64.5 -28l50 35h40v-237h-86l-47 126q-20 14 -41.5 20.5t-46.5 6.5q-75 0 -117.5 -73.5t-42.5 -202.5
q0 -133 43 -206.5t121 -73.5q22 0 40 5t34 15v139l-22 41l-69 12v65h302v-57l-41 -15zM361 863l138 86l29 -29l-127 -164h-85l-126 164l29 29z" />
    <glyph glyph-name="gcaron" unicode="&#x1e7;" horiz-adv-x="582" 
d="M0 0zM542 3q0 -79 -92 -135.5t-210 -56.5q-114 0 -180.5 31.5t-66.5 86.5q0 31 25.5 56t80.5 50v9q-24 13 -38 30t-14 36q0 27 24.5 50t74.5 42v8q-53 23 -82 61.5t-29 87.5q0 75 63.5 126t151.5 51q49 0 85.5 -12t68.5 -39l134 51h20v-107h-97l-4 -8q10 -16 15 -33.5
t5 -33.5q0 -73 -62.5 -119.5t-155.5 -46.5q-13 0 -27 1t-30 4q-11 -10 -16 -18.5t-5 -16.5q0 -13 17.5 -19t64.5 -10l132 -12q70 -6 108.5 -36t38.5 -78zM185 367q0 -55 19 -88t53 -33t53 29.5t19 81.5q0 54 -19.5 87t-52.5 33q-34 0 -53 -29t-19 -81zM130 -55q0 -35 30 -53
t88 -18q73 0 123.5 26t50.5 62q0 24 -24.5 34.5t-86.5 16.5l-151 15q-15 -22 -22.5 -42.5t-7.5 -40.5zM112 789l33 27l127 -108l123 108l33 -27l-118 -191h-81z" />
    <glyph glyph-name="uni01EA" unicode="&#x1ea;" horiz-adv-x="730" 
d="M459 -154l22 -39q-30 -29 -63.5 -44.5t-67.5 -15.5q-44 0 -73 23.5t-29 61.5q0 28 19.5 60.5t62.5 77.5l14 15q-139 7 -223.5 106t-84.5 254q0 161 91.5 263t238.5 102t237.5 -100.5t90.5 -260.5q0 -147 -78 -246.5t-207 -115.5l-29 -37q-23 -29 -32.5 -48.5t-9.5 -35.5
q0 -20 14 -32.5t35 -12.5q17 0 35.5 6.5t36.5 18.5zM217 349q0 -138 38 -210t111 -72t110 70t37 208t-38 210t-111 72t-110 -70t-37 -208z" />
    <glyph glyph-name="uni01EB" unicode="&#x1eb;" horiz-adv-x="584" 
d="M384 -154l22 -39q-30 -29 -63.5 -44.5t-67.5 -15.5q-44 0 -73 23.5t-29 61.5q0 28 19.5 60.5t62.5 77.5l14 15q-110 7 -175 82t-65 191q0 121 74.5 200.5t188.5 79.5q119 0 191 -75.5t72 -198.5q0 -108 -61.5 -185t-159.5 -92l-29 -37q-23 -29 -32.5 -48.5t-9.5 -35.5
q0 -20 14 -32.5t35 -12.5q17 0 35.5 6.5t36.5 18.5zM190 272q0 -104 28 -159t81 -55q47 0 71 48.5t24 143.5q0 104 -28 159t-81 55q-47 0 -71 -48.5t-24 -143.5z" />
    <glyph glyph-name="uni01F0" unicode="&#x1f0;" horiz-adv-x="313" 
d="M0 0zM165 -127q-32 -32 -69 -47.5t-82 -15.5q-46 0 -73.5 19.5t-27.5 51.5q0 28 20 45.5t52 17.5l65 -65q25 14 34.5 43.5t9.5 90.5v395l-23 43l-51 10v61h218v-427q0 -81 -16.5 -131.5t-56.5 -90.5zM-13 784l33 27l127 -108l123 108l33 -27l-118 -191h-81z" />
    <glyph glyph-name="uni01F8" unicode="&#x1f8;" horiz-adv-x="729" 
d="M23 0zM291 0h-268v70l58 10l23 43v448l-23 43l-58 10v70h285l175 -366l41 -130h24l-16 144v239l-22 41l-62 11v61h263v-70l-53 -10l-23 -43v-571h-169l-209 433l-42 130h-24l16 -144v-306l22 -41l62 -11v-61zM439 773l-33 -33l-118 65q-45 25 -62 43.5t-17 40.5
q0 25 19 44t43 19q21 0 40.5 -15t47.5 -54z" />
    <glyph glyph-name="uni01F9" unicode="&#x1f9;" horiz-adv-x="612" 
d="M18 0zM284 0h-266v61l48 10l23 43v294l-23 43l-48 10v61h215v-25l-10 -94l8 -4q42 75 80.5 105.5t88.5 30.5q65 0 100.5 -40.5t35.5 -115.5v-265l23 -43l43 -10v-61h-237v56l19 19l8 25v254q0 32 -15.5 48t-45.5 16q-17 0 -35 -8.5t-32 -22.5q-17 -17 -24 -41.5t-7 -69.5
v-172l17 -33l34 -15v-56zM365 612l-40 -23l-113 110q-25 25 -33 39t-8 30q0 24 21 42.5t46 18.5q23 0 37.5 -13.5t27.5 -47.5z" />
    <glyph glyph-name="uni0218" unicode="&#x218;" horiz-adv-x="594" 
d="M47 0zM357 419q110 -42 153 -91.5t43 -120.5q0 -96 -70 -157.5t-176 -61.5q-44 0 -86.5 11.5t-83.5 34.5l-50 -35h-40v233h86l44 -125q29 -19 60.5 -29t62.5 -10q49 0 78.5 26t29.5 72q0 36 -28.5 62.5t-124.5 62.5q-109 42 -152 89.5t-43 114.5q0 90 66.5 150.5
t164.5 60.5q34 0 68 -8.5t73 -27.5l50 35h40v-227h-88l-42 120q-26 16 -46.5 22.5t-40.5 6.5q-46 0 -73 -24.5t-27 -66.5q0 -23 14 -42t44 -35q11 -6 26 -12.5t68 -27.5zM303 -55q34 0 57 -25.5t23 -65.5q0 -53 -41.5 -104t-113.5 -86l-25 37q26 17 50.5 44.5t34.5 52.5
l-64 37q-1 4 -1 7v6q0 43 22 70t58 27z" />
    <glyph glyph-name="uni0219" unicode="&#x219;" horiz-adv-x="486" 
d="M33 0zM287 322q89 -33 123.5 -71t34.5 -99q0 -76 -60.5 -121t-157.5 -45q-53 0 -103.5 12t-90.5 34v145h80l22 -100q20 -12 43 -17.5t49 -5.5q37 0 61 18t24 46q0 32 -26 51.5t-100 47.5q-78 30 -110 67t-32 93q0 69 58 114t144 45q41 0 84.5 -10t89.5 -30v-128h-79
l-21 85q-15 8 -33 11.5t-40 3.5q-31 0 -52 -17t-21 -43t19.5 -42t93.5 -44zM226 -60q34 0 57 -25.5t23 -65.5q0 -53 -41.5 -104t-113.5 -86l-25 37q26 17 50.5 44.5t34.5 52.5l-64 37q-1 4 -1 7v6q0 43 22 70t58 27z" />
    <glyph glyph-name="uni021A" unicode="&#x21a;" horiz-adv-x="672" 
d="M30 0zM509 0h-346v70l68 10l23 43v488h-65l-61 -40l-14 -121h-84v244h612v-244h-84l-14 121l-61 40h-65v-488l23 -43l68 -10v-70zM332 -50q34 0 57 -25.5t23 -65.5q0 -53 -41.5 -104t-113.5 -86l-25 37q26 17 50.5 44.5t34.5 52.5l-64 37q-1 4 -1 7v6q0 43 22 70t58 27z
" />
    <glyph glyph-name="uni021B" unicode="&#x21b;" horiz-adv-x="415" 
d="M14 0zM228 -13q-66 0 -101 36t-35 104v311h-78v71l79 16l54 140h89v-143h148v-84h-148v-293q0 -34 15.5 -51t45.5 -17q16 0 33.5 4t41.5 13l19 -52q-44 -28 -83.5 -41.5t-79.5 -13.5zM206 -60q34 0 57 -25.5t23 -65.5q0 -53 -41.5 -104t-113.5 -86l-25 37
q26 17 50.5 44.5t34.5 52.5l-64 37q-1 4 -1 7v6q0 43 22 70t58 27z" />
    <glyph glyph-name="uni0226" unicode="&#x226;" horiz-adv-x="708" 
d="M0 0zM198 85l44 -18v-67h-242v70l63 23l201 606h180l199 -605l65 -24v-70h-313v67l53 15l16 41l-24 79h-234l-27 -85zM311 576l-29 -130l-49 -156h179l-48 156l-29 130h-24zM432 844q0 -37 -23 -61t-59 -24t-59 23t-23 60t23.5 61.5t58.5 24.5q36 0 59 -24t23 -60z" />
    <glyph glyph-name="uni0227" unicode="&#x227;" horiz-adv-x="560" 
d="M35 0zM544 56v-43l-103 -26q-40 7 -66 32.5t-32 62.5h-7q-36 -51 -72 -72.5t-83 -21.5q-66 0 -106 41t-40 109q0 30 10.5 55.5t30.5 45.5q28 28 79.5 42t127.5 14h53v56q0 53 -25 79t-76 26q-16 0 -28.5 -2t-23.5 -7l20 -69q-15 -21 -34 -31t-42 -10q-31 0 -49 17.5
t-18 47.5q0 28 19.5 52t56.5 43q40 20 80.5 29.5t82.5 9.5q87 0 133 -42.5t46 -122.5v-243q0 -30 13 -45t53 -27zM336 183v56h-33q-65 0 -97 -21.5t-32 -64.5q0 -35 17.5 -54.5t48.5 -19.5q19 0 37.5 8t33.5 23q12 12 18.5 30.5t6.5 42.5zM358 681q0 -36 -22 -59t-57 -23
t-57 22.5t-22 57.5q0 36 22.5 59.5t56.5 23.5t56.5 -23t22.5 -58z" />
    <glyph glyph-name="uni022E" unicode="&#x22e;" horiz-adv-x="730" 
d="M36 0zM694 349q0 -161 -91.5 -263t-238.5 -102t-237.5 100.5t-90.5 260.5q0 161 91.5 263t238.5 102t237.5 -100.5t90.5 -260.5zM217 349q0 -138 38 -210t111 -72t110 70t37 208t-38 210t-111 72t-110 -70t-37 -208zM447 844q0 -37 -23 -61t-59 -24t-59 23t-23 60
t23.5 61.5t58.5 24.5q36 0 59 -24t23 -60z" />
    <glyph glyph-name="uni022F" unicode="&#x22f;" horiz-adv-x="584" 
d="M29 0zM555 264q0 -121 -74.5 -200.5t-188.5 -79.5q-119 0 -191 75.5t-72 198.5q0 121 74.5 200.5t188.5 79.5q119 0 191 -75.5t72 -198.5zM190 272q0 -104 28 -159t81 -55q47 0 71 48.5t24 143.5q0 104 -28 159t-81 55q-47 0 -71 -48.5t-24 -143.5zM371 681
q0 -36 -22 -59t-57 -23t-57 22.5t-22 57.5q0 36 22.5 59.5t56.5 23.5t56.5 -23t22.5 -58z" />
    <glyph glyph-name="uni0232" unicode="&#x232;" horiz-adv-x="648" 
d="M0 0zM501 0h-346v70l68 10l23 43v163l-193 323l-54 15v70h311v-62l-48 -17l-10 -32l71 -129l30 -78h24l29 78l65 123l-11 35l-44 20v62h234v-70l-54 -17l-186 -319v-165l23 -43l68 -10v-70zM533 769h-348v84h348v-84z" />
    <glyph glyph-name="uni0233" unicode="&#x233;" horiz-adv-x="558" 
d="M2 0zM505 442l-157 -420q-41 -110 -89 -158.5t-115 -48.5q-43 0 -69.5 20t-26.5 50q0 26 21 45.5t48 21.5l69 -57q23 13 37.5 34t20.5 51l-190 462l-52 19v61h266v-53l-42 -13l-10 -33l64 -183l21 -108h17l23 108l56 188l-15 30l-31 11v53h205v-61zM455 611h-308v82h308
v-82z" />
    <glyph glyph-name="uni0237" unicode="&#x237;" horiz-adv-x="313" 
d="M165 -127q-32 -32 -69 -47.5t-82 -15.5q-46 0 -73.5 19.5t-27.5 51.5q0 28 20 45.5t52 17.5l65 -65q25 14 34.5 43.5t9.5 90.5v395l-23 43l-51 10v61h218v-427q0 -81 -16.5 -131.5t-56.5 -90.5z" />
    <glyph glyph-name="uni0259" unicode="&#x259;" horiz-adv-x="543" 
d="M73 405l-29 58q56 38 109 56.5t106 18.5q116 0 185.5 -74t69.5 -195q0 -123 -72.5 -204t-182.5 -81q-107 0 -166 72.5t-59 200.5v32h326q-6 80 -40 117.5t-101 37.5q-31 0 -64 -8.5t-82 -30.5zM270 53q43 0 66 43t25 129h-175q2 -92 21.5 -132t62.5 -40z" />
    <glyph glyph-name="uni02B9" unicode="&#x2b9;" horiz-adv-x="290" 
d="M30 406zM274 698l-190 -292l-54 8l57 297h187v-13z" />
    <glyph glyph-name="uni02BA" unicode="&#x2ba;" horiz-adv-x="516" 
d="M30 406zM270 698l-186 -292l-54 8l57 297h183v-13zM500 698l-186 -292l-54 8l57 297h183v-13z" />
    <glyph glyph-name="uni02BB" unicode="&#x2bb;" horiz-adv-x="308" 
d="M47 375zM168 567l72 -50q11 -61 -16 -101.5t-76 -40.5q-43 0 -72 34t-29 87q0 74 52 141t140 109l31 -46q-36 -23 -65.5 -61t-36.5 -72z" />
    <glyph glyph-name="uni02BC" unicode="&#x2bc;" horiz-adv-x="308" 
d="M38 375zM160 746q43 0 72 -34t29 -87q0 -74 -52 -141t-140 -109l-31 46q36 23 65.5 61t36.5 72l-72 50q-11 61 16 101.5t76 40.5z" />
    <glyph glyph-name="uni02BE" unicode="&#x2be;" horiz-adv-x="262" 
d="M222 662q0 -71 -49 -116.5t-128 -45.5v81q40 0 65 22.5t25 58.5t-25 58.5t-65 22.5v81q79 0 128 -45.5t49 -116.5z" />
    <glyph glyph-name="uni02BF" unicode="&#x2bf;" horiz-adv-x="262" 
d="M217 581v-81q-79 0 -128 45.5t-49 116.5t49 116.5t128 45.5v-81q-40 0 -65 -22.5t-25 -58.5t25 -58.5t65 -22.5z" />
    <glyph glyph-name="circumflex" unicode="&#x2c6;" horiz-adv-x="500" 
d="M92 583zM248 691l-123 -108l-33 27l118 191h81l117 -191l-33 -27z" />
    <glyph glyph-name="caron" unicode="&#x2c7;" horiz-adv-x="500" 
d="M92 593zM92 784l33 27l127 -108l123 108l33 -27l-118 -191h-81z" />
    <glyph glyph-name="uni02C8" unicode="&#x2c8;" horiz-adv-x="186" 
d="M136 502h-86v320h86v-320z" />
    <glyph glyph-name="uni02CC" unicode="&#x2cc;" horiz-adv-x="186" 
d="M136 -130h-86v320h86v-320z" />
    <glyph glyph-name="uni02CD" unicode="&#x2cd;" horiz-adv-x="500" 
d="M96 -75zM404 -157h-308v82h308v-82z" />
    <glyph glyph-name="breve" unicode="&#x2d8;" horiz-adv-x="500" 
d="M89 598zM250 598q-68 0 -109.5 49t-51.5 141l47 13q21 -57 46 -80.5t67 -23.5t67 23.5t46 80.5l49 -13q-10 -92 -51.5 -141t-109.5 -49z" />
    <glyph glyph-name="dotaccent" unicode="&#x2d9;" horiz-adv-x="500" 
d="M171 594zM329 676q0 -36 -22 -59t-57 -23t-57 22.5t-22 57.5q0 36 22.5 59.5t56.5 23.5t56.5 -23t22.5 -58z" />
    <glyph glyph-name="ring" unicode="&#x2da;" horiz-adv-x="500" 
d="M123 589zM377 712q0 -51 -37 -87t-90 -36t-90 36t-37 87t37 87t90 36t90 -36t37 -87zM179 712q0 -34 19.5 -55t51.5 -21t51.5 21t19.5 55t-19.5 55t-51.5 21t-51.5 -21t-19.5 -55z" />
    <glyph glyph-name="ogonek" unicode="&#x2db;" horiz-adv-x="500" 
d="M131 0zM270 -179q17 0 35.5 6.5t36.5 18.5l22 -39q-30 -29 -63.5 -44.5t-67.5 -15.5q-44 0 -73 23.5t-29 61.5q0 28 19.5 60.5t62.5 77.5l46 48h57l-53 -68q-23 -29 -32.5 -48.5t-9.5 -35.5q0 -20 14 -32.5t35 -12.5z" />
    <glyph glyph-name="tilde" unicode="&#x2dc;" horiz-adv-x="500" 
d="M54 587zM165 667q-14 0 -25 -15.5t-29 -64.5l-57 21q27 97 53.5 129.5t70.5 32.5q14 0 33 -8t57 -33q31 -20 44 -26t22 -6q14 0 25 15.5t30 65.5l57 -21q-28 -98 -54.5 -130.5t-70.5 -32.5q-14 0 -33 8t-57 33q-31 20 -44 26t-22 6z" />
    <glyph glyph-name="hungarumlaut" unicode="&#x2dd;" horiz-adv-x="500" 
d="M69 585zM211 696l-105 -111l-37 21l59 148q16 39 30.5 54.5t36.5 15.5q25 0 42 -15.5t17 -38.5q0 -15 -9.5 -31.5t-33.5 -42.5zM396 696l-105 -111l-37 21l59 148q16 39 30.5 54.5t36.5 15.5q25 0 42 -15.5t17 -38.5q0 -15 -9.5 -31.5t-33.5 -42.5z" />
    <glyph glyph-name="uni0300" unicode="&#x300;" 
d="M55 607l-40 -23l-113 110q-25 25 -33 39t-8 30q0 24 21 42.5t46 18.5q23 0 37.5 -13.5t27.5 -47.5z" />
    <glyph glyph-name="uni0301" unicode="&#x301;" 
d="M99 694l-113 -110l-40 23l62 156q13 34 27.5 47.5t37.5 13.5q25 0 46 -18.5t21 -42.5q0 -16 -8 -30t-33 -39z" />
    <glyph glyph-name="uni0302" unicode="&#x302;" 
d="M-2 691l-123 -108l-33 27l118 191h81l117 -191l-33 -27z" />
    <glyph glyph-name="uni0303" unicode="&#x303;" 
d="M-81 667q-14 0 -25 -15.5t-29 -64.5l-57 21q27 97 53.5 129.5t70.5 32.5q14 0 33 -8t57 -33q31 -20 44 -26t22 -6q14 0 25 15.5t30 65.5l57 -21q-28 -98 -54.5 -130.5t-70.5 -32.5q-14 0 -33 8t-57 33q-31 20 -44 26t-22 6z" />
    <glyph glyph-name="uni0304" unicode="&#x304;" 
d="M154 611h-308v82h308v-82z" />
    <glyph glyph-name="uni0306" unicode="&#x306;" 
d="M0 598q-68 0 -109.5 49t-51.5 141l47 13q21 -57 46 -80.5t67 -23.5t67 23.5t46 80.5l49 -13q-10 -92 -51.5 -141t-109.5 -49z" />
    <glyph glyph-name="uni0307" unicode="&#x307;" 
d="M79 676q0 -36 -22 -59t-57 -23t-57 22.5t-22 57.5q0 36 22.5 59.5t56.5 23.5t56.5 -23t22.5 -58z" />
    <glyph glyph-name="uni0308" unicode="&#x308;" 
d="M184 672q0 -34 -21.5 -56.5t-54.5 -22.5t-54.5 21.5t-21.5 55.5t21.5 57t54.5 23t54.5 -22t21.5 -56zM-32 672q0 -34 -21.5 -56.5t-54.5 -22.5t-54.5 21.5t-21.5 55.5t21.5 57t54.5 23t54.5 -22t21.5 -56z" />
    <glyph glyph-name="uni0309" unicode="&#x309;" 
d="M1 803q67 0 107 -25.5t40 -68.5q0 -45 -49 -74.5t-141 -41.5v50q47 8 72.5 21t25.5 30q0 15 -18 22.5t-55 7.5q-19 0 -40 -3t-47 -9l-16 72q32 10 62 14.5t59 4.5z" />
    <glyph glyph-name="uni030A" unicode="&#x30a;" 
d="M127 712q0 -51 -37 -87t-90 -36t-90 36t-37 87t37 87t90 36t90 -36t37 -87zM-71 712q0 -34 19.5 -55t51.5 -21t51.5 21t19.5 55t-19.5 55t-51.5 21t-51.5 -21t-19.5 -55z" />
    <glyph glyph-name="uni030B" unicode="&#x30b;" 
d="M22 696l-105 -111l-37 21l59 148q16 39 30.5 54.5t36.5 15.5q25 0 42 -15.5t17 -38.5q0 -15 -9.5 -31.5t-33.5 -42.5zM207 696l-105 -111l-37 21l59 148q16 39 30.5 54.5t36.5 15.5q25 0 42 -15.5t17 -38.5q0 -15 -9.5 -31.5t-33.5 -42.5z" />
    <glyph glyph-name="uni030C" unicode="&#x30c;" 
d="M-158 784l33 27l127 -108l123 108l33 -27l-118 -191h-81z" />
    <glyph glyph-name="uni0312" unicode="&#x312;" 
d="M81 691q0 -43 -22 -70t-58 -27q-34 0 -57 25.5t-23 65.5q0 53 41.5 104t113.5 86l25 -37q-26 -17 -50.5 -44.5t-34.5 -52.5l64 -37q1 -4 1 -7v-6z" />
    <glyph glyph-name="uni0315" unicode="&#x315;" 
d="M109 702l-65 -137l-44 4v180q0 33 15.5 50.5t45.5 17.5t47 -14.5t17 -41.5q0 -13 -3.5 -26.5t-12.5 -32.5z" />
    <glyph glyph-name="uni0323" unicode="&#x323;" 
d="M79 -131q0 -36 -22 -59t-57 -23t-57 22.5t-22 57.5q0 36 22.5 59.5t56.5 23.5t56.5 -23t22.5 -58z" />
    <glyph glyph-name="uni0324" unicode="&#x324;" 
d="M184 -128q0 -34 -21.5 -56.5t-54.5 -22.5t-54.5 21.5t-21.5 55.5t21.5 57t54.5 23t54.5 -22t21.5 -56zM-32 -128q0 -34 -21.5 -56.5t-54.5 -22.5t-54.5 21.5t-21.5 55.5t21.5 57t54.5 23t54.5 -22t21.5 -56z" />
    <glyph glyph-name="uni0326" unicode="&#x326;" 
d="M-4 -50q34 0 57 -25.5t23 -65.5q0 -53 -41.5 -104t-113.5 -86l-25 37q26 17 50.5 44.5t34.5 52.5l-64 37q-1 4 -1 7v6q0 43 22 70t58 27z" />
    <glyph glyph-name="uni0327" unicode="&#x327;" 
d="M122 -151q0 -47 -37 -74.5t-98 -27.5q-30 0 -58.5 8t-62.5 27l20 37q24 -12 46 -18t42 -6q26 0 40.5 11.5t14.5 30.5q0 23 -20 33.5t-64 10.5h-16l-19 25l78 112h54l-56 -83q65 1 100.5 -21.5t35.5 -64.5z" />
    <glyph glyph-name="uni0328" unicode="&#x328;" 
d="M1 -179q17 0 35.5 6.5t36.5 18.5l22 -39q-30 -29 -63.5 -44.5t-67.5 -15.5q-44 0 -73 23.5t-29 61.5q0 28 19.5 60.5t62.5 77.5l46 48h57l-53 -68q-23 -29 -32.5 -48.5t-9.5 -35.5q0 -20 14 -32.5t35 -12.5z" />
    <glyph glyph-name="uni032D" unicode="&#x32d;" 
d="M-2 -167l-123 -108l-33 27l118 191h81l117 -191l-33 -27z" />
    <glyph glyph-name="uni032E" unicode="&#x32e;" 
d="M0 -245q-68 0 -109.5 49t-51.5 141l47 13q21 -57 46 -80.5t67 -23.5t67 23.5t46 80.5l49 -13q-10 -92 -51.5 -141t-109.5 -49z" />
    <glyph glyph-name="uni0331" unicode="&#x331;" 
d="M154 -157h-308v82h308v-82z" />
    <glyph glyph-name="uni0E3F" unicode="&#xe3f;" horiz-adv-x="670" 
d="M633 193q0 -89 -65 -137.5t-193 -54.5v-129h-53v128h-299v70l58 10l23 43v448l-23 43l-58 10v70h299v94h53v-95q123 -5 184.5 -44t61.5 -112q0 -66 -42.5 -106t-140.5 -61v-8q104 -17 149.5 -57.5t45.5 -111.5zM257 620v-220h67v220h-67zM457 514q0 46 -20.5 71t-63.5 32
v-213q43 8 63.5 35t20.5 75zM257 328v-254h67v254h-67zM465 202q0 53 -22.5 83t-69.5 39v-247q48 8 70 37.5t22 87.5z" />
    <glyph glyph-name="uni1E06" unicode="&#x1e06;" horiz-adv-x="654" 
d="M23 0zM320 0h-297v70l58 10l23 43v448l-23 43l-58 10v70h306q133 0 202 -39.5t69 -116.5q0 -68 -43.5 -107.5t-144.5 -59.5v-9q110 -17 157.5 -57.5t47.5 -111.5q0 -96 -75 -144.5t-222 -48.5zM265 618v-218h22q77 0 111 29.5t34 94.5q0 51 -29.5 72.5t-101.5 21.5h-36z
M265 328v-252h26q82 0 120 30t38 93q0 66 -40 97.5t-123 31.5h-21zM486 -157h-308v82h308v-82z" />
    <glyph glyph-name="uni1E07" unicode="&#x1e07;" horiz-adv-x="588" 
d="M0 0zM112 -15h-52l10 154v491l-23 43l-48 10v61h215v-226l-10 -93l8 -4q29 55 70.5 84.5t91.5 29.5q82 0 132.5 -71.5t50.5 -193.5q0 -129 -61 -205.5t-158 -76.5q-42 0 -76 13t-79 47zM300 79q47 0 74.5 44.5t27.5 126.5q0 88 -24.5 134t-70.5 46q-15 0 -28.5 -6.5
t-26.5 -19.5q-22 -22 -31 -45.5t-9 -58.5v-195q33 -16 51.5 -21t36.5 -5zM440 -167h-308v82h308v-82z" />
    <glyph glyph-name="uni1E0C" unicode="&#x1e0c;" horiz-adv-x="708" 
d="M23 0zM310 0h-287v70l58 10l23 43v448l-23 43l-58 10v70h311q160 0 249 -85.5t89 -241.5q0 -173 -96.5 -270t-265.5 -97zM268 611v-528h43q96 0 140 63.5t44 199.5t-45 200.5t-141 64.5h-41zM424 -131q0 -36 -22 -59t-57 -23t-57 22.5t-22 57.5q0 36 22.5 59.5t56.5 23.5
t56.5 -23t22.5 -58z" />
    <glyph glyph-name="uni1E0D" unicode="&#x1e0d;" horiz-adv-x="598" 
d="M31 0zM214 -13q-82 0 -132.5 71.5t-50.5 192.5q0 127 59.5 205t144.5 78q36 0 68.5 -12.5t71.5 -43.5l7 4l-8 63v85l-23 43l-48 10v61h215v-630l23 -43l48 -10v-61h-215v16l10 94l-8 4q-33 -64 -73.5 -95.5t-88.5 -31.5zM186 273q0 -87 24.5 -132t70.5 -45q15 0 28.5 6.5
t26.5 19.5q22 22 31 45t9 58v191q-31 16 -50.5 21.5t-37.5 5.5q-47 0 -74.5 -44.5t-27.5 -125.5zM361 -141q0 -36 -22 -59t-57 -23t-57 22.5t-22 57.5q0 36 22.5 59.5t56.5 23.5t56.5 -23t22.5 -58z" />
    <glyph glyph-name="uni1E0E" unicode="&#x1e0e;" horiz-adv-x="708" 
d="M23 0zM310 0h-287v70l58 10l23 43v448l-23 43l-58 10v70h311q160 0 249 -85.5t89 -241.5q0 -173 -96.5 -270t-265.5 -97zM268 611v-528h43q96 0 140 63.5t44 199.5t-45 200.5t-141 64.5h-41zM499 -157h-308v82h308v-82z" />
    <glyph glyph-name="uni1E0F" unicode="&#x1e0f;" horiz-adv-x="598" 
d="M31 0zM214 -13q-82 0 -132.5 71.5t-50.5 192.5q0 127 59.5 205t144.5 78q36 0 68.5 -12.5t71.5 -43.5l7 4l-8 63v85l-23 43l-48 10v61h215v-630l23 -43l48 -10v-61h-215v16l10 94l-8 4q-33 -64 -73.5 -95.5t-88.5 -31.5zM186 273q0 -87 24.5 -132t70.5 -45q15 0 28.5 6.5
t26.5 19.5q22 22 31 45t9 58v191q-31 16 -50.5 21.5t-37.5 5.5q-47 0 -74.5 -44.5t-27.5 -125.5zM436 -167h-308v82h308v-82z" />
    <glyph glyph-name="uni1E12" unicode="&#x1e12;" horiz-adv-x="708" 
d="M23 0zM310 0h-287v70l58 10l23 43v448l-23 43l-58 10v70h311q160 0 249 -85.5t89 -241.5q0 -173 -96.5 -270t-265.5 -97zM268 611v-528h43q96 0 140 63.5t44 199.5t-45 200.5t-141 64.5h-41zM343 -167l-123 -108l-33 27l118 191h81l117 -191l-33 -27z" />
    <glyph glyph-name="uni1E13" unicode="&#x1e13;" horiz-adv-x="598" 
d="M31 0zM214 -13q-82 0 -132.5 71.5t-50.5 192.5q0 127 59.5 205t144.5 78q36 0 68.5 -12.5t71.5 -43.5l7 4l-8 63v85l-23 43l-48 10v61h215v-630l23 -43l48 -10v-61h-215v16l10 94l-8 4q-33 -64 -73.5 -95.5t-88.5 -31.5zM186 273q0 -87 24.5 -132t70.5 -45q15 0 28.5 6.5
t26.5 19.5q22 22 31 45t9 58v191q-31 16 -50.5 21.5t-37.5 5.5q-47 0 -74.5 -44.5t-27.5 -125.5zM280 -177l-123 -108l-33 27l118 191h81l117 -191l-33 -27z" />
    <glyph glyph-name="uni1E20" unicode="&#x1e20;" horiz-adv-x="685" 
d="M36 0zM606 238v-177q-57 -39 -116.5 -58t-123.5 -19q-151 0 -240.5 97t-89.5 261q0 74 23.5 139.5t67.5 115.5q47 54 110.5 83t133.5 29q39 0 71.5 -9t64.5 -28l50 35h40v-237h-86l-47 126q-20 14 -41.5 20.5t-46.5 6.5q-75 0 -117.5 -73.5t-42.5 -202.5
q0 -133 43 -206.5t121 -73.5q22 0 40 5t34 15v139l-22 41l-69 12v65h302v-57l-41 -15zM533 774h-348v84h348v-84z" />
    <glyph glyph-name="uni1E21" unicode="&#x1e21;" horiz-adv-x="582" 
d="M0 0zM542 3q0 -79 -92 -135.5t-210 -56.5q-114 0 -180.5 31.5t-66.5 86.5q0 31 25.5 56t80.5 50v9q-24 13 -38 30t-14 36q0 27 24.5 50t74.5 42v8q-53 23 -82 61.5t-29 87.5q0 75 63.5 126t151.5 51q49 0 85.5 -12t68.5 -39l134 51h20v-107h-97l-4 -8q10 -16 15 -33.5
t5 -33.5q0 -73 -62.5 -119.5t-155.5 -46.5q-13 0 -27 1t-30 4q-11 -10 -16 -18.5t-5 -16.5q0 -13 17.5 -19t64.5 -10l132 -12q70 -6 108.5 -36t38.5 -78zM185 367q0 -55 19 -88t53 -33t53 29.5t19 81.5q0 54 -19.5 87t-52.5 33q-34 0 -53 -29t-19 -81zM130 -55q0 -35 30 -53
t88 -18q73 0 123.5 26t50.5 62q0 24 -24.5 34.5t-86.5 16.5l-151 15q-15 -22 -22.5 -42.5t-7.5 -40.5zM424 616h-308v82h308v-82z" />
    <glyph glyph-name="uni1E24" unicode="&#x1e24;" horiz-adv-x="750" 
d="M23 0zM347 0h-324v70l58 10l23 43v448l-23 43l-58 10v70h324v-61l-57 -11l-22 -41v-183h214v183l-22 41l-57 11v61h324v-70l-58 -10l-23 -43v-448l23 -43l58 -10v-70h-324v61l57 11l22 41v197h-214v-197l22 -41l57 -11v-61zM454 -131q0 -36 -22 -59t-57 -23t-57 22.5
t-22 57.5q0 36 22.5 59.5t56.5 23.5t56.5 -23t22.5 -58z" />
    <glyph glyph-name="uni1E25" unicode="&#x1e25;" horiz-adv-x="603" 
d="M9 0zM275 0h-266v61l48 10l23 43v516l-23 43l-48 10v61h215v-247l-10 -94l8 -4q42 75 80.5 105.5t88.5 30.5q65 0 100.5 -40.5t35.5 -115.5v-265l23 -43l43 -10v-61h-237v56l19 19l8 25v254q0 32 -15.5 48t-45.5 16q-17 0 -35 -8.5t-32 -22.5q-17 -17 -24 -41.5t-7 -69.5
v-172l17 -33l34 -15v-56zM380 -136q0 -36 -22 -59t-57 -23t-57 22.5t-22 57.5q0 36 22.5 59.5t56.5 23.5t56.5 -23t22.5 -58z" />
    <glyph glyph-name="uni1E28" unicode="&#x1e28;" horiz-adv-x="750" 
d="M308 -151q0 -47 -37 -74.5t-98 -27.5q-30 0 -58.5 8t-62.5 27l20 37q24 -12 46 -18t42 -6q26 0 40.5 11.5t14.5 30.5q0 23 -20 33.5t-64 10.5h-16l-19 25l65 94h-138v70l58 10l23 43v448l-23 43l-58 10v70h324v-61l-57 -11l-22 -41v-183h214v183l-22 41l-57 11v61h324
v-70l-58 -10l-23 -43v-448l23 -43l58 -10v-70h-324v61l57 11l22 41v197h-214v-197l22 -41l57 -11v-61h-131l-44 -65q65 1 100.5 -21.5t35.5 -64.5z" />
    <glyph glyph-name="uni1E29" unicode="&#x1e29;" horiz-adv-x="603" 
d="M268 -151q0 -47 -37 -74.5t-98 -27.5q-30 0 -58.5 8t-62.5 27l20 37q24 -12 46 -18t42 -6q26 0 40.5 11.5t14.5 30.5q0 23 -20 33.5t-64 10.5h-16l-19 25l65 94h-112v61l48 10l23 43v516l-23 43l-48 10v61h215v-247l-10 -94l8 -4q42 75 80.5 105.5t88.5 30.5
q65 0 100.5 -40.5t35.5 -115.5v-265l23 -43l43 -10v-61h-237v56l19 19l8 25v254q0 32 -15.5 48t-45.5 16q-17 0 -35 -8.5t-32 -22.5q-17 -17 -24 -41.5t-7 -69.5v-172l17 -33l34 -15v-56h-99l-44 -65q65 1 100.5 -21.5t35.5 -64.5z" />
    <glyph glyph-name="uni1E2A" unicode="&#x1e2a;" horiz-adv-x="750" 
d="M23 0zM347 0h-324v70l58 10l23 43v448l-23 43l-58 10v70h324v-61l-57 -11l-22 -41v-183h214v183l-22 41l-57 11v61h324v-70l-58 -10l-23 -43v-448l23 -43l58 -10v-70h-324v61l57 11l22 41v197h-214v-197l22 -41l57 -11v-61zM375 -245q-68 0 -109.5 49t-51.5 141l47 13
q21 -57 46 -80.5t67 -23.5t67 23.5t46 80.5l49 -13q-10 -92 -51.5 -141t-109.5 -49z" />
    <glyph glyph-name="uni1E2B" unicode="&#x1e2b;" horiz-adv-x="603" 
d="M9 0zM275 0h-266v61l48 10l23 43v516l-23 43l-48 10v61h215v-247l-10 -94l8 -4q42 75 80.5 105.5t88.5 30.5q65 0 100.5 -40.5t35.5 -115.5v-265l23 -43l43 -10v-61h-237v56l19 19l8 25v254q0 32 -15.5 48t-45.5 16q-17 0 -35 -8.5t-32 -22.5q-17 -17 -24 -41.5t-7 -69.5
v-172l17 -33l34 -15v-56zM301 -250q-68 0 -109.5 49t-51.5 141l47 13q21 -57 46 -80.5t67 -23.5t67 23.5t46 80.5l49 -13q-10 -92 -51.5 -141t-109.5 -49z" />
    <glyph glyph-name="uni1E32" unicode="&#x1e32;" horiz-adv-x="687" 
d="M23 0zM290 72l57 -11v-61h-324v70l58 10l23 43v448l-23 43l-58 10v70h324v-61l-57 -11l-22 -41v-188h23l144 171l32 130h195v-70l-73 -17l-175 -201l212 -321l52 -15v-70h-221l-14 69l-148 241h-27v-197zM434 -131q0 -36 -22 -59t-57 -23t-57 22.5t-22 57.5
q0 36 22.5 59.5t56.5 23.5t56.5 -23t22.5 -58z" />
    <glyph glyph-name="uni1E33" unicode="&#x1e33;" horiz-adv-x="564" 
d="M9 0zM241 71l34 -15v-56h-266v61l48 10l23 43v516l-23 43l-48 10v61h215v-439h21l90 98l28 119h172v-61l-53 -16l-124 -128l149 -241l46 -15v-61h-197v49l-109 192h-23v-137zM364 -136q0 -36 -22 -59t-57 -23t-57 22.5t-22 57.5q0 36 22.5 59.5t56.5 23.5t56.5 -23
t22.5 -58z" />
    <glyph glyph-name="uni1E34" unicode="&#x1e34;" horiz-adv-x="687" 
d="M23 0zM290 72l57 -11v-61h-324v70l58 10l23 43v448l-23 43l-58 10v70h324v-61l-57 -11l-22 -41v-188h23l144 171l32 130h195v-70l-73 -17l-175 -201l212 -321l52 -15v-70h-221l-14 69l-148 241h-27v-197zM509 -157h-308v82h308v-82z" />
    <glyph glyph-name="uni1E35" unicode="&#x1e35;" horiz-adv-x="564" 
d="M9 0zM241 71l34 -15v-56h-266v61l48 10l23 43v516l-23 43l-48 10v61h215v-439h21l90 98l28 119h172v-61l-53 -16l-124 -128l149 -241l46 -15v-61h-197v49l-109 192h-23v-137zM439 -162h-308v82h308v-82z" />
    <glyph glyph-name="uni1E36" unicode="&#x1e36;" horiz-adv-x="589" 
d="M23 0zM563 0h-540v70l58 10l23 43v448l-23 43l-58 10v70h346v-70l-78 -10l-23 -43v-488h136l61 40l14 111h84v-234zM394 -131q0 -36 -22 -59t-57 -23t-57 22.5t-22 57.5q0 36 22.5 59.5t56.5 23.5t56.5 -23t22.5 -58z" />
    <glyph glyph-name="uni1E37" unicode="&#x1e37;" horiz-adv-x="314" 
d="M11 0zM298 0h-287v61l51 10l23 43v516l-23 43l-51 10v61h218v-630l23 -43l46 -10v-61zM239 -136q0 -36 -22 -59t-57 -23t-57 22.5t-22 57.5q0 36 22.5 59.5t56.5 23.5t56.5 -23t22.5 -58z" />
    <glyph glyph-name="uni1E38" unicode="&#x1e38;" horiz-adv-x="589" 
d="M23 0zM563 0h-540v70l58 10l23 43v448l-23 43l-58 10v70h346v-70l-78 -10l-23 -43v-488h136l61 40l14 111h84v-234zM334 769h-308v84h308v-84zM394 -131q0 -36 -22 -59t-57 -23t-57 22.5t-22 57.5q0 36 22.5 59.5t56.5 23.5t56.5 -23t22.5 -58z" />
    <glyph glyph-name="uni1E39" unicode="&#x1e39;" horiz-adv-x="314" 
d="M11 0zM298 0h-287v61l51 10l23 43v516l-23 43l-51 10v61h218v-630l23 -43l46 -10v-61zM287 817h-268v82h268v-82zM239 -136q0 -36 -22 -59t-57 -23t-57 22.5t-22 57.5q0 36 22.5 59.5t56.5 23.5t56.5 -23t22.5 -58z" />
    <glyph glyph-name="uni1E3A" unicode="&#x1e3a;" horiz-adv-x="589" 
d="M23 0zM563 0h-540v70l58 10l23 43v448l-23 43l-58 10v70h346v-70l-78 -10l-23 -43v-488h136l61 40l14 111h84v-234zM469 -157h-308v82h308v-82z" />
    <glyph glyph-name="uni1E3B" unicode="&#x1e3b;" horiz-adv-x="314" 
d="M11 0zM298 0h-287v61l51 10l23 43v516l-23 43l-51 10v61h218v-630l23 -43l46 -10v-61zM294 -162h-268v82h268v-82z" />
    <glyph glyph-name="uni1E3C" unicode="&#x1e3c;" horiz-adv-x="589" 
d="M23 0zM563 0h-540v70l58 10l23 43v448l-23 43l-58 10v70h346v-70l-78 -10l-23 -43v-488h136l61 40l14 111h84v-234zM313 -167l-123 -108l-33 27l118 191h81l117 -191l-33 -27z" />
    <glyph glyph-name="uni1E3D" unicode="&#x1e3d;" horiz-adv-x="314" 
d="M2 0zM298 0h-287v61l51 10l23 43v516l-23 43l-51 10v61h218v-630l23 -43l46 -10v-61zM158 -172l-123 -108l-33 27l118 191h81l117 -191l-33 -27z" />
    <glyph glyph-name="uni1E3E" unicode="&#x1e3e;" horiz-adv-x="938" 
d="M23 0zM497 0h-117l-165 581h-25l13 -130v-338l17 -41l52 -11v-61h-249v70l58 10l23 43v448l-23 43l-58 10v70h316l94 -341l22 -130h24l24 130l96 341h316v-70l-58 -10l-23 -43v-448l23 -43l58 -10v-70h-312v61l52 11l17 41v338l13 130h-25zM559 778l-118 -65l-33 33
l80 110q28 39 47.5 54t40.5 15q24 0 43 -19t19 -44q0 -22 -17 -40.5t-62 -43.5z" />
    <glyph glyph-name="uni1E3F" unicode="&#x1e3f;" horiz-adv-x="903" 
d="M18 0zM284 0h-266v61l48 10l23 43v294l-23 43l-48 10v61h215v-25l-10 -94l8 -4q37 72 76 104t88 32q58 0 90 -31t39 -95l8 -4q37 71 74.5 100.5t90.5 29.5q61 0 95.5 -39.5t34.5 -110.5v-271l23 -43l43 -10v-61h-242v56l22 19l10 25v254q0 32 -14.5 48t-43.5 16
q-16 0 -33 -8.5t-31 -22.5q-17 -17 -24 -41.5t-7 -69.5v-172l17 -33l34 -15v-56h-227v56l22 19l10 25v254q0 32 -14.5 48t-43.5 16q-16 0 -33 -8.5t-31 -22.5q-17 -17 -24 -41.5t-7 -69.5v-172l17 -33l34 -15v-56zM563 699l-113 -110l-40 23l62 156q13 34 27.5 47.5
t37.5 13.5q25 0 46 -18.5t21 -42.5q0 -16 -8 -30t-33 -39z" />
    <glyph glyph-name="uni1E40" unicode="&#x1e40;" horiz-adv-x="938" 
d="M23 0zM497 0h-117l-165 581h-25l13 -130v-338l17 -41l52 -11v-61h-249v70l58 10l23 43v448l-23 43l-58 10v70h316l94 -341l22 -130h24l24 130l96 341h316v-70l-58 -10l-23 -43v-448l23 -43l58 -10v-70h-312v61l52 11l17 41v338l13 130h-25zM550 809q0 -37 -23 -61
t-59 -24t-59 23t-23 60t23.5 61.5t58.5 24.5q36 0 59 -24t23 -60z" />
    <glyph glyph-name="uni1E41" unicode="&#x1e41;" horiz-adv-x="903" 
d="M18 0zM284 0h-266v61l48 10l23 43v294l-23 43l-48 10v61h215v-25l-10 -94l8 -4q37 72 76 104t88 32q58 0 90 -31t39 -95l8 -4q37 71 74.5 100.5t90.5 29.5q61 0 95.5 -39.5t34.5 -110.5v-271l23 -43l43 -10v-61h-242v56l22 19l10 25v254q0 32 -14.5 48t-43.5 16
q-16 0 -33 -8.5t-31 -22.5q-17 -17 -24 -41.5t-7 -69.5v-172l17 -33l34 -15v-56h-227v56l22 19l10 25v254q0 32 -14.5 48t-43.5 16q-16 0 -33 -8.5t-31 -22.5q-17 -17 -24 -41.5t-7 -69.5v-172l17 -33l34 -15v-56zM543 681q0 -36 -22 -59t-57 -23t-57 22.5t-22 57.5
q0 36 22.5 59.5t56.5 23.5t56.5 -23t22.5 -58z" />
    <glyph glyph-name="uni1E42" unicode="&#x1e42;" horiz-adv-x="938" 
d="M23 0zM497 0h-117l-165 581h-25l13 -130v-338l17 -41l52 -11v-61h-249v70l58 10l23 43v448l-23 43l-58 10v70h316l94 -341l22 -130h24l24 130l96 341h316v-70l-58 -10l-23 -43v-448l23 -43l58 -10v-70h-312v61l52 11l17 41v338l13 130h-25zM515 -131q0 -36 -22 -59
t-57 -23t-57 22.5t-22 57.5q0 36 22.5 59.5t56.5 23.5t56.5 -23t22.5 -58z" />
    <glyph glyph-name="uni1E43" unicode="&#x1e43;" horiz-adv-x="903" 
d="M18 0zM284 0h-266v61l48 10l23 43v294l-23 43l-48 10v61h215v-25l-10 -94l8 -4q37 72 76 104t88 32q58 0 90 -31t39 -95l8 -4q37 71 74.5 100.5t90.5 29.5q61 0 95.5 -39.5t34.5 -110.5v-271l23 -43l43 -10v-61h-242v56l22 19l10 25v254q0 32 -14.5 48t-43.5 16
q-16 0 -33 -8.5t-31 -22.5q-17 -17 -24 -41.5t-7 -69.5v-172l17 -33l34 -15v-56h-227v56l22 19l10 25v254q0 32 -14.5 48t-43.5 16q-16 0 -33 -8.5t-31 -22.5q-17 -17 -24 -41.5t-7 -69.5v-172l17 -33l34 -15v-56zM537 -136q0 -36 -22 -59t-57 -23t-57 22.5t-22 57.5
q0 36 22.5 59.5t56.5 23.5t56.5 -23t22.5 -58z" />
    <glyph glyph-name="uni1E44" unicode="&#x1e44;" horiz-adv-x="729" 
d="M23 0zM291 0h-268v70l58 10l23 43v448l-23 43l-58 10v70h285l175 -366l41 -130h24l-16 144v239l-22 41l-62 11v61h263v-70l-53 -10l-23 -43v-571h-169l-209 433l-42 130h-24l16 -144v-306l22 -41l62 -11v-61zM461 836q0 -37 -23 -61t-59 -24t-59 23t-23 60t23.5 61.5
t58.5 24.5q36 0 59 -24t23 -60z" />
    <glyph glyph-name="uni1E45" unicode="&#x1e45;" horiz-adv-x="612" 
d="M18 0zM284 0h-266v61l48 10l23 43v294l-23 43l-48 10v61h215v-25l-10 -94l8 -4q42 75 80.5 105.5t88.5 30.5q65 0 100.5 -40.5t35.5 -115.5v-265l23 -43l43 -10v-61h-237v56l19 19l8 25v254q0 32 -15.5 48t-45.5 16q-17 0 -35 -8.5t-32 -22.5q-17 -17 -24 -41.5t-7 -69.5
v-172l17 -33l34 -15v-56zM389 681q0 -36 -22 -59t-57 -23t-57 22.5t-22 57.5q0 36 22.5 59.5t56.5 23.5t56.5 -23t22.5 -58z" />
    <glyph glyph-name="uni1E46" unicode="&#x1e46;" horiz-adv-x="729" 
d="M23 0zM291 0h-268v70l58 10l23 43v448l-23 43l-58 10v70h285l175 -366l41 -130h24l-16 144v239l-22 41l-62 11v61h263v-70l-53 -10l-23 -43v-571h-169l-209 433l-42 130h-24l16 -144v-306l22 -41l62 -11v-61zM442 -126q0 -36 -22 -59t-57 -23t-57 22.5t-22 57.5
q0 36 22.5 59.5t56.5 23.5t56.5 -23t22.5 -58z" />
    <glyph glyph-name="uni1E47" unicode="&#x1e47;" horiz-adv-x="612" 
d="M18 0zM284 0h-266v61l48 10l23 43v294l-23 43l-48 10v61h215v-25l-10 -94l8 -4q42 75 80.5 105.5t88.5 30.5q65 0 100.5 -40.5t35.5 -115.5v-265l23 -43l43 -10v-61h-237v56l19 19l8 25v254q0 32 -15.5 48t-45.5 16q-17 0 -35 -8.5t-32 -22.5q-17 -17 -24 -41.5t-7 -69.5
v-172l17 -33l34 -15v-56zM389 -136q0 -36 -22 -59t-57 -23t-57 22.5t-22 57.5q0 36 22.5 59.5t56.5 23.5t56.5 -23t22.5 -58z" />
    <glyph glyph-name="uni1E48" unicode="&#x1e48;" horiz-adv-x="729" 
d="M23 0zM291 0h-268v70l58 10l23 43v448l-23 43l-58 10v70h285l175 -366l41 -130h24l-16 144v239l-22 41l-62 11v61h263v-70l-53 -10l-23 -43v-571h-169l-209 433l-42 130h-24l16 -144v-306l22 -41l62 -11v-61zM520 -157h-308v82h308v-82z" />
    <glyph glyph-name="uni1E49" unicode="&#x1e49;" horiz-adv-x="612" 
d="M18 0zM284 0h-266v61l48 10l23 43v294l-23 43l-48 10v61h215v-25l-10 -94l8 -4q42 75 80.5 105.5t88.5 30.5q65 0 100.5 -40.5t35.5 -115.5v-265l23 -43l43 -10v-61h-237v56l19 19l8 25v254q0 32 -15.5 48t-45.5 16q-17 0 -35 -8.5t-32 -22.5q-17 -17 -24 -41.5t-7 -69.5
v-172l17 -33l34 -15v-56zM464 -162h-308v82h308v-82z" />
    <glyph glyph-name="uni1E4A" unicode="&#x1e4a;" horiz-adv-x="729" 
d="M23 0zM291 0h-268v70l58 10l23 43v448l-23 43l-58 10v70h285l175 -366l41 -130h24l-16 144v239l-22 41l-62 11v61h263v-70l-53 -10l-23 -43v-571h-169l-209 433l-42 130h-24l16 -144v-306l22 -41l62 -11v-61zM361 -162l-123 -108l-33 27l118 191h81l117 -191l-33 -27z
" />
    <glyph glyph-name="uni1E4B" unicode="&#x1e4b;" horiz-adv-x="612" 
d="M18 0zM284 0h-266v61l48 10l23 43v294l-23 43l-48 10v61h215v-25l-10 -94l8 -4q42 75 80.5 105.5t88.5 30.5q65 0 100.5 -40.5t35.5 -115.5v-265l23 -43l43 -10v-61h-237v56l19 19l8 25v254q0 32 -15.5 48t-45.5 16q-17 0 -35 -8.5t-32 -22.5q-17 -17 -24 -41.5t-7 -69.5
v-172l17 -33l34 -15v-56zM308 -172l-123 -108l-33 27l118 191h81l117 -191l-33 -27z" />
    <glyph glyph-name="uni1E58" unicode="&#x1e58;" horiz-adv-x="691" 
d="M23 0zM344 0h-321v70l58 10l23 43v448l-23 43l-58 10v70h310q141 0 215.5 -45t74.5 -131q0 -79 -51.5 -128.5t-152.5 -68.5v-9q54 -12 86.5 -35.5t62.5 -82.5l47 -96l73 -28v-70h-227l-11 72l-67 137q-21 43 -40.5 58t-58.5 15h-19v-169l22 -41l57 -11v-61zM265 611v-246
h53q64 0 99 35t35 100q0 56 -31 83.5t-95 27.5h-61zM421 839q0 -37 -23 -61t-59 -24t-59 23t-23 60t23.5 61.5t58.5 24.5q36 0 59 -24t23 -60z" />
    <glyph glyph-name="uni1E59" unicode="&#x1e59;" horiz-adv-x="484" 
d="M18 0zM256 71l53 -10v-61h-291v61l48 10l23 43v294l-23 43l-48 10v61h215v-25l-10 -127l8 -4q34 85 72.5 127t82.5 42q37 0 60.5 -23.5t23.5 -58.5q0 -44 -31.5 -70.5t-76.5 -23.5l-49 53q-40 -28 -60 -68.5t-20 -92.5v-137zM315 676q0 -36 -22 -59t-57 -23t-57 22.5
t-22 57.5q0 36 22.5 59.5t56.5 23.5t56.5 -23t22.5 -58z" />
    <glyph glyph-name="uni1E5A" unicode="&#x1e5a;" horiz-adv-x="691" 
d="M23 0zM344 0h-321v70l58 10l23 43v448l-23 43l-58 10v70h310q141 0 215.5 -45t74.5 -131q0 -79 -51.5 -128.5t-152.5 -68.5v-9q54 -12 86.5 -35.5t62.5 -82.5l47 -96l73 -28v-70h-227l-11 72l-67 137q-21 43 -40.5 58t-58.5 15h-19v-169l22 -41l57 -11v-61zM265 611v-246
h53q64 0 99 35t35 100q0 56 -31 83.5t-95 27.5h-61zM439 -131q0 -36 -22 -59t-57 -23t-57 22.5t-22 57.5q0 36 22.5 59.5t56.5 23.5t56.5 -23t22.5 -58z" />
    <glyph glyph-name="uni1E5B" unicode="&#x1e5b;" horiz-adv-x="484" 
d="M18 0zM256 71l53 -10v-61h-291v61l48 10l23 43v294l-23 43l-48 10v61h215v-25l-10 -127l8 -4q34 85 72.5 127t82.5 42q37 0 60.5 -23.5t23.5 -58.5q0 -44 -31.5 -70.5t-76.5 -23.5l-49 53q-40 -28 -60 -68.5t-20 -92.5v-137zM247 -136q0 -36 -22 -59t-57 -23t-57 22.5
t-22 57.5q0 36 22.5 59.5t56.5 23.5t56.5 -23t22.5 -58z" />
    <glyph glyph-name="uni1E5C" unicode="&#x1e5c;" horiz-adv-x="691" 
d="M23 0zM344 0h-321v70l58 10l23 43v448l-23 43l-58 10v70h310q141 0 215.5 -45t74.5 -131q0 -79 -51.5 -128.5t-152.5 -68.5v-9q54 -12 86.5 -35.5t62.5 -82.5l47 -96l73 -28v-70h-227l-11 72l-67 137q-21 43 -40.5 58t-58.5 15h-19v-169l22 -41l57 -11v-61zM265 611v-246
h53q64 0 99 35t35 100q0 56 -31 83.5t-95 27.5h-61zM513 769h-348v84h348v-84zM439 -131q0 -36 -22 -59t-57 -23t-57 22.5t-22 57.5q0 36 22.5 59.5t56.5 23.5t56.5 -23t22.5 -58z" />
    <glyph glyph-name="uni1E5D" unicode="&#x1e5d;" horiz-adv-x="484" 
d="M18 0zM256 71l53 -10v-61h-291v61l48 10l23 43v294l-23 43l-48 10v61h215v-25l-10 -127l8 -4q34 85 72.5 127t82.5 42q37 0 60.5 -23.5t23.5 -58.5q0 -44 -31.5 -70.5t-76.5 -23.5l-49 53q-40 -28 -60 -68.5t-20 -92.5v-137zM370 611h-268v82h268v-82zM247 -136
q0 -36 -22 -59t-57 -23t-57 22.5t-22 57.5q0 36 22.5 59.5t56.5 23.5t56.5 -23t22.5 -58z" />
    <glyph glyph-name="uni1E5E" unicode="&#x1e5e;" horiz-adv-x="691" 
d="M23 0zM344 0h-321v70l58 10l23 43v448l-23 43l-58 10v70h310q141 0 215.5 -45t74.5 -131q0 -79 -51.5 -128.5t-152.5 -68.5v-9q54 -12 86.5 -35.5t62.5 -82.5l47 -96l73 -28v-70h-227l-11 72l-67 137q-21 43 -40.5 58t-58.5 15h-19v-169l22 -41l57 -11v-61zM265 611v-246
h53q64 0 99 35t35 100q0 56 -31 83.5t-95 27.5h-61zM514 -157h-308v82h308v-82z" />
    <glyph glyph-name="uni1E5F" unicode="&#x1e5f;" horiz-adv-x="484" 
d="M18 0zM256 71l53 -10v-61h-291v61l48 10l23 43v294l-23 43l-48 10v61h215v-25l-10 -127l8 -4q34 85 72.5 127t82.5 42q37 0 60.5 -23.5t23.5 -58.5q0 -44 -31.5 -70.5t-76.5 -23.5l-49 53q-40 -28 -60 -68.5t-20 -92.5v-137zM302 -162h-268v82h268v-82z" />
    <glyph glyph-name="uni1E62" unicode="&#x1e62;" horiz-adv-x="594" 
d="M47 0zM357 419q110 -42 153 -91.5t43 -120.5q0 -96 -70 -157.5t-176 -61.5q-44 0 -86.5 11.5t-83.5 34.5l-50 -35h-40v233h86l44 -125q29 -19 60.5 -29t62.5 -10q49 0 78.5 26t29.5 72q0 36 -28.5 62.5t-124.5 62.5q-109 42 -152 89.5t-43 114.5q0 90 66.5 150.5
t164.5 60.5q34 0 68 -8.5t73 -27.5l50 35h40v-227h-88l-42 120q-26 16 -46.5 22.5t-40.5 6.5q-46 0 -73 -24.5t-27 -66.5q0 -23 14 -42t44 -35q11 -6 26 -12.5t68 -27.5zM386 -136q0 -36 -22 -59t-57 -23t-57 22.5t-22 57.5q0 36 22.5 59.5t56.5 23.5t56.5 -23t22.5 -58z
" />
    <glyph glyph-name="uni1E63" unicode="&#x1e63;" horiz-adv-x="486" 
d="M33 0zM287 322q89 -33 123.5 -71t34.5 -99q0 -76 -60.5 -121t-157.5 -45q-53 0 -103.5 12t-90.5 34v145h80l22 -100q20 -12 43 -17.5t49 -5.5q37 0 61 18t24 46q0 32 -26 51.5t-100 47.5q-78 30 -110 67t-32 93q0 69 58 114t144 45q41 0 84.5 -10t89.5 -30v-128h-79
l-21 85q-15 8 -33 11.5t-40 3.5q-31 0 -52 -17t-21 -43t19.5 -42t93.5 -44zM309 -141q0 -36 -22 -59t-57 -23t-57 22.5t-22 57.5q0 36 22.5 59.5t56.5 23.5t56.5 -23t22.5 -58z" />
    <glyph glyph-name="uni1E6C" unicode="&#x1e6c;" horiz-adv-x="672" 
d="M30 0zM509 0h-346v70l68 10l23 43v488h-65l-61 -40l-14 -121h-84v244h612v-244h-84l-14 121l-61 40h-65v-488l23 -43l68 -10v-70zM415 -131q0 -36 -22 -59t-57 -23t-57 22.5t-22 57.5q0 36 22.5 59.5t56.5 23.5t56.5 -23t22.5 -58z" />
    <glyph glyph-name="uni1E6D" unicode="&#x1e6d;" horiz-adv-x="415" 
d="M14 0zM228 -13q-66 0 -101 36t-35 104v311h-78v71l79 16l54 140h89v-143h148v-84h-148v-293q0 -34 15.5 -51t45.5 -17q16 0 33.5 4t41.5 13l19 -52q-44 -28 -83.5 -41.5t-79.5 -13.5zM289 -141q0 -36 -22 -59t-57 -23t-57 22.5t-22 57.5q0 36 22.5 59.5t56.5 23.5
t56.5 -23t22.5 -58z" />
    <glyph glyph-name="uni1E6E" unicode="&#x1e6e;" horiz-adv-x="672" 
d="M30 0zM509 0h-346v70l68 10l23 43v488h-65l-61 -40l-14 -121h-84v244h612v-244h-84l-14 121l-61 40h-65v-488l23 -43l68 -10v-70zM490 -157h-308v82h308v-82z" />
    <glyph glyph-name="uni1E6F" unicode="&#x1e6f;" horiz-adv-x="415" 
d="M14 0zM228 -13q-66 0 -101 36t-35 104v311h-78v71l79 16l54 140h89v-143h148v-84h-148v-293q0 -34 15.5 -51t45.5 -17q16 0 33.5 4t41.5 13l19 -52q-44 -28 -83.5 -41.5t-79.5 -13.5zM344 -167h-268v82h268v-82z" />
    <glyph glyph-name="uni1E70" unicode="&#x1e70;" horiz-adv-x="672" 
d="M30 0zM509 0h-346v70l68 10l23 43v488h-65l-61 -40l-14 -121h-84v244h612v-244h-84l-14 121l-61 40h-65v-488l23 -43l68 -10v-70zM334 -167l-123 -108l-33 27l118 191h81l117 -191l-33 -27z" />
    <glyph glyph-name="uni1E71" unicode="&#x1e71;" horiz-adv-x="415" 
d="M14 0zM228 -13q-66 0 -101 36t-35 104v311h-78v71l79 16l54 140h89v-143h148v-84h-148v-293q0 -34 15.5 -51t45.5 -17q16 0 33.5 4t41.5 13l19 -52q-44 -28 -83.5 -41.5t-79.5 -13.5zM208 -177l-123 -108l-33 27l118 191h81l117 -191l-33 -27z" />
    <glyph glyph-name="uni1E7E" unicode="&#x1e7e;" horiz-adv-x="699" 
d="M0 0zM438 -7h-172l-201 607l-65 24v70h319v-67l-53 -15l-16 -41l98 -312l25 -130h24l27 130l96 318l-19 32l-44 18v67h242v-70l-63 -23zM433 -136q0 -36 -22 -59t-57 -23t-57 22.5t-22 57.5q0 36 22.5 59.5t56.5 23.5t56.5 -23t22.5 -58z" />
    <glyph glyph-name="uni1E7F" unicode="&#x1e7f;" horiz-adv-x="555" 
d="M2 0zM334 -9h-113l-167 451l-52 19v61h263v-53l-42 -13l-10 -33l61 -187l22 -112h17l23 112l62 192l-15 30l-31 11v53h201v-61l-51 -19zM355 -141q0 -36 -22 -59t-57 -23t-57 22.5t-22 57.5q0 36 22.5 59.5t56.5 23.5t56.5 -23t22.5 -58z" />
    <glyph glyph-name="Wgrave" unicode="&#x1e80;" horiz-adv-x="1028" 
d="M5 0zM396 -7h-168l-158 607l-65 24v70h305v-67l-53 -15l-16 -41l60 -281l17 -130h24l19 130l95 404h158l93 -404l18 -130h24l18 130l60 287l-19 32l-44 18v67h259v-70l-63 -23l-158 -608h-168l-89 371l-17 130h-24l-17 -130zM592 776l-33 -33l-118 65q-45 25 -62 43.5
t-17 40.5q0 25 19 44t43 19q21 0 40.5 -15t47.5 -54z" />
    <glyph glyph-name="wgrave" unicode="&#x1e81;" horiz-adv-x="834" 
d="M2 0zM319 -7h-135l-130 449l-52 19v61h256v-53l-42 -13l-10 -33l44 -188l14 -112h17l15 112l73 289h140l72 -289l15 -112h17l14 112l46 193l-15 30l-31 11v53h205v-61l-51 -19l-131 -449h-125l-83 287l-14 112h-18l-16 -112zM495 607l-40 -23l-113 110q-25 25 -33 39
t-8 30q0 24 21 42.5t46 18.5q23 0 37.5 -13.5t27.5 -47.5z" />
    <glyph glyph-name="Wacute" unicode="&#x1e82;" horiz-adv-x="1028" 
d="M5 0zM396 -7h-168l-158 607l-65 24v70h305v-67l-53 -15l-16 -41l60 -281l17 -130h24l19 130l95 404h158l93 -404l18 -130h24l18 130l60 287l-19 32l-44 18v67h259v-70l-63 -23l-158 -608h-168l-89 371l-17 130h-24l-17 -130zM623 808l-118 -65l-33 33l80 110
q28 39 47.5 54t40.5 15q24 0 43 -19t19 -44q0 -22 -17 -40.5t-62 -43.5z" />
    <glyph glyph-name="wacute" unicode="&#x1e83;" horiz-adv-x="834" 
d="M2 0zM319 -7h-135l-130 449l-52 19v61h256v-53l-42 -13l-10 -33l44 -188l14 -112h17l15 112l73 289h140l72 -289l15 -112h17l14 112l46 193l-15 30l-31 11v53h205v-61l-51 -19l-131 -449h-125l-83 287l-14 112h-18l-16 -112zM539 694l-113 -110l-40 23l62 156
q13 34 27.5 47.5t37.5 13.5q25 0 46 -18.5t21 -42.5q0 -16 -8 -30t-33 -39z" />
    <glyph glyph-name="Wdieresis" unicode="&#x1e84;" horiz-adv-x="1028" 
d="M5 0zM396 -7h-168l-158 607l-65 24v70h305v-67l-53 -15l-16 -41l60 -281l17 -130h24l19 130l95 404h158l93 -404l18 -130h24l18 130l60 287l-19 32l-44 18v67h259v-70l-63 -23l-158 -608h-168l-89 371l-17 130h-24l-17 -130zM724 826q0 -36 -22 -59t-57 -23
q-34 0 -56.5 22.5t-22.5 57.5t22.5 59t56.5 24t56.5 -23t22.5 -58zM498 826q0 -36 -22.5 -59t-56.5 -23t-56.5 22.5t-22.5 57.5t22.5 59t56.5 24t56.5 -23t22.5 -58z" />
    <glyph glyph-name="wdieresis" unicode="&#x1e85;" horiz-adv-x="834" 
d="M2 0zM319 -7h-135l-130 449l-52 19v61h256v-53l-42 -13l-10 -33l44 -188l14 -112h17l15 112l73 289h140l72 -289l15 -112h17l14 112l46 193l-15 30l-31 11v53h205v-61l-51 -19l-131 -449h-125l-83 287l-14 112h-18l-16 -112zM624 672q0 -34 -21.5 -56.5t-54.5 -22.5
t-54.5 21.5t-21.5 55.5t21.5 57t54.5 23t54.5 -22t21.5 -56zM408 672q0 -34 -21.5 -56.5t-54.5 -22.5t-54.5 21.5t-21.5 55.5t21.5 57t54.5 23t54.5 -22t21.5 -56z" />
    <glyph glyph-name="uni1E8C" unicode="&#x1e8c;" horiz-adv-x="675" 
d="M11 0zM257 0h-246v70l61 17l189 249l-184 273l-56 15v70h304v-62l-39 -17l-10 -30l35 -61l37 -71h24l39 71l40 59l-10 32l-35 17v62h240v-70l-55 -17l-176 -231l196 -291l54 -15v-70h-302v62l39 17l10 30l-47 80l-37 71h-24l-40 -71l-52 -78l10 -32l35 -17v-62zM551 826
q0 -36 -22 -59t-57 -23q-34 0 -56.5 22.5t-22.5 57.5t22.5 59t56.5 24t56.5 -23t22.5 -58zM325 826q0 -36 -22.5 -59t-56.5 -23t-56.5 22.5t-22.5 57.5t22.5 59t56.5 24t56.5 -23t22.5 -58z" />
    <glyph glyph-name="uni1E8D" unicode="&#x1e8d;" horiz-adv-x="561" 
d="M9 0zM211 0h-202v61l58 16l138 173l-137 196l-54 15v61h262v-48l-25 -9l-12 -24l24 -36l34 -68h15l42 67l30 33l-14 27l-27 10v48h202v-61l-58 -16l-134 -164l147 -205l54 -15v-61h-262v48l24 9l13 24l-31 46l-35 68h-15l-44 -67l-34 -43l14 -27l27 -10v-48zM491 672
q0 -34 -21.5 -56.5t-54.5 -22.5t-54.5 21.5t-21.5 55.5t21.5 57t54.5 23t54.5 -22t21.5 -56zM275 672q0 -34 -21.5 -56.5t-54.5 -22.5t-54.5 21.5t-21.5 55.5t21.5 57t54.5 23t54.5 -22t21.5 -56z" />
    <glyph glyph-name="uni1E8E" unicode="&#x1e8e;" horiz-adv-x="648" 
d="M0 0zM501 0h-346v70l68 10l23 43v163l-193 323l-54 15v70h311v-62l-48 -17l-10 -32l71 -129l30 -78h24l29 78l65 123l-11 35l-44 20v62h234v-70l-54 -17l-186 -319v-165l23 -43l68 -10v-70zM441 839q0 -37 -23 -61t-59 -24t-59 23t-23 60t23.5 61.5t58.5 24.5
q36 0 59 -24t23 -60z" />
    <glyph glyph-name="uni1E8F" unicode="&#x1e8f;" horiz-adv-x="558" 
d="M2 0zM505 442l-157 -420q-41 -110 -89 -158.5t-115 -48.5q-43 0 -69.5 20t-26.5 50q0 26 21 45.5t48 21.5l69 -57q23 13 37.5 34t20.5 51l-190 462l-52 19v61h266v-53l-42 -13l-10 -33l64 -183l21 -108h17l23 108l56 188l-15 30l-31 11v53h205v-61zM380 676
q0 -36 -22 -59t-57 -23t-57 22.5t-22 57.5q0 36 22.5 59.5t56.5 23.5t56.5 -23t22.5 -58z" />
    <glyph glyph-name="uni1E90" unicode="&#x1e90;" horiz-adv-x="614" 
d="M29 0zM578 0h-549v82l278 412l78 98l-7 23l-123 -4h-45l-61 -40l-14 -116h-84v239h524v-82l-278 -412l-78 -98l7 -23l123 4h70l61 40l14 126h84v-249zM316 822l-138 -86l-29 29l127 164h85l126 -164l-29 -29z" />
    <glyph glyph-name="uni1E91" unicode="&#x1e91;" horiz-adv-x="532" 
d="M38 0zM488 0h-450v78l212 278l69 80l-6 16l-106 -4h-21l-45 -30l-11 -80h-75v184h433v-78l-212 -278l-69 -80l6 -16l106 4h38l45 30l11 87h75v-191zM273 691l-123 -108l-33 27l118 191h81l117 -191l-33 -27z" />
    <glyph glyph-name="uni1E92" unicode="&#x1e92;" horiz-adv-x="614" 
d="M29 0zM578 0h-549v82l278 412l78 98l-7 23l-123 -4h-45l-61 -40l-14 -116h-84v239h524v-82l-278 -412l-78 -98l7 -23l123 4h70l61 40l14 126h84v-249zM389 -131q0 -36 -22 -59t-57 -23t-57 22.5t-22 57.5q0 36 22.5 59.5t56.5 23.5t56.5 -23t22.5 -58z" />
    <glyph glyph-name="uni1E93" unicode="&#x1e93;" horiz-adv-x="532" 
d="M38 0zM488 0h-450v78l212 278l69 80l-6 16l-106 -4h-21l-45 -30l-11 -80h-75v184h433v-78l-212 -278l-69 -80l6 -16l106 4h38l45 30l11 87h75v-191zM351 -136q0 -36 -22 -59t-57 -23t-57 22.5t-22 57.5q0 36 22.5 59.5t56.5 23.5t56.5 -23t22.5 -58z" />
    <glyph glyph-name="uni1E94" unicode="&#x1e94;" horiz-adv-x="614" 
d="M29 0zM578 0h-549v82l278 412l78 98l-7 23l-123 -4h-45l-61 -40l-14 -116h-84v239h524v-82l-278 -412l-78 -98l7 -23l123 4h70l61 40l14 126h84v-249zM464 -157h-308v82h308v-82z" />
    <glyph glyph-name="uni1E95" unicode="&#x1e95;" horiz-adv-x="532" 
d="M38 0zM488 0h-450v78l212 278l69 80l-6 16l-106 -4h-21l-45 -30l-11 -80h-75v184h433v-78l-212 -278l-69 -80l6 -16l106 4h38l45 30l11 87h75v-191zM426 -162h-308v82h308v-82z" />
    <glyph glyph-name="uni1E96" unicode="&#x1e96;" horiz-adv-x="603" 
d="M9 0zM275 0h-266v61l48 10l23 43v516l-23 43l-48 10v61h215v-247l-10 -94l8 -4q42 75 80.5 105.5t88.5 30.5q65 0 100.5 -40.5t35.5 -115.5v-265l23 -43l43 -10v-61h-237v56l19 19l8 25v254q0 32 -15.5 48t-45.5 16q-17 0 -35 -8.5t-32 -22.5q-17 -17 -24 -41.5t-7 -69.5
v-172l17 -33l34 -15v-56zM455 -162h-308v82h308v-82z" />
    <glyph glyph-name="uni1E9E" unicode="&#x1e9e;" horiz-adv-x="725" 
d="M700 182q0 -82 -72.5 -136t-169.5 -54q-40 0 -70 4.5t-59 14.5v159h80l30 -107q42 4 66 34.5t24 82.5q0 65 -45.5 104t-136.5 52v57l66 122l58 80l-7 23l-111 -7h-85v-611h-245v70l58 10l23 43v448l-23 43l-58 10v70h637v-75l-104 -157l-54 -75l2 -14q95 -20 145.5 -69.5
t50.5 -121.5z" />
    <glyph glyph-name="uni1EA0" unicode="&#x1ea0;" horiz-adv-x="708" 
d="M0 0zM198 85l44 -18v-67h-242v70l63 23l201 606h180l199 -605l65 -24v-70h-313v67l53 15l16 41l-24 79h-234l-27 -85zM311 576l-29 -130l-49 -156h179l-48 156l-29 130h-24zM395 -131q0 -36 -22 -59t-57 -23t-57 22.5t-22 57.5q0 36 22.5 59.5t56.5 23.5t56.5 -23
t22.5 -58z" />
    <glyph glyph-name="uni1EA1" unicode="&#x1ea1;" horiz-adv-x="560" 
d="M35 0zM544 56v-43l-103 -26q-40 7 -66 32.5t-32 62.5h-7q-36 -51 -72 -72.5t-83 -21.5q-66 0 -106 41t-40 109q0 30 10.5 55.5t30.5 45.5q28 28 79.5 42t127.5 14h53v56q0 53 -25 79t-76 26q-16 0 -28.5 -2t-23.5 -7l20 -69q-15 -21 -34 -31t-42 -10q-31 0 -49 17.5
t-18 47.5q0 28 19.5 52t56.5 43q40 20 80.5 29.5t82.5 9.5q87 0 133 -42.5t46 -122.5v-243q0 -30 13 -45t53 -27zM336 183v56h-33q-65 0 -97 -21.5t-32 -64.5q0 -35 17.5 -54.5t48.5 -19.5q19 0 37.5 8t33.5 23q12 12 18.5 30.5t6.5 42.5zM337 -141q0 -36 -22 -59t-57 -23
t-57 22.5t-22 57.5q0 36 22.5 59.5t56.5 23.5t56.5 -23t22.5 -58z" />
    <glyph glyph-name="uni1EA2" unicode="&#x1ea2;" horiz-adv-x="708" 
d="M0 0zM198 85l44 -18v-67h-242v70l63 23l201 606h180l199 -605l65 -24v-70h-313v67l53 15l16 41l-24 79h-234l-27 -85zM311 576l-29 -130l-49 -156h179l-48 156l-29 130h-24zM354 960q67 0 107 -24t40 -65q0 -45 -49 -74t-144 -41v52q52 10 74.5 21t22.5 25
q0 13 -17.5 19.5t-51.5 6.5q-21 0 -43 -3t-47 -10l-16 74q25 9 57.5 14t66.5 5z" />
    <glyph glyph-name="uni1EA3" unicode="&#x1ea3;" horiz-adv-x="560" 
d="M35 0zM544 56v-43l-103 -26q-40 7 -66 32.5t-32 62.5h-7q-36 -51 -72 -72.5t-83 -21.5q-66 0 -106 41t-40 109q0 30 10.5 55.5t30.5 45.5q28 28 79.5 42t127.5 14h53v56q0 53 -25 79t-76 26q-16 0 -28.5 -2t-23.5 -7l20 -69q-15 -21 -34 -31t-42 -10q-31 0 -49 17.5
t-18 47.5q0 28 19.5 52t56.5 43q40 20 80.5 29.5t82.5 9.5q87 0 133 -42.5t46 -122.5v-243q0 -30 13 -45t53 -27zM336 183v56h-33q-65 0 -97 -21.5t-32 -64.5q0 -35 17.5 -54.5t48.5 -19.5q19 0 37.5 8t33.5 23q12 12 18.5 30.5t6.5 42.5zM280 808q67 0 107 -25.5t40 -68.5
q0 -45 -49 -74.5t-141 -41.5v50q47 8 72.5 21t25.5 30q0 15 -18 22.5t-55 7.5q-19 0 -40 -3t-47 -9l-16 72q32 10 62 14.5t59 4.5z" />
    <glyph glyph-name="uni1EA4" unicode="&#x1ea4;" horiz-adv-x="708" 
d="M0 0zM198 85l44 -18v-67h-242v70l63 23l201 606h180l199 -605l65 -24v-70h-313v67l53 15l16 41l-24 79h-234l-27 -85zM311 576l-29 -130l-49 -156h179l-48 156l-29 130h-24zM590 937l-107 -53l-33 33l77 93q25 30 42 41t37 11t36 -17t16 -39q0 -17 -16.5 -34t-51.5 -35z
M348 807l-138 -71l-29 29l128 144h83l127 -144l-29 -29z" />
    <glyph glyph-name="uni1EA5" unicode="&#x1ea5;" horiz-adv-x="560" 
d="M35 0zM544 56v-43l-103 -26q-40 7 -66 32.5t-32 62.5h-7q-36 -51 -72 -72.5t-83 -21.5q-66 0 -106 41t-40 109q0 30 10.5 55.5t30.5 45.5q28 28 79.5 42t127.5 14h53v56q0 53 -25 79t-76 26q-16 0 -28.5 -2t-23.5 -7l20 -69q-15 -21 -34 -31t-42 -10q-31 0 -49 17.5
t-18 47.5q0 28 19.5 52t56.5 43q40 20 80.5 29.5t82.5 9.5q87 0 133 -42.5t46 -122.5v-243q0 -30 13 -45t53 -27zM336 183v56h-33q-65 0 -97 -21.5t-32 -64.5q0 -35 17.5 -54.5t48.5 -19.5q19 0 37.5 8t33.5 23q12 12 18.5 30.5t6.5 42.5zM533 832l-103 -96l-40 23l52 129
q16 39 32 54.5t40 15.5q22 0 41 -17.5t19 -39.5q0 -16 -8.5 -31t-32.5 -38zM276 668l-139 -80l-32 31l129 146h89l129 -146l-32 -31z" />
    <glyph glyph-name="uni1EA6" unicode="&#x1ea6;" horiz-adv-x="708" 
d="M0 0zM198 85l44 -18v-67h-242v70l63 23l201 606h180l199 -605l65 -24v-70h-313v67l53 15l16 41l-24 79h-234l-27 -85zM311 576l-29 -130l-49 -156h179l-48 156l-29 130h-24zM579 923l-32 -34l-109 49q-35 16 -52.5 33t-17.5 34q0 23 15 40t36 17q20 0 38 -10.5t42 -38.5z
M348 807l-138 -71l-29 29l128 144h83l127 -144l-29 -29z" />
    <glyph glyph-name="uni1EA7" unicode="&#x1ea7;" horiz-adv-x="560" 
d="M35 0zM544 56v-43l-103 -26q-40 7 -66 32.5t-32 62.5h-7q-36 -51 -72 -72.5t-83 -21.5q-66 0 -106 41t-40 109q0 30 10.5 55.5t30.5 45.5q28 28 79.5 42t127.5 14h53v56q0 53 -25 79t-76 26q-16 0 -28.5 -2t-23.5 -7l20 -69q-15 -21 -34 -31t-42 -10q-31 0 -49 17.5
t-18 47.5q0 28 19.5 52t56.5 43q40 20 80.5 29.5t82.5 9.5q87 0 133 -42.5t46 -122.5v-243q0 -30 13 -45t53 -27zM336 183v56h-33q-65 0 -97 -21.5t-32 -64.5q0 -35 17.5 -54.5t48.5 -19.5q19 0 37.5 8t33.5 23q12 12 18.5 30.5t6.5 42.5zM495 759l-40 -23l-103 96
q-24 23 -32.5 38t-8.5 31q0 22 19 39.5t41 17.5q24 0 40 -15.5t32 -54.5zM276 668l-139 -80l-32 31l129 146h89l129 -146l-32 -31z" />
    <glyph glyph-name="uni1EA8" unicode="&#x1ea8;" horiz-adv-x="708" 
d="M0 0zM198 85l44 -18v-67h-242v70l63 23l201 606h180l199 -605l65 -24v-70h-313v67l53 15l16 41l-24 79h-234l-27 -85zM311 576l-29 -130l-49 -156h179l-48 156l-29 130h-24zM354 1130q67 0 107 -21t40 -57q0 -40 -48.5 -66t-144.5 -38v50q58 12 77.5 20t19.5 18
q0 9 -16 13t-53 4q-20 0 -42.5 -3t-48.5 -10l-15 71q25 9 57.5 14t66.5 5zM348 807l-138 -71l-29 29l128 144h83l127 -144l-29 -29z" />
    <glyph glyph-name="uni1EA9" unicode="&#x1ea9;" horiz-adv-x="560" 
d="M35 0zM544 56v-43l-103 -26q-40 7 -66 32.5t-32 62.5h-7q-36 -51 -72 -72.5t-83 -21.5q-66 0 -106 41t-40 109q0 30 10.5 55.5t30.5 45.5q28 28 79.5 42t127.5 14h53v56q0 53 -25 79t-76 26q-16 0 -28.5 -2t-23.5 -7l20 -69q-15 -21 -34 -31t-42 -10q-31 0 -49 17.5
t-18 47.5q0 28 19.5 52t56.5 43q40 20 80.5 29.5t82.5 9.5q87 0 133 -42.5t46 -122.5v-243q0 -30 13 -45t53 -27zM336 183v56h-33q-65 0 -97 -21.5t-32 -64.5q0 -35 17.5 -54.5t48.5 -19.5q19 0 37.5 8t33.5 23q12 12 18.5 30.5t6.5 42.5zM283 1004q67 0 106.5 -22.5
t39.5 -61.5q0 -44 -49.5 -72.5t-142.5 -40.5v49q49 8 74.5 19.5t25.5 25.5q0 13 -18 19t-57 6q-20 0 -41.5 -3t-48.5 -9l-16 71q39 10 68.5 14.5t58.5 4.5zM452 619l-32 -31l-144 80l-139 -80l-32 31l129 146h89z" />
    <glyph glyph-name="uni1EAA" unicode="&#x1eaa;" horiz-adv-x="708" 
d="M0 0zM198 85l44 -18v-67h-242v70l63 23l201 606h180l199 -605l65 -24v-70h-313v67l53 15l16 41l-24 79h-234l-27 -85zM311 576l-29 -130l-49 -156h179l-48 156l-29 130h-24zM292 996q-17 0 -30 -13t-28 -45l-54 21q22 69 48.5 97t67.5 28q16 0 36 -6t57 -25
q27 -13 38 -17t19 -4q16 0 29 13.5t30 49.5l54 -21q-21 -71 -48 -100.5t-69 -29.5q-16 0 -36 6t-58 25q-27 13 -38 17t-18 4zM348 807l-138 -71l-29 29l128 144h83l127 -144l-29 -29z" />
    <glyph glyph-name="uni1EAB" unicode="&#x1eab;" horiz-adv-x="560" 
d="M35 0zM544 56v-43l-103 -26q-40 7 -66 32.5t-32 62.5h-7q-36 -51 -72 -72.5t-83 -21.5q-66 0 -106 41t-40 109q0 30 10.5 55.5t30.5 45.5q28 28 79.5 42t127.5 14h53v56q0 53 -25 79t-76 26q-16 0 -28.5 -2t-23.5 -7l20 -69q-15 -21 -34 -31t-42 -10q-31 0 -49 17.5
t-18 47.5q0 28 19.5 52t56.5 43q40 20 80.5 29.5t82.5 9.5q87 0 133 -42.5t46 -122.5v-243q0 -30 13 -45t53 -27zM336 183v56h-33q-65 0 -97 -21.5t-32 -64.5q0 -35 17.5 -54.5t48.5 -19.5q19 0 37.5 8t33.5 23q12 12 18.5 30.5t6.5 42.5zM214 876q-14 0 -24.5 -15
t-27.5 -61l-57 21q24 88 51 119.5t71 31.5q13 0 30.5 -8t53.5 -32q28 -19 40 -25t20 -6q14 0 24.5 15t28.5 62l57 -21q-25 -89 -52 -120.5t-71 -31.5q-13 0 -30.5 8t-52.5 32q-29 19 -41 25t-20 6zM276 668l-139 -80l-32 31l129 146h89l129 -146l-32 -31z" />
    <glyph glyph-name="uni1EAC" unicode="&#x1eac;" horiz-adv-x="708" 
d="M0 0zM198 85l44 -18v-67h-242v70l63 23l201 606h180l199 -605l65 -24v-70h-313v67l53 15l16 41l-24 79h-234l-27 -85zM311 576l-29 -130l-49 -156h179l-48 156l-29 130h-24zM348 822l-138 -86l-29 29l127 164h85l126 -164l-29 -29zM395 -131q0 -36 -22 -59t-57 -23
t-57 22.5t-22 57.5q0 36 22.5 59.5t56.5 23.5t56.5 -23t22.5 -58z" />
    <glyph glyph-name="uni1EAD" unicode="&#x1ead;" horiz-adv-x="560" 
d="M35 0zM544 56v-43l-103 -26q-40 7 -66 32.5t-32 62.5h-7q-36 -51 -72 -72.5t-83 -21.5q-66 0 -106 41t-40 109q0 30 10.5 55.5t30.5 45.5q28 28 79.5 42t127.5 14h53v56q0 53 -25 79t-76 26q-16 0 -28.5 -2t-23.5 -7l20 -69q-15 -21 -34 -31t-42 -10q-31 0 -49 17.5
t-18 47.5q0 28 19.5 52t56.5 43q40 20 80.5 29.5t82.5 9.5q87 0 133 -42.5t46 -122.5v-243q0 -30 13 -45t53 -27zM336 183v56h-33q-65 0 -97 -21.5t-32 -64.5q0 -35 17.5 -54.5t48.5 -19.5q19 0 37.5 8t33.5 23q12 12 18.5 30.5t6.5 42.5zM277 696l-123 -108l-33 27l118 191
h81l117 -191l-33 -27zM337 -141q0 -36 -22 -59t-57 -23t-57 22.5t-22 57.5q0 36 22.5 59.5t56.5 23.5t56.5 -23t22.5 -58z" />
    <glyph glyph-name="uni1EAE" unicode="&#x1eae;" horiz-adv-x="708" 
d="M0 0zM198 85l44 -18v-67h-242v70l63 23l201 606h180l199 -605l65 -24v-70h-313v67l53 15l16 41l-24 79h-234l-27 -85zM311 576l-29 -130l-49 -156h179l-48 156l-29 130h-24zM430 992l-107 -53l-33 33l77 93q25 30 42 41t37 11t36 -17t16 -39q0 -17 -16.5 -34t-51.5 -35z
M350 761q-66 0 -110 41t-65 121l47 19q27 -43 57.5 -62.5t71.5 -19.5t71.5 19.5t57.5 62.5l45 -19q-21 -80 -65 -121t-110 -41z" />
    <glyph glyph-name="uni1EAF" unicode="&#x1eaf;" horiz-adv-x="560" 
d="M35 0zM544 56v-43l-103 -26q-40 7 -66 32.5t-32 62.5h-7q-36 -51 -72 -72.5t-83 -21.5q-66 0 -106 41t-40 109q0 30 10.5 55.5t30.5 45.5q28 28 79.5 42t127.5 14h53v56q0 53 -25 79t-76 26q-16 0 -28.5 -2t-23.5 -7l20 -69q-15 -21 -34 -31t-42 -10q-31 0 -49 17.5
t-18 47.5q0 28 19.5 52t56.5 43q40 20 80.5 29.5t82.5 9.5q87 0 133 -42.5t46 -122.5v-243q0 -30 13 -45t53 -27zM336 183v56h-33q-65 0 -97 -21.5t-32 -64.5q0 -35 17.5 -54.5t48.5 -19.5q19 0 37.5 8t33.5 23q12 12 18.5 30.5t6.5 42.5zM366 869l-93 -83l-40 23l48 114
q16 38 31.5 53t39.5 15q21 0 38 -16t17 -37q0 -18 -9 -33.5t-32 -35.5zM279 603q-69 0 -111.5 42t-53.5 123l49 13q17 -42 44.5 -60.5t72.5 -18.5t72.5 18.5t44.5 60.5l47 -13q-11 -81 -53.5 -123t-111.5 -42z" />
    <glyph glyph-name="uni1EB0" unicode="&#x1eb0;" horiz-adv-x="708" 
d="M0 0zM198 85l44 -18v-67h-242v70l63 23l201 606h180l199 -605l65 -24v-70h-313v67l53 15l16 41l-24 79h-234l-27 -85zM311 576l-29 -130l-49 -156h179l-48 156l-29 130h-24zM414 972l-33 -33l-107 53q-35 18 -51.5 35t-16.5 34q0 22 16 39t36 17t37 -11t42 -41zM350 761
q-66 0 -110 41t-65 121l47 19q27 -43 57.5 -62.5t71.5 -19.5t71.5 19.5t57.5 62.5l45 -19q-21 -80 -65 -121t-110 -41z" />
    <glyph glyph-name="uni1EB1" unicode="&#x1eb1;" horiz-adv-x="560" 
d="M35 0zM544 56v-43l-103 -26q-40 7 -66 32.5t-32 62.5h-7q-36 -51 -72 -72.5t-83 -21.5q-66 0 -106 41t-40 109q0 30 10.5 55.5t30.5 45.5q28 28 79.5 42t127.5 14h53v56q0 53 -25 79t-76 26q-16 0 -28.5 -2t-23.5 -7l20 -69q-15 -21 -34 -31t-42 -10q-31 0 -49 17.5
t-18 47.5q0 28 19.5 52t56.5 43q40 20 80.5 29.5t82.5 9.5q87 0 133 -42.5t46 -122.5v-243q0 -30 13 -45t53 -27zM336 183v56h-33q-65 0 -97 -21.5t-32 -64.5q0 -35 17.5 -54.5t48.5 -19.5q19 0 37.5 8t33.5 23q12 12 18.5 30.5t6.5 42.5zM325 809l-40 -23l-93 83
q-23 20 -32 35.5t-9 33.5q0 21 17 37t38 16q24 0 39.5 -15t31.5 -53zM279 603q-69 0 -111.5 42t-53.5 123l49 13q17 -42 44.5 -60.5t72.5 -18.5t72.5 18.5t44.5 60.5l47 -13q-11 -81 -53.5 -123t-111.5 -42z" />
    <glyph glyph-name="uni1EB2" unicode="&#x1eb2;" horiz-adv-x="708" 
d="M0 0zM198 85l44 -18v-67h-242v70l63 23l201 606h180l199 -605l65 -24v-70h-313v67l53 15l16 41l-24 79h-234l-27 -85zM311 576l-29 -130l-49 -156h179l-48 156l-29 130h-24zM354 1130q67 0 107 -21t40 -57q0 -40 -48.5 -66t-144.5 -38v50q58 12 77.5 20t19.5 18
q0 9 -16 13t-53 4q-20 0 -42.5 -3t-48.5 -10l-15 71q25 9 57.5 14t66.5 5zM350 761q-66 0 -110 41t-65 121l47 19q27 -43 57.5 -62.5t71.5 -19.5t71.5 19.5t57.5 62.5l45 -19q-21 -80 -65 -121t-110 -41z" />
    <glyph glyph-name="uni1EB3" unicode="&#x1eb3;" horiz-adv-x="560" 
d="M35 0zM544 56v-43l-103 -26q-40 7 -66 32.5t-32 62.5h-7q-36 -51 -72 -72.5t-83 -21.5q-66 0 -106 41t-40 109q0 30 10.5 55.5t30.5 45.5q28 28 79.5 42t127.5 14h53v56q0 53 -25 79t-76 26q-16 0 -28.5 -2t-23.5 -7l20 -69q-15 -21 -34 -31t-42 -10q-31 0 -49 17.5
t-18 47.5q0 28 19.5 52t56.5 43q40 20 80.5 29.5t82.5 9.5q87 0 133 -42.5t46 -122.5v-243q0 -30 13 -45t53 -27zM336 183v56h-33q-65 0 -97 -21.5t-32 -64.5q0 -35 17.5 -54.5t48.5 -19.5q19 0 37.5 8t33.5 23q12 12 18.5 30.5t6.5 42.5zM281 994q67 0 106.5 -22.5
t39.5 -61.5q0 -44 -49.5 -72.5t-142.5 -40.5v49q49 8 74.5 19.5t25.5 25.5q0 13 -18 19t-57 6q-20 0 -41.5 -3t-48.5 -9l-16 71q39 10 68.5 14.5t58.5 4.5zM279 603q-69 0 -111.5 42t-53.5 123l49 13q17 -42 44.5 -60.5t72.5 -18.5t72.5 18.5t44.5 60.5l47 -13
q-11 -81 -53.5 -123t-111.5 -42z" />
    <glyph glyph-name="uni1EB4" unicode="&#x1eb4;" horiz-adv-x="708" 
d="M0 0zM198 85l44 -18v-67h-242v70l63 23l201 606h180l199 -605l65 -24v-70h-313v67l53 15l16 41l-24 79h-234l-27 -85zM311 576l-29 -130l-49 -156h179l-48 156l-29 130h-24zM277 1031q-17 0 -30 -13t-28 -45l-54 21q22 69 48.5 97t67.5 28q16 0 36 -6t57 -25
q27 -13 38 -17t19 -4q16 0 29 13.5t30 49.5l54 -21q-21 -71 -48 -100.5t-69 -29.5q-16 0 -36 6t-58 25q-27 13 -38 17t-18 4zM350 761q-66 0 -110 41t-65 121l47 19q27 -43 57.5 -62.5t71.5 -19.5t71.5 19.5t57.5 62.5l45 -19q-21 -80 -65 -121t-110 -41z" />
    <glyph glyph-name="uni1EB5" unicode="&#x1eb5;" horiz-adv-x="560" 
d="M35 0zM544 56v-43l-103 -26q-40 7 -66 32.5t-32 62.5h-7q-36 -51 -72 -72.5t-83 -21.5q-66 0 -106 41t-40 109q0 30 10.5 55.5t30.5 45.5q28 28 79.5 42t127.5 14h53v56q0 53 -25 79t-76 26q-16 0 -28.5 -2t-23.5 -7l20 -69q-15 -21 -34 -31t-42 -10q-31 0 -49 17.5
t-18 47.5q0 28 19.5 52t56.5 43q40 20 80.5 29.5t82.5 9.5q87 0 133 -42.5t46 -122.5v-243q0 -30 13 -45t53 -27zM336 183v56h-33q-65 0 -97 -21.5t-32 -64.5q0 -35 17.5 -54.5t48.5 -19.5q19 0 37.5 8t33.5 23q12 12 18.5 30.5t6.5 42.5zM202 885q-14 0 -24.5 -15
t-27.5 -61l-57 21q24 88 51 119.5t71 31.5q14 0 33 -8t57 -32q31 -19 44 -25t22 -6q14 0 24.5 15t28.5 62l57 -21q-25 -89 -52 -120.5t-71 -31.5q-14 0 -33 8t-57 32q-31 19 -44 25t-22 6zM279 603q-69 0 -111.5 42t-53.5 123l49 13q17 -42 44.5 -60.5t72.5 -18.5t72.5 18.5
t44.5 60.5l47 -13q-11 -81 -53.5 -123t-111.5 -42z" />
    <glyph glyph-name="uni1EB6" unicode="&#x1eb6;" horiz-adv-x="708" 
d="M0 0zM198 85l44 -18v-67h-242v70l63 23l201 606h180l199 -605l65 -24v-70h-313v67l53 15l16 41l-24 79h-234l-27 -85zM311 576l-29 -130l-49 -156h179l-48 156l-29 130h-24zM350 761q-66 0 -110 41t-65 121l47 19q27 -43 57.5 -62.5t71.5 -19.5t71.5 19.5t57.5 62.5
l45 -19q-21 -80 -65 -121t-110 -41zM395 -131q0 -36 -22 -59t-57 -23t-57 22.5t-22 57.5q0 36 22.5 59.5t56.5 23.5t56.5 -23t22.5 -58z" />
    <glyph glyph-name="uni1EB7" unicode="&#x1eb7;" horiz-adv-x="560" 
d="M35 0zM544 56v-43l-103 -26q-40 7 -66 32.5t-32 62.5h-7q-36 -51 -72 -72.5t-83 -21.5q-66 0 -106 41t-40 109q0 30 10.5 55.5t30.5 45.5q28 28 79.5 42t127.5 14h53v56q0 53 -25 79t-76 26q-16 0 -28.5 -2t-23.5 -7l20 -69q-15 -21 -34 -31t-42 -10q-31 0 -49 17.5
t-18 47.5q0 28 19.5 52t56.5 43q40 20 80.5 29.5t82.5 9.5q87 0 133 -42.5t46 -122.5v-243q0 -30 13 -45t53 -27zM336 183v56h-33q-65 0 -97 -21.5t-32 -64.5q0 -35 17.5 -54.5t48.5 -19.5q19 0 37.5 8t33.5 23q12 12 18.5 30.5t6.5 42.5zM279 603q-68 0 -109.5 49
t-51.5 141l47 13q21 -57 46 -80.5t67 -23.5t67 23.5t46 80.5l49 -13q-10 -92 -51.5 -141t-109.5 -49zM337 -141q0 -36 -22 -59t-57 -23t-57 22.5t-22 57.5q0 36 22.5 59.5t56.5 23.5t56.5 -23t22.5 -58z" />
    <glyph glyph-name="uni1EB8" unicode="&#x1eb8;" horiz-adv-x="638" 
d="M23 0zM602 0h-579v70l58 10l23 43v448l-23 43l-58 10v70h566v-214h-84l-14 91l-61 40h-162v-216h54l64 14l5 70h60v-250h-60l-5 70l-64 14h-54v-230h175l61 40l14 101h84v-224zM407 -131q0 -36 -22 -59t-57 -23t-57 22.5t-22 57.5q0 36 22.5 59.5t56.5 23.5t56.5 -23
t22.5 -58z" />
    <glyph glyph-name="uni1EB9" unicode="&#x1eb9;" horiz-adv-x="543" 
d="M29 0zM470 117l29 -58q-56 -38 -109 -56.5t-106 -18.5q-116 0 -185.5 74t-69.5 195q0 123 72.5 204t182.5 81q107 0 166 -72.5t59 -200.5v-32h-326q6 -80 40 -117.5t101 -37.5q31 0 64 8.5t82 30.5zM273 469q-43 0 -66 -43t-25 -129h175q-2 92 -21.5 132t-62.5 40z
M359 -141q0 -36 -22 -59t-57 -23t-57 22.5t-22 57.5q0 36 22.5 59.5t56.5 23.5t56.5 -23t22.5 -58z" />
    <glyph glyph-name="uni1EBA" unicode="&#x1eba;" horiz-adv-x="638" 
d="M23 0zM602 0h-579v70l58 10l23 43v448l-23 43l-58 10v70h566v-214h-84l-14 91l-61 40h-162v-216h54l64 14l5 70h60v-250h-60l-5 70l-64 14h-54v-230h175l61 40l14 101h84v-224zM332 955q67 0 107 -24t40 -65q0 -45 -49 -74t-144 -41v52q52 10 74.5 21t22.5 25
q0 13 -17.5 19.5t-51.5 6.5q-21 0 -43 -3t-47 -10l-16 74q25 9 57.5 14t66.5 5z" />
    <glyph glyph-name="uni1EBB" unicode="&#x1ebb;" horiz-adv-x="543" 
d="M29 0zM470 117l29 -58q-56 -38 -109 -56.5t-106 -18.5q-116 0 -185.5 74t-69.5 195q0 123 72.5 204t182.5 81q107 0 166 -72.5t59 -200.5v-32h-326q6 -80 40 -117.5t101 -37.5q31 0 64 8.5t82 30.5zM273 469q-43 0 -66 -43t-25 -129h175q-2 92 -21.5 132t-62.5 40z
M281 808q67 0 107 -25.5t40 -68.5q0 -45 -49 -74.5t-141 -41.5v50q47 8 72.5 21t25.5 30q0 15 -18 22.5t-55 7.5q-19 0 -40 -3t-47 -9l-16 72q32 10 62 14.5t59 4.5z" />
    <glyph glyph-name="uni1EBC" unicode="&#x1ebc;" horiz-adv-x="638" 
d="M23 0zM602 0h-579v70l58 10l23 43v448l-23 43l-58 10v70h566v-214h-84l-14 91l-61 40h-162v-216h54l64 14l5 70h60v-250h-60l-5 70l-64 14h-54v-230h175l61 40l14 101h84v-224zM244 815q-16 0 -28 -14t-30 -55l-58 21q25 84 53 117t70 33q16 0 36.5 -7t60.5 -29
q32 -16 45 -21t22 -5q16 0 28 14.5t31 55.5l58 -21q-26 -85 -54 -118t-70 -33q-16 0 -36.5 7t-61.5 29q-31 16 -44 21t-22 5z" />
    <glyph glyph-name="uni1EBD" unicode="&#x1ebd;" horiz-adv-x="543" 
d="M29 0zM470 117l29 -58q-56 -38 -109 -56.5t-106 -18.5q-116 0 -185.5 74t-69.5 195q0 123 72.5 204t182.5 81q107 0 166 -72.5t59 -200.5v-32h-326q6 -80 40 -117.5t101 -37.5q31 0 64 8.5t82 30.5zM273 469q-43 0 -66 -43t-25 -129h175q-2 92 -21.5 132t-62.5 40z
M199 672q-14 0 -25 -15.5t-29 -64.5l-57 21q27 97 53.5 129.5t70.5 32.5q14 0 33 -8t57 -33q31 -20 44 -26t22 -6q14 0 25 15.5t30 65.5l57 -21q-28 -98 -54.5 -130.5t-70.5 -32.5q-14 0 -33 8t-57 33q-31 20 -44 26t-22 6z" />
    <glyph glyph-name="uni1EBE" unicode="&#x1ebe;" horiz-adv-x="638" 
d="M23 0zM602 0h-579v70l58 10l23 43v448l-23 43l-58 10v70h566v-214h-84l-14 91l-61 40h-162v-216h54l64 14l5 70h60v-250h-60l-5 70l-64 14h-54v-230h175l61 40l14 101h84v-224zM568 937l-107 -53l-33 33l77 93q25 30 42 41t37 11t36 -17t16 -39q0 -17 -16.5 -34
t-51.5 -35zM326 807l-138 -71l-29 29l128 144h83l127 -144l-29 -29z" />
    <glyph glyph-name="uni1EBF" unicode="&#x1ebf;" horiz-adv-x="543" 
d="M29 0zM470 117l29 -58q-56 -38 -109 -56.5t-106 -18.5q-116 0 -185.5 74t-69.5 195q0 123 72.5 204t182.5 81q107 0 166 -72.5t59 -200.5v-32h-326q6 -80 40 -117.5t101 -37.5q31 0 64 8.5t82 30.5zM273 469q-43 0 -66 -43t-25 -129h175q-2 92 -21.5 132t-62.5 40z
M534 832l-103 -96l-40 23l52 129q16 39 32 54.5t40 15.5q22 0 41 -17.5t19 -39.5q0 -16 -8.5 -31t-32.5 -38zM277 668l-139 -80l-32 31l129 146h89l129 -146l-32 -31z" />
    <glyph glyph-name="uni1EC0" unicode="&#x1ec0;" horiz-adv-x="638" 
d="M23 0zM602 0h-579v70l58 10l23 43v448l-23 43l-58 10v70h566v-214h-84l-14 91l-61 40h-162v-216h54l64 14l5 70h60v-250h-60l-5 70l-64 14h-54v-230h175l61 40l14 101h84v-224zM557 923l-32 -34l-109 49q-35 16 -52.5 33t-17.5 34q0 23 15 40t36 17q20 0 38 -10.5
t42 -38.5zM326 807l-138 -71l-29 29l128 144h83l127 -144l-29 -29z" />
    <glyph glyph-name="uni1EC1" unicode="&#x1ec1;" horiz-adv-x="543" 
d="M29 0zM470 117l29 -58q-56 -38 -109 -56.5t-106 -18.5q-116 0 -185.5 74t-69.5 195q0 123 72.5 204t182.5 81q107 0 166 -72.5t59 -200.5v-32h-326q6 -80 40 -117.5t101 -37.5q31 0 64 8.5t82 30.5zM273 469q-43 0 -66 -43t-25 -129h175q-2 92 -21.5 132t-62.5 40z
M496 759l-40 -23l-103 96q-24 23 -32.5 38t-8.5 31q0 22 19 39.5t41 17.5q24 0 40 -15.5t32 -54.5zM277 668l-139 -80l-32 31l129 146h89l129 -146l-32 -31z" />
    <glyph glyph-name="uni1EC2" unicode="&#x1ec2;" horiz-adv-x="638" 
d="M23 0zM602 0h-579v70l58 10l23 43v448l-23 43l-58 10v70h566v-214h-84l-14 91l-61 40h-162v-216h54l64 14l5 70h60v-250h-60l-5 70l-64 14h-54v-230h175l61 40l14 101h84v-224zM332 1130q67 0 107 -21t40 -57q0 -40 -48.5 -66t-144.5 -38v50q58 12 77.5 20t19.5 18
q0 9 -16 13t-53 4q-20 0 -42.5 -3t-48.5 -10l-15 71q25 9 57.5 14t66.5 5zM326 807l-138 -71l-29 29l128 144h83l127 -144l-29 -29z" />
    <glyph glyph-name="uni1EC3" unicode="&#x1ec3;" horiz-adv-x="543" 
d="M29 0zM470 117l29 -58q-56 -38 -109 -56.5t-106 -18.5q-116 0 -185.5 74t-69.5 195q0 123 72.5 204t182.5 81q107 0 166 -72.5t59 -200.5v-32h-326q6 -80 40 -117.5t101 -37.5q31 0 64 8.5t82 30.5zM273 469q-43 0 -66 -43t-25 -129h175q-2 92 -21.5 132t-62.5 40z
M284 1004q67 0 106.5 -22.5t39.5 -61.5q0 -44 -49.5 -72.5t-142.5 -40.5v49q49 8 74.5 19.5t25.5 25.5q0 13 -18 19t-57 6q-20 0 -41.5 -3t-48.5 -9l-16 71q39 10 68.5 14.5t58.5 4.5zM453 619l-32 -31l-144 80l-139 -80l-32 31l129 146h89z" />
    <glyph glyph-name="uni1EC4" unicode="&#x1ec4;" horiz-adv-x="638" 
d="M23 0zM602 0h-579v70l58 10l23 43v448l-23 43l-58 10v70h566v-214h-84l-14 91l-61 40h-162v-216h54l64 14l5 70h60v-250h-60l-5 70l-64 14h-54v-230h175l61 40l14 101h84v-224zM270 996q-17 0 -30 -13t-28 -45l-54 21q22 69 48.5 97t67.5 28q16 0 36 -6t57 -25
q27 -13 38 -17t19 -4q16 0 29 13.5t30 49.5l54 -21q-21 -71 -48 -100.5t-69 -29.5q-16 0 -36 6t-58 25q-27 13 -38 17t-18 4zM326 807l-138 -71l-29 29l128 144h83l127 -144l-29 -29z" />
    <glyph glyph-name="uni1EC5" unicode="&#x1ec5;" horiz-adv-x="543" 
d="M29 0zM470 117l29 -58q-56 -38 -109 -56.5t-106 -18.5q-116 0 -185.5 74t-69.5 195q0 123 72.5 204t182.5 81q107 0 166 -72.5t59 -200.5v-32h-326q6 -80 40 -117.5t101 -37.5q31 0 64 8.5t82 30.5zM273 469q-43 0 -66 -43t-25 -129h175q-2 92 -21.5 132t-62.5 40z
M215 876q-14 0 -24.5 -15t-27.5 -61l-57 21q24 88 51 119.5t71 31.5q13 0 30.5 -8t53.5 -32q28 -19 40 -25t20 -6q14 0 24.5 15t28.5 62l57 -21q-25 -89 -52 -120.5t-71 -31.5q-13 0 -30.5 8t-52.5 32q-29 19 -41 25t-20 6zM277 668l-139 -80l-32 31l129 146h89l129 -146
l-32 -31z" />
    <glyph glyph-name="uni1EC6" unicode="&#x1ec6;" horiz-adv-x="638" 
d="M23 0zM602 0h-579v70l58 10l23 43v448l-23 43l-58 10v70h566v-214h-84l-14 91l-61 40h-162v-216h54l64 14l5 70h60v-250h-60l-5 70l-64 14h-54v-230h175l61 40l14 101h84v-224zM326 822l-138 -86l-29 29l127 164h85l126 -164l-29 -29zM407 -131q0 -36 -22 -59t-57 -23
t-57 22.5t-22 57.5q0 36 22.5 59.5t56.5 23.5t56.5 -23t22.5 -58z" />
    <glyph glyph-name="uni1EC7" unicode="&#x1ec7;" horiz-adv-x="543" 
d="M29 0zM470 117l29 -58q-56 -38 -109 -56.5t-106 -18.5q-116 0 -185.5 74t-69.5 195q0 123 72.5 204t182.5 81q107 0 166 -72.5t59 -200.5v-32h-326q6 -80 40 -117.5t101 -37.5q31 0 64 8.5t82 30.5zM273 469q-43 0 -66 -43t-25 -129h175q-2 92 -21.5 132t-62.5 40z
M278 696l-123 -108l-33 27l118 191h81l117 -191l-33 -27zM359 -141q0 -36 -22 -59t-57 -23t-57 22.5t-22 57.5q0 36 22.5 59.5t56.5 23.5t56.5 -23t22.5 -58z" />
    <glyph glyph-name="uni1EC8" unicode="&#x1ec8;" horiz-adv-x="384" 
d="M25 0zM359 0h-334v70l62 10l23 43v448l-23 43l-62 10v70h334v-70l-62 -10l-23 -43v-448l23 -43l62 -10v-70zM196 955q67 0 107 -24t40 -65q0 -45 -49 -74t-144 -41v52q52 10 74.5 21t22.5 25q0 13 -17.5 19.5t-51.5 6.5q-21 0 -43 -3t-47 -10l-16 74q25 9 57.5 14t66.5 5
z" />
    <glyph glyph-name="uni1EC9" unicode="&#x1ec9;" horiz-adv-x="323" 
d="M20 0zM307 0h-287v61l51 10l23 43v294l-23 43l-51 10v61h218v-408l23 -43l46 -10v-61zM147 803q67 0 107 -25.5t40 -68.5q0 -45 -49 -74.5t-141 -41.5v50q47 8 72.5 21t25.5 30q0 15 -18 22.5t-55 7.5q-19 0 -40 -3t-47 -9l-16 72q32 10 62 14.5t59 4.5z" />
    <glyph glyph-name="uni1ECA" unicode="&#x1eca;" horiz-adv-x="384" 
d="M25 0zM359 0h-334v70l62 10l23 43v448l-23 43l-62 10v70h334v-70l-62 -10l-23 -43v-448l23 -43l62 -10v-70zM271 -131q0 -36 -22 -59t-57 -23t-57 22.5t-22 57.5q0 36 22.5 59.5t56.5 23.5t56.5 -23t22.5 -58z" />
    <glyph glyph-name="uni1ECB" unicode="&#x1ecb;" horiz-adv-x="323" 
d="M20 0zM245 681q0 -35 -25.5 -59t-63.5 -24t-63.5 24t-25.5 59t25.5 59t63.5 24t63.5 -24t25.5 -59zM307 0h-287v61l51 10l23 43v294l-23 43l-51 10v61h218v-408l23 -43l46 -10v-61zM245 -136q0 -36 -22 -59t-57 -23t-57 22.5t-22 57.5q0 36 22.5 59.5t56.5 23.5t56.5 -23
t22.5 -58z" />
    <glyph glyph-name="uni1ECC" unicode="&#x1ecc;" horiz-adv-x="730" 
d="M36 0zM694 349q0 -161 -91.5 -263t-238.5 -102t-237.5 100.5t-90.5 260.5q0 161 91.5 263t238.5 102t237.5 -100.5t90.5 -260.5zM217 349q0 -138 38 -210t111 -72t110 70t37 208t-38 210t-111 72t-110 -70t-37 -208zM444 -136q0 -36 -22 -59t-57 -23t-57 22.5t-22 57.5
q0 36 22.5 59.5t56.5 23.5t56.5 -23t22.5 -58z" />
    <glyph glyph-name="uni1ECD" unicode="&#x1ecd;" horiz-adv-x="584" 
d="M29 0zM555 264q0 -121 -74.5 -200.5t-188.5 -79.5q-119 0 -191 75.5t-72 198.5q0 121 74.5 200.5t188.5 79.5q119 0 191 -75.5t72 -198.5zM190 272q0 -104 28 -159t81 -55q47 0 71 48.5t24 143.5q0 104 -28 159t-81 55q-47 0 -71 -48.5t-24 -143.5zM371 -141
q0 -36 -22 -59t-57 -23t-57 22.5t-22 57.5q0 36 22.5 59.5t56.5 23.5t56.5 -23t22.5 -58z" />
    <glyph glyph-name="uni1ECE" unicode="&#x1ece;" horiz-adv-x="730" 
d="M36 0zM694 349q0 -161 -91.5 -263t-238.5 -102t-237.5 100.5t-90.5 260.5q0 161 91.5 263t238.5 102t237.5 -100.5t90.5 -260.5zM217 349q0 -138 38 -210t111 -72t110 70t37 208t-38 210t-111 72t-110 -70t-37 -208zM369 960q67 0 107 -24t40 -65q0 -45 -49 -74t-144 -41
v52q52 10 74.5 21t22.5 25q0 13 -17.5 19.5t-51.5 6.5q-21 0 -43 -3t-47 -10l-16 74q25 9 57.5 14t66.5 5z" />
    <glyph glyph-name="uni1ECF" unicode="&#x1ecf;" horiz-adv-x="584" 
d="M29 0zM555 264q0 -121 -74.5 -200.5t-188.5 -79.5q-119 0 -191 75.5t-72 198.5q0 121 74.5 200.5t188.5 79.5q119 0 191 -75.5t72 -198.5zM190 272q0 -104 28 -159t81 -55q47 0 71 48.5t24 143.5q0 104 -28 159t-81 55q-47 0 -71 -48.5t-24 -143.5zM293 808
q67 0 107 -25.5t40 -68.5q0 -45 -49 -74.5t-141 -41.5v50q47 8 72.5 21t25.5 30q0 15 -18 22.5t-55 7.5q-19 0 -40 -3t-47 -9l-16 72q32 10 62 14.5t59 4.5z" />
    <glyph glyph-name="uni1ED0" unicode="&#x1ed0;" horiz-adv-x="730" 
d="M36 0zM694 349q0 -161 -91.5 -263t-238.5 -102t-237.5 100.5t-90.5 260.5q0 161 91.5 263t238.5 102t237.5 -100.5t90.5 -260.5zM217 349q0 -138 38 -210t111 -72t110 70t37 208t-38 210t-111 72t-110 -70t-37 -208zM605 942l-107 -53l-33 33l77 93q25 30 42 41t37 11
t36 -17t16 -39q0 -17 -16.5 -34t-51.5 -35zM363 812l-138 -71l-29 29l128 144h83l127 -144l-29 -29z" />
    </font>
</defs>
</svg>
