<?xml version="1.0" standalone="no"?>
<!DOCTYPE svg PUBLIC "-//W3C//DTD SVG 1.1//EN" "http://www.w3.org/Graphics/SVG/1.1/DTD/svg11.dtd" >
<svg xmlns="http://www.w3.org/2000/svg" xmlns:xlink="http://www.w3.org/1999/xlink" version="1.1">
<metadata>
Created by FontForge 20230101 at Tue Jul  4 00:42:57 2023
 By Isaac Wang
(C) 2017 Frere-Jones Type LLC
</metadata>
<defs>
<font id="ExchangeLight" horiz-adv-x="0" >
  <font-face 
    font-family="Exchange"
    font-weight="300"
    font-stretch="normal"
    units-per-em="1000"
    panose-1="2 6 5 4 6 5 5 2 4 3"
    ascent="800"
    descent="-200"
    x-height="505"
    cap-height="694"
    bbox="-160 -290 1466 1093"
    underline-thickness="0"
    underline-position="0"
    unicode-range="U+0020-FB04"
  />
<missing-glyph horiz-adv-x="700" 
d="M600 -240h-500v1200h500v-1200zM507 910h-315l158 -481zM550 874l-172 -514l172 -514v1028zM150 -154l171 514l-171 514v-1028zM507 -190l-157 481l-158 -481h315z" />
    <glyph glyph-name="f_f" unicode="ff" horiz-adv-x="639" 
d="M200 39l52 -8v-31h-218v32l67 7l18 42v379h-86v37l86 11v11q0 54 15 98t44 73q31 31 67.5 46t81.5 15q57 0 92.5 -18.5t35.5 -49.5q2 3 5 6.5t9 9.5q25 25 60 38.5t74 13.5q41 0 65 -15.5t24 -41.5q0 -24 -23 -35.5t-52 -4.5l-18 60q-57 1 -92 -46t-35 -125v-38h139v-45
h-139v-379l19 -42l78 -7v-32h-230v31l54 9l17 38v383h-228v-382zM181 532v-27h229v28q0 33 5 59.5t15 48.5q-11 -5 -23 -5.5t-24 3.5l-17 70q-8 1 -17 2t-18 1q-68 0 -109 -49t-41 -131z" />
    <glyph glyph-name="fi" unicode="fi" horiz-adv-x="586" 
d="M200 39l49 -8v-31h-215v32l67 7l18 42v379h-86v37l86 11v20q0 49 14.5 92t40.5 69q33 33 69.5 47.5t87.5 14.5q50 0 76.5 -17t26.5 -48q0 -25 -22.5 -37t-51.5 -5l-17 67q-71 8 -116 -39.5t-45 -130.5v-36h290v-424l20 -42l66 -7v-32h-210v31l45 9l17 38v383h-228v-382z
" />
    <glyph glyph-name="fl" unicode="fl" horiz-adv-x="585" 
d="M200 39l49 -8v-31h-215v32l67 7l18 42v379h-86v37l86 11v11q0 62 15 104.5t46 73.5q27 27 60 40.5t74 13.5q32 0 61 -10t49 -27l20 35h28v-668l19 -42l67 -7v-32h-210v31l45 9l17 38v383h-228v-382zM181 532v-27h229v125q-8 -2 -17.5 -1.5t-19.5 3.5l-17 73
q-9 3 -19.5 4.5t-20.5 1.5q-61 0 -98 -48t-37 -131z" />
    <glyph glyph-name="f_f_i" unicode="ffi" horiz-adv-x="877" 
d="M200 39l49 -8v-31h-215v32l67 7l18 42v379h-86v37l86 11v11q0 54 15 98t44 73q31 31 67.5 46t81.5 15q58 0 93 -19t35 -50v-3l2 2l3 3q1 2 2 3l2 2q33 33 69.5 47.5t87.5 14.5q50 0 76.5 -17t26.5 -48q0 -25 -22.5 -37t-50.5 -5l-17 67q-72 8 -117 -39t-45 -131v-36h291
v-424l19 -42l66 -7v-32h-210v31l46 9l16 38v383h-228v-382l18 -40l50 -8v-31h-192v31l45 9l17 38v383h-228v-382zM181 532v-27h229v23q0 32 6 61.5t17 53.5q-11 -6 -24 -7t-26 3l-17 70q-8 1 -17 2t-18 1q-68 0 -109 -49t-41 -131z" />
    <glyph glyph-name="f_f_l" unicode="ffl" horiz-adv-x="876" 
d="M200 39l49 -8v-31h-215v32l67 7l18 42v379h-86v37l86 11v11q0 54 15 98t44 73q31 31 67.5 46t81.5 15q58 0 93 -19t35 -50v-2l9 10.5t6 6.5q27 27 60.5 40.5t74.5 13.5q32 0 61.5 -10t47.5 -27l20 35h29v-668l18 -42l67 -7v-32h-210v31l46 9l16 38v383h-228v-382l18 -40
l50 -8v-31h-192v31l45 9l17 38v383h-228v-382zM181 532v-27h229v14q0 40 5.5 69.5t16.5 53.5q-10 -5 -22.5 -6t-26.5 3l-17 70q-8 1 -17 2t-18 1q-68 0 -109 -49t-41 -131zM472 532v-27h229v125q-8 -2 -17.5 -1.5t-19.5 3.5l-18 73q-9 3 -19.5 4.5t-19.5 1.5
q-61 0 -98 -47.5t-37 -131.5z" />
    <glyph glyph-name="f_j" unicode="fj" horiz-adv-x="570" 
d="M419 -144q-20 -21 -48 -32.5t-58 -11.5q-36 0 -58 14t-22 37q0 22 22 34t48 5l24 -53q41 5 62 41t21 103v468h-228v-382l18 -40l49 -8v-31h-215v32l67 7l18 42v379h-86v37l86 11v20q0 49 14.5 92t40.5 69q33 33 69.5 47.5t87.5 14.5q50 0 76.5 -17t26.5 -48
q0 -25 -22.5 -37t-51.5 -5l-17 67q-71 8 -116 -39.5t-45 -130.5v-36h290v-463q0 -68 -12.5 -113t-40.5 -73z" />
    <glyph glyph-name="f_b" unicode="fb" horiz-adv-x="876" 
d="M621 -10q-40 0 -76.5 13.5t-86.5 48.5l-29 -64h-29l10 151v322h-228v-382l18 -40l49 -8v-31h-215v32l67 7l18 42v379h-86v37l86 11v11q0 62 14.5 104t44.5 72q28 28 61.5 42t74.5 14q32 0 61 -10t49 -27l20 35h28v-285l-6 -94l6 -2q49 82 90 116.5t86 34.5
q79 0 128.5 -71t49.5 -188t-59.5 -193.5t-145.5 -76.5zM181 532v-27h229v125q-8 -2 -17.5 -1.5t-19.5 3.5l-17 73q-9 3 -19.5 4.5t-20.5 1.5q-61 0 -98 -48t-37 -131zM615 36q62 0 102.5 58.5t40.5 150.5q0 102 -34 162t-90 60q-19 0 -36.5 -8t-34.5 -25q-46 -46 -68.5 -88
t-22.5 -82v-161q42 -36 75.5 -51.5t67.5 -15.5z" />
    <glyph glyph-name="f_h" unicode="fh" horiz-adv-x="877" 
d="M200 39l49 -8v-31h-215v32l67 7l18 42v378h-86v38l86 11v11q0 62 15 104.5t46 73.5q27 27 60 40.5t74 13.5q32 0 61 -10t49 -27l20 35h28v-288l-7 -104l6 -3q53 91 95.5 128t92.5 37q56 0 87.5 -37.5t31.5 -104.5v-296l18 -42l63 -7v-32h-208v31l48 9l16 38v288
q0 48 -19 73t-56 25q-20 0 -40 -9.5t-38 -26.5q-39 -39 -64.5 -86.5t-25.5 -84.5v-179l17 -39l52 -8v-31h-193v31l45 9l17 38v383h-228v-382zM181 532v-27h229v125q-8 -2 -17.5 -1.5t-19.5 3.5l-17 73q-9 3 -19.5 4.5t-20.5 1.5q-61 0 -98 -48t-37 -131z" />
    <glyph glyph-name="f_k" unicode="fk" horiz-adv-x="820" 
d="M200 39l49 -8v-31h-215v32l67 7l18 42v379h-86v37l86 11v11q0 62 15 104.5t46 73.5q27 27 60 40.5t74 13.5q32 0 61 -10t49 -27l20 35h28v-461h42l115 132l20 85h134v-32l-59 -14l-161 -178l195 -235l48 -14v-32h-122l-10 51l-162 196h-40v-169l17 -39l57 -8v-31h-207v31
l54 9l17 38v383h-228v-382zM181 532v-27h229v125q-8 -2 -17.5 -1.5t-19.5 3.5l-17 73q-9 3 -19.5 4.5t-20.5 1.5q-61 0 -98 -48t-37 -131z" />
    <glyph glyph-name="f_f_j" unicode="ffj" horiz-adv-x="860" 
d="M710 -144q-20 -21 -48 -32.5t-58 -11.5q-36 0 -58.5 14t-22.5 37q0 22 22.5 34t48.5 5l24 -53q41 5 61.5 41.5t20.5 102.5v468h-228v-382l18 -40l50 -8v-31h-192v31l45 9l17 38v383h-228v-382l18 -40l49 -8v-31h-215v32l67 7l18 42v379h-86v37l86 11v11q0 54 15 98t44 73
q31 31 67.5 46t81.5 15q58 0 93 -19t35 -50v-3l2 2l3 3q1 2 2 3l2 2q33 33 69.5 47.5t87.5 14.5q50 0 76.5 -17t26.5 -48q0 -25 -22.5 -37t-50.5 -5l-17 67q-72 8 -117 -39t-45 -131v-36h291v-463q0 -68 -12.5 -113t-40.5 -73zM181 532v-27h229v23q0 32 6 61.5t17 53.5
q-11 -6 -24 -7t-26 3l-17 70q-8 1 -17 2t-18 1q-68 0 -109 -49t-41 -131z" />
    <glyph glyph-name="f_f_b" unicode="ffb" horiz-adv-x="1166" 
d="M912 -10q-40 0 -76 13.5t-88 48.5l-29 -64h-29l10 151v322h-228v-382l18 -40l50 -8v-31h-192v31l45 9l17 38v383h-228v-382l18 -40l49 -8v-31h-215v32l67 7l18 42v379h-86v37l86 11v11q0 54 15 98t44 73q31 31 67.5 46t81.5 15q58 0 93 -19t35 -50v-2l9 10.5t6 6.5
q27 27 60.5 40.5t74.5 13.5q32 0 61.5 -10t47.5 -27l20 35h29v-285l-7 -94l7 -2q49 82 90 116.5t86 34.5q79 0 128.5 -71t49.5 -188q0 -116 -60 -193t-145 -77zM181 532v-27h229v14q0 40 5.5 69.5t16.5 53.5q-10 -5 -22.5 -6t-26.5 3l-17 70q-8 1 -17 2t-18 1
q-68 0 -109 -49t-41 -131zM472 532v-27h229v125q-8 -2 -17.5 -1.5t-19.5 3.5l-18 73q-9 3 -19.5 4.5t-19.5 1.5q-61 0 -98 -47.5t-37 -131.5zM905 36q62 0 103 59t41 150q0 102 -34.5 162t-89.5 60q-20 0 -37.5 -8t-34.5 -25q-46 -47 -68 -89t-22 -81v-161
q41 -36 74.5 -51.5t67.5 -15.5z" />
    <glyph glyph-name="f_f_h" unicode="ffh" horiz-adv-x="1167" 
d="M200 39l49 -8v-31h-215v32l67 7l18 42v379h-86v37l86 11v11q0 54 15 98t44 73q31 31 67.5 46t81.5 15q58 0 93 -19t35 -50v-2l9 10.5t6 6.5q27 27 60.5 40.5t74.5 13.5q32 0 61.5 -10t47.5 -27l20 35h29v-288l-8 -104l6 -3q53 91 95.5 128t92.5 37q56 0 87.5 -37.5
t31.5 -104.5v-296l19 -42l63 -7v-32h-208v31l47 9l16 38v288q0 48 -19 73t-56 25q-20 0 -40 -9.5t-38 -26.5q-39 -40 -64 -87t-25 -84v-179l17 -39l51 -8v-31h-193v31l46 9l16 38v383h-228v-382l18 -40l50 -8v-31h-192v31l45 9l17 38v383h-228v-382zM181 532v-27h229v14
q0 40 5.5 69.5t16.5 53.5q-10 -5 -22.5 -6t-26.5 3l-17 70q-8 1 -17 2t-18 1q-68 0 -109 -49t-41 -131zM472 532v-27h229v125q-8 -2 -17.5 -1.5t-19.5 3.5l-18 73q-9 3 -19.5 4.5t-19.5 1.5q-61 0 -98 -47.5t-37 -131.5z" />
    <glyph glyph-name="f_f_k" unicode="ffk" horiz-adv-x="1110" 
d="M200 39l49 -8v-31h-215v32l67 7l18 42v379h-86v37l86 11v11q0 54 15 98t44 73q31 31 67.5 46t81.5 15q58 0 93 -19t35 -50v-2l9 10.5t6 6.5q27 27 60.5 40.5t74.5 13.5q32 0 61.5 -10t47.5 -27l20 35h29v-461h41l115 132l21 85h134v-32l-59 -14l-161 -178l194 -235
l48 -14v-32h-122l-10 51l-162 196h-39v-169l17 -39l56 -8v-31h-207v31l55 9l16 38v383h-228v-382l18 -40l50 -8v-31h-192v31l45 9l17 38v383h-228v-382zM181 532v-27h229v14q0 40 5.5 69.5t16.5 53.5q-10 -5 -22.5 -6t-26.5 3l-17 70q-8 1 -17 2t-18 1q-68 0 -109 -49
t-41 -131zM472 532v-27h229v125q-8 -2 -17.5 -1.5t-19.5 3.5l-18 73q-9 3 -19.5 4.5t-19.5 1.5q-61 0 -98 -47.5t-37 -131.5z" />
    <glyph glyph-name=".notdef" horiz-adv-x="700" 
d="M600 -240h-500v1200h500v-1200zM507 910h-315l158 -481zM550 874l-172 -514l172 -514v1028zM150 -154l171 514l-171 514v-1028zM507 -190l-157 481l-158 -481h315z" />
    <glyph glyph-name=".null" 
 />
    <glyph glyph-name="nonmarkingreturn" horiz-adv-x="333" 
 />
    <glyph glyph-name="NUL" 
 />
    <glyph glyph-name="space" unicode=" " horiz-adv-x="208" 
 />
    <glyph glyph-name="exclam" unicode="!" horiz-adv-x="265" 
d="M145 207h-25l-24 359q-2 26 -4 55.5t-2 40.5q0 21 10.5 31.5t32.5 10.5t32.5 -10t10.5 -32q0 -11 -2 -40.5t-4 -55.5zM191 45q0 -24 -17 -41.5t-41 -17.5t-41.5 17.5t-17.5 41.5t17 41t42 17q24 0 41 -17t17 -41z" />
    <glyph glyph-name="quotedbl" unicode="&#x22;" horiz-adv-x="448" 
d="M209 691l-114 -247l-27 6l57 251h84v-10zM390 691l-113 -247l-27 6l57 251h83v-10z" />
    <glyph glyph-name="numbersign" unicode="#" horiz-adv-x="620" 
d="M374 -8h-43l36 191h-178l-37 -191h-43l36 191h-114v57h125l42 218h-115v57h125l36 187h44l-36 -187h178l36 187h44l-36 -187h115v-57h-126l-41 -218h114v-57h-125zM241 458l-41 -218h178l42 218h-179z" />
    <glyph glyph-name="dollar" unicode="$" horiz-adv-x="569" 
d="M497 182q0 -83 -64 -136.5t-160 -53.5h-1l-10 -120h-43l10 123q-77 11 -130 48t-53 83q0 22 14.5 36.5t36.5 14.5q14 0 26 -6t19 -17l-12 -73q16 -15 44 -26t62 -16l27 292q-95 39 -135 82t-40 107q0 77 60 128.5t148 53.5l7 86h43l-7 -88q68 -9 115.5 -43.5t47.5 -77.5
q0 -23 -13.5 -37.5t-35.5 -14.5q-14 0 -25 5t-19 16l12 73q-19 15 -41.5 24t-47.5 12l-26 -280q107 -42 149 -86t42 -109zM148 525q0 -43 28.5 -73.5t92.5 -58.5l25 266q-65 -3 -105.5 -39.5t-40.5 -94.5zM436 171q0 51 -30.5 82.5t-105.5 62.5l-26 -280h5q68 0 112.5 38.5
t44.5 96.5z" />
    <glyph glyph-name="percent" unicode="%" horiz-adv-x="714" 
d="M313 528q0 -80 -40.5 -131.5t-101.5 -51.5t-100.5 50t-39.5 131q0 80 40.5 132t100.5 52q61 0 101 -51t40 -131zM152 -3h-49l243 364l218 336h49l-241 -356zM83 528q0 -74 23 -113t67 -39q42 0 65 39t23 111q0 74 -23 113.5t-67 39.5q-42 0 -65 -39t-23 -112zM683 167
q0 -80 -40.5 -131.5t-100.5 -51.5q-62 0 -101.5 50t-39.5 131q0 80 40.5 132t100.5 52q61 0 101 -51t40 -131zM454 167q0 -74 22.5 -113t66.5 -39q42 0 65 39t23 111q0 74 -23 113.5t-66 39.5q-42 0 -65 -39t-23 -112z" />
    <glyph glyph-name="ampersand" unicode="&#x26;" horiz-adv-x="701" 
d="M546 0l-15 37l-79 81q-46 -65 -101.5 -98.5t-118.5 -33.5q-84 0 -139 50t-55 130q0 68 41 119t125 86l1 10q-50 47 -70.5 86t-20.5 83q0 69 52.5 114.5t131.5 45.5q69 0 115.5 -41t46.5 -106q0 -59 -39.5 -103.5t-126.5 -84.5v-10l39 -35l125 -128l59 88l24 97h128v-35
l-63 -15l-117 -167l115 -118l70 -17v-35h-128zM181 554q0 -35 15.5 -65t56.5 -74l12 -14q72 31 104.5 69.5t32.5 90.5q0 46 -29.5 76t-75.5 30q-52 0 -84 -32t-32 -81zM106 177q0 -62 40.5 -103t98.5 -41q48 0 91.5 28.5t85.5 87.5l-189 195q-63 -27 -95 -69.5t-32 -97.5z
" />
    <glyph glyph-name="quotesingle" unicode="'" horiz-adv-x="267" 
d="M209 691l-114 -247l-27 6l57 251h84v-10z" />
    <glyph glyph-name="parenleft" unicode="(" horiz-adv-x="403" 
d="M365 -161l-21 -23q-136 106 -203.5 229.5t-67.5 264.5t67.5 264.5t203.5 229.5l21 -24q-121 -121 -173 -230t-52 -240q0 -130 51.5 -238.5t173.5 -232.5z" />
    <glyph glyph-name="parenright" unicode=")" horiz-adv-x="403" 
d="M38 780l21 24q136 -106 203.5 -229t67.5 -265t-67.5 -265t-203.5 -229l-21 23q122 122 173.5 230.5t51.5 240.5q0 131 -51.5 239.5t-173.5 230.5z" />
    <glyph glyph-name="asterisk" unicode="*" horiz-adv-x="453" 
d="M234 559h-15l-27 139v8h70v-8zM412 533l-140 -17l-5 14l123 69l9 3l21 -67zM186 530l-5 -14l-140 17l-7 2l21 67l8 -3zM146 341l-5 -7l-56 42l5 6l104 96l11 -8zM369 376l-57 -42l-5 7l-59 129l11 8l104 -96z" />
    <glyph glyph-name="plus" unicode="+" horiz-adv-x="540" 
d="M293 130h-46v194h-193v44h193v194h46v-194h193v-44h-193v-194z" />
    <glyph glyph-name="comma" unicode="," horiz-adv-x="256" 
d="M128 105q26 0 42 -20.5t16 -54.5q0 -56 -42 -108t-113 -85l-14 26q47 26 74 55t37 63l-59 54q2 31 18.5 50.5t40.5 19.5z" />
    <glyph glyph-name="hyphen" unicode="-" horiz-adv-x="370" 
d="M304 248h-238v57h238v-57z" />
    <glyph glyph-name="period" unicode="." horiz-adv-x="255" 
d="M187 46q0 -25 -17.5 -42.5t-41.5 -17.5q-25 0 -42.5 17.5t-17.5 42.5q0 24 17.5 41.5t42.5 17.5q24 0 41.5 -17.5t17.5 -41.5z" />
    <glyph glyph-name="slash" unicode="/" horiz-adv-x="380" 
d="M30 -176h-48l174 491l164 479h48l-173 -490z" />
    <glyph glyph-name="zero" unicode="0" horiz-adv-x="590" 
d="M534 349q0 -165 -67.5 -265t-172.5 -100q-107 0 -172.5 97.5t-65.5 263.5q0 165 67.5 265t172.5 100q107 0 172.5 -98t65.5 -263zM129 349q0 -155 43.5 -237.5t124.5 -82.5q77 0 120.5 83.5t43.5 232.5q0 154 -44 237t-124 83q-78 0 -121 -82t-43 -234z" />
    <glyph glyph-name="one" unicode="1" horiz-adv-x="404" 
d="M384 0h-337v35l120 10l19 42v500l-19 40l-135 -12v33l205 56l13 -12v-605l19 -42l115 -10v-35z" />
    <glyph glyph-name="two" unicode="2" horiz-adv-x="551" 
d="M441 198h38v-198h-422v17q0 77 47.5 147t163.5 165q75 63 103.5 107.5t28.5 97.5q0 56 -37.5 92t-93.5 36q-41 0 -76.5 -16.5t-59.5 -46.5l36 -71q-5 -17 -20 -28.5t-34 -11.5q-21 0 -34 16t-13 42q0 64 64.5 113.5t147.5 49.5q84 0 138 -47.5t54 -122.5
q0 -72 -39.5 -126.5t-145.5 -133.5q-82 -62 -125 -117t-47 -105h247l61 13z" />
    <glyph glyph-name="three" unicode="3" horiz-adv-x="527" 
d="M467 180q0 -85 -64 -139t-161 -54q-79 0 -139.5 36.5t-60.5 89.5q0 23 14 39t34 16t33.5 -12.5t17.5 -34.5l-25 -48q23 -21 54.5 -31t71.5 -10q66 0 110 41t44 106q0 75 -55 115.5t-155 40.5h-13v47h10q92 0 149 43t57 108q0 59 -38 94.5t-99 35.5q-34 0 -66 -11.5
t-51 -29.5l23 -49q-4 -19 -17.5 -30.5t-33.5 -11.5q-18 0 -30.5 14.5t-12.5 35.5q0 47 60 86.5t143 39.5q87 0 140 -46.5t53 -120.5q0 -61 -42 -105.5t-124 -69.5v-9q88 -18 130.5 -61.5t42.5 -114.5z" />
    <glyph glyph-name="four" unicode="4" horiz-adv-x="569" 
d="M509 0h-277v34l92 10l18 42v120h-305v45l286 449h82v-451h130v-43h-130v-120l18 -42l86 -10v-34zM92 256l5 -10l67 3h178v300l4 86l-12 2l-24 -47l-183 -286z" />
    <glyph glyph-name="five" unicode="5" horiz-adv-x="526" 
d="M271 432q88 0 146.5 -58.5t58.5 -155.5q0 -100 -69 -165.5t-166 -65.5q-82 0 -138.5 39t-56.5 89q0 23 14 38.5t34 15.5q19 0 32.5 -13t17.5 -34l-27 -46q22 -22 52 -33t66 -11q74 0 122 51t48 131q0 75 -42.5 122t-108.5 47q-33 0 -68.5 -13t-69.5 -38l-33 18l28 344
h346v-11l-35 -50h-265l-21 -233l5 -4q31 19 61.5 27.5t68.5 8.5z" />
    <glyph glyph-name="six" unicode="6" horiz-adv-x="553" 
d="M307 433q86 0 140 -61t54 -156q0 -98 -65.5 -165t-155.5 -67q-104 0 -163.5 86t-59.5 244q0 170 75.5 282.5t192.5 112.5q62 0 102 -27t40 -66q0 -24 -13 -38.5t-34 -14.5q-14 0 -25 6.5t-21 20.5v64q-12 6 -24.5 8.5t-28.5 2.5q-85 0 -142 -98t-57 -243l7 -3
q29 53 75.5 82.5t102.5 29.5zM136 202q0 -77 41.5 -125t106.5 -48q64 0 104.5 51t40.5 132q0 79 -37 126.5t-97 47.5q-70 0 -114.5 -52t-44.5 -132z" />
    <glyph glyph-name="seven" unicode="7" horiz-adv-x="540" 
d="M249 126l-40 -134l-85 6l280 583l31 51l-5 8l-73 -5h-171l-61 -13l-17 -130h-39v202h423v-40z" />
    <glyph glyph-name="eight" unicode="8" horiz-adv-x="551" 
d="M495 169q0 -76 -65 -130.5t-158 -54.5t-156 48.5t-63 124.5q0 62 36 110t120 94v6q-65 34 -97.5 77.5t-32.5 95.5q0 71 59.5 120.5t141.5 49.5q86 0 142 -46.5t56 -114.5q0 -52 -31.5 -95.5t-104.5 -84.5v-6q79 -39 116 -86t37 -108zM415 546q0 53 -38 86.5t-98 33.5
q-57 0 -94 -33.5t-37 -83.5q0 -52 35 -89t116 -73q60 36 88 74.5t28 84.5zM117 163q0 -61 44 -98t115 -37q64 0 107 38.5t43 94.5q0 55 -45 101.5t-129 79.5q-74 -47 -104.5 -88.5t-30.5 -90.5z" />
    <glyph glyph-name="nine" unicode="9" horiz-adv-x="553" 
d="M272 710q106 0 165 -83t59 -228q0 -189 -74.5 -301.5t-198.5 -112.5q-66 0 -107.5 27t-41.5 67q0 24 13 38t34 14q14 0 25 -6.5t21 -20.5v-64q12 -6 26.5 -8.5t33.5 -2.5q89 0 144 89.5t60 236.5l-6 3q-33 -55 -77.5 -81.5t-103.5 -26.5q-85 0 -138.5 61.5t-53.5 160.5
q0 101 64 169.5t156 68.5zM123 475q0 -84 37 -131.5t99 -47.5q70 0 114 53t44 136q0 81 -41 130.5t-105 49.5q-69 0 -108.5 -51t-39.5 -139z" />
    <glyph glyph-name="colon" unicode=":" horiz-adv-x="265" 
d="M192 460q0 -24 -17.5 -41.5t-41.5 -17.5q-25 0 -42.5 17t-17.5 42q0 24 17.5 41.5t42.5 17.5q24 0 41.5 -17.5t17.5 -41.5zM192 46q0 -25 -17.5 -42.5t-41.5 -17.5q-25 0 -42.5 17.5t-17.5 42.5q0 24 17.5 41.5t42.5 17.5q24 0 41.5 -17.5t17.5 -41.5z" />
    <glyph glyph-name="semicolon" unicode=";" horiz-adv-x="265" 
d="M192 460q0 -24 -17.5 -41.5t-41.5 -17.5q-25 0 -42.5 17t-17.5 42q0 24 17.5 41.5t42.5 17.5q24 0 41.5 -17.5t17.5 -41.5zM133 105q26 0 42 -20.5t16 -54.5q0 -56 -42 -108t-113 -85l-14 26q47 26 74 55t37 63l-59 54q2 31 18.5 50.5t40.5 19.5z" />
    <glyph glyph-name="less" unicode="&#x3c;" horiz-adv-x="540" 
d="M448 182v-49l-376 196v32l376 198v-49l-319 -164z" />
    <glyph glyph-name="equal" unicode="=" horiz-adv-x="540" 
d="M478 418h-416v44h416v-44zM478 230h-416v44h416v-44z" />
    <glyph glyph-name="greater" unicode="&#x3e;" horiz-adv-x="540" 
d="M468 331l-376 -198v49l319 164l-319 164v49l376 -196v-32z" />
    <glyph glyph-name="question" unicode="?" horiz-adv-x="492" 
d="M431 551q0 -46 -21.5 -84.5t-77.5 -87.5q-54 -46 -73 -79t-24 -93h-32q-7 64 9.5 107t62.5 88q50 49 67 78.5t17 65.5q0 52 -32.5 84.5t-85.5 32.5q-38 0 -68 -12t-49 -35l33 -67q-8 -16 -22.5 -25.5t-31.5 -9.5q-21 0 -34.5 16t-13.5 42q0 50 59.5 93.5t135.5 43.5
q79 0 130 -44.5t51 -113.5zM279 45q0 -24 -17 -41.5t-41 -17.5t-41.5 17.5t-17.5 41.5t17.5 41t41.5 17t41 -17t17 -41z" />
    <glyph glyph-name="at" unicode="@" horiz-adv-x="1012" 
d="M448 -124q72 0 143 20.5t129 57.5l15 -31q-62 -40 -137 -62t-153 -22q-170 0 -268.5 101t-98.5 274q0 104 37 201.5t105 172.5q71 79 164.5 121.5t196.5 42.5q163 0 263 -93t100 -244q0 -65 -16.5 -123t-48.5 -105q-37 -57 -90 -89.5t-105 -32.5q-47 0 -72 27t-25 78
q0 13 1 25t3 26l-8 2q-52 -81 -98 -119.5t-90 -38.5q-42 0 -67 37t-25 101q0 59 20 116.5t57 106.5q41 55 93.5 86t104.5 31q26 0 48.5 -7.5t47.5 -25.5l29 33l22 -6l-77 -281q-6 -21 -9 -39.5t-3 -35.5q0 -42 15.5 -58.5t49.5 -16.5q38 0 79 32t71 85q23 42 35.5 90.5
t12.5 99.5q0 138 -86.5 220t-235.5 82q-96 0 -180.5 -40t-148.5 -115q-59 -70 -91 -159.5t-32 -187.5q0 -155 87 -246t236 -91zM500 165q44 44 73.5 94t47.5 111l28 97q-14 18 -32.5 26.5t-42.5 8.5q-80 0 -144 -94.5t-64 -204.5q0 -43 13 -65.5t39 -22.5q16 0 36.5 12.5
t45.5 37.5z" />
    <glyph glyph-name="A" unicode="A" horiz-adv-x="686" 
d="M161 46l63 -11v-35h-208v35l64 17l226 648h80l216 -647l65 -18v-35h-223v35l63 10l16 31l-53 162h-270l-55 -163zM330 636l-25 -90l-89 -263h239l-87 263l-23 90h-15z" />
    <glyph glyph-name="B" unicode="B" horiz-adv-x="615" 
d="M296 0h-261v35l78 10l18 42v520l-18 42l-78 10v35h272q108 0 169.5 -42t61.5 -117q0 -62 -47 -106.5t-130 -64.5v-7q92 -15 143.5 -61t51.5 -116q0 -85 -69.5 -132.5t-190.5 -47.5zM198 650v-271h54q93 0 153 42.5t60 109.5q0 58 -42.5 88.5t-122.5 30.5h-102zM198 336
v-292h95q90 0 140.5 36t50.5 101q0 71 -61.5 113t-163.5 42h-61z" />
    <glyph glyph-name="C" unicode="C" horiz-adv-x="623" 
d="M544 212v-164q-42 -30 -93 -46t-105 -16q-128 0 -208.5 96.5t-80.5 259.5q0 153 83.5 259.5t209.5 106.5q39 0 71 -8.5t69 -29.5l24 35h26v-222h-39l-32 144q-30 19 -56.5 27t-57.5 8q-99 0 -161 -88t-62 -224q0 -150 60 -234t165 -84q33 0 62 8t56 24l30 148h39z" />
    <glyph glyph-name="D" unicode="D" horiz-adv-x="669" 
d="M272 0h-237v35l78 10l18 42v520l-18 42l-78 10v35h240q158 0 247.5 -88.5t89.5 -249.5q0 -168 -90.5 -262t-249.5 -94zM198 649v-604h70q134 0 202 77t68 228q0 146 -69.5 222.5t-201.5 76.5h-69z" />
    <glyph glyph-name="E" unicode="E" horiz-adv-x="614" 
d="M554 0h-519v35l78 10l18 42v520l-18 42l-78 10v35h503v-172h-40l-16 97l-39 30h-245v-271h128l61 14l7 82h36v-238h-36l-7 83l-61 14h-128v-288h262l38 30l16 108h40v-183z" />
    <glyph glyph-name="F" unicode="F" horiz-adv-x="577" 
d="M305 0h-270v35l78 10l18 42v520l-18 42l-78 10v35h491v-181h-40l-16 106l-38 30h-234v-282h121l61 14l8 82h36v-238h-36l-8 83l-61 14h-121v-235l18 -42l89 -10v-35z" />
    <glyph glyph-name="G" unicode="G" horiz-adv-x="661" 
d="M554 249v-200q-45 -31 -97 -47t-104 -16q-137 0 -216.5 96t-79.5 262q0 157 85 260.5t212 103.5q39 0 71.5 -8.5t68.5 -29.5l23 35h27v-213h-40l-32 134q-27 18 -56 27t-61 9q-100 0 -162 -88t-62 -225q0 -149 59.5 -233.5t166.5 -84.5q41 0 75 10t59 29v177l-18 42
l-87 10v34h241v-33l-56 -11z" />
    <glyph glyph-name="H" unicode="H" horiz-adv-x="718" 
d="M288 0h-253v35l78 10l18 42v520l-18 42l-78 10v35h253v-34l-72 -10l-18 -42v-231h322v231l-18 42l-72 10v34h253v-35l-78 -10l-18 -42v-520l18 -42l78 -10v-35h-253v34l72 10l18 42v246h-322v-246l18 -42l72 -10v-34z" />
    <glyph glyph-name="I" unicode="I" horiz-adv-x="342" 
d="M304 0h-267v35l82 10l18 42v520l-18 42l-82 10v35h267v-35l-82 -10l-18 -42v-520l18 -42l82 -10v-35z" />
    <glyph glyph-name="J" unicode="J" horiz-adv-x="510" 
d="M387 607v-417q0 -97 -51.5 -150.5t-140.5 -53.5q-71 0 -117.5 38.5t-46.5 91.5q0 30 16.5 48.5t42.5 18.5q22 0 36 -16t11 -39l-45 -42q15 -26 39.5 -39.5t58.5 -13.5q64 0 97 39t33 114v422l-19 41l-88 10v35h267v-35l-75 -10z" />
    <glyph glyph-name="K" unicode="K" horiz-adv-x="649" 
d="M216 44l72 -10v-34h-253v35l78 10l18 42v520l-18 42l-78 10v35h253v-34l-72 -10l-18 -42v-227h66l175 212l35 101h140v-35l-71 -16l-228 -274l246 -321l64 -13v-35h-139l-6 43l-221 291h-61v-248z" />
    <glyph glyph-name="L" unicode="L" horiz-adv-x="568" 
d="M520 0h-485v35l78 10l18 42v520l-18 42l-78 10v35h271v-35l-90 -10l-18 -42v-562h236l34 27l13 130h39v-202z" />
    <glyph glyph-name="M" unicode="M" horiz-adv-x="899" 
d="M468 -2h-55l-213 634h-22l5 -77v-469l17 -42l71 -10v-34h-236v35l78 10l18 42v520l-18 42l-78 10v35h214l173 -523l17 -77h14l20 77l177 523h214v-35l-78 -10l-18 -42v-520l18 -42l78 -10v-35h-251v34l71 10l17 42v470l5 76h-22z" />
    <glyph glyph-name="N" unicode="N" horiz-adv-x="722" 
d="M279 0h-244v35l78 10l18 42v520l-18 42l-78 10v35h189l264 -484l49 -110h13l-3 112v396l-18 42l-77 10v34h242v-35l-77 -10l-18 -42v-609h-72l-284 520l-50 108h-12l3 -111v-429l18 -42l77 -10v-34z" />
    <glyph glyph-name="O" unicode="O" horiz-adv-x="679" 
d="M623 351q0 -164 -80 -265.5t-206 -101.5q-122 0 -201 100t-79 260q0 164 79.5 265t206.5 101q121 0 200.5 -100t79.5 -259zM132 351q0 -146 57 -233.5t150 -87.5t151 86t58 227q0 146 -57 233.5t-150 87.5t-151 -86t-58 -227z" />
    <glyph glyph-name="P" unicode="P" horiz-adv-x="574" 
d="M305 0h-270v35l78 10l18 42v520l-18 42l-78 10v35h253q120 0 185.5 -50.5t65.5 -144.5q0 -102 -75.5 -161t-200.5 -59h-65v-192l18 -42l89 -10v-35zM198 649v-325h63q99 0 152 44t53 126q0 76 -46.5 115.5t-135.5 39.5h-86z" />
    <glyph glyph-name="Q" unicode="Q" horiz-adv-x="679" 
d="M660 -107v-6l-69 -43l-212 144q-10 -2 -20.5 -2.5t-21.5 -0.5q-122 0 -201 99.5t-79 259.5q0 164 79.5 265t206.5 101q121 0 200.5 -100t79.5 -259q0 -126 -47 -211.5t-140 -129.5v-6l74 -40zM132 351q0 -147 56.5 -234t150.5 -87q93 0 151 86t58 227q0 146 -57 233.5
t-150 87.5q-94 0 -151.5 -85.5t-57.5 -227.5z" />
    <glyph glyph-name="R" unicode="R" horiz-adv-x="647" 
d="M292 0h-257v35l78 10l18 42v520l-18 42l-78 10v35h261q120 0 185 -45t65 -130q0 -73 -53 -123t-145 -68v-5q50 -10 79.5 -34t60.5 -85l76 -148l70 -21v-35h-133l-7 45l-76 150q-32 63 -72.5 86t-116.5 23h-31v-218l18 -42l76 -10v-34zM198 649v-301h35q105 0 172.5 45.5
t67.5 121.5q0 66 -46 100t-135 34h-94z" />
    <glyph glyph-name="S" unicode="S" horiz-adv-x="569" 
d="M309 386q110 -47 154 -94t44 -116q0 -81 -62 -134t-156 -53q-42 0 -82.5 12t-86.5 40l-25 -46h-27v227h40l32 -136q35 -25 73.5 -38t77.5 -13q65 0 107 36.5t42 92.5q0 54 -36 89t-129 75q-103 44 -146 89.5t-43 111.5q0 76 58 126t140 50q37 0 72 -9.5t69 -28.5l25 35
h26v-207h-40l-33 131q-28 17 -56 25t-60 8q-59 0 -96.5 -33.5t-37.5 -88.5q0 -48 35 -81.5t121 -69.5z" />
    <glyph glyph-name="T" unicode="T" horiz-adv-x="640" 
d="M457 0h-274v35l85 10l18 42v561h-143l-37 -29l-15 -128h-41v203h540v-203h-41l-15 128l-38 29h-143v-561l18 -42l86 -10v-35z" />
    <glyph glyph-name="U" unicode="U" horiz-adv-x="681" 
d="M339 -14q-104 0 -163 57.5t-59 160.5v403l-18 42l-76 10v35h249v-34l-71 -10l-17 -42v-401q0 -81 42.5 -126t118.5 -45q79 0 122 45t43 128v399l-18 42l-70 10v34h235v-35l-75 -10l-18 -42v-405q0 -99 -61 -157.5t-164 -58.5z" />
    <glyph glyph-name="V" unicode="V" horiz-adv-x="668" 
d="M370 -8h-72l-213 650l-65 17v35h224v-35l-62 -10l-17 -31l148 -464l20 -86h14l24 86l151 465l-16 29l-62 11v35h208v-35l-65 -17z" />
    <glyph glyph-name="W" unicode="W" horiz-adv-x="971" 
d="M320 -8h-75l-159 650l-65 17v35h218v-35l-62 -10l-17 -31l104 -449l17 -97h15l19 97l147 525h72l134 -525l16 -97h16l18 97l106 451l-17 28l-55 11v35h201v-35l-64 -17l-163 -650h-76l-131 505l-20 105h-13l-23 -105z" />
    <glyph glyph-name="X" unicode="X" horiz-adv-x="668" 
d="M245 0h-222v35l71 15l204 300l-195 295l-66 14v35h226v-34l-58 -9l-10 -30l106 -163l31 -55h15l30 55l104 158l-9 31l-55 13v34h207v-35l-63 -16l-191 -281l210 -314l68 -13v-35h-233v34l59 11l11 32l-118 176l-32 54h-14l-30 -54l-112 -172l9 -34l57 -13v-34z" />
    <glyph glyph-name="Y" unicode="Y" horiz-adv-x="641" 
d="M455 0h-274v35l85 10l18 42v202l-206 354l-67 16v35h226v-34l-57 -11l-12 -29l118 -207l33 -73h14l36 74l114 198l-12 36l-57 12v34h212v-35l-64 -16l-211 -352v-204l18 -42l86 -10v-35z" />
    <glyph glyph-name="Z" unicode="Z" horiz-adv-x="595" 
d="M534 0h-479v39l337 519l59 82l-3 12l-100 -3h-175l-38 -30l-16 -126h-40v201h455v-39l-337 -519l-60 -82l4 -12l99 3h200l38 30l16 128h40v-203z" />
    <glyph glyph-name="bracketleft" unicode="[" horiz-adv-x="405" 
d="M365 -158l-252 -13v960l252 -13v-31l-194 1v-874l194 1v-31z" />
    <glyph glyph-name="backslash" unicode="\" horiz-adv-x="380" 
d="M224 316l174 -492h-48l-165 481l-173 489h48z" />
    <glyph glyph-name="bracketright" unicode="]" horiz-adv-x="405" 
d="M292 789v-960l-252 13v31l194 -1v874l-194 -1v31z" />
    <glyph glyph-name="asciicircum" unicode="^" horiz-adv-x="540" 
d="M121 364h-51l184 335h32l184 -335h-52l-150 272z" />
    <glyph glyph-name="underscore" unicode="_" horiz-adv-x="444" 
d="M446 -111h-448v39h448v-39z" />
    <glyph glyph-name="grave" unicode="`" horiz-adv-x="500" 
d="M154 582zM297 596l-22 -14l-94 103q-15 17 -21 28t-6 21q0 14 11.5 24.5t25.5 10.5t24.5 -9.5t20.5 -32.5z" />
    <glyph glyph-name="a" unicode="a" horiz-adv-x="516" 
d="M358 104h-7q-48 -65 -87 -90t-86 -25q-57 0 -92.5 37.5t-35.5 98.5q0 31 10 55.5t31 45.5q29 29 75 43t110 14h78v77q0 55 -27 84t-78 29q-28 0 -53 -6.5t-53 -20.5l23 -61q-9 -13 -21.5 -19.5t-27.5 -6.5q-19 0 -31 14t-12 36q0 21 16 39.5t48 34.5q37 18 70.5 26.5
t66.5 8.5q65 0 103.5 -39.5t38.5 -109.5v-274q0 -34 14 -46t62 -20v-27l-70 -11q-36 13 -50.5 32.5t-14.5 54.5v26zM354 226v20h-74q-82 0 -124.5 -29.5t-42.5 -86.5q0 -41 23.5 -66.5t62.5 -25.5q27 0 52 13t56 44q26 26 36.5 54.5t10.5 76.5z" />
    <glyph glyph-name="b" unicode="b" horiz-adv-x="558" 
d="M111 -12h-29l10 151v524l-18 42l-68 7v32h149v-280l-7 -94l7 -2q49 82 90 116.5t86 34.5q79 0 128.5 -71t49.5 -188q0 -116 -60 -193t-145 -77q-40 0 -76.5 13.5t-86.5 48.5zM298 36q62 0 102.5 58.5t40.5 150.5q0 102 -34.5 162t-89.5 60q-19 0 -37.5 -8.5t-34.5 -24.5
q-46 -47 -68 -89t-22 -81v-161q41 -36 75 -51.5t68 -15.5z" />
    <glyph glyph-name="c" unicode="c" horiz-adv-x="478" 
d="M407 85l21 -33q-38 -33 -79 -49.5t-85 -16.5q-94 0 -154.5 70.5t-60.5 184.5q0 121 66 200.5t162 79.5q64 0 107 -31t43 -77q0 -25 -14.5 -41t-36.5 -16q-17 0 -28.5 10.5t-14.5 26.5l26 54q-15 15 -36 22.5t-46 7.5q-69 0 -114 -61.5t-45 -156.5q0 -103 45.5 -163
t119.5 -60q31 0 61 12t63 37z" />
    <glyph glyph-name="d" unicode="d" horiz-adv-x="576" 
d="M227 -11q-79 0 -128.5 71.5t-49.5 189.5q0 116 60 192.5t143 76.5q36 0 71 -12.5t82 -44.5l5 3l-7 64v134l-19 42l-68 7v32h150v-663l19 -42l67 -7v-32h-149v47l7 94l-7 2q-51 -85 -91.5 -119.5t-84.5 -34.5zM117 266q0 -103 34 -163.5t90 -60.5q19 0 37 8.5t35 25.5
q45 45 67.5 87.5t22.5 81.5v164q-38 33 -72.5 48.5t-69.5 15.5q-62 0 -103 -58.5t-41 -148.5z" />
    <glyph glyph-name="e" unicode="e" horiz-adv-x="501" 
d="M414 80l21 -31q-38 -32 -79 -47.5t-87 -15.5q-100 0 -160 72.5t-60 190.5t62.5 195t154.5 77q82 0 132 -65.5t50 -175.5v-30h-332q3 -102 48 -158.5t122 -56.5q32 0 63 11t65 34zM258 479q-59 0 -98.5 -53.5t-43.5 -135.5h268q-4 90 -37 139.5t-89 49.5z" />
    <glyph glyph-name="f" unicode="f" horiz-adv-x="349" 
d="M201 39l78 -7v-32h-245v32l67 7l18 42v378h-86v38l86 11v25q0 55 14.5 95.5t45.5 71.5q24 24 59.5 37.5t73.5 13.5q42 0 66 -15.5t24 -41.5q0 -24 -23 -35.5t-52 -4.5l-18 60q-57 1 -92 -46t-35 -125v-38h139v-46h-139v-378z" />
    <glyph glyph-name="g" unicode="g" horiz-adv-x="547" 
d="M496 -11q0 -70 -82 -123.5t-188 -53.5q-91 0 -148 32.5t-57 82.5q0 29 27.5 56.5t94.5 63.5v5q-29 11 -44.5 26.5t-15.5 33.5q0 20 16 36.5t59 40.5v6q-44 21 -71.5 61t-27.5 87q0 71 57 123t132 52q37 0 67.5 -11.5t57.5 -36.5l137 46h6v-68l-116 -8l-3 -7
q17 -21 25.5 -44t8.5 -46q0 -72 -56 -120.5t-133 -48.5q-13 0 -25.5 2t-22.5 5q-27 -18 -38.5 -29.5t-11.5 -22.5q0 -15 19 -24t55 -12l144 -9q69 -5 101.5 -28t32.5 -67zM126 342q0 -56 34 -93.5t86 -37.5q50 0 84 37.5t34 95.5t-33.5 96.5t-85.5 38.5q-51 0 -85 -38.5
t-34 -98.5zM88 -67q0 -37 39.5 -59t107.5 -22q83 0 143 36t60 83q0 28 -23 42t-73 17l-158 10q-50 -31 -73 -56.5t-23 -50.5z" />
    <glyph glyph-name="h" unicode="h" horiz-adv-x="573" 
d="M237 0h-217v32l67 7l19 42v582l-19 42l-67 7v32h148v-283l-7 -104l6 -3q53 91 95.5 128t92.5 37q56 0 87.5 -37.5t31.5 -104.5v-296l19 -42l63 -7v-32h-208v31l47 9l16 38v288q0 48 -19 73t-56 25q-20 0 -40 -9.5t-38 -26.5q-40 -41 -65 -87.5t-25 -83.5v-179l17 -39
l52 -8v-31z" />
    <glyph glyph-name="i" unicode="i" horiz-adv-x="299" 
d="M198 693q0 -23 -15 -38t-38 -15q-24 0 -39 15t-15 38t15 38.5t39 15.5q23 0 38 -15.5t15 -38.5zM270 0h-233v32l66 7l19 42v344l-19 41l-66 7v32h148v-424l20 -42l65 -7v-32z" />
    <glyph glyph-name="j" unicode="j" horiz-adv-x="286" 
d="M198 693q0 -23 -15 -38t-38 -15q-24 0 -39 15t-15 38t15 38.5t39 15.5q23 0 38 -15.5t15 -38.5zM135 -144q-20 -21 -48 -32.5t-58 -11.5q-36 0 -58 14t-22 37q0 22 22 34t48 5l24 -53q41 5 62 41.5t21 102.5v432l-20 41l-69 7v32h151v-463q0 -68 -12.5 -113t-40.5 -73z
" />
    <glyph glyph-name="k" unicode="k" horiz-adv-x="516" 
d="M185 39l57 -8v-31h-222v32l67 7l19 42v582l-19 42l-67 7v32h148v-456h42l115 132l21 85h133v-32l-58 -14l-161 -178l194 -235l48 -14v-32h-122l-10 51l-162 196h-40v-169z" />
    <glyph glyph-name="l" unicode="l" horiz-adv-x="289" 
d="M261 0h-234v32l67 7l19 42v582l-19 42l-67 7v32h149v-663l19 -42l66 -7v-32z" />
    <glyph glyph-name="m" unicode="m" horiz-adv-x="868" 
d="M250 0h-216v32l66 7l19 42v344l-19 41l-66 7v32h148v-44l-8 -103l6 -2q47 86 89 124.5t89 38.5q56 0 86 -37t31 -106l6 -3q47 79 87.5 112.5t85.5 33.5q54 0 84.5 -37.5t30.5 -103.5v-297l19 -42l63 -7v-32h-209v31l48 9l16 38v288q0 47 -18.5 72.5t-53.5 25.5
q-19 0 -37 -9t-36 -27q-38 -38 -62 -84.5t-24 -84.5v-181l17 -39l55 -8v-31h-199v31l48 9l17 38v288q0 47 -19 72.5t-54 25.5q-19 0 -36 -8.5t-37 -27.5q-35 -36 -60 -85t-25 -86v-179l17 -39l51 -8v-31z" />
    <glyph glyph-name="n" unicode="n" horiz-adv-x="586" 
d="M250 0h-216v32l66 7l19 42v344l-19 41l-66 7v32h148v-44l-8 -104l6 -3q53 91 95.5 128t92.5 37q56 0 87.5 -37.5t31.5 -104.5v-296l19 -42l63 -7v-32h-208v31l48 9l15 38v288q0 48 -19 73t-56 25q-20 0 -40 -9.5t-38 -26.5q-39 -40 -64 -87t-25 -84v-179l17 -39l51 -8
v-31z" />
    <glyph glyph-name="o" unicode="o" horiz-adv-x="539" 
d="M491 256q0 -117 -64 -194.5t-160 -77.5q-95 0 -157 75t-62 191q0 118 64 194.5t160 76.5q95 0 157 -74t62 -191zM117 262q0 -106 43 -170.5t113 -64.5q65 0 107 61.5t42 154.5q0 105 -43 170t-113 65q-66 0 -107.5 -61.5t-41.5 -154.5z" />
    <glyph glyph-name="p" unicode="p" horiz-adv-x="578" 
d="M261 -182h-235v32l68 7l18 42v526l-18 41l-67 7v32h148v-43l-7 -94l7 -2q49 83 90 118t86 35q79 0 128.5 -71t49.5 -188t-59.5 -193.5t-142.5 -76.5q-37 0 -72.5 12.5t-81.5 43.5l-5 -3l7 -64v-88l16 -34l70 -7v-32zM318 36q62 0 102.5 59t40.5 150q0 102 -34.5 162
t-89.5 60q-19 0 -37 -8.5t-35 -25.5q-45 -45 -67.5 -87.5t-22.5 -81.5v-160q40 -36 74.5 -52t68.5 -16z" />
    <glyph glyph-name="q" unicode="q" horiz-adv-x="563" 
d="M552 -182h-235v32l71 7l15 34v154l7 94l-7 3q-49 -83 -90 -118t-86 -35q-79 0 -128.5 72t-49.5 189q0 116 60 192.5t144 76.5q39 0 74.5 -13t89.5 -49l30 63h29l-10 -153v-468l19 -42l67 -7v-32zM117 265q0 -103 34.5 -163.5t89.5 -60.5q19 0 37 8.5t35 25.5
q45 45 67.5 87.5t22.5 81.5v165q-37 33 -71.5 48.5t-70.5 15.5q-63 0 -103.5 -58t-40.5 -150z" />
    <glyph glyph-name="r" unicode="r" horiz-adv-x="428" 
d="M200 39l71 -7v-32h-237v32l66 7l19 42v344l-19 41l-66 7v32h148v-43l-7 -123l7 -2q33 80 78.5 130t88.5 50q24 0 39.5 -15t15.5 -38q0 -28 -23 -43.5t-54 -10.5l-17 44q-41 -15 -84.5 -90.5t-43.5 -129.5v-153z" />
    <glyph glyph-name="s" unicode="s" horiz-adv-x="459" 
d="M253 287q87 -34 119 -67.5t32 -85.5q0 -67 -52.5 -107.5t-134.5 -40.5q-37 0 -76.5 8.5t-85.5 27.5v132h38l24 -105q22 -11 47.5 -16.5t54.5 -5.5q52 0 87.5 26.5t35.5 66.5q0 39 -27 63.5t-98 52.5q-86 34 -117.5 65.5t-31.5 79.5q0 61 50.5 99.5t125.5 38.5
q37 0 72.5 -7t62.5 -19v-119h-39l-24 94q-19 6 -35.5 8.5t-36.5 2.5q-48 0 -80.5 -24.5t-32.5 -58.5q0 -36 25 -58t97 -51z" />
    <glyph glyph-name="t" unicode="t" horiz-adv-x="384" 
d="M226 -11q-55 0 -86 33.5t-31 92.5v344h-89v38l87 11l23 150h41v-153h172v-46h-172v-321q0 -49 18.5 -73.5t56.5 -24.5q17 0 38.5 7t58.5 26l16 -28q-34 -27 -68.5 -41.5t-64.5 -14.5z" />
    <glyph glyph-name="u" unicode="u" horiz-adv-x="578" 
d="M218 -14q-56 0 -87.5 38t-31.5 106v295l-19 41l-63 7v32h145v-365q0 -49 19 -74t56 -25q20 0 40 9.5t38 27.5q39 39 64.5 86t25.5 84v179l-18 40l-72 7v31h152v-424l19 -42l67 -7v-32h-148v44l7 105l-6 2q-53 -91 -95.5 -128t-92.5 -37z" />
    <glyph glyph-name="v" unicode="v" horiz-adv-x="523" 
d="M295 -7h-64l-161 467l-63 13v32h197v-30l-49 -10l-9 -32l98 -292l19 -80h13l22 80l100 296l-12 30l-45 8v30h175v-32l-56 -13z" />
    <glyph glyph-name="w" unicode="w" horiz-adv-x="788" 
d="M266 -5h-68l-125 465l-63 13v32h194v-30l-49 -10l-9 -31l73 -290l13 -79h14l17 79l112 363h58l107 -363l16 -79h13l15 79l75 294l-12 29l-45 8v30h175v-32l-57 -13l-129 -465h-65l-103 344l-17 80h-14l-19 -80z" />
    <glyph glyph-name="x" unicode="x" horiz-adv-x="513" 
d="M186 0h-167v32l55 11l144 209l-140 211l-52 10v32h179v-29l-30 -6l-12 -26l63 -93l28 -53h12l33 53l64 95l-10 24l-35 6v29h164v-32l-56 -11l-138 -201l152 -218l54 -11v-32h-185v30l34 6l13 26l-70 98l-32 55h-13l-35 -55l-65 -99l11 -25l34 -6v-30z" />
    <glyph glyph-name="y" unicode="y" horiz-adv-x="525" 
d="M460 460l-165 -457q-34 -95 -80 -142.5t-105 -47.5q-33 0 -54 15t-21 39q0 21 18 34.5t45 12.5l34 -55q34 7 61 40.5t51 100.5l-173 460l-62 13v32h197v-30l-49 -10l-8 -30l96 -268l24 -93h12l23 93l94 270l-12 30l-45 8v30h175v-32z" />
    <glyph glyph-name="z" unicode="z" horiz-adv-x="496" 
d="M434 0h-384v35l256 355l54 66l-5 10l-82 -2h-121l-31 -30l-13 -86h-38v157h369v-34l-257 -356l-51 -66l6 -10l81 3h134l31 30l13 92h38v-164z" />
    <glyph glyph-name="braceleft" unicode="{" horiz-adv-x="432" 
d="M383 -140v-29l-64 5q-90 7 -135 40.5t-45 94.5q0 17 5 39.5t21 70.5q16 44 20.5 64t4.5 35q0 34 -33 60t-115 58v22q82 32 115 58t33 60q0 15 -4.5 35.5t-20.5 64.5q-16 47 -21 69.5t-5 39.5q0 61 45 94.5t135 40.5l64 5v-29l-66 -10q-60 -9 -87 -31.5t-27 -65.5
q0 -15 5 -36t20 -66q16 -46 21 -67.5t5 -38.5q0 -40 -35.5 -70t-120.5 -62v-4q85 -32 120.5 -62t35.5 -70q0 -17 -5 -38.5t-21 -67.5q-15 -45 -20 -66t-5 -36q0 -43 27 -65.5t87 -31.5z" />
    <glyph glyph-name="bar" unicode="|" horiz-adv-x="296" 
d="M169 -176h-42v970h42v-970z" />
    <glyph glyph-name="braceright" unicode="}" horiz-adv-x="432" 
d="M49 758v29l64 -5q90 -7 135 -40.5t45 -94.5q0 -17 -5 -39.5t-21 -70.5q-16 -44 -20.5 -64t-4.5 -35q0 -34 33 -60t115 -58v-22q-82 -32 -115 -58t-33 -60q0 -15 4.5 -35.5t20.5 -64.5q16 -47 21 -69.5t5 -39.5q0 -61 -45 -94.5t-135 -40.5l-64 -5v29l67 10
q60 9 86.5 31.5t26.5 65.5q0 15 -5 36t-20 66q-16 46 -21 67.5t-5 38.5q0 40 35.5 70t120.5 62v4q-85 32 -120.5 62t-35.5 70q0 17 5 38.5t21 67.5q15 45 20 66t5 36q0 43 -26.5 65.5t-86.5 31.5z" />
    <glyph glyph-name="asciitilde" unicode="~" horiz-adv-x="540" 
d="M164 452q23 0 49 -17t75 -71q39 -43 57 -56t32 -13q24 0 38.5 38t20.5 117h43q-5 -102 -30 -151t-73 -49q-23 0 -49 17t-75 71q-39 42 -57 55t-32 13q-25 0 -39 -37.5t-20 -116.5h-43q5 102 30 151t73 49z" />
    <glyph glyph-name="uni00A0" unicode="&#xa0;" horiz-adv-x="208" 
 />
    <glyph glyph-name="exclamdown" unicode="&#xa1;" horiz-adv-x="265" 
d="M120 491h25l24 -359q2 -26 4 -55.5t2 -40.5q0 -21 -10.5 -31.5t-32.5 -10.5t-32.5 10t-10.5 32q0 11 2 40.5t4 55.5zM74 653q0 24 17 41.5t41 17.5t41.5 -17.5t17.5 -41.5t-17 -41t-42 -17q-24 0 -41 17t-17 41z" />
    <glyph glyph-name="cent" unicode="&#xa2;" horiz-adv-x="492" 
d="M414 174l21 -31q-39 -32 -88 -50t-96 -18l-11 -123h-43l11 127q-73 17 -117.5 86.5t-44.5 170.5q0 118 59.5 198.5t152.5 94.5l9 100h43l-9 -98q61 -3 105 -34.5t44 -71.5q0 -24 -12.5 -38.5t-33.5 -14.5q-13 0 -26 8t-19 20l15 63q-19 12 -39 18t-40 6l-42 -464h11
q40 0 77.5 13t72.5 38zM113 335q0 -79 26.5 -132t75.5 -72l42 452q-67 -14 -105.5 -80.5t-38.5 -167.5z" />
    <glyph glyph-name="sterling" unicode="&#xa3;" horiz-adv-x="517" 
d="M429 197h39v-197h-436l-7 32l51 47q50 46 71.5 84.5t21.5 80.5q0 21 -5 42t-15 45h-116v44h96q-28 59 -36.5 89.5t-8.5 59.5q0 79 60.5 131.5t146.5 52.5q78 0 131.5 -38t53.5 -88q0 -28 -14.5 -45.5t-37.5 -17.5q-17 0 -31 10.5t-18 25.5l31 64q-17 21 -46 32.5
t-66 11.5q-61 0 -103 -37.5t-42 -92.5q0 -21 6 -45t46 -113h175v-44h-157q9 -23 13 -44t4 -41q0 -36 -20 -72t-62 -75l-42 -41l1 -8l94 6h145l59 13z" />
    <glyph glyph-name="yen" unicode="&#xa5;" horiz-adv-x="640" 
d="M370 45l85 -10v-35h-272v35l85 10l18 42v128h-209v41h209v33l-42 73h-167v41h143l-138 240l-67 16v35h222v-34l-57 -11l-12 -29l118 -206l34 -74h14l37 74l113 198l-13 36l-57 12v34h210v-35l-64 -16l-142 -240h144v-41h-168l-42 -71v-35h210v-41h-210v-128z" />
    <glyph glyph-name="section" unicode="&#xa7;" horiz-adv-x="592" 
d="M486 -35q0 -66 -59 -109.5t-145 -43.5q-82 0 -146.5 33.5t-64.5 78.5q0 25 15 40t38 15q17 0 31 -8t23 -22l-11 -67q22 -14 51.5 -21t64.5 -7q62 0 102 28.5t40 70.5q0 49 -36.5 79t-140.5 68q-111 39 -154 79t-43 99q0 54 41.5 94.5t103.5 50.5v5q-44 23 -66 55.5
t-22 74.5q0 65 57.5 108.5t142.5 43.5q78 0 139 -33t61 -78q0 -25 -14.5 -40t-36.5 -15q-17 0 -31.5 8t-23.5 23l11 66q-22 13 -48.5 20t-57.5 7q-61 0 -99 -30t-38 -74q0 -47 35.5 -76t138.5 -66q112 -40 154.5 -79.5t42.5 -97.5q0 -55 -41.5 -95.5t-104.5 -50.5v-5
q48 -24 69.5 -55t21.5 -74zM260 154q47 -18 66 -22.5t37 -4.5q48 0 84 31.5t36 74.5q0 42 -32.5 71.5t-118.5 63.5q-47 18 -66 22.5t-37 4.5q-48 0 -84 -32t-36 -74q0 -43 31.5 -72t119.5 -63z" />
    <glyph glyph-name="dieresis" unicode="&#xa8;" horiz-adv-x="500" 
d="M112 597zM388 647q0 -21 -13.5 -35.5t-33.5 -14.5q-22 0 -35.5 14t-13.5 36t13.5 36.5t35.5 14.5q20 0 33.5 -14.5t13.5 -36.5zM208 647q0 -22 -13.5 -36t-33.5 -14q-21 0 -35 14.5t-14 35.5q0 22 14 36.5t35 14.5t34 -14.5t13 -36.5z" />
    <glyph glyph-name="copyright" unicode="&#xa9;" horiz-adv-x="844" 
d="M808 348q0 -167 -110.5 -280.5t-275.5 -113.5t-275 113t-110 281q0 167 110 279.5t275 112.5t275.5 -112.5t110.5 -279.5zM73 346q0 -154 99 -256.5t250 -102.5t250 102.5t99 256.5q0 155 -99 258t-250 103q-150 0 -249.5 -103t-99.5 -258zM563 276v-95
q-27 -18 -59.5 -27.5t-66.5 -9.5q-82 0 -134.5 56t-52.5 150q0 88 54 149.5t136 61.5q22 0 41 -4.5t42 -16.5l18 19h20v-128h-33l-18 79q-15 9 -31.5 13.5t-35.5 4.5q-60 0 -98.5 -49.5t-38.5 -124.5q0 -82 37.5 -129.5t100.5 -47.5q17 0 34.5 4t35.5 13l17 82h32z" />
    <glyph glyph-name="ordfeminine" unicode="&#xaa;" horiz-adv-x="427" 
d="M383 359v-20l-53 -8q-28 9 -39 22.5t-11 37.5v26h-6q-34 -48 -63.5 -67t-64.5 -19q-43 0 -70 26t-27 69q0 23 7 41t21 32q22 22 58 33.5t84 11.5h54v45q0 38 -20 58.5t-56 20.5q-20 0 -38 -4.5t-37 -14.5l14 -38q-6 -9 -15 -13.5t-21 -4.5q-14 0 -22.5 9.5t-8.5 24.5
t11 27.5t34 23.5q23 12 50 19t52 7q51 0 80.5 -28t29.5 -77v-194q0 -23 10.5 -31.5t46.5 -14.5zM273 497v16h-51q-57 0 -88 -20.5t-31 -59.5q0 -28 16.5 -46t41.5 -18q20 0 37.5 9t39.5 31q19 19 27 39.5t8 48.5zM365 211h-314v39h314v-39z" />
    <glyph glyph-name="guillemotleft" unicode="&#xab;" horiz-adv-x="528" 
d="M266 46l-29 -22l-196 223v14l196 222l29 -21l-150 -208zM479 46l-29 -22l-196 223v14l196 222l29 -21l-150 -208z" />
    <glyph glyph-name="uni00AD" unicode="&#xad;" horiz-adv-x="370" 
d="M66 248zM304 248h-238v57h238v-57z" />
    <glyph glyph-name="registered" unicode="&#xae;" horiz-adv-x="545" 
d="M496 500q0 -94 -63.5 -155t-161.5 -61q-97 0 -159.5 61t-62.5 155t63 155t161 61t160.5 -61t62.5 -155zM74 499q0 -84 55.5 -138.5t142.5 -54.5q88 0 143 54t55 139q0 86 -55 140.5t-143 54.5q-87 0 -142.5 -54.5t-55.5 -140.5zM270 390h-97v18l25 3l7 14v156l-7 13
l-25 4v17h99q47 0 71 -15t24 -45q0 -23 -19 -38.5t-54 -21.5v-3q18 -4 28 -11.5t20 -26.5l22 -39l26 -8v-17h-59l-3 20l-25 44q-10 17 -21.5 23.5t-32.5 6.5h-11v-61l7 -13l25 -4v-16zM238 594v-89h15q34 0 55 13t21 36q0 20 -15 30t-46 10h-30z" />
    <glyph glyph-name="macron" unicode="&#xaf;" horiz-adv-x="500" 
d="M106 618zM394 618h-288v47h288v-47z" />
    <glyph glyph-name="degree" unicode="&#xb0;" horiz-adv-x="434" 
d="M386 541q0 -70 -49 -119t-120 -49t-120 49t-49 119q0 71 49 120t120 49t120 -49t49 -120zM98 541q0 -53 34 -89.5t85 -36.5t85 36.5t34 89.5q0 54 -33.5 90.5t-85.5 36.5t-85.5 -36.5t-33.5 -90.5z" />
    <glyph glyph-name="plusminus" unicode="&#xb1;" horiz-adv-x="540" 
d="M293 158h-46v192h-193v44h193v192h46v-192h193v-44h-193v-192zM484 0h-428v41h428v-41z" />
    <glyph glyph-name="two.sup" unicode="&#xb2;" horiz-adv-x="400" 
d="M59 447zM305 564h28v-117h-274v11q0 47 30 87t101 90q48 33 66.5 57.5t18.5 55.5q0 32 -23 51.5t-59 19.5q-24 0 -45 -9.5t-34 -24.5l19 -41q-2 -11 -12.5 -19t-22.5 -8q-14 0 -23.5 10t-9.5 26q0 39 41.5 69t96.5 30t89 -28.5t34 -75.5q0 -39 -22 -67.5t-82 -66.5
q-61 -40 -89.5 -70.5t-29.5 -57.5h151l39 8z" />
    <glyph glyph-name="three.sup" unicode="&#xb3;" horiz-adv-x="385" 
d="M50 439zM324 549q0 -49 -41.5 -79.5t-106.5 -30.5q-51 0 -88.5 21t-37.5 51q0 15 9.5 24.5t24.5 9.5q12 0 21.5 -8t11.5 -20l-14 -28q13 -10 31 -14.5t41 -4.5q44 0 70.5 21.5t26.5 57.5q0 41 -33 63.5t-94 22.5h-11v32h7q58 0 92 23.5t34 61.5q0 31 -23.5 50t-61.5 19
q-19 0 -38 -5t-31 -14l15 -29q-3 -12 -12.5 -19t-21.5 -7q-13 0 -21.5 8.5t-8.5 22.5q0 29 38 51.5t91 22.5q57 0 91.5 -26t34.5 -69q0 -37 -26 -62.5t-78 -39.5v-5q56 -11 82.5 -36t26.5 -65z" />
    <glyph glyph-name="acute" unicode="&#xb4;" horiz-adv-x="500" 
d="M203 582zM319 685l-94 -103l-22 14l61 131q11 23 21 32.5t25 9.5q14 0 25 -10t11 -25q0 -10 -6 -21t-21 -28z" />
    <glyph glyph-name="uni00B5" unicode="&#xb5;" horiz-adv-x="524" 
d="M186 -13q-36 0 -58 18t-33 56l-7 -2l20 -167l47 -8v-20q-9 -16 -23 -25t-31 -9q-23 0 -35.5 15.5t-12.5 43.5q0 10 0.5 22.5t3.5 40.5q4 53 5.5 89.5t1.5 74.5v389h62v-358q0 -48 20.5 -76.5t53.5 -28.5q20 0 40 9t37 26q40 40 65 87.5t25 86.5v254h63v-409
q0 -32 14.5 -44.5t64.5 -20.5v-26l-84 -11q-27 5 -40.5 24.5t-13.5 52.5q0 16 1.5 36.5t4.5 41.5l-8 2q-50 -89 -92 -126.5t-91 -37.5z" />
    <glyph glyph-name="paragraph" unicode="&#xb6;" horiz-adv-x="560" 
d="M326 0h-49v297q-122 4 -189.5 58t-67.5 149q0 90 73 140t203 50h247v-35l-78 -10l-18 -42v-607h-49v649h-72v-649z" />
    <glyph glyph-name="periodcentered" unicode="&#xb7;" horiz-adv-x="255" 
d="M187 277q0 -24 -17.5 -41.5t-41.5 -17.5q-25 0 -42.5 17t-17.5 42q0 24 17.5 41.5t42.5 17.5q24 0 41.5 -17.5t17.5 -41.5z" />
    <glyph glyph-name="cedilla" unicode="&#xb8;" horiz-adv-x="500" 
d="M142 0zM350 -139q0 -37 -31.5 -60t-78.5 -23q-28 0 -52.5 6t-45.5 18l12 27q19 -9 37 -13.5t36 -4.5q31 0 50 12.5t19 32.5q0 22 -21 34.5t-58 12.5h-20l-14 17l74 98h43l-63 -79q53 -1 83 -21.5t30 -56.5z" />
    <glyph glyph-name="one.sup" unicode="&#xb9;" horiz-adv-x="308" 
d="M46 447zM271 447h-218v25l77 6l11 25v268l-11 25l-84 -9v25l132 34l10 -8v-335l11 -25l72 -6v-25z" />
    <glyph glyph-name="ordmasculine" unicode="&#xba;" horiz-adv-x="428" 
d="M380 520q0 -80 -49 -134.5t-119 -54.5q-69 0 -116.5 53t-47.5 132q0 81 48.5 135t118.5 54t117.5 -52.5t47.5 -132.5zM107 524q0 -71 30 -113t79 -42q46 0 75.5 40t29.5 103q0 70 -30.5 112.5t-79.5 42.5q-46 0 -75 -40t-29 -103zM371 211h-314v39h314v-39z" />
    <glyph glyph-name="guillemotright" unicode="&#xbb;" horiz-adv-x="528" 
d="M274 247l-196 -223l-29 22l149 208l-149 208l29 21l196 -222v-14zM487 247l-196 -223l-29 22l149 208l-149 208l29 21l196 -222v-14z" />
    <glyph glyph-name="onequarter" unicode="&#xbc;" horiz-adv-x="901" 
d="M46 0zM46 297zM271 297h-218v25l77 6l11 25v268l-11 25l-84 -9v25l132 34l10 -8v-335l11 -25l72 -6v-25zM229 -18h-49l232 371l215 359h49l-228 -364zM840 0h-179v25l55 6l15 25v60h-200v28l184 255h59v-252h82v-31h-82v-60l13 -25l53 -6v-25zM571 150l4 -7l43 4h113v129
l4 83l-10 1l-21 -35l-110 -149z" />
    <glyph glyph-name="onehalf" unicode="&#xbd;" horiz-adv-x="905" 
d="M46 0zM46 297zM271 297h-218v25l77 6l11 25v268l-11 25l-84 -9v25l132 34l10 -8v-335l11 -25l72 -6v-25zM229 -18h-49l232 371l215 359h49l-228 -364zM809 117h28v-117h-274v11q0 47 30 87t101 90q48 33 66.5 57.5t18.5 55.5q0 32 -23 51.5t-59 19.5q-24 0 -45 -9.5
t-34 -24.5l19 -41q-2 -11 -12.5 -19t-22.5 -8q-14 0 -23.5 10t-9.5 26q0 39 41.5 69t96.5 30t89 -28.5t34 -75.5q0 -39 -22 -67.5t-82 -66.5q-61 -40 -89.5 -70.5t-29.5 -57.5h151l39 8z" />
    <glyph glyph-name="threequarters" unicode="&#xbe;" horiz-adv-x="933" 
d="M50 0zM50 289zM324 399q0 -49 -41.5 -79.5t-106.5 -30.5q-51 0 -88.5 21t-37.5 51q0 15 9.5 24.5t24.5 9.5q12 0 21.5 -8t11.5 -20l-14 -28q13 -10 31 -14.5t41 -4.5q44 0 70.5 21.5t26.5 57.5q0 41 -33 63.5t-94 22.5h-11v32h7q58 0 92 23.5t34 61.5q0 31 -23.5 50
t-61.5 19q-19 0 -38 -5t-31 -14l15 -29q-3 -12 -12.5 -19t-21.5 -7q-13 0 -21.5 8.5t-8.5 22.5q0 29 38 51.5t91 22.5q57 0 91.5 -26t34.5 -69q0 -37 -26 -62.5t-78 -39.5v-5q56 -11 82.5 -36t26.5 -65zM262 -18h-49l232 371l215 359h49l-228 -364zM873 0h-179v25l55 6
l15 25v60h-200v28l184 255h59v-252h82v-31h-82v-60l13 -25l53 -6v-25zM604 150l4 -7l43 4h113v129l4 83l-10 1l-21 -35l-110 -149z" />
    <glyph glyph-name="questiondown" unicode="&#xbf;" horiz-adv-x="492" 
d="M61 147q0 46 21.5 84.5t77.5 87.5q54 46 73 79t24 93h32q7 -64 -9.5 -107t-62.5 -88q-50 -49 -67 -78.5t-17 -65.5q0 -52 32.5 -84.5t85.5 -32.5q38 0 68 12t49 35l-33 67q8 16 22.5 25.5t31.5 9.5q21 0 34.5 -16t13.5 -42q0 -50 -59.5 -93.5t-135.5 -43.5
q-79 0 -130 44.5t-51 113.5zM213 653q0 24 17 41.5t41 17.5t41.5 -17.5t17.5 -41.5t-17.5 -41t-41.5 -17t-41 17t-17 41z" />
    <glyph glyph-name="Agrave" unicode="&#xc0;" horiz-adv-x="686" 
d="M16 0zM161 46l63 -11v-35h-208v35l64 17l226 648h80l216 -647l65 -18v-35h-223v35l63 10l16 31l-53 162h-270l-55 -163zM330 636l-25 -90l-89 -263h239l-87 263l-23 90h-15zM391 776l-19 -21l-114 73q-23 14 -33 26t-10 25q0 15 11.5 26.5t25.5 11.5q13 0 24.5 -8
t26.5 -26z" />
    <glyph glyph-name="Aacute" unicode="&#xc1;" horiz-adv-x="686" 
d="M16 0zM161 46l63 -11v-35h-208v35l64 17l226 648h80l216 -647l65 -18v-35h-223v35l63 10l16 31l-53 162h-270l-55 -163zM330 636l-25 -90l-89 -263h239l-87 263l-23 90h-15zM434 828l-114 -73l-19 21l88 107q15 18 26.5 26t24.5 8q14 0 25.5 -11.5t11.5 -26.5
q0 -13 -10 -25t-33 -26z" />
    <glyph glyph-name="Acircumflex" unicode="&#xc2;" horiz-adv-x="686" 
d="M16 0zM161 46l63 -11v-35h-208v35l64 17l226 648h80l216 -647l65 -18v-35h-223v35l63 10l16 31l-53 162h-270l-55 -163zM330 636l-25 -90l-89 -263h239l-87 263l-23 90h-15zM345 833l-117 -86l-22 23l124 132h32l124 -132l-22 -23z" />
    <glyph glyph-name="Atilde" unicode="&#xc3;" horiz-adv-x="686" 
d="M16 0zM161 46l63 -11v-35h-208v35l64 17l226 648h80l216 -647l65 -18v-35h-223v35l63 10l16 31l-53 162h-270l-55 -163zM330 636l-25 -90l-89 -263h239l-87 263l-23 90h-15zM275 822q-15 0 -28.5 -14.5t-24.5 -42.5l-30 10q16 59 37.5 84.5t51.5 25.5q14 0 32 -6.5
t54 -26.5q28 -16 40 -20.5t20 -4.5q16 0 29.5 14.5t23.5 42.5l30 -10q-15 -57 -36.5 -83t-51.5 -26q-14 0 -32 6.5t-53 25.5q-29 16 -41 20.5t-21 4.5z" />
    <glyph glyph-name="Adieresis" unicode="&#xc4;" horiz-adv-x="686" 
d="M16 0zM161 46l63 -11v-35h-208v35l64 17l226 648h80l216 -647l65 -18v-35h-223v35l63 10l16 31l-53 162h-270l-55 -163zM330 636l-25 -90l-89 -263h239l-87 263l-23 90h-15zM494 821q0 -22 -14.5 -37.5t-36.5 -15.5q-21 0 -36 15.5t-15 37.5t15 38t36 16q22 0 36.5 -15.5
t14.5 -38.5zM300 821q0 -22 -15 -37.5t-36 -15.5t-36 15.5t-15 37.5t15 38t36 16q22 0 36.5 -15.5t14.5 -38.5z" />
    <glyph glyph-name="Aring" unicode="&#xc5;" horiz-adv-x="686" 
d="M161 46l65 -11v-35h-210v35l64 17l217 623q-32 12 -51.5 37.5t-19.5 57.5q0 43 35.5 73.5t84.5 30.5t84 -30t35 -74q0 -31 -19.5 -56.5t-51.5 -38.5l208 -622l65 -18v-35h-226v35l66 10l16 31l-54 162h-269l-55 -163zM270 770q0 -30 21 -49t55 -19t55 19t21 49t-21 49
t-55 19t-55 -19t-21 -49zM330 635l-25 -90l-89 -262h239l-87 262l-23 90h-15z" />
    <glyph glyph-name="AE" unicode="&#xc6;" horiz-adv-x="988" 
d="M158 46l63 -11v-35h-215v35l65 17l316 557l-13 40l-84 10v35h621v-172h-40l-16 97l-38 30h-245v-271h128l60 14l8 82h36v-238h-36l-8 83l-60 14h-128v-288h261l39 30l15 108h40v-183h-502v35l63 10l17 42v151h-269l-93 -163zM465 650l-44 -87l-160 -280h244v367h-40z" />
    <glyph glyph-name="Ccedilla" unicode="&#xc7;" horiz-adv-x="623" 
d="M437 -139q0 -37 -31.5 -60t-78.5 -23q-28 0 -52.5 6t-45.5 18l12 27q19 -9 37 -13.5t36 -4.5q31 0 50 12.5t19 32.5q0 22 -21 34.5t-58 12.5h-20l-14 17l51 67q-119 10 -191.5 105.5t-72.5 249.5q0 153 83.5 259.5t209.5 106.5q39 0 71 -8.5t69 -29.5l24 35h26v-222h-39
l-32 144q-30 19 -56.5 27t-57.5 8q-99 0 -161 -88t-62 -224q0 -150 60 -234t165 -84q33 0 62 8t56 24l30 148h39v-164q-38 -28 -85 -44t-97 -18l-38 -47q53 -1 83 -21.5t30 -56.5z" />
    <glyph glyph-name="Egrave" unicode="&#xc8;" horiz-adv-x="614" 
d="M35 0zM554 0h-519v35l78 10l18 42v520l-18 42l-78 10v35h503v-172h-40l-16 97l-39 30h-245v-271h128l61 14l7 82h36v-238h-36l-7 83l-61 14h-128v-288h262l38 30l16 108h40v-183zM361 771l-19 -21l-114 73q-23 14 -33 26t-10 25q0 15 11.5 26.5t25.5 11.5q13 0 24.5 -8
t26.5 -26z" />
    <glyph glyph-name="Eacute" unicode="&#xc9;" horiz-adv-x="614" 
d="M35 0zM554 0h-519v35l78 10l18 42v520l-18 42l-78 10v35h503v-172h-40l-16 97l-39 30h-245v-271h128l61 14l7 82h36v-238h-36l-7 83l-61 14h-128v-288h262l38 30l16 108h40v-183zM404 823l-114 -73l-19 21l88 107q15 18 26.5 26t24.5 8q14 0 25.5 -11.5t11.5 -26.5
q0 -13 -10 -25t-33 -26z" />
    <glyph glyph-name="Ecircumflex" unicode="&#xca;" horiz-adv-x="614" 
d="M35 0zM554 0h-519v35l78 10l18 42v520l-18 42l-78 10v35h503v-172h-40l-16 97l-39 30h-245v-271h128l61 14l7 82h36v-238h-36l-7 83l-61 14h-128v-288h262l38 30l16 108h40v-183zM315 833l-117 -86l-22 23l124 132h32l124 -132l-22 -23z" />
    <glyph glyph-name="Edieresis" unicode="&#xcb;" horiz-adv-x="614" 
d="M35 0zM554 0h-519v35l78 10l18 42v520l-18 42l-78 10v35h503v-172h-40l-16 97l-39 30h-245v-271h128l61 14l7 82h36v-238h-36l-7 83l-61 14h-128v-288h262l38 30l16 108h40v-183zM464 816q0 -22 -14.5 -37.5t-36.5 -15.5q-21 0 -36 15.5t-15 37.5t15 38t36 16
q22 0 36.5 -15.5t14.5 -38.5zM270 816q0 -22 -15 -37.5t-36 -15.5t-36 15.5t-15 37.5t15 38t36 16q22 0 36.5 -15.5t14.5 -38.5z" />
    <glyph glyph-name="Igrave" unicode="&#xcc;" horiz-adv-x="342" 
d="M37 0zM304 0h-267v35l82 10l18 42v520l-18 42l-82 10v35h267v-35l-82 -10l-18 -42v-520l18 -42l82 -10v-35zM216 771l-19 -21l-114 73q-23 14 -33 26t-10 25q0 15 11.5 26.5t25.5 11.5q13 0 24.5 -8t26.5 -26z" />
    <glyph glyph-name="Iacute" unicode="&#xcd;" horiz-adv-x="342" 
d="M37 0zM304 0h-267v35l82 10l18 42v520l-18 42l-82 10v35h267v-35l-82 -10l-18 -42v-520l18 -42l82 -10v-35zM259 823l-114 -73l-19 21l88 107q15 18 26.5 26t24.5 8q14 0 25.5 -11.5t11.5 -26.5q0 -13 -10 -25t-33 -26z" />
    <glyph glyph-name="Icircumflex" unicode="&#xce;" horiz-adv-x="342" 
d="M31 0zM304 0h-267v35l82 10l18 42v520l-18 42l-82 10v35h267v-35l-82 -10l-18 -42v-520l18 -42l82 -10v-35zM170 833l-117 -86l-22 23l124 132h32l124 -132l-22 -23z" />
    <glyph glyph-name="Idieresis" unicode="&#xcf;" horiz-adv-x="342" 
d="M23 0zM304 0h-267v35l82 10l18 42v520l-18 42l-82 10v35h267v-35l-82 -10l-18 -42v-520l18 -42l82 -10v-35zM319 816q0 -22 -14.5 -37.5t-36.5 -15.5q-21 0 -36 15.5t-15 37.5t15 38t36 16q22 0 36.5 -15.5t14.5 -38.5zM125 816q0 -22 -15 -37.5t-36 -15.5t-36 15.5
t-15 37.5t15 38t36 16q22 0 36.5 -15.5t14.5 -38.5z" />
    <glyph glyph-name="Eth" unicode="&#xd0;" horiz-adv-x="669" 
d="M612 356q0 -168 -90.5 -262t-249.5 -94h-237v35l78 10l18 42v245h-92v45h92v230l-18 42l-78 10v35h240q158 0 247.5 -88.5t89.5 -249.5zM198 332v-287h70q134 0 202 77t68 228q0 146 -69.5 222.5t-201.5 76.5h-69v-272h159v-45h-159z" />
    <glyph glyph-name="Ntilde" unicode="&#xd1;" horiz-adv-x="722" 
d="M35 0zM279 0h-244v35l78 10l18 42v520l-18 42l-78 10v35h189l264 -484l49 -110h13l-3 112v396l-18 42l-77 10v34h242v-35l-77 -10l-18 -42v-609h-72l-284 520l-50 108h-12l3 -111v-429l18 -42l77 -10v-34zM294 817q-15 0 -28.5 -14.5t-24.5 -42.5l-30 10q16 59 37.5 84.5
t51.5 25.5q14 0 32 -6.5t54 -26.5q28 -16 40 -20.5t20 -4.5q16 0 29.5 14.5t23.5 42.5l30 -10q-15 -57 -36.5 -83t-51.5 -26q-14 0 -32 6.5t-53 25.5q-29 16 -41 20.5t-21 4.5z" />
    <glyph glyph-name="Ograve" unicode="&#xd2;" horiz-adv-x="679" 
d="M57 0zM623 351q0 -164 -80 -265.5t-206 -101.5q-122 0 -201 100t-79 260q0 164 79.5 265t206.5 101q121 0 200.5 -100t79.5 -259zM132 351q0 -146 57 -233.5t150 -87.5t151 86t58 227q0 146 -57 233.5t-150 87.5t-151 -86t-58 -227zM388 776l-19 -21l-114 73
q-23 14 -33 26t-10 25q0 15 11.5 26.5t25.5 11.5q13 0 24.5 -8t26.5 -26z" />
    <glyph glyph-name="Oacute" unicode="&#xd3;" horiz-adv-x="679" 
d="M57 0zM623 351q0 -164 -80 -265.5t-206 -101.5q-122 0 -201 100t-79 260q0 164 79.5 265t206.5 101q121 0 200.5 -100t79.5 -259zM132 351q0 -146 57 -233.5t150 -87.5t151 86t58 227q0 146 -57 233.5t-150 87.5t-151 -86t-58 -227zM431 828l-114 -73l-19 21l88 107
q15 18 26.5 26t24.5 8q14 0 25.5 -11.5t11.5 -26.5q0 -13 -10 -25t-33 -26z" />
    <glyph glyph-name="Ocircumflex" unicode="&#xd4;" horiz-adv-x="679" 
d="M57 0zM623 351q0 -164 -80 -265.5t-206 -101.5q-122 0 -201 100t-79 260q0 164 79.5 265t206.5 101q121 0 200.5 -100t79.5 -259zM132 351q0 -146 57 -233.5t150 -87.5t151 86t58 227q0 146 -57 233.5t-150 87.5t-151 -86t-58 -227zM342 838l-117 -86l-22 23l124 132h32
l124 -132l-22 -23z" />
    <glyph glyph-name="Otilde" unicode="&#xd5;" horiz-adv-x="679" 
d="M57 0zM623 351q0 -164 -80 -265.5t-206 -101.5q-122 0 -201 100t-79 260q0 164 79.5 265t206.5 101q121 0 200.5 -100t79.5 -259zM132 351q0 -146 57 -233.5t150 -87.5t151 86t58 227q0 146 -57 233.5t-150 87.5t-151 -86t-58 -227zM272 822q-15 0 -28.5 -14.5
t-24.5 -42.5l-30 10q16 59 37.5 84.5t51.5 25.5q14 0 32 -6.5t54 -26.5q28 -16 40 -20.5t20 -4.5q16 0 29.5 14.5t23.5 42.5l30 -10q-15 -57 -36.5 -83t-51.5 -26q-14 0 -32 6.5t-53 25.5q-29 16 -41 20.5t-21 4.5z" />
    <glyph glyph-name="Odieresis" unicode="&#xd6;" horiz-adv-x="679" 
d="M57 0zM623 351q0 -164 -80 -265.5t-206 -101.5q-122 0 -201 100t-79 260q0 164 79.5 265t206.5 101q121 0 200.5 -100t79.5 -259zM132 351q0 -146 57 -233.5t150 -87.5t151 86t58 227q0 146 -57 233.5t-150 87.5t-151 -86t-58 -227zM491 821q0 -22 -14.5 -37.5
t-36.5 -15.5q-21 0 -36 15.5t-15 37.5t15 38t36 16q22 0 36.5 -15.5t14.5 -38.5zM297 821q0 -22 -15 -37.5t-36 -15.5t-36 15.5t-15 37.5t15 38t36 16q22 0 36.5 -15.5t14.5 -38.5z" />
    <glyph glyph-name="multiply" unicode="&#xd7;" horiz-adv-x="540" 
d="M269 316l-146 -149l-31 32l148 146l-149 148l33 33l147 -150l146 149l31 -32l-148 -146l149 -148l-33 -33z" />
    <glyph glyph-name="Oslash" unicode="&#xd8;" horiz-adv-x="679" 
d="M623 351q0 -164 -80 -265.5t-206 -101.5q-49 0 -94 18t-81 53l-51 -71h-63l80 110q-35 48 -53 112t-18 138q0 164 79.5 265t206.5 101q48 0 92 -17.5t80 -51.5l50 69h63l-79 -107q36 -49 55 -113t19 -139zM341 665q-94 0 -152 -86t-58 -228q0 -59 10 -111t30 -94l310 446
q-27 36 -63 54.5t-77 18.5zM339 29q93 0 151.5 86.5t58.5 227.5q0 62 -10.5 114t-31.5 93l-311 -445q28 -37 64.5 -56.5t78.5 -19.5z" />
    <glyph glyph-name="Ugrave" unicode="&#xd9;" horiz-adv-x="681" 
d="M23 0zM339 -14q-104 0 -163 57.5t-59 160.5v403l-18 42l-76 10v35h249v-34l-71 -10l-17 -42v-401q0 -81 42.5 -126t118.5 -45q79 0 122 45t43 128v399l-18 42l-70 10v34h235v-35l-75 -10l-18 -42v-405q0 -99 -61 -157.5t-164 -58.5zM394 771l-19 -21l-114 73
q-23 14 -33 26t-10 25q0 15 11.5 26.5t25.5 11.5q13 0 24.5 -8t26.5 -26z" />
    <glyph glyph-name="Uacute" unicode="&#xda;" horiz-adv-x="681" 
d="M23 0zM339 -14q-104 0 -163 57.5t-59 160.5v403l-18 42l-76 10v35h249v-34l-71 -10l-17 -42v-401q0 -81 42.5 -126t118.5 -45q79 0 122 45t43 128v399l-18 42l-70 10v34h235v-35l-75 -10l-18 -42v-405q0 -99 -61 -157.5t-164 -58.5zM437 823l-114 -73l-19 21l88 107
q15 18 26.5 26t24.5 8q14 0 25.5 -11.5t11.5 -26.5q0 -13 -10 -25t-33 -26z" />
    <glyph glyph-name="Ucircumflex" unicode="&#xdb;" horiz-adv-x="681" 
d="M23 0zM339 -14q-104 0 -163 57.5t-59 160.5v403l-18 42l-76 10v35h249v-34l-71 -10l-17 -42v-401q0 -81 42.5 -126t118.5 -45q79 0 122 45t43 128v399l-18 42l-70 10v34h235v-35l-75 -10l-18 -42v-405q0 -99 -61 -157.5t-164 -58.5zM348 833l-117 -86l-22 23l124 132h32
l124 -132l-22 -23z" />
    <glyph glyph-name="Udieresis" unicode="&#xdc;" horiz-adv-x="681" 
d="M23 0zM339 -14q-104 0 -163 57.5t-59 160.5v403l-18 42l-76 10v35h249v-34l-71 -10l-17 -42v-401q0 -81 42.5 -126t118.5 -45q79 0 122 45t43 128v399l-18 42l-70 10v34h235v-35l-75 -10l-18 -42v-405q0 -99 -61 -157.5t-164 -58.5zM497 816q0 -22 -14.5 -37.5
t-36.5 -15.5q-21 0 -36 15.5t-15 37.5t15 38t36 16q22 0 36.5 -15.5t14.5 -38.5zM303 816q0 -22 -15 -37.5t-36 -15.5t-36 15.5t-15 37.5t15 38t36 16q22 0 36.5 -15.5t14.5 -38.5z" />
    <glyph glyph-name="Yacute" unicode="&#xdd;" horiz-adv-x="641" 
d="M11 0zM455 0h-274v35l85 10l18 42v202l-206 354l-67 16v35h226v-34l-57 -11l-12 -29l118 -207l33 -73h14l36 74l114 198l-12 36l-57 12v34h212v-35l-64 -16l-211 -352v-204l18 -42l86 -10v-35zM421 823l-114 -73l-19 21l88 107q15 18 26.5 26t24.5 8q14 0 25.5 -11.5
t11.5 -26.5q0 -13 -10 -25t-33 -26z" />
    <glyph glyph-name="Thorn" unicode="&#xde;" horiz-adv-x="595" 
d="M198 150v-65l17 -40l82 -10v-35h-262v35l78 10l18 42v520l-18 42l-78 10v35h262v-35l-82 -10l-17 -40v-60h107q118 0 185 -49.5t67 -138.5q0 -99 -74 -155t-197 -56h-88zM198 504v-309h79q101 0 153.5 41.5t52.5 120.5q0 71 -48 109t-137 38h-100z" />
    <glyph glyph-name="germandbls" unicode="&#xdf;" horiz-adv-x="589" 
d="M542 189q0 -90 -55.5 -143.5t-139.5 -53.5q-21 0 -42 3.5t-38 9.5v129h37l23 -99q5 -1 11 -2t12 -1q55 0 90 39t35 107q0 83 -47.5 131.5t-144.5 63.5v34q65 22 104 70t39 110q0 57 -31 89.5t-84 32.5q-60 0 -94.5 -47.5t-34.5 -134.5v-527h-148v32l67 7l18 42v378h-86
v38l86 11v15q0 108 53 168t143 60q79 0 129 -44.5t50 -116.5q0 -60 -38.5 -110.5t-102.5 -77.5v-10q84 -13 136.5 -67.5t52.5 -135.5z" />
    <glyph glyph-name="agrave" unicode="&#xe0;" horiz-adv-x="516" 
d="M50 0zM358 104h-7q-48 -65 -87 -90t-86 -25q-57 0 -92.5 37.5t-35.5 98.5q0 31 10 55.5t31 45.5q29 29 75 43t110 14h78v77q0 55 -27 84t-78 29q-28 0 -53 -6.5t-53 -20.5l23 -61q-9 -13 -21.5 -19.5t-27.5 -6.5q-19 0 -31 14t-12 36q0 21 16 39.5t48 34.5
q37 18 70.5 26.5t66.5 8.5q65 0 103.5 -39.5t38.5 -109.5v-274q0 -34 14 -46t62 -20v-27l-70 -11q-36 13 -50.5 32.5t-14.5 54.5v26zM354 226v20h-74q-82 0 -124.5 -29.5t-42.5 -86.5q0 -41 23.5 -66.5t62.5 -25.5q27 0 52 13t56 44q26 26 36.5 54.5t10.5 76.5zM302 601
l-22 -14l-94 103q-15 17 -21 28t-6 21q0 14 11.5 24.5t25.5 10.5t24.5 -9.5t20.5 -32.5z" />
    <glyph glyph-name="aacute" unicode="&#xe1;" horiz-adv-x="516" 
d="M50 0zM358 104h-7q-48 -65 -87 -90t-86 -25q-57 0 -92.5 37.5t-35.5 98.5q0 31 10 55.5t31 45.5q29 29 75 43t110 14h78v77q0 55 -27 84t-78 29q-28 0 -53 -6.5t-53 -20.5l23 -61q-9 -13 -21.5 -19.5t-27.5 -6.5q-19 0 -31 14t-12 36q0 21 16 39.5t48 34.5
q37 18 70.5 26.5t66.5 8.5q65 0 103.5 -39.5t38.5 -109.5v-274q0 -34 14 -46t62 -20v-27l-70 -11q-36 13 -50.5 32.5t-14.5 54.5v26zM354 226v20h-74q-82 0 -124.5 -29.5t-42.5 -86.5q0 -41 23.5 -66.5t62.5 -25.5q27 0 52 13t56 44q26 26 36.5 54.5t10.5 76.5zM336 690
l-94 -103l-22 14l61 131q11 23 21 32.5t25 9.5q14 0 25 -10t11 -25q0 -10 -6 -21t-21 -28z" />
    <glyph glyph-name="acircumflex" unicode="&#xe2;" horiz-adv-x="516" 
d="M50 0zM358 104h-7q-48 -65 -87 -90t-86 -25q-57 0 -92.5 37.5t-35.5 98.5q0 31 10 55.5t31 45.5q29 29 75 43t110 14h78v77q0 55 -27 84t-78 29q-28 0 -53 -6.5t-53 -20.5l23 -61q-9 -13 -21.5 -19.5t-27.5 -6.5q-19 0 -31 14t-12 36q0 21 16 39.5t48 34.5
q37 18 70.5 26.5t66.5 8.5q65 0 103.5 -39.5t38.5 -109.5v-274q0 -34 14 -46t62 -20v-27l-70 -11q-36 13 -50.5 32.5t-14.5 54.5v26zM354 226v20h-74q-82 0 -124.5 -29.5t-42.5 -86.5q0 -41 23.5 -66.5t62.5 -25.5q27 0 52 13t56 44q26 26 36.5 54.5t10.5 76.5zM260 683
l-103 -93l-22 20l113 150h26l113 -150l-22 -20z" />
    <glyph glyph-name="atilde" unicode="&#xe3;" horiz-adv-x="516" 
d="M50 0zM358 104h-7q-48 -65 -87 -90t-86 -25q-57 0 -92.5 37.5t-35.5 98.5q0 31 10 55.5t31 45.5q29 29 75 43t110 14h78v77q0 55 -27 84t-78 29q-28 0 -53 -6.5t-53 -20.5l23 -61q-9 -13 -21.5 -19.5t-27.5 -6.5q-19 0 -31 14t-12 36q0 21 16 39.5t48 34.5
q37 18 70.5 26.5t66.5 8.5q65 0 103.5 -39.5t38.5 -109.5v-274q0 -34 14 -46t62 -20v-27l-70 -11q-36 13 -50.5 32.5t-14.5 54.5v26zM354 226v20h-74q-82 0 -124.5 -29.5t-42.5 -86.5q0 -41 23.5 -66.5t62.5 -25.5q27 0 52 13t56 44q26 26 36.5 54.5t10.5 76.5zM194 664
q-15 0 -28 -17t-26 -52l-28 10q17 64 38 91.5t52 27.5q13 0 30 -7t50 -30q25 -17 36 -22t19 -5q15 0 28.5 17t26.5 51l28 -9q-18 -66 -39 -93t-52 -27q-13 0 -29 7t-49 29q-26 18 -37.5 23.5t-19.5 5.5z" />
    <glyph glyph-name="adieresis" unicode="&#xe4;" horiz-adv-x="516" 
d="M50 0zM358 104h-7q-48 -65 -87 -90t-86 -25q-57 0 -92.5 37.5t-35.5 98.5q0 31 10 55.5t31 45.5q29 29 75 43t110 14h78v77q0 55 -27 84t-78 29q-28 0 -53 -6.5t-53 -20.5l23 -61q-9 -13 -21.5 -19.5t-27.5 -6.5q-19 0 -31 14t-12 36q0 21 16 39.5t48 34.5
q37 18 70.5 26.5t66.5 8.5q65 0 103.5 -39.5t38.5 -109.5v-274q0 -34 14 -46t62 -20v-27l-70 -11q-36 13 -50.5 32.5t-14.5 54.5v26zM354 226v20h-74q-82 0 -124.5 -29.5t-42.5 -86.5q0 -41 23.5 -66.5t62.5 -25.5q27 0 52 13t56 44q26 26 36.5 54.5t10.5 76.5zM399 652
q0 -21 -13.5 -35.5t-33.5 -14.5q-22 0 -35.5 14t-13.5 36t13.5 36.5t35.5 14.5q20 0 33.5 -14.5t13.5 -36.5zM219 652q0 -22 -13.5 -36t-33.5 -14q-21 0 -35 14.5t-14 35.5q0 22 14 36.5t35 14.5t34 -14.5t13 -36.5z" />
    <glyph glyph-name="aring" unicode="&#xe5;" horiz-adv-x="516" 
d="M50 0zM358 104h-7q-48 -65 -87 -90t-86 -25q-57 0 -92.5 37.5t-35.5 98.5q0 31 10 55.5t31 45.5q29 29 75 43t110 14h78v77q0 55 -27 84t-78 29q-28 0 -53 -6.5t-53 -20.5l23 -61q-9 -13 -21.5 -19.5t-27.5 -6.5q-19 0 -31 14t-12 36q0 21 16 39.5t48 34.5
q37 18 70.5 26.5t66.5 8.5q65 0 103.5 -39.5t38.5 -109.5v-274q0 -34 14 -46t62 -20v-27l-70 -11q-36 13 -50.5 32.5t-14.5 54.5v26zM354 226v20h-74q-82 0 -124.5 -29.5t-42.5 -86.5q0 -41 23.5 -66.5t62.5 -25.5q27 0 52 13t56 44q26 26 36.5 54.5t10.5 76.5zM374 704
q0 -46 -32.5 -77.5t-80.5 -31.5t-80.5 31.5t-32.5 77.5q0 45 33 77t80 32t80 -32t33 -77zM191 704q0 -32 19.5 -52.5t50.5 -20.5t50.5 20.5t19.5 52.5q0 31 -19.5 51.5t-50.5 20.5t-50.5 -20.5t-19.5 -51.5z" />
    <glyph glyph-name="ae" unicode="&#xe6;" horiz-adv-x="806" 
d="M718 80l22 -31q-37 -31 -79 -47t-87 -16q-60 0 -106.5 27t-74.5 77q-56 -56 -104 -80t-99 -24q-62 0 -101 39t-39 103q0 32 10 56.5t31 45.5q29 29 76.5 43.5t112.5 14.5h76v72q0 56 -28 85.5t-79 29.5q-26 0 -51.5 -6.5t-54.5 -20.5l23 -61q-8 -13 -20.5 -19.5
t-28.5 -6.5q-19 0 -31 13.5t-12 35.5q0 21 16 40t48 35q36 17 69.5 25.5t67.5 8.5q51 0 85 -25t46 -72q27 46 70.5 71.5t94.5 25.5q82 0 132 -65t50 -174v-30h-332q3 -102 48 -158.5t122 -56.5q32 0 62.5 10.5t64.5 34.5zM563 477q-59 0 -98.5 -53t-43.5 -134h268
q-4 90 -37 138.5t-89 48.5zM113 134q0 -43 26 -71t66 -28q45 0 87 22.5t84 68.5q-10 28 -15 59t-5 66h-72q-84 0 -127.5 -29.5t-43.5 -87.5z" />
    <glyph glyph-name="ccedilla" unicode="&#xe7;" horiz-adv-x="478" 
d="M353 -139q0 -37 -31.5 -60t-78.5 -23q-28 0 -52.5 6t-45.5 18l12 27q19 -9 37 -13.5t36 -4.5q31 0 50 12.5t19 32.5q0 22 -21 34.5t-58 12.5h-20l-14 17l51 68q-84 10 -136 79t-52 174q0 121 66 200.5t162 79.5q64 0 107 -31t43 -77q0 -25 -14.5 -41t-36.5 -16
q-17 0 -28.5 10.5t-14.5 26.5l26 54q-15 15 -36 22.5t-46 7.5q-69 0 -114 -61.5t-45 -156.5q0 -103 45.5 -163t119.5 -60q31 0 61 12t63 37l21 -33q-34 -30 -71.5 -46.5t-78.5 -19.5l-38 -47q53 -1 83 -21.5t30 -56.5z" />
    <glyph glyph-name="egrave" unicode="&#xe8;" horiz-adv-x="501" 
d="M49 0zM414 80l21 -31q-38 -32 -79 -47.5t-87 -15.5q-100 0 -160 72.5t-60 190.5t62.5 195t154.5 77q82 0 132 -65.5t50 -175.5v-30h-332q3 -102 48 -158.5t122 -56.5q32 0 63 11t65 34zM258 479q-59 0 -98.5 -53.5t-43.5 -135.5h268q-4 90 -37 139.5t-89 49.5zM303 601
l-22 -14l-94 103q-15 17 -21 28t-6 21q0 14 11.5 24.5t25.5 10.5t24.5 -9.5t20.5 -32.5z" />
    <glyph glyph-name="eacute" unicode="&#xe9;" horiz-adv-x="501" 
d="M49 0zM414 80l21 -31q-38 -32 -79 -47.5t-87 -15.5q-100 0 -160 72.5t-60 190.5t62.5 195t154.5 77q82 0 132 -65.5t50 -175.5v-30h-332q3 -102 48 -158.5t122 -56.5q32 0 63 11t65 34zM258 479q-59 0 -98.5 -53.5t-43.5 -135.5h268q-4 90 -37 139.5t-89 49.5zM337 690
l-94 -103l-22 14l61 131q11 23 21 32.5t25 9.5q14 0 25 -10t11 -25q0 -10 -6 -21t-21 -28z" />
    <glyph glyph-name="ecircumflex" unicode="&#xea;" horiz-adv-x="501" 
d="M49 0zM414 80l21 -31q-38 -32 -79 -47.5t-87 -15.5q-100 0 -160 72.5t-60 190.5t62.5 195t154.5 77q82 0 132 -65.5t50 -175.5v-30h-332q3 -102 48 -158.5t122 -56.5q32 0 63 11t65 34zM258 479q-59 0 -98.5 -53.5t-43.5 -135.5h268q-4 90 -37 139.5t-89 49.5zM261 683
l-103 -93l-22 20l113 150h26l113 -150l-22 -20z" />
    <glyph glyph-name="edieresis" unicode="&#xeb;" horiz-adv-x="501" 
d="M49 0zM414 80l21 -31q-38 -32 -79 -47.5t-87 -15.5q-100 0 -160 72.5t-60 190.5t62.5 195t154.5 77q82 0 132 -65.5t50 -175.5v-30h-332q3 -102 48 -158.5t122 -56.5q32 0 63 11t65 34zM258 479q-59 0 -98.5 -53.5t-43.5 -135.5h268q-4 90 -37 139.5t-89 49.5zM400 652
q0 -21 -13.5 -35.5t-33.5 -14.5q-22 0 -35.5 14t-13.5 36t13.5 36.5t35.5 14.5q20 0 33.5 -14.5t13.5 -36.5zM220 652q0 -22 -13.5 -36t-33.5 -14q-21 0 -35 14.5t-14 35.5q0 22 14 36.5t35 14.5t34 -14.5t13 -36.5z" />
    <glyph glyph-name="igrave" unicode="&#xec;" horiz-adv-x="299" 
d="M37 0zM270 0h-233v32l66 7l19 42v344l-19 41l-66 7v32h148v-424l20 -42l65 -7v-32zM187 596l-22 -14l-94 103q-15 17 -21 28t-6 21q0 14 11.5 24.5t25.5 10.5t24.5 -9.5t20.5 -32.5z" />
    <glyph glyph-name="iacute" unicode="&#xed;" horiz-adv-x="299" 
d="M37 0zM270 0h-233v32l66 7l19 42v344l-19 41l-66 7v32h148v-424l20 -42l65 -7v-32zM221 685l-94 -103l-22 14l61 131q11 23 21 32.5t25 9.5q14 0 25 -10t11 -25q0 -10 -6 -21t-21 -28z" />
    <glyph glyph-name="icircumflex" unicode="&#xee;" horiz-adv-x="299" 
d="M20 0zM270 0h-233v32l66 7l19 42v344l-19 41l-66 7v32h148v-424l20 -42l65 -7v-32zM145 678l-103 -93l-22 20l113 150h26l113 -150l-22 -20z" />
    <glyph glyph-name="idieresis" unicode="&#xef;" horiz-adv-x="299" 
d="M8 0zM270 0h-233v32l66 7l19 42v344l-19 41l-66 7v32h148v-424l20 -42l65 -7v-32zM284 647q0 -21 -13.5 -35.5t-33.5 -14.5q-22 0 -35.5 14t-13.5 36t13.5 36.5t35.5 14.5q20 0 33.5 -14.5t13.5 -36.5zM104 647q0 -22 -13.5 -36t-33.5 -14q-21 0 -35 14.5t-14 35.5
q0 22 14 36.5t35 14.5t34 -14.5t13 -36.5z" />
    <glyph glyph-name="eth" unicode="&#xf0;" horiz-adv-x="538" 
d="M354 640q67 -67 100.5 -154t33.5 -194q0 -139 -63 -223.5t-161 -84.5q-91 0 -154.5 73.5t-63.5 182.5q0 110 60.5 185.5t144.5 75.5q46 0 89 -27.5t72 -77.5l4 1q-8 58 -37 116t-73 102q-10 10 -15 14.5t-10 8.5l-105 -72l-24 33l94 66q-23 16 -48.5 29t-51.5 24l16 36
q34 -12 65.5 -27.5t59.5 -33.5l93 65l25 -34l-82 -57q7 -5 15 -12t16 -15zM114 250q0 -95 44 -159t111 -64q65 0 106.5 61t41.5 156q0 87 -47.5 150t-113.5 63q-61 0 -101.5 -60t-40.5 -147z" />
    <glyph glyph-name="ntilde" unicode="&#xf1;" horiz-adv-x="586" 
d="M34 0zM250 0h-216v32l66 7l19 42v344l-19 41l-66 7v32h148v-44l-8 -104l6 -3q53 91 95.5 128t92.5 37q56 0 87.5 -37.5t31.5 -104.5v-296l19 -42l63 -7v-32h-208v31l48 9l15 38v288q0 48 -19 73t-56 25q-20 0 -40 -9.5t-38 -26.5q-39 -40 -64 -87t-25 -84v-179l17 -39
l51 -8v-31zM229 664q-15 0 -28 -17t-26 -52l-28 10q17 64 38 91.5t52 27.5q13 0 30 -7t50 -30q25 -17 36 -22t19 -5q15 0 28.5 17t26.5 51l28 -9q-18 -66 -39 -93t-52 -27q-13 0 -29 7t-49 29q-26 18 -37.5 23.5t-19.5 5.5z" />
    <glyph glyph-name="ograve" unicode="&#xf2;" horiz-adv-x="539" 
d="M48 0zM491 256q0 -117 -64 -194.5t-160 -77.5q-95 0 -157 75t-62 191q0 118 64 194.5t160 76.5q95 0 157 -74t62 -191zM117 262q0 -106 43 -170.5t113 -64.5q65 0 107 61.5t42 154.5q0 105 -43 170t-113 65q-66 0 -107.5 -61.5t-41.5 -154.5zM312 601l-22 -14l-94 103
q-15 17 -21 28t-6 21q0 14 11.5 24.5t25.5 10.5t24.5 -9.5t20.5 -32.5z" />
    <glyph glyph-name="oacute" unicode="&#xf3;" horiz-adv-x="539" 
d="M48 0zM491 256q0 -117 -64 -194.5t-160 -77.5q-95 0 -157 75t-62 191q0 118 64 194.5t160 76.5q95 0 157 -74t62 -191zM117 262q0 -106 43 -170.5t113 -64.5q65 0 107 61.5t42 154.5q0 105 -43 170t-113 65q-66 0 -107.5 -61.5t-41.5 -154.5zM346 690l-94 -103l-22 14
l61 131q11 23 21 32.5t25 9.5q14 0 25 -10t11 -25q0 -10 -6 -21t-21 -28z" />
    <glyph glyph-name="ocircumflex" unicode="&#xf4;" horiz-adv-x="539" 
d="M48 0zM491 256q0 -117 -64 -194.5t-160 -77.5q-95 0 -157 75t-62 191q0 118 64 194.5t160 76.5q95 0 157 -74t62 -191zM117 262q0 -106 43 -170.5t113 -64.5q65 0 107 61.5t42 154.5q0 105 -43 170t-113 65q-66 0 -107.5 -61.5t-41.5 -154.5zM270 683l-103 -93l-22 20
l113 150h26l113 -150l-22 -20z" />
    <glyph glyph-name="otilde" unicode="&#xf5;" horiz-adv-x="539" 
d="M48 0zM491 256q0 -117 -64 -194.5t-160 -77.5q-95 0 -157 75t-62 191q0 118 64 194.5t160 76.5q95 0 157 -74t62 -191zM117 262q0 -106 43 -170.5t113 -64.5q65 0 107 61.5t42 154.5q0 105 -43 170t-113 65q-66 0 -107.5 -61.5t-41.5 -154.5zM204 664q-15 0 -28 -17
t-26 -52l-28 10q17 64 38 91.5t52 27.5q13 0 30 -7t50 -30q25 -17 36 -22t19 -5q15 0 28.5 17t26.5 51l28 -9q-18 -66 -39 -93t-52 -27q-13 0 -29 7t-49 29q-26 18 -37.5 23.5t-19.5 5.5z" />
    <glyph glyph-name="odieresis" unicode="&#xf6;" horiz-adv-x="539" 
d="M48 0zM491 256q0 -117 -64 -194.5t-160 -77.5q-95 0 -157 75t-62 191q0 118 64 194.5t160 76.5q95 0 157 -74t62 -191zM117 262q0 -106 43 -170.5t113 -64.5q65 0 107 61.5t42 154.5q0 105 -43 170t-113 65q-66 0 -107.5 -61.5t-41.5 -154.5zM409 652q0 -21 -13.5 -35.5
t-33.5 -14.5q-22 0 -35.5 14t-13.5 36t13.5 36.5t35.5 14.5q20 0 33.5 -14.5t13.5 -36.5zM229 652q0 -22 -13.5 -36t-33.5 -14q-21 0 -35 14.5t-14 35.5q0 22 14 36.5t35 14.5t34 -14.5t13 -36.5z" />
    <glyph glyph-name="divide" unicode="&#xf7;" horiz-adv-x="540" 
d="M323 515q0 -22 -15.5 -37.5t-37.5 -15.5t-37.5 15.5t-15.5 37.5q0 21 16 37t37 16t37 -16t16 -37zM486 324h-432v44h432v-44zM323 177q0 -21 -16 -37t-37 -16t-37 16t-16 37t16 37t37 16t37 -16t16 -37z" />
    <glyph glyph-name="oslash" unicode="&#xf8;" horiz-adv-x="539" 
d="M491 256q0 -117 -64 -194.5t-160 -77.5q-41 0 -77 15t-65 44l-49 -59h-54l75 92q-24 35 -36.5 79.5t-12.5 94.5q0 117 64 194t160 77q40 0 76.5 -15t65.5 -43l47 58h54l-74 -90q24 -35 37 -80t13 -95zM266 478q-66 0 -108 -61t-42 -155q0 -39 6.5 -74t18.5 -63l235 293
q-21 29 -49 44.5t-61 15.5zM273 27q65 0 107.5 61.5t42.5 154.5q0 40 -6.5 75t-19.5 64l-236 -294q22 -30 50 -45.5t62 -15.5z" />
    <glyph glyph-name="ugrave" unicode="&#xf9;" horiz-adv-x="578" 
d="M17 0zM218 -14q-56 0 -87.5 38t-31.5 106v295l-19 41l-63 7v32h145v-365q0 -49 19 -74t56 -25q20 0 40 9.5t38 27.5q39 39 64.5 86t25.5 84v179l-18 40l-72 7v31h152v-424l19 -42l67 -7v-32h-148v44l7 105l-6 2q-53 -91 -95.5 -128t-92.5 -37zM307 596l-22 -14l-94 103
q-15 17 -21 28t-6 21q0 14 11.5 24.5t25.5 10.5t24.5 -9.5t20.5 -32.5z" />
    <glyph glyph-name="uacute" unicode="&#xfa;" horiz-adv-x="578" 
d="M17 0zM218 -14q-56 0 -87.5 38t-31.5 106v295l-19 41l-63 7v32h145v-365q0 -49 19 -74t56 -25q20 0 40 9.5t38 27.5q39 39 64.5 86t25.5 84v179l-18 40l-72 7v31h152v-424l19 -42l67 -7v-32h-148v44l7 105l-6 2q-53 -91 -95.5 -128t-92.5 -37zM341 685l-94 -103l-22 14
l61 131q11 23 21 32.5t25 9.5q14 0 25 -10t11 -25q0 -10 -6 -21t-21 -28z" />
    <glyph glyph-name="ucircumflex" unicode="&#xfb;" horiz-adv-x="578" 
d="M17 0zM218 -14q-56 0 -87.5 38t-31.5 106v295l-19 41l-63 7v32h145v-365q0 -49 19 -74t56 -25q20 0 40 9.5t38 27.5q39 39 64.5 86t25.5 84v179l-18 40l-72 7v31h152v-424l19 -42l67 -7v-32h-148v44l7 105l-6 2q-53 -91 -95.5 -128t-92.5 -37zM265 678l-103 -93l-22 20
l113 150h26l113 -150l-22 -20z" />
    <glyph glyph-name="udieresis" unicode="&#xfc;" horiz-adv-x="578" 
d="M17 0zM218 -14q-56 0 -87.5 38t-31.5 106v295l-19 41l-63 7v32h145v-365q0 -49 19 -74t56 -25q20 0 40 9.5t38 27.5q39 39 64.5 86t25.5 84v179l-18 40l-72 7v31h152v-424l19 -42l67 -7v-32h-148v44l7 105l-6 2q-53 -91 -95.5 -128t-92.5 -37zM404 647q0 -21 -13.5 -35.5
t-33.5 -14.5q-22 0 -35.5 14t-13.5 36t13.5 36.5t35.5 14.5q20 0 33.5 -14.5t13.5 -36.5zM224 647q0 -22 -13.5 -36t-33.5 -14q-21 0 -35 14.5t-14 35.5q0 22 14 36.5t35 14.5t34 -14.5t13 -36.5z" />
    <glyph glyph-name="yacute" unicode="&#xfd;" horiz-adv-x="525" 
d="M9 0zM460 460l-165 -457q-34 -95 -80 -142.5t-105 -47.5q-33 0 -54 15t-21 39q0 21 18 34.5t45 12.5l34 -55q34 7 61 40.5t51 100.5l-173 460l-62 13v32h197v-30l-49 -10l-8 -30l96 -268l24 -93h12l23 93l94 270l-12 30l-45 8v30h175v-32zM357 685l-94 -103l-22 14
l61 131q11 23 21 32.5t25 9.5q14 0 25 -10t11 -25q0 -10 -6 -21t-21 -28z" />
    <glyph glyph-name="thorn" unicode="&#xfe;" horiz-adv-x="558" 
d="M241 -182h-235v32l68 7l18 42v764l-18 42l-68 7v32h149v-280l-7 -94l7 -2q49 82 90 116.5t86 34.5q79 0 128.5 -71t49.5 -188t-59.5 -193.5t-142.5 -76.5q-37 0 -72.5 12.5t-81.5 43.5l-5 -3l7 -64v-88l16 -34l70 -7v-32zM299 36q61 0 101.5 59t40.5 150q0 102 -34.5 162
t-89.5 60q-19 0 -37.5 -8.5t-34.5 -24.5q-46 -47 -68 -89t-22 -81v-160q40 -36 74.5 -52t69.5 -16z" />
    <glyph glyph-name="ydieresis" unicode="&#xff;" horiz-adv-x="525" 
d="M9 0zM460 460l-165 -457q-34 -95 -80 -142.5t-105 -47.5q-33 0 -54 15t-21 39q0 21 18 34.5t45 12.5l34 -55q34 7 61 40.5t51 100.5l-173 460l-62 13v32h197v-30l-49 -10l-8 -30l96 -268l24 -93h12l23 93l94 270l-12 30l-45 8v30h175v-32zM420 647q0 -21 -13.5 -35.5
t-33.5 -14.5q-22 0 -35.5 14t-13.5 36t13.5 36.5t35.5 14.5q20 0 33.5 -14.5t13.5 -36.5zM240 647q0 -22 -13.5 -36t-33.5 -14q-21 0 -35 14.5t-14 35.5q0 22 14 36.5t35 14.5t34 -14.5t13 -36.5z" />
    <glyph glyph-name="Amacron" unicode="&#x100;" horiz-adv-x="686" 
d="M16 0zM161 46l63 -11v-35h-208v35l64 17l226 648h80l216 -647l65 -18v-35h-223v35l63 10l16 31l-53 162h-270l-55 -163zM330 636l-25 -90l-89 -263h239l-87 263l-23 90h-15zM502 786h-312v49h312v-49z" />
    <glyph glyph-name="amacron" unicode="&#x101;" horiz-adv-x="516" 
d="M50 0zM358 104h-7q-48 -65 -87 -90t-86 -25q-57 0 -92.5 37.5t-35.5 98.5q0 31 10 55.5t31 45.5q29 29 75 43t110 14h78v77q0 55 -27 84t-78 29q-28 0 -53 -6.5t-53 -20.5l23 -61q-9 -13 -21.5 -19.5t-27.5 -6.5q-19 0 -31 14t-12 36q0 21 16 39.5t48 34.5
q37 18 70.5 26.5t66.5 8.5q65 0 103.5 -39.5t38.5 -109.5v-274q0 -34 14 -46t62 -20v-27l-70 -11q-36 13 -50.5 32.5t-14.5 54.5v26zM354 226v20h-74q-82 0 -124.5 -29.5t-42.5 -86.5q0 -41 23.5 -66.5t62.5 -25.5q27 0 52 13t56 44q26 26 36.5 54.5t10.5 76.5zM405 623
h-288v47h288v-47z" />
    <glyph glyph-name="Abreve" unicode="&#x102;" horiz-adv-x="686" 
d="M16 0zM161 46l63 -11v-35h-208v35l64 17l226 648h80l216 -647l65 -18v-35h-223v35l63 10l16 31l-53 162h-270l-55 -163zM330 636l-25 -90l-89 -263h239l-87 263l-23 90h-15zM346 766q-50 0 -88 35t-55 96l28 13q25 -43 52.5 -63t62.5 -20t62.5 20t52.5 63l28 -13
q-17 -61 -55 -96t-88 -35z" />
    <glyph glyph-name="abreve" unicode="&#x103;" horiz-adv-x="516" 
d="M50 0zM358 104h-7q-48 -65 -87 -90t-86 -25q-57 0 -92.5 37.5t-35.5 98.5q0 31 10 55.5t31 45.5q29 29 75 43t110 14h78v77q0 55 -27 84t-78 29q-28 0 -53 -6.5t-53 -20.5l23 -61q-9 -13 -21.5 -19.5t-27.5 -6.5q-19 0 -31 14t-12 36q0 21 16 39.5t48 34.5
q37 18 70.5 26.5t66.5 8.5q65 0 103.5 -39.5t38.5 -109.5v-274q0 -34 14 -46t62 -20v-27l-70 -11q-36 13 -50.5 32.5t-14.5 54.5v26zM354 226v20h-74q-82 0 -124.5 -29.5t-42.5 -86.5q0 -41 23.5 -66.5t62.5 -25.5q27 0 52 13t56 44q26 26 36.5 54.5t10.5 76.5zM261 596
q-50 0 -86.5 41.5t-45.5 108.5l27 9q22 -53 46 -75t59 -22t59 22t46 75l27 -9q-9 -67 -45.5 -108.5t-86.5 -41.5z" />
    <glyph glyph-name="Aogonek" unicode="&#x104;" horiz-adv-x="686" 
d="M623 -151l15 -22q-22 -22 -50.5 -34.5t-57.5 -12.5q-37 0 -60.5 21t-23.5 56q0 25 15.5 51t45.5 52l46 40h-109v35l63 10l16 31l-53 162h-270l-55 -163l16 -29l63 -11v-35h-208v35l64 17l226 648h80l216 -647l65 -18v-35h-68l-55 -50q-22 -20 -33.5 -40t-11.5 -37
q0 -23 14 -36.5t38 -13.5q16 0 36.5 7.5t35.5 18.5zM330 636l-25 -90l-89 -263h239l-87 263l-23 90h-15z" />
    <glyph glyph-name="aogonek" unicode="&#x105;" horiz-adv-x="516" 
d="M479 -151l15 -22q-22 -22 -50.5 -34.5t-57.5 -12.5q-37 0 -60.5 21t-23.5 56q0 25 15.5 51t45.5 52l44 38q-26 12 -37.5 30.5t-11.5 49.5v26h-7q-48 -65 -87 -90t-86 -25q-57 0 -92.5 37.5t-35.5 98.5q0 31 10 55.5t31 45.5q29 29 75 43t110 14h78v77q0 55 -27 84t-78 29
q-28 0 -53 -6.5t-53 -20.5l23 -61q-9 -13 -21.5 -19.5t-27.5 -6.5q-19 0 -31 14t-12 36q0 21 16 39.5t48 34.5q37 18 70.5 26.5t66.5 8.5q65 0 103.5 -39.5t38.5 -109.5v-274q0 -34 14 -46t62 -20v-27l-43 -7l-50 -45q-22 -20 -33.5 -40t-11.5 -37q0 -23 14 -36.5t38 -13.5
q16 0 36.5 7.5t35.5 18.5zM354 226v20h-74q-82 0 -124.5 -29.5t-42.5 -86.5q0 -41 23.5 -66.5t62.5 -25.5q27 0 52 13t56 44q26 26 36.5 54.5t10.5 76.5z" />
    <glyph glyph-name="Cacute" unicode="&#x106;" horiz-adv-x="623" 
d="M57 0zM544 212v-164q-42 -30 -93 -46t-105 -16q-128 0 -208.5 96.5t-80.5 259.5q0 153 83.5 259.5t209.5 106.5q39 0 71 -8.5t69 -29.5l24 35h26v-222h-39l-32 144q-30 19 -56.5 27t-57.5 8q-99 0 -161 -88t-62 -224q0 -150 60 -234t165 -84q33 0 62 8t56 24l30 148h39z
M437 828l-114 -73l-19 21l88 107q15 18 26.5 26t24.5 8q14 0 25.5 -11.5t11.5 -26.5q0 -13 -10 -25t-33 -26z" />
    <glyph glyph-name="cacute" unicode="&#x107;" horiz-adv-x="478" 
d="M49 0zM407 85l21 -33q-38 -33 -79 -49.5t-85 -16.5q-94 0 -154.5 70.5t-60.5 184.5q0 121 66 200.5t162 79.5q64 0 107 -31t43 -77q0 -25 -14.5 -41t-36.5 -16q-17 0 -28.5 10.5t-14.5 26.5l26 54q-15 15 -36 22.5t-46 7.5q-69 0 -114 -61.5t-45 -156.5q0 -103 45.5 -163
t119.5 -60q31 0 61 12t63 37zM346 690l-94 -103l-22 14l61 131q11 23 21 32.5t25 9.5q14 0 25 -10t11 -25q0 -10 -6 -21t-21 -28z" />
    <glyph glyph-name="Ccircumflex" unicode="&#x108;" horiz-adv-x="623" 
d="M57 0zM544 212v-164q-42 -30 -93 -46t-105 -16q-128 0 -208.5 96.5t-80.5 259.5q0 153 83.5 259.5t209.5 106.5q39 0 71 -8.5t69 -29.5l24 35h26v-222h-39l-32 144q-30 19 -56.5 27t-57.5 8q-99 0 -161 -88t-62 -224q0 -150 60 -234t165 -84q33 0 62 8t56 24l30 148h39z
M348 838l-117 -86l-22 23l124 132h32l124 -132l-22 -23z" />
    <glyph glyph-name="ccircumflex" unicode="&#x109;" horiz-adv-x="478" 
d="M49 0zM407 85l21 -33q-38 -33 -79 -49.5t-85 -16.5q-94 0 -154.5 70.5t-60.5 184.5q0 121 66 200.5t162 79.5q64 0 107 -31t43 -77q0 -25 -14.5 -41t-36.5 -16q-17 0 -28.5 10.5t-14.5 26.5l26 54q-15 15 -36 22.5t-46 7.5q-69 0 -114 -61.5t-45 -156.5q0 -103 45.5 -163
t119.5 -60q31 0 61 12t63 37zM270 683l-103 -93l-22 20l113 150h26l113 -150l-22 -20z" />
    <glyph glyph-name="Cdotaccent" unicode="&#x10a;" horiz-adv-x="623" 
d="M57 0zM544 212v-164q-42 -30 -93 -46t-105 -16q-128 0 -208.5 96.5t-80.5 259.5q0 153 83.5 259.5t209.5 106.5q39 0 71 -8.5t69 -29.5l24 35h26v-222h-39l-32 144q-30 19 -56.5 27t-57.5 8q-99 0 -161 -88t-62 -224q0 -150 60 -234t165 -84q33 0 62 8t56 24l30 148h39z
M403 837q0 -23 -15.5 -39t-38.5 -16t-38.5 15.5t-15.5 38.5t15.5 39t38.5 16t38.5 -16t15.5 -38z" />
    <glyph glyph-name="cdotaccent" unicode="&#x10b;" horiz-adv-x="478" 
d="M49 0zM407 85l21 -33q-38 -33 -79 -49.5t-85 -16.5q-94 0 -154.5 70.5t-60.5 184.5q0 121 66 200.5t162 79.5q64 0 107 -31t43 -77q0 -25 -14.5 -41t-36.5 -16q-17 0 -28.5 10.5t-14.5 26.5l26 54q-15 15 -36 22.5t-46 7.5q-69 0 -114 -61.5t-45 -156.5q0 -103 45.5 -163
t119.5 -60q31 0 61 12t63 37zM323 666q0 -22 -15 -37t-37 -15t-37 15t-15 37t15 37t37 15t37 -15t15 -37z" />
    <glyph glyph-name="Ccaron" unicode="&#x10c;" horiz-adv-x="623" 
d="M57 0zM544 212v-164q-42 -30 -93 -46t-105 -16q-128 0 -208.5 96.5t-80.5 259.5q0 153 83.5 259.5t209.5 106.5q39 0 71 -8.5t69 -29.5l24 35h26v-222h-39l-32 144q-30 19 -56.5 27t-57.5 8q-99 0 -161 -88t-62 -224q0 -150 60 -234t165 -84q33 0 62 8t56 24l30 148h39z
M350 827l117 86l22 -23l-124 -132h-32l-124 132l22 23z" />
    <glyph glyph-name="ccaron" unicode="&#x10d;" horiz-adv-x="478" 
d="M49 0zM407 85l21 -33q-38 -33 -79 -49.5t-85 -16.5q-94 0 -154.5 70.5t-60.5 184.5q0 121 66 200.5t162 79.5q64 0 107 -31t43 -77q0 -25 -14.5 -41t-36.5 -16q-17 0 -28.5 10.5t-14.5 26.5l26 54q-15 15 -36 22.5t-46 7.5q-69 0 -114 -61.5t-45 -156.5q0 -103 45.5 -163
t119.5 -60q31 0 61 12t63 37zM145 743l22 20l105 -92l103 92l22 -20l-113 -149h-26z" />
    <glyph glyph-name="Dcaron" unicode="&#x10e;" horiz-adv-x="669" 
d="M35 0zM272 0h-237v35l78 10l18 42v520l-18 42l-78 10v35h240q158 0 247.5 -88.5t89.5 -249.5q0 -168 -90.5 -262t-249.5 -94zM198 649v-604h70q134 0 202 77t68 228q0 146 -69.5 222.5t-201.5 76.5h-69zM338 822l117 86l22 -23l-124 -132h-32l-124 132l22 23z" />
    <glyph glyph-name="dcaron" unicode="&#x10f;" horiz-adv-x="586" 
d="M49 0zM227 -11q-79 0 -128.5 71.5t-49.5 189.5q0 116 60 192.5t143 76.5q36 0 71 -12.5t82 -44.5l5 3l-7 64v134l-19 42l-68 7v32h150v-663l19 -42l67 -7v-32h-149v47l7 94l-7 2q-51 -85 -91.5 -119.5t-84.5 -34.5zM117 266q0 -103 34 -163.5t90 -60.5q19 0 37 8.5
t35 25.5q45 45 67.5 87.5t22.5 81.5v164q-38 33 -72.5 48.5t-69.5 15.5q-62 0 -103 -58.5t-41 -148.5zM611 689l-38 -124l-25 2v150q0 30 9.5 44.5t29.5 14.5q17 0 26 -9.5t9 -26.5q0 -7 -1.5 -15t-9.5 -36z" />
    <glyph glyph-name="Dcroat" unicode="&#x110;" horiz-adv-x="669" 
d="M35 0zM612 356q0 -168 -90.5 -262t-249.5 -94h-237v35l78 10l18 42v245h-92v45h92v230l-18 42l-78 10v35h240q158 0 247.5 -88.5t89.5 -249.5zM198 332v-287h70q134 0 202 77t68 228q0 146 -69.5 222.5t-201.5 76.5h-69v-272h159v-45h-159z" />
    <glyph glyph-name="dcroat" unicode="&#x111;" horiz-adv-x="576" 
d="M410 141l-7 2q-51 -86 -91 -120t-84 -34q-79 0 -129 70.5t-50 185.5q0 113 60 188t143 75q36 0 71 -12.5t82 -44.5l5 3l-7 64v69h-139v40h139v38l-18 40l-69 7v32h150v-117h85v-40h-85v-506l19 -42l67 -7v-32h-149v47zM117 260q0 -100 34 -159t89 -59q19 0 37 8.5
t35 25.5q46 45 68.5 86.5t22.5 80.5v154q-38 33 -73 49t-70 16q-61 0 -102 -57t-41 -145z" />
    <glyph glyph-name="Emacron" unicode="&#x112;" horiz-adv-x="614" 
d="M35 0zM554 0h-519v35l78 10l18 42v520l-18 42l-78 10v35h503v-172h-40l-16 97l-39 30h-245v-271h128l61 14l7 82h36v-238h-36l-7 83l-61 14h-128v-288h262l38 30l16 108h40v-183zM472 781h-312v49h312v-49z" />
    <glyph glyph-name="emacron" unicode="&#x113;" horiz-adv-x="501" 
d="M49 0zM414 80l21 -31q-38 -32 -79 -47.5t-87 -15.5q-100 0 -160 72.5t-60 190.5t62.5 195t154.5 77q82 0 132 -65.5t50 -175.5v-30h-332q3 -102 48 -158.5t122 -56.5q32 0 63 11t65 34zM258 479q-59 0 -98.5 -53.5t-43.5 -135.5h268q-4 90 -37 139.5t-89 49.5zM406 623
h-288v47h288v-47z" />
    <glyph glyph-name="Ebreve" unicode="&#x114;" horiz-adv-x="614" 
d="M35 0zM554 0h-519v35l78 10l18 42v520l-18 42l-78 10v35h503v-172h-40l-16 97l-39 30h-245v-271h128l61 14l7 82h36v-238h-36l-7 83l-61 14h-128v-288h262l38 30l16 108h40v-183zM316 761q-50 0 -88 35t-55 96l28 13q25 -43 52.5 -63t62.5 -20t62.5 20t52.5 63l28 -13
q-17 -61 -55 -96t-88 -35z" />
    <glyph glyph-name="ebreve" unicode="&#x115;" horiz-adv-x="501" 
d="M49 0zM414 80l21 -31q-38 -32 -79 -47.5t-87 -15.5q-100 0 -160 72.5t-60 190.5t62.5 195t154.5 77q82 0 132 -65.5t50 -175.5v-30h-332q3 -102 48 -158.5t122 -56.5q32 0 63 11t65 34zM258 479q-59 0 -98.5 -53.5t-43.5 -135.5h268q-4 90 -37 139.5t-89 49.5zM262 596
q-50 0 -86.5 41.5t-45.5 108.5l27 9q22 -53 46 -75t59 -22t59 22t46 75l27 -9q-9 -67 -45.5 -108.5t-86.5 -41.5z" />
    <glyph glyph-name="Edotaccent" unicode="&#x116;" horiz-adv-x="614" 
d="M35 0zM554 0h-519v35l78 10l18 42v520l-18 42l-78 10v35h503v-172h-40l-16 97l-39 30h-245v-271h128l61 14l7 82h36v-238h-36l-7 83l-61 14h-128v-288h262l38 30l16 108h40v-183zM370 832q0 -23 -15.5 -39t-38.5 -16t-38.5 15.5t-15.5 38.5t15.5 39t38.5 16t38.5 -16
t15.5 -38z" />
    <glyph glyph-name="edotaccent" unicode="&#x117;" horiz-adv-x="501" 
d="M49 0zM414 80l21 -31q-38 -32 -79 -47.5t-87 -15.5q-100 0 -160 72.5t-60 190.5t62.5 195t154.5 77q82 0 132 -65.5t50 -175.5v-30h-332q3 -102 48 -158.5t122 -56.5q32 0 63 11t65 34zM258 479q-59 0 -98.5 -53.5t-43.5 -135.5h268q-4 90 -37 139.5t-89 49.5zM314 666
q0 -22 -15 -37t-37 -15t-37 15t-15 37t15 37t37 15t37 -15t15 -37z" />
    <glyph glyph-name="Eogonek" unicode="&#x118;" horiz-adv-x="614" 
d="M538 -151l15 -22q-22 -22 -50.5 -34.5t-57.5 -12.5q-37 0 -60.5 21t-23.5 56q0 25 15.5 51t45.5 52l46 40h-433v35l78 10l18 42v520l-18 42l-78 10v35h503v-172h-40l-16 97l-39 30h-245v-271h128l61 14l7 82h36v-238h-36l-7 83l-61 14h-128v-288h262l38 30l16 108h40
v-183h-40l-55 -50q-22 -20 -33.5 -40t-11.5 -37q0 -23 14 -36.5t38 -13.5q16 0 36.5 7.5t35.5 18.5z" />
    <glyph glyph-name="eogonek" unicode="&#x119;" horiz-adv-x="501" 
d="M405 -151l14 -22q-21 -22 -49.5 -34.5t-57.5 -12.5q-38 0 -61.5 21t-23.5 56q0 28 18.5 55.5t55.5 56.5l41 30l-3 4q-19 -8 -39 -12.5t-38 -4.5q-95 0 -154 73t-59 190q0 118 62.5 195t154.5 77q82 0 132 -65.5t50 -175.5v-30h-332q3 -102 48 -158.5t122 -56.5
q32 0 63 11t65 34l21 -31l-106 -96q-23 -21 -35.5 -42t-12.5 -38q0 -24 13.5 -37t37.5 -13q16 0 36.5 7.5t36.5 18.5zM258 479q-59 0 -98.5 -53.5t-43.5 -135.5h268q-4 90 -37 139.5t-89 49.5z" />
    <glyph glyph-name="Ecaron" unicode="&#x11a;" horiz-adv-x="614" 
d="M35 0zM554 0h-519v35l78 10l18 42v520l-18 42l-78 10v35h503v-172h-40l-16 97l-39 30h-245v-271h128l61 14l7 82h36v-238h-36l-7 83l-61 14h-128v-288h262l38 30l16 108h40v-183zM317 822l117 86l22 -23l-124 -132h-32l-124 132l22 23z" />
    <glyph glyph-name="ecaron" unicode="&#x11b;" horiz-adv-x="501" 
d="M49 0zM414 80l21 -31q-38 -32 -79 -47.5t-87 -15.5q-100 0 -160 72.5t-60 190.5t62.5 195t154.5 77q82 0 132 -65.5t50 -175.5v-30h-332q3 -102 48 -158.5t122 -56.5q32 0 63 11t65 34zM258 479q-59 0 -98.5 -53.5t-43.5 -135.5h268q-4 90 -37 139.5t-89 49.5zM136 743
l22 20l105 -92l103 92l22 -20l-113 -149h-26z" />
    <glyph glyph-name="Gcircumflex" unicode="&#x11c;" horiz-adv-x="661" 
d="M57 0zM554 249v-200q-45 -31 -97 -47t-104 -16q-137 0 -216.5 96t-79.5 262q0 157 85 260.5t212 103.5q39 0 71.5 -8.5t68.5 -29.5l23 35h27v-213h-40l-32 134q-27 18 -56 27t-61 9q-100 0 -162 -88t-62 -225q0 -149 59.5 -233.5t166.5 -84.5q41 0 75 10t59 29v177
l-18 42l-87 10v34h241v-33l-56 -11zM351 838l-117 -86l-22 23l124 132h32l124 -132l-22 -23z" />
    <glyph glyph-name="gcircumflex" unicode="&#x11d;" horiz-adv-x="547" 
d="M21 0zM496 -11q0 -70 -82 -123.5t-188 -53.5q-91 0 -148 32.5t-57 82.5q0 29 27.5 56.5t94.5 63.5v5q-29 11 -44.5 26.5t-15.5 33.5q0 20 16 36.5t59 40.5v6q-44 21 -71.5 61t-27.5 87q0 71 57 123t132 52q37 0 67.5 -11.5t57.5 -36.5l137 46h6v-68l-116 -8l-3 -7
q17 -21 25.5 -44t8.5 -46q0 -72 -56 -120.5t-133 -48.5q-13 0 -25.5 2t-22.5 5q-27 -18 -38.5 -29.5t-11.5 -22.5q0 -15 19 -24t55 -12l144 -9q69 -5 101.5 -28t32.5 -67zM126 342q0 -56 34 -93.5t86 -37.5q50 0 84 37.5t34 95.5t-33.5 96.5t-85.5 38.5q-51 0 -85 -38.5
t-34 -98.5zM88 -67q0 -37 39.5 -59t107.5 -22q83 0 143 36t60 83q0 28 -23 42t-73 17l-158 10q-50 -31 -73 -56.5t-23 -50.5zM257 683l-103 -93l-22 20l113 150h26l113 -150l-22 -20z" />
    <glyph glyph-name="Gbreve" unicode="&#x11e;" horiz-adv-x="661" 
d="M57 0zM554 249v-200q-45 -31 -97 -47t-104 -16q-137 0 -216.5 96t-79.5 262q0 157 85 260.5t212 103.5q39 0 71.5 -8.5t68.5 -29.5l23 35h27v-213h-40l-32 134q-27 18 -56 27t-61 9q-100 0 -162 -88t-62 -225q0 -149 59.5 -233.5t166.5 -84.5q41 0 75 10t59 29v177
l-18 42l-87 10v34h241v-33l-56 -11zM352 766q-50 0 -88 35t-55 96l28 13q25 -43 52.5 -63t62.5 -20t62.5 20t52.5 63l28 -13q-17 -61 -55 -96t-88 -35z" />
    <glyph glyph-name="gbreve" unicode="&#x11f;" horiz-adv-x="547" 
d="M21 0zM496 -11q0 -70 -82 -123.5t-188 -53.5q-91 0 -148 32.5t-57 82.5q0 29 27.5 56.5t94.5 63.5v5q-29 11 -44.5 26.5t-15.5 33.5q0 20 16 36.5t59 40.5v6q-44 21 -71.5 61t-27.5 87q0 71 57 123t132 52q37 0 67.5 -11.5t57.5 -36.5l137 46h6v-68l-116 -8l-3 -7
q17 -21 25.5 -44t8.5 -46q0 -72 -56 -120.5t-133 -48.5q-13 0 -25.5 2t-22.5 5q-27 -18 -38.5 -29.5t-11.5 -22.5q0 -15 19 -24t55 -12l144 -9q69 -5 101.5 -28t32.5 -67zM126 342q0 -56 34 -93.5t86 -37.5q50 0 84 37.5t34 95.5t-33.5 96.5t-85.5 38.5q-51 0 -85 -38.5
t-34 -98.5zM88 -67q0 -37 39.5 -59t107.5 -22q83 0 143 36t60 83q0 28 -23 42t-73 17l-158 10q-50 -31 -73 -56.5t-23 -50.5zM258 596q-50 0 -86.5 41.5t-45.5 108.5l27 9q22 -53 46 -75t59 -22t59 22t46 75l27 -9q-9 -67 -45.5 -108.5t-86.5 -41.5z" />
    <glyph glyph-name="Gdotaccent" unicode="&#x120;" horiz-adv-x="661" 
d="M57 0zM554 249v-200q-45 -31 -97 -47t-104 -16q-137 0 -216.5 96t-79.5 262q0 157 85 260.5t212 103.5q39 0 71.5 -8.5t68.5 -29.5l23 35h27v-213h-40l-32 134q-27 18 -56 27t-61 9q-100 0 -162 -88t-62 -225q0 -149 59.5 -233.5t166.5 -84.5q41 0 75 10t59 29v177
l-18 42l-87 10v34h241v-33l-56 -11zM406 837q0 -23 -15.5 -39t-38.5 -16t-38.5 15.5t-15.5 38.5t15.5 39t38.5 16t38.5 -16t15.5 -38z" />
    <glyph glyph-name="gdotaccent" unicode="&#x121;" horiz-adv-x="547" 
d="M21 0zM496 -11q0 -70 -82 -123.5t-188 -53.5q-91 0 -148 32.5t-57 82.5q0 29 27.5 56.5t94.5 63.5v5q-29 11 -44.5 26.5t-15.5 33.5q0 20 16 36.5t59 40.5v6q-44 21 -71.5 61t-27.5 87q0 71 57 123t132 52q37 0 67.5 -11.5t57.5 -36.5l137 46h6v-68l-116 -8l-3 -7
q17 -21 25.5 -44t8.5 -46q0 -72 -56 -120.5t-133 -48.5q-13 0 -25.5 2t-22.5 5q-27 -18 -38.5 -29.5t-11.5 -22.5q0 -15 19 -24t55 -12l144 -9q69 -5 101.5 -28t32.5 -67zM126 342q0 -56 34 -93.5t86 -37.5q50 0 84 37.5t34 95.5t-33.5 96.5t-85.5 38.5q-51 0 -85 -38.5
t-34 -98.5zM88 -67q0 -37 39.5 -59t107.5 -22q83 0 143 36t60 83q0 28 -23 42t-73 17l-158 10q-50 -31 -73 -56.5t-23 -50.5zM310 666q0 -22 -15 -37t-37 -15t-37 15t-15 37t15 37t37 15t37 -15t15 -37z" />
    <glyph glyph-name="uni0122" unicode="&#x122;" horiz-adv-x="661" 
d="M57 0zM554 249v-200q-45 -31 -97 -47t-104 -16q-137 0 -216.5 96t-79.5 262q0 157 85 260.5t212 103.5q39 0 71.5 -8.5t68.5 -29.5l23 35h27v-213h-40l-32 134q-27 18 -56 27t-61 9q-100 0 -162 -88t-62 -225q0 -149 59.5 -233.5t166.5 -84.5q41 0 75 10t59 29v177
l-18 42l-87 10v34h241v-33l-56 -11zM349 -87q23 0 37 -16.5t14 -43.5q0 -40 -29.5 -77t-80.5 -61l-13 25q29 17 47.5 38t24.5 43l-52 30q0 1 -0.5 2t-0.5 2q0 23 15.5 40.5t37.5 17.5z" />
    <glyph glyph-name="uni0123" unicode="&#x123;" horiz-adv-x="547" 
d="M21 0zM496 -11q0 -70 -82 -123.5t-188 -53.5q-91 0 -148 32.5t-57 82.5q0 29 27.5 56.5t94.5 63.5v5q-29 11 -44.5 26.5t-15.5 33.5q0 20 16 36.5t59 40.5v6q-44 21 -71.5 61t-27.5 87q0 71 57 123t132 52q37 0 67.5 -11.5t57.5 -36.5l137 46h6v-68l-116 -8l-3 -7
q17 -21 25.5 -44t8.5 -46q0 -72 -56 -120.5t-133 -48.5q-13 0 -25.5 2t-22.5 5q-27 -18 -38.5 -29.5t-11.5 -22.5q0 -15 19 -24t55 -12l144 -9q69 -5 101.5 -28t32.5 -67zM126 342q0 -56 34 -93.5t86 -37.5q50 0 84 37.5t34 95.5t-33.5 96.5t-85.5 38.5q-51 0 -85 -38.5
t-34 -98.5zM88 -67q0 -37 39.5 -59t107.5 -22q83 0 143 36t60 83q0 28 -23 42t-73 17l-158 10q-50 -31 -73 -56.5t-23 -50.5zM311 677v-4q0 -24 -15.5 -41.5t-37.5 -17.5q-23 0 -37 16.5t-14 43.5q0 40 29.5 77t80.5 61l13 -25q-29 -17 -47.5 -38t-23.5 -43z" />
    <glyph glyph-name="Hcircumflex" unicode="&#x124;" horiz-adv-x="718" 
d="M35 0zM288 0h-253v35l78 10l18 42v520l-18 42l-78 10v35h253v-34l-72 -10l-18 -42v-231h322v231l-18 42l-72 10v34h253v-35l-78 -10l-18 -42v-520l18 -42l78 -10v-35h-253v34l72 10l18 42v246h-322v-246l18 -42l72 -10v-34zM358 833l-117 -86l-22 23l124 132h32l124 -132
l-22 -23z" />
    <glyph glyph-name="hcircumflex" unicode="&#x125;" horiz-adv-x="573" 
d="M17 0zM237 0h-217v32l67 7l19 42v582l-19 42l-67 7v32h148v-283l-7 -104l6 -3q53 91 95.5 128t92.5 37q56 0 87.5 -37.5t31.5 -104.5v-296l19 -42l63 -7v-32h-208v31l47 9l16 38v288q0 48 -19 73t-56 25q-20 0 -40 -9.5t-38 -26.5q-40 -41 -65 -87.5t-25 -83.5v-179
l17 -39l52 -8v-31zM142 901l-103 -93l-22 20l113 150h26l113 -150l-22 -20z" />
    <glyph glyph-name="Hbar" unicode="&#x126;" horiz-adv-x="718" 
d="M216 44l72 -10v-34h-253v35l78 10l18 42v409h-100v46h100v67l-16 40l-80 10v35h253v-34l-74 -10l-17 -41v-70h325v70l-18 41l-74 10v34h253v-35l-79 -10l-17 -40v-67h100v-46h-100v-409l18 -42l78 -10v-35h-253v34l72 10l18 42v245h-322v-245zM197 499v-123h325v123h-325
z" />
    <glyph glyph-name="hbar" unicode="&#x127;" horiz-adv-x="573" 
d="M185 39l52 -8v-31h-217v32l67 7l19 42v506h-85v40h85v38l-18 40l-68 7v32h148v-117h139v-40h-139v-137l-7 -105l6 -2q53 91 95.5 128t92.5 37q56 0 87.5 -38t31.5 -105v-284l19 -42l63 -7v-32h-208v31l47 9l16 38v276q0 48 -19.5 73.5t-55.5 25.5q-20 0 -40 -9.5
t-38 -27.5q-39 -39 -64.5 -86t-25.5 -84v-168z" />
    <glyph glyph-name="Itilde" unicode="&#x128;" horiz-adv-x="342" 
d="M17 0zM304 0h-267v35l82 10l18 42v520l-18 42l-82 10v35h267v-35l-82 -10l-18 -42v-520l18 -42l82 -10v-35zM100 817q-15 0 -28.5 -14.5t-24.5 -42.5l-30 10q16 59 37.5 84.5t51.5 25.5q14 0 32 -6.5t54 -26.5q28 -16 40 -20.5t20 -4.5q16 0 29.5 14.5t23.5 42.5l30 -10
q-15 -57 -36.5 -83t-51.5 -26q-14 0 -32 6.5t-53 25.5q-29 16 -41 20.5t-21 4.5z" />
    <glyph glyph-name="itilde" unicode="&#x129;" horiz-adv-x="299" 
d="M0 0zM270 0h-233v32l66 7l19 42v344l-19 41l-66 7v32h148v-424l20 -42l65 -7v-32zM79 659q-15 0 -28 -17t-26 -52l-28 10q17 64 38 91.5t52 27.5q13 0 30 -7t50 -30q25 -17 36 -22t19 -5q15 0 28.5 17t26.5 51l28 -9q-18 -66 -39 -93t-52 -27q-13 0 -29 7t-49 29
q-26 18 -37.5 23.5t-19.5 5.5z" />
    <glyph glyph-name="Imacron" unicode="&#x12a;" horiz-adv-x="342" 
d="M36 0zM304 0h-267v35l82 10l18 42v520l-18 42l-82 10v35h267v-35l-82 -10l-18 -42v-520l18 -42l82 -10v-35zM306 781h-270v49h270v-49z" />
    <glyph glyph-name="imacron" unicode="&#x12b;" horiz-adv-x="299" 
d="M27 0zM270 0h-233v32l66 7l19 42v344l-19 41l-66 7v32h148v-424l20 -42l65 -7v-32zM265 618h-238v47h238v-47z" />
    <glyph glyph-name="Ibreve" unicode="&#x12c;" horiz-adv-x="342" 
d="M28 0zM304 0h-267v35l82 10l18 42v520l-18 42l-82 10v35h267v-35l-82 -10l-18 -42v-520l18 -42l82 -10v-35zM171 761q-50 0 -88 35t-55 96l28 13q25 -43 52.5 -63t62.5 -20t62.5 20t52.5 63l28 -13q-17 -61 -55 -96t-88 -35z" />
    <glyph glyph-name="ibreve" unicode="&#x12d;" horiz-adv-x="299" 
d="M14 0zM270 0h-233v32l66 7l19 42v344l-19 41l-66 7v32h148v-424l20 -42l65 -7v-32zM146 591q-50 0 -86.5 41.5t-45.5 108.5l27 9q22 -53 46 -75t59 -22t59 22t46 75l27 -9q-9 -67 -45.5 -108.5t-86.5 -41.5z" />
    <glyph glyph-name="Iogonek" unicode="&#x12e;" horiz-adv-x="342" 
d="M234 -151l15 -22q-22 -22 -50.5 -34.5t-57.5 -12.5q-37 0 -60.5 21t-23.5 56q0 25 15.5 51t45.5 52l46 40h-127v35l82 10l18 42v520l-18 42l-82 10v35h267v-35l-82 -10l-18 -42v-520l18 -42l82 -10v-35h-94l-55 -50q-22 -20 -33.5 -40t-11.5 -37q0 -23 14 -36.5t38 -13.5
q16 0 36.5 7.5t35.5 18.5z" />
    <glyph glyph-name="iogonek" unicode="&#x12f;" horiz-adv-x="299" 
d="M198 693q0 -23 -15 -38t-38 -15q-24 0 -39 15t-15 38t15 38.5t39 15.5q23 0 38 -15.5t15 -38.5zM212 -151l15 -22q-22 -22 -50.5 -34.5t-57.5 -12.5q-37 0 -60.5 21t-23.5 56q0 25 15.5 51t45.5 52l46 40h-105v32l66 7l19 42v344l-19 41l-66 7v32h148v-424l20 -42l65 -7
v-32h-82l-55 -50q-22 -20 -33.5 -40t-11.5 -37q0 -23 14 -36.5t38 -13.5q16 0 36.5 7.5t35.5 18.5z" />
    <glyph glyph-name="Idotaccent" unicode="&#x130;" horiz-adv-x="342" 
d="M37 0zM304 0h-267v35l82 10l18 42v520l-18 42l-82 10v35h267v-35l-82 -10l-18 -42v-520l18 -42l82 -10v-35zM225 832q0 -23 -15.5 -39t-38.5 -16t-38.5 15.5t-15.5 38.5t15.5 39t38.5 16t38.5 -16t15.5 -38z" />
    <glyph glyph-name="dotlessi" unicode="&#x131;" horiz-adv-x="299" 
d="M270 0h-233v32l66 7l19 42v344l-19 41l-66 7v32h148v-424l20 -42l65 -7v-32z" />
    <glyph glyph-name="Jcircumflex" unicode="&#x134;" horiz-adv-x="510" 
d="M31 0zM387 607v-417q0 -97 -51.5 -150.5t-140.5 -53.5q-71 0 -117.5 38.5t-46.5 91.5q0 30 16.5 48.5t42.5 18.5q22 0 36 -16t11 -39l-45 -42q15 -26 39.5 -39.5t58.5 -13.5q64 0 97 39t33 114v422l-19 41l-88 10v35h267v-35l-75 -10zM352 833l-117 -86l-22 23l124 132
h32l124 -132l-22 -23z" />
    <glyph glyph-name="jcircumflex" unicode="&#x135;" horiz-adv-x="286" 
d="M0 0zM135 -144q-20 -21 -48 -32.5t-58 -11.5q-36 0 -58 14t-22 37q0 22 22 34t48 5l24 -53q41 5 62 41.5t21 102.5v432l-20 41l-69 7v32h151v-463q0 -68 -12.5 -113t-40.5 -73zM141 678l-103 -93l-22 20l113 150h26l113 -150l-22 -20z" />
    <glyph glyph-name="uni0136" unicode="&#x136;" horiz-adv-x="649" 
d="M35 0zM216 44l72 -10v-34h-253v35l78 10l18 42v520l-18 42l-78 10v35h253v-34l-72 -10l-18 -42v-227h66l175 212l35 101h140v-35l-71 -16l-228 -274l246 -321l64 -13v-35h-139l-6 43l-221 291h-61v-248zM344 -82q23 0 37 -16.5t14 -43.5q0 -40 -29.5 -77t-80.5 -61
l-13 25q29 17 47.5 38t24.5 43l-52 30q0 1 -0.5 2t-0.5 2q0 23 15.5 40.5t37.5 17.5z" />
    <glyph glyph-name="uni0137" unicode="&#x137;" horiz-adv-x="516" 
d="M20 0zM185 39l57 -8v-31h-222v32l67 7l19 42v582l-19 42l-67 7v32h148v-456h42l115 132l21 85h133v-32l-58 -14l-161 -178l194 -235l48 -14v-32h-122l-10 51l-162 196h-40v-169zM269 -87q23 0 37 -16.5t14 -43.5q0 -40 -29.5 -77t-80.5 -61l-13 25q29 17 47.5 38t24.5 43
l-52 30q0 1 -0.5 2t-0.5 2q0 23 15.5 40.5t37.5 17.5z" />
    <glyph glyph-name="Lacute" unicode="&#x139;" horiz-adv-x="568" 
d="M35 0zM520 0h-485v35l78 10l18 42v520l-18 42l-78 10v35h271v-35l-90 -10l-18 -42v-562h236l34 27l13 130h39v-202zM261 823l-114 -73l-19 21l88 107q15 18 26.5 26t24.5 8q14 0 25.5 -11.5t11.5 -26.5q0 -13 -10 -25t-33 -26z" />
    <glyph glyph-name="lacute" unicode="&#x13a;" horiz-adv-x="289" 
d="M27 0zM261 0h-234v32l67 7l19 42v582l-19 42l-67 7v32h149v-663l19 -42l66 -7v-32zM218 908l-94 -103l-22 14l61 131q11 23 21 32.5t25 9.5q14 0 25 -10t11 -25q0 -10 -6 -21t-21 -28z" />
    <glyph glyph-name="uni013B" unicode="&#x13b;" horiz-adv-x="568" 
d="M35 0zM520 0h-485v35l78 10l18 42v520l-18 42l-78 10v35h271v-35l-90 -10l-18 -42v-562h236l34 27l13 130h39v-202zM304 -82q23 0 37 -16.5t14 -43.5q0 -40 -29.5 -77t-80.5 -61l-13 25q29 17 47.5 38t24.5 43l-52 30q0 1 -0.5 2t-0.5 2q0 23 15.5 40.5t37.5 17.5z" />
    <glyph glyph-name="uni013C" unicode="&#x13c;" horiz-adv-x="289" 
d="M27 0zM261 0h-234v32l67 7l19 42v582l-19 42l-67 7v32h149v-663l19 -42l66 -7v-32zM150 -87q23 0 37 -16.5t14 -43.5q0 -40 -29.5 -77t-80.5 -61l-13 25q29 17 47.5 38t24.5 43l-52 30q0 1 -0.5 2t-0.5 2q0 23 15.5 40.5t37.5 17.5z" />
    <glyph glyph-name="Lcaron" unicode="&#x13d;" horiz-adv-x="568" 
d="M35 0zM520 0h-485v35l78 10l18 42v520l-18 42l-78 10v35h271v-35l-90 -10l-18 -42v-562h236l34 27l13 130h39v-202zM463 627l-38 -124l-25 2v150q0 30 9.5 44.5t29.5 14.5q17 0 26 -9.5t9 -26.5q0 -7 -1.5 -15t-9.5 -36z" />
    <glyph glyph-name="lcaron" unicode="&#x13e;" horiz-adv-x="298" 
d="M27 0zM261 0h-234v32l67 7l19 42v582l-19 42l-67 7v32h149v-663l19 -42l66 -7v-32zM321 689l-38 -124l-25 2v150q0 30 9.5 44.5t29.5 14.5q17 0 26 -9.5t9 -26.5q0 -7 -1.5 -15t-9.5 -36z" />
    <glyph glyph-name="Lslash" unicode="&#x141;" horiz-adv-x="567" 
d="M481 202h39v-202h-485v35l78 10l18 42v195l-101 -50v51l101 50v274l-18 42l-78 10v35h271v-35l-90 -10l-18 -42v-245l179 89v-52l-179 -88v-266h236l34 27z" />
    <glyph glyph-name="lslash" unicode="&#x142;" horiz-adv-x="294" 
d="M197 39l66 -7v-32h-234v32l67 7l19 42v248l-97 -46v46l97 46v288l-19 42l-67 7v32h149v-341l99 47v-46l-99 -47v-276z" />
    <glyph glyph-name="Nacute" unicode="&#x143;" horiz-adv-x="722" 
d="M35 0zM279 0h-244v35l78 10l18 42v520l-18 42l-78 10v35h189l264 -484l49 -110h13l-3 112v396l-18 42l-77 10v34h242v-35l-77 -10l-18 -42v-609h-72l-284 520l-50 108h-12l3 -111v-429l18 -42l77 -10v-34zM449 810l-114 -73l-19 21l88 107q15 18 26.5 26t24.5 8
q14 0 25.5 -11.5t11.5 -26.5q0 -13 -10 -25t-33 -26z" />
    <glyph glyph-name="nacute" unicode="&#x144;" horiz-adv-x="586" 
d="M34 0zM250 0h-216v32l66 7l19 42v344l-19 41l-66 7v32h148v-44l-8 -104l6 -3q53 91 95.5 128t92.5 37q56 0 87.5 -37.5t31.5 -104.5v-296l19 -42l63 -7v-32h-208v31l48 9l15 38v288q0 48 -19 73t-56 25q-20 0 -40 -9.5t-38 -26.5q-39 -40 -64 -87t-25 -84v-179l17 -39
l51 -8v-31zM371 690l-94 -103l-22 14l61 131q11 23 21 32.5t25 9.5q14 0 25 -10t11 -25q0 -10 -6 -21t-21 -28z" />
    <glyph glyph-name="uni0145" unicode="&#x145;" horiz-adv-x="722" 
d="M35 0zM279 0h-244v35l78 10l18 42v520l-18 42l-78 10v35h189l264 -484l49 -110h13l-3 112v396l-18 42l-77 10v34h242v-35l-77 -10l-18 -42v-609h-72l-284 520l-50 108h-12l3 -111v-429l18 -42l77 -10v-34zM373 -69q23 0 37 -16.5t14 -43.5q0 -40 -29.5 -77t-80.5 -61
l-13 25q29 17 47.5 38t24.5 43l-52 30q0 1 -0.5 2t-0.5 2q0 23 15.5 40.5t37.5 17.5z" />
    <glyph glyph-name="uni0146" unicode="&#x146;" horiz-adv-x="586" 
d="M34 0zM250 0h-216v32l66 7l19 42v344l-19 41l-66 7v32h148v-44l-8 -104l6 -3q53 91 95.5 128t92.5 37q56 0 87.5 -37.5t31.5 -104.5v-296l19 -42l63 -7v-32h-208v31l48 9l15 38v288q0 48 -19 73t-56 25q-20 0 -40 -9.5t-38 -26.5q-39 -40 -64 -87t-25 -84v-179l17 -39
l51 -8v-31zM299 -87q23 0 37 -16.5t14 -43.5q0 -40 -29.5 -77t-80.5 -61l-13 25q29 17 47.5 38t24.5 43l-52 30q0 1 -0.5 2t-0.5 2q0 23 15.5 40.5t37.5 17.5z" />
    <glyph glyph-name="Ncaron" unicode="&#x147;" horiz-adv-x="722" 
d="M35 0zM279 0h-244v35l78 10l18 42v520l-18 42l-78 10v35h189l264 -484l49 -110h13l-3 112v396l-18 42l-77 10v34h242v-35l-77 -10l-18 -42v-609h-72l-284 520l-50 108h-12l3 -111v-429l18 -42l77 -10v-34zM362 809l117 86l22 -23l-124 -132h-32l-124 132l22 23z" />
    <glyph glyph-name="ncaron" unicode="&#x148;" horiz-adv-x="586" 
d="M34 0zM250 0h-216v32l66 7l19 42v344l-19 41l-66 7v32h148v-44l-8 -104l6 -3q53 91 95.5 128t92.5 37q56 0 87.5 -37.5t31.5 -104.5v-296l19 -42l63 -7v-32h-208v31l48 9l15 38v288q0 48 -19 73t-56 25q-20 0 -40 -9.5t-38 -26.5q-39 -40 -64 -87t-25 -84v-179l17 -39
l51 -8v-31zM170 743l22 20l105 -92l103 92l22 -20l-113 -149h-26z" />
    <glyph glyph-name="Eng" unicode="&#x14a;" horiz-adv-x="722" 
d="M544 -147q-20 -19 -47.5 -30t-55.5 -11q-35 0 -58 17t-23 43q0 22 21.5 33t49.5 4l24 -55q41 4 63 43t23 110h-22l-276 511l-50 108h-12l3 -111v-429l18 -42l77 -10v-34h-244v35l78 10l18 42v520l-18 42l-78 10v35h189l264 -488l49 -110h13l-3 112v400l-18 42l-77 10v34
h242v-35l-77 -10l-18 -42v-564q0 -67 -13.5 -114t-41.5 -76z" />
    <glyph glyph-name="eng" unicode="&#x14b;" horiz-adv-x="572" 
d="M434 -144q-21 -21 -48.5 -32.5t-56.5 -11.5q-36 0 -58 14t-22 37q0 22 22 34t47 5l26 -53q39 5 59.5 41.5t20.5 102.5v373q0 48 -19 73t-56 25q-20 0 -40 -9.5t-38 -26.5q-39 -40 -64 -87t-25 -84v-179l17 -39l51 -8v-31h-216v32l66 7l19 42v344l-19 41l-66 7v32h148v-44
l-8 -104l6 -3q53 91 95.5 128t92.5 37q56 0 87.5 -37.5t31.5 -104.5v-335q0 -68 -12.5 -113t-40.5 -73z" />
    <glyph glyph-name="Omacron" unicode="&#x14c;" horiz-adv-x="679" 
d="M57 0zM623 351q0 -164 -80 -265.5t-206 -101.5q-122 0 -201 100t-79 260q0 164 79.5 265t206.5 101q121 0 200.5 -100t79.5 -259zM132 351q0 -146 57 -233.5t150 -87.5t151 86t58 227q0 146 -57 233.5t-150 87.5t-151 -86t-58 -227zM499 786h-312v49h312v-49z" />
    <glyph glyph-name="omacron" unicode="&#x14d;" horiz-adv-x="539" 
d="M48 0zM491 256q0 -117 -64 -194.5t-160 -77.5q-95 0 -157 75t-62 191q0 118 64 194.5t160 76.5q95 0 157 -74t62 -191zM117 262q0 -106 43 -170.5t113 -64.5q65 0 107 61.5t42 154.5q0 105 -43 170t-113 65q-66 0 -107.5 -61.5t-41.5 -154.5zM415 623h-288v47h288v-47z
" />
    <glyph glyph-name="Obreve" unicode="&#x14e;" horiz-adv-x="679" 
d="M57 0zM623 351q0 -164 -80 -265.5t-206 -101.5q-122 0 -201 100t-79 260q0 164 79.5 265t206.5 101q121 0 200.5 -100t79.5 -259zM132 351q0 -146 57 -233.5t150 -87.5t151 86t58 227q0 146 -57 233.5t-150 87.5t-151 -86t-58 -227zM343 766q-50 0 -88 35t-55 96l28 13
q25 -43 52.5 -63t62.5 -20t62.5 20t52.5 63l28 -13q-17 -61 -55 -96t-88 -35z" />
    <glyph glyph-name="obreve" unicode="&#x14f;" horiz-adv-x="539" 
d="M48 0zM491 256q0 -117 -64 -194.5t-160 -77.5q-95 0 -157 75t-62 191q0 118 64 194.5t160 76.5q95 0 157 -74t62 -191zM117 262q0 -106 43 -170.5t113 -64.5q65 0 107 61.5t42 154.5q0 105 -43 170t-113 65q-66 0 -107.5 -61.5t-41.5 -154.5zM271 596q-50 0 -86.5 41.5
t-45.5 108.5l27 9q22 -53 46 -75t59 -22t59 22t46 75l27 -9q-9 -67 -45.5 -108.5t-86.5 -41.5z" />
    <glyph glyph-name="Ohungarumlaut" unicode="&#x150;" horiz-adv-x="679" 
d="M57 0zM623 351q0 -164 -80 -265.5t-206 -101.5q-122 0 -201 100t-79 260q0 164 79.5 265t206.5 101q121 0 200.5 -100t79.5 -259zM132 351q0 -146 57 -233.5t150 -87.5t151 86t58 227q0 146 -57 233.5t-150 87.5t-151 -86t-58 -227zM350 830l-111 -75l-18 21l88 107
q15 19 26 26.5t24 7.5q14 0 24 -10.5t10 -25.5q0 -12 -10 -23.5t-33 -27.5zM520 830l-111 -75l-19 21l89 107q17 20 27.5 27t22.5 7q14 0 24 -10.5t10 -25.5q0 -12 -10 -23.5t-33 -27.5z" />
    <glyph glyph-name="ohungarumlaut" unicode="&#x151;" horiz-adv-x="539" 
d="M48 0zM491 256q0 -117 -64 -194.5t-160 -77.5q-95 0 -157 75t-62 191q0 118 64 194.5t160 76.5q95 0 157 -74t62 -191zM117 262q0 -106 43 -170.5t113 -64.5q65 0 107 61.5t42 154.5q0 105 -43 170t-113 65q-66 0 -107.5 -61.5t-41.5 -154.5zM286 692l-90 -104l-21 13
l60 130q10 23 20.5 33t25.5 10q14 0 23.5 -9t9.5 -23q0 -10 -6.5 -22t-21.5 -28zM434 692l-90 -104l-21 13l60 130q10 23 20.5 33t25.5 10q14 0 23 -9t9 -23q0 -10 -6.5 -21.5t-20.5 -28.5z" />
    <glyph glyph-name="OE" unicode="&#x152;" horiz-adv-x="944" 
d="M884 183v-183h-487q-160 0 -250 89t-90 250q0 169 90.5 262t252.5 93h468v-172h-40l-16 97l-39 30h-245v-271h128l61 14l8 82h35v-238h-35l-8 83l-61 14h-128v-288h262l38 30l16 108h40zM462 45v604h-61q-134 0 -202 -77t-68 -228q0 -146 69.5 -222.5t201.5 -76.5h60z
" />
    <glyph glyph-name="oe" unicode="&#x153;" horiz-adv-x="874" 
d="M787 80l21 -31q-38 -32 -79 -47.5t-87 -15.5q-67 0 -114 34.5t-74 102.5q-29 -66 -77 -101.5t-110 -35.5q-95 0 -157 74t-62 190t64 192.5t160 76.5q64 0 111.5 -34.5t74.5 -100.5q27 65 74 100t107 35q82 0 132.5 -65t50.5 -174v-30h-332q2 -102 46.5 -158.5
t122.5 -56.5q33 0 63.5 10.5t64.5 34.5zM631 477q-58 0 -97.5 -53t-43.5 -134h267q-4 89 -37 138t-89 49zM117 262q0 -104 43 -168t113 -64q65 0 107 61t42 152q0 104 -43 168t-113 64q-65 0 -107 -60.5t-42 -152.5z" />
    <glyph glyph-name="Racute" unicode="&#x154;" horiz-adv-x="647" 
d="M35 0zM292 0h-257v35l78 10l18 42v520l-18 42l-78 10v35h261q120 0 185 -45t65 -130q0 -73 -53 -123t-145 -68v-5q50 -10 79.5 -34t60.5 -85l76 -148l70 -21v-35h-133l-7 45l-76 150q-32 63 -72.5 86t-116.5 23h-31v-218l18 -42l76 -10v-34zM198 649v-301h35
q105 0 172.5 45.5t67.5 121.5q0 66 -46 100t-135 34h-94zM405 823l-114 -73l-19 21l88 107q15 18 26.5 26t24.5 8q14 0 25.5 -11.5t11.5 -26.5q0 -13 -10 -25t-33 -26z" />
    <glyph glyph-name="racute" unicode="&#x155;" horiz-adv-x="428" 
d="M34 0zM200 39l71 -7v-32h-237v32l66 7l19 42v344l-19 41l-66 7v32h148v-43l-7 -123l7 -2q33 80 78.5 130t88.5 50q24 0 39.5 -15t15.5 -38q0 -28 -23 -43.5t-54 -10.5l-17 44q-41 -15 -84.5 -90.5t-43.5 -129.5v-153zM303 685l-94 -103l-22 14l61 131q11 23 21 32.5
t25 9.5q14 0 25 -10t11 -25q0 -10 -6 -21t-21 -28z" />
    <glyph glyph-name="uni0156" unicode="&#x156;" horiz-adv-x="647" 
d="M35 0zM292 0h-257v35l78 10l18 42v520l-18 42l-78 10v35h261q120 0 185 -45t65 -130q0 -73 -53 -123t-145 -68v-5q50 -10 79.5 -34t60.5 -85l76 -148l70 -21v-35h-133l-7 45l-76 150q-32 63 -72.5 86t-116.5 23h-31v-218l18 -42l76 -10v-34zM198 649v-301h35
q105 0 172.5 45.5t67.5 121.5q0 66 -46 100t-135 34h-94zM353 -82q23 0 37 -16.5t14 -43.5q0 -40 -29.5 -77t-80.5 -61l-13 25q29 17 47.5 38t24.5 43l-52 30q0 1 -0.5 2t-0.5 2q0 23 15.5 40.5t37.5 17.5z" />
    <glyph glyph-name="uni0157" unicode="&#x157;" horiz-adv-x="428" 
d="M34 0zM200 39l71 -7v-32h-237v32l66 7l19 42v344l-19 41l-66 7v32h148v-43l-7 -123l7 -2q33 80 78.5 130t88.5 50q24 0 39.5 -15t15.5 -38q0 -28 -23 -43.5t-54 -10.5l-17 44q-41 -15 -84.5 -90.5t-43.5 -129.5v-153zM157 -87q23 0 37 -16.5t14 -43.5q0 -40 -29.5 -77
t-80.5 -61l-13 25q29 17 47.5 38t24.5 43l-52 30q0 1 -0.5 2t-0.5 2q0 23 15.5 40.5t37.5 17.5z" />
    <glyph glyph-name="Rcaron" unicode="&#x158;" horiz-adv-x="647" 
d="M35 0zM292 0h-257v35l78 10l18 42v520l-18 42l-78 10v35h261q120 0 185 -45t65 -130q0 -73 -53 -123t-145 -68v-5q50 -10 79.5 -34t60.5 -85l76 -148l70 -21v-35h-133l-7 45l-76 150q-32 63 -72.5 86t-116.5 23h-31v-218l18 -42l76 -10v-34zM198 649v-301h35
q105 0 172.5 45.5t67.5 121.5q0 66 -46 100t-135 34h-94zM318 822l117 86l22 -23l-124 -132h-32l-124 132l22 23z" />
    <glyph glyph-name="rcaron" unicode="&#x159;" horiz-adv-x="428" 
d="M34 0zM200 39l71 -7v-32h-237v32l66 7l19 42v344l-19 41l-66 7v32h148v-43l-7 -123l7 -2q33 80 78.5 130t88.5 50q24 0 39.5 -15t15.5 -38q0 -28 -23 -43.5t-54 -10.5l-17 44q-41 -15 -84.5 -90.5t-43.5 -129.5v-153zM102 738l22 20l105 -92l103 92l22 -20l-113 -149h-26
z" />
    <glyph glyph-name="Sacute" unicode="&#x15a;" horiz-adv-x="569" 
d="M68 0zM309 386q110 -47 154 -94t44 -116q0 -81 -62 -134t-156 -53q-42 0 -82.5 12t-86.5 40l-25 -46h-27v227h40l32 -136q35 -25 73.5 -38t77.5 -13q65 0 107 36.5t42 92.5q0 54 -36 89t-129 75q-103 44 -146 89.5t-43 111.5q0 76 58 126t140 50q37 0 72 -9.5t69 -28.5
l25 35h26v-207h-40l-33 131q-28 17 -56 25t-60 8q-59 0 -96.5 -33.5t-37.5 -88.5q0 -48 35 -81.5t121 -69.5zM382 828l-114 -73l-19 21l88 107q15 18 26.5 26t24.5 8q14 0 25.5 -11.5t11.5 -26.5q0 -13 -10 -25t-33 -26z" />
    <glyph glyph-name="sacute" unicode="&#x15b;" horiz-adv-x="459" 
d="M55 0zM253 287q87 -34 119 -67.5t32 -85.5q0 -67 -52.5 -107.5t-134.5 -40.5q-37 0 -76.5 8.5t-85.5 27.5v132h38l24 -105q22 -11 47.5 -16.5t54.5 -5.5q52 0 87.5 26.5t35.5 66.5q0 39 -27 63.5t-98 52.5q-86 34 -117.5 65.5t-31.5 79.5q0 61 50.5 99.5t125.5 38.5
q37 0 72.5 -7t62.5 -19v-119h-39l-24 94q-19 6 -35.5 8.5t-36.5 2.5q-48 0 -80.5 -24.5t-32.5 -58.5q0 -36 25 -58t97 -51zM314 690l-94 -103l-22 14l61 131q11 23 21 32.5t25 9.5q14 0 25 -10t11 -25q0 -10 -6 -21t-21 -28z" />
    <glyph glyph-name="Scircumflex" unicode="&#x15c;" horiz-adv-x="569" 
d="M68 0zM309 386q110 -47 154 -94t44 -116q0 -81 -62 -134t-156 -53q-42 0 -82.5 12t-86.5 40l-25 -46h-27v227h40l32 -136q35 -25 73.5 -38t77.5 -13q65 0 107 36.5t42 92.5q0 54 -36 89t-129 75q-103 44 -146 89.5t-43 111.5q0 76 58 126t140 50q37 0 72 -9.5t69 -28.5
l25 35h26v-207h-40l-33 131q-28 17 -56 25t-60 8q-59 0 -96.5 -33.5t-37.5 -88.5q0 -48 35 -81.5t121 -69.5zM293 838l-117 -86l-22 23l124 132h32l124 -132l-22 -23z" />
    <glyph glyph-name="scircumflex" unicode="&#x15d;" horiz-adv-x="459" 
d="M55 0zM253 287q87 -34 119 -67.5t32 -85.5q0 -67 -52.5 -107.5t-134.5 -40.5q-37 0 -76.5 8.5t-85.5 27.5v132h38l24 -105q22 -11 47.5 -16.5t54.5 -5.5q52 0 87.5 26.5t35.5 66.5q0 39 -27 63.5t-98 52.5q-86 34 -117.5 65.5t-31.5 79.5q0 61 50.5 99.5t125.5 38.5
q37 0 72.5 -7t62.5 -19v-119h-39l-24 94q-19 6 -35.5 8.5t-36.5 2.5q-48 0 -80.5 -24.5t-32.5 -58.5q0 -36 25 -58t97 -51zM238 683l-103 -93l-22 20l113 150h26l113 -150l-22 -20z" />
    <glyph glyph-name="uni015E" unicode="&#x15e;" horiz-adv-x="569" 
d="M379 -139q0 -37 -31.5 -60t-78.5 -23q-28 0 -52.5 6t-45.5 18l12 27q19 -9 37 -13.5t36 -4.5q31 0 50 12.5t19 32.5q0 22 -21 34.5t-58 12.5h-20l-14 17l53 70q-35 3 -70 15t-75 36l-25 -46h-27v227h40l32 -136q35 -25 73.5 -38t77.5 -13q65 0 107 36.5t42 92.5
q0 54 -36 89t-129 75q-103 44 -146 89.5t-43 111.5q0 76 58 126t140 50q37 0 72 -9.5t69 -28.5l25 35h26v-207h-40l-33 131q-28 17 -56 25t-60 8q-59 0 -96.5 -33.5t-37.5 -88.5q0 -48 35 -81.5t121 -69.5q110 -47 154 -94t44 -116q0 -77 -56.5 -129t-144.5 -57l-40 -51
q53 -1 83 -21.5t30 -56.5z" />
    <glyph glyph-name="uni015F" unicode="&#x15f;" horiz-adv-x="459" 
d="M322 -139q0 -37 -31.5 -60t-78.5 -23q-28 0 -52.5 6t-45.5 18l12 27q19 -9 37 -13.5t36 -4.5q31 0 50 12.5t19 32.5q0 22 -21 34.5t-58 12.5h-20l-14 17l50 66q-35 1 -72.5 10t-77.5 26v132h38l24 -105q22 -11 47.5 -16.5t54.5 -5.5q52 0 87.5 26.5t35.5 66.5
q0 39 -27 63.5t-98 52.5q-86 34 -117.5 65.5t-31.5 79.5q0 61 50.5 99.5t125.5 38.5q37 0 72.5 -7t62.5 -19v-119h-39l-24 94q-19 6 -35.5 8.5t-36.5 2.5q-48 0 -80.5 -24.5t-32.5 -58.5q0 -36 25 -58t97 -51q87 -34 119 -67.5t32 -85.5q0 -60 -43 -99.5t-113 -46.5l-39 -49
q53 -1 83 -21.5t30 -56.5z" />
    <glyph glyph-name="Scaron" unicode="&#x160;" horiz-adv-x="569" 
d="M68 0zM309 386q110 -47 154 -94t44 -116q0 -81 -62 -134t-156 -53q-42 0 -82.5 12t-86.5 40l-25 -46h-27v227h40l32 -136q35 -25 73.5 -38t77.5 -13q65 0 107 36.5t42 92.5q0 54 -36 89t-129 75q-103 44 -146 89.5t-43 111.5q0 76 58 126t140 50q37 0 72 -9.5t69 -28.5
l25 35h26v-207h-40l-33 131q-28 17 -56 25t-60 8q-59 0 -96.5 -33.5t-37.5 -88.5q0 -48 35 -81.5t121 -69.5zM295 827l117 86l22 -23l-124 -132h-32l-124 132l22 23z" />
    <glyph glyph-name="scaron" unicode="&#x161;" horiz-adv-x="459" 
d="M55 0zM253 287q87 -34 119 -67.5t32 -85.5q0 -67 -52.5 -107.5t-134.5 -40.5q-37 0 -76.5 8.5t-85.5 27.5v132h38l24 -105q22 -11 47.5 -16.5t54.5 -5.5q52 0 87.5 26.5t35.5 66.5q0 39 -27 63.5t-98 52.5q-86 34 -117.5 65.5t-31.5 79.5q0 61 50.5 99.5t125.5 38.5
q37 0 72.5 -7t62.5 -19v-119h-39l-24 94q-19 6 -35.5 8.5t-36.5 2.5q-48 0 -80.5 -24.5t-32.5 -58.5q0 -36 25 -58t97 -51zM113 743l22 20l105 -92l103 92l22 -20l-113 -149h-26z" />
    <glyph glyph-name="uni0162" unicode="&#x162;" horiz-adv-x="640" 
d="M418 -139q0 -37 -31.5 -60t-78.5 -23q-28 0 -52.5 6t-45.5 18l12 27q19 -9 37 -13.5t36 -4.5q31 0 50 12.5t19 32.5q0 22 -21 34.5t-58 12.5h-20l-14 17l60 80h-128v35l85 10l18 42v561h-143l-37 -29l-15 -128h-41v203h540v-203h-41l-15 128l-38 29h-143v-561l18 -42
l86 -10v-35h-103l-49 -61q53 -1 83 -21.5t30 -56.5z" />
    <glyph glyph-name="uni0163" unicode="&#x163;" horiz-adv-x="384" 
d="M310 -139q0 -37 -31.5 -60t-78.5 -23q-28 0 -52.5 6t-45.5 18l12 27q19 -9 37 -13.5t36 -4.5q31 0 50 12.5t19 32.5q0 22 -21 34.5t-58 12.5h-20l-14 17l54 72q-42 8 -65 40t-23 83v344h-89v38l87 11l23 150h41v-153h172v-46h-172v-321q0 -49 18.5 -73.5t56.5 -24.5
q17 0 38.5 7t58.5 26l16 -28q-31 -25 -62.5 -39t-59.5 -16l-40 -51q53 -1 83 -21.5t30 -56.5z" />
    <glyph glyph-name="Tcaron" unicode="&#x164;" horiz-adv-x="640" 
d="M50 0zM457 0h-274v35l85 10l18 42v561h-143l-37 -29l-15 -128h-41v203h540v-203h-41l-15 128l-38 29h-143v-561l18 -42l86 -10v-35zM321 822l117 86l22 -23l-124 -132h-32l-124 132l22 23z" />
    <glyph glyph-name="tcaron" unicode="&#x165;" horiz-adv-x="384" 
d="M20 0zM226 -11q-55 0 -86 33.5t-31 92.5v344h-89v38l87 11l23 150h41v-153h172v-46h-172v-321q0 -49 18.5 -73.5t56.5 -24.5q17 0 38.5 7t58.5 26l16 -28q-34 -27 -68.5 -41.5t-64.5 -14.5zM315 689l-38 -124l-25 2v150q0 30 9.5 44.5t29.5 14.5q17 0 26 -9.5t9 -26.5
q0 -7 -1.5 -15t-9.5 -36z" />
    <glyph glyph-name="Tbar" unicode="&#x166;" horiz-adv-x="640" 
d="M371 45l86 -10v-35h-274v35l85 10l18 42v222h-139v45h139v294h-143l-37 -29l-15 -128h-41v203h540v-203h-41l-15 128l-38 29h-143v-294h140v-45h-140v-222z" />
    <glyph glyph-name="tbar" unicode="&#x167;" horiz-adv-x="384" 
d="M343 73l16 -28q-34 -27 -68.5 -41.5t-64.5 -14.5q-55 0 -86 33.5t-31 92.5v125h-79v42h79v177h-89v38l87 11l23 150h41v-153h172v-46h-172v-177h147v-42h-147v-102q0 -49 18.5 -73.5t56.5 -24.5q17 0 38.5 7t58.5 26z" />
    <glyph glyph-name="Utilde" unicode="&#x168;" horiz-adv-x="681" 
d="M23 0zM339 -14q-104 0 -163 57.5t-59 160.5v403l-18 42l-76 10v35h249v-34l-71 -10l-17 -42v-401q0 -81 42.5 -126t118.5 -45q79 0 122 45t43 128v399l-18 42l-70 10v34h235v-35l-75 -10l-18 -42v-405q0 -99 -61 -157.5t-164 -58.5zM278 817q-15 0 -28.5 -14.5
t-24.5 -42.5l-30 10q16 59 37.5 84.5t51.5 25.5q14 0 32 -6.5t54 -26.5q28 -16 40 -20.5t20 -4.5q16 0 29.5 14.5t23.5 42.5l30 -10q-15 -57 -36.5 -83t-51.5 -26q-14 0 -32 6.5t-53 25.5q-29 16 -41 20.5t-21 4.5z" />
    <glyph glyph-name="utilde" unicode="&#x169;" horiz-adv-x="578" 
d="M17 0zM218 -14q-56 0 -87.5 38t-31.5 106v295l-19 41l-63 7v32h145v-365q0 -49 19 -74t56 -25q20 0 40 9.5t38 27.5q39 39 64.5 86t25.5 84v179l-18 40l-72 7v31h152v-424l19 -42l67 -7v-32h-148v44l7 105l-6 2q-53 -91 -95.5 -128t-92.5 -37zM199 659q-15 0 -28 -17
t-26 -52l-28 10q17 64 38 91.5t52 27.5q13 0 30 -7t50 -30q25 -17 36 -22t19 -5q15 0 28.5 17t26.5 51l28 -9q-18 -66 -39 -93t-52 -27q-13 0 -29 7t-49 29q-26 18 -37.5 23.5t-19.5 5.5z" />
    <glyph glyph-name="Umacron" unicode="&#x16a;" horiz-adv-x="681" 
d="M23 0zM339 -14q-104 0 -163 57.5t-59 160.5v403l-18 42l-76 10v35h249v-34l-71 -10l-17 -42v-401q0 -81 42.5 -126t118.5 -45q79 0 122 45t43 128v399l-18 42l-70 10v34h235v-35l-75 -10l-18 -42v-405q0 -99 -61 -157.5t-164 -58.5zM505 781h-312v49h312v-49z" />
    <glyph glyph-name="umacron" unicode="&#x16b;" horiz-adv-x="578" 
d="M17 0zM218 -14q-56 0 -87.5 38t-31.5 106v295l-19 41l-63 7v32h145v-365q0 -49 19 -74t56 -25q20 0 40 9.5t38 27.5q39 39 64.5 86t25.5 84v179l-18 40l-72 7v31h152v-424l19 -42l67 -7v-32h-148v44l7 105l-6 2q-53 -91 -95.5 -128t-92.5 -37zM410 618h-288v47h288v-47z
" />
    <glyph glyph-name="Ubreve" unicode="&#x16c;" horiz-adv-x="681" 
d="M23 0zM339 -14q-104 0 -163 57.5t-59 160.5v403l-18 42l-76 10v35h249v-34l-71 -10l-17 -42v-401q0 -81 42.5 -126t118.5 -45q79 0 122 45t43 128v399l-18 42l-70 10v34h235v-35l-75 -10l-18 -42v-405q0 -99 -61 -157.5t-164 -58.5zM349 761q-50 0 -88 35t-55 96l28 13
q25 -43 52.5 -63t62.5 -20t62.5 20t52.5 63l28 -13q-17 -61 -55 -96t-88 -35z" />
    <glyph glyph-name="ubreve" unicode="&#x16d;" horiz-adv-x="578" 
d="M17 0zM218 -14q-56 0 -87.5 38t-31.5 106v295l-19 41l-63 7v32h145v-365q0 -49 19 -74t56 -25q20 0 40 9.5t38 27.5q39 39 64.5 86t25.5 84v179l-18 40l-72 7v31h152v-424l19 -42l67 -7v-32h-148v44l7 105l-6 2q-53 -91 -95.5 -128t-92.5 -37zM266 591q-50 0 -86.5 41.5
t-45.5 108.5l27 9q22 -53 46 -75t59 -22t59 22t46 75l27 -9q-9 -67 -45.5 -108.5t-86.5 -41.5z" />
    <glyph glyph-name="Uring" unicode="&#x16e;" horiz-adv-x="681" 
d="M23 0zM339 -14q-104 0 -163 57.5t-59 160.5v403l-18 42l-76 10v35h249v-34l-71 -10l-17 -42v-401q0 -81 42.5 -126t118.5 -45q79 0 122 45t43 128v399l-18 42l-70 10v34h235v-35l-75 -10l-18 -42v-405q0 -99 -61 -157.5t-164 -58.5zM469 860q0 -43 -35.5 -74t-84.5 -31
t-84.5 30.5t-35.5 74.5q0 43 35.5 73.5t84.5 30.5q50 0 85 -30t35 -74zM273 860q0 -30 21 -49t55 -19t55 19t21 49t-21 49t-55 19t-55 -19t-21 -49z" />
    <glyph glyph-name="uring" unicode="&#x16f;" horiz-adv-x="578" 
d="M17 0zM218 -14q-56 0 -87.5 38t-31.5 106v295l-19 41l-63 7v32h145v-365q0 -49 19 -74t56 -25q20 0 40 9.5t38 27.5q39 39 64.5 86t25.5 84v179l-18 40l-72 7v31h152v-424l19 -42l67 -7v-32h-148v44l7 105l-6 2q-53 -91 -95.5 -128t-92.5 -37zM379 699q0 -46 -32.5 -77.5
t-80.5 -31.5t-80.5 31.5t-32.5 77.5q0 45 33 77t80 32t80 -32t33 -77zM196 699q0 -32 19.5 -52.5t50.5 -20.5t50.5 20.5t19.5 52.5q0 31 -19.5 51.5t-50.5 20.5t-50.5 -20.5t-19.5 -51.5z" />
    <glyph glyph-name="Uhungarumlaut" unicode="&#x170;" horiz-adv-x="681" 
d="M23 0zM339 -14q-104 0 -163 57.5t-59 160.5v403l-18 42l-76 10v35h249v-34l-71 -10l-17 -42v-401q0 -81 42.5 -126t118.5 -45q79 0 122 45t43 128v399l-18 42l-70 10v34h235v-35l-75 -10l-18 -42v-405q0 -99 -61 -157.5t-164 -58.5zM356 825l-111 -75l-18 21l88 107
q15 19 26 26.5t24 7.5q14 0 24 -10.5t10 -25.5q0 -12 -10 -23.5t-33 -27.5zM526 825l-111 -75l-19 21l89 107q17 20 27.5 27t22.5 7q14 0 24 -10.5t10 -25.5q0 -12 -10 -23.5t-33 -27.5z" />
    <glyph glyph-name="uhungarumlaut" unicode="&#x171;" horiz-adv-x="578" 
d="M17 0zM218 -14q-56 0 -87.5 38t-31.5 106v295l-19 41l-63 7v32h145v-365q0 -49 19 -74t56 -25q20 0 40 9.5t38 27.5q39 39 64.5 86t25.5 84v179l-18 40l-72 7v31h152v-424l19 -42l67 -7v-32h-148v44l7 105l-6 2q-53 -91 -95.5 -128t-92.5 -37zM281 687l-90 -104l-21 13
l60 130q10 23 20.5 33t25.5 10q14 0 23.5 -9t9.5 -23q0 -10 -6.5 -22t-21.5 -28zM429 687l-90 -104l-21 13l60 130q10 23 20.5 33t25.5 10q14 0 23 -9t9 -23q0 -10 -6.5 -21.5t-20.5 -28.5z" />
    <glyph glyph-name="Uogonek" unicode="&#x172;" horiz-adv-x="681" 
d="M436 -151l15 -22q-22 -22 -50.5 -34.5t-57.5 -12.5q-37 0 -60.5 21t-23.5 56q0 25 15.5 51t45.5 52l30 26h-11q-104 0 -163 57.5t-59 160.5v403l-18 42l-76 10v35h249v-34l-71 -10l-17 -42v-401q0 -81 42.5 -126t118.5 -45q79 0 122 45t43 128v399l-18 42l-70 10v34h235
v-35l-75 -10l-18 -42v-405q0 -82 -42 -137t-118 -72l-47 -43q-22 -20 -33.5 -40t-11.5 -37q0 -23 14 -36.5t38 -13.5q16 0 36.5 7.5t35.5 18.5z" />
    <glyph glyph-name="uogonek" unicode="&#x173;" horiz-adv-x="578" 
d="M525 -151l15 -22q-22 -22 -50.5 -34.5t-57.5 -12.5q-37 0 -60.5 21t-23.5 56q0 25 15.5 51t45.5 52l46 40h-50v44l7 105l-6 2q-53 -91 -95.5 -128t-92.5 -37q-56 0 -87.5 38t-31.5 106v295l-19 41l-63 7v32h145v-365q0 -49 19 -74t56 -25q20 0 40 9.5t38 27.5
q39 39 64.5 86t25.5 84v179l-18 40l-72 7v31h152v-424l19 -42l67 -7v-32h-52l-55 -50q-22 -20 -33.5 -40t-11.5 -37q0 -23 14 -36.5t38 -13.5q16 0 36.5 7.5t35.5 18.5z" />
    <glyph glyph-name="Wcircumflex" unicode="&#x174;" horiz-adv-x="971" 
d="M21 0zM320 -8h-75l-159 650l-65 17v35h218v-35l-62 -10l-17 -31l104 -449l17 -97h15l19 97l147 525h72l134 -525l16 -97h16l18 97l106 451l-17 28l-55 11v35h201v-35l-64 -17l-163 -650h-76l-131 505l-20 105h-13l-23 -105zM497 833l-117 -86l-22 23l124 132h32l124 -132
l-22 -23z" />
    <glyph glyph-name="wcircumflex" unicode="&#x175;" horiz-adv-x="788" 
d="M10 0zM266 -5h-68l-125 465l-63 13v32h194v-30l-49 -10l-9 -31l73 -290l13 -79h14l17 79l112 363h58l107 -363l16 -79h13l15 79l75 294l-12 29l-45 8v30h175v-32l-57 -13l-129 -465h-65l-103 344l-17 80h-14l-19 -80zM406 678l-103 -93l-22 20l113 150h26l113 -150
l-22 -20z" />
    <glyph glyph-name="Ycircumflex" unicode="&#x176;" horiz-adv-x="641" 
d="M11 0zM455 0h-274v35l85 10l18 42v202l-206 354l-67 16v35h226v-34l-57 -11l-12 -29l118 -207l33 -73h14l36 74l114 198l-12 36l-57 12v34h212v-35l-64 -16l-211 -352v-204l18 -42l86 -10v-35zM332 833l-117 -86l-22 23l124 132h32l124 -132l-22 -23z" />
    <glyph glyph-name="ycircumflex" unicode="&#x177;" horiz-adv-x="525" 
d="M9 0zM460 460l-165 -457q-34 -95 -80 -142.5t-105 -47.5q-33 0 -54 15t-21 39q0 21 18 34.5t45 12.5l34 -55q34 7 61 40.5t51 100.5l-173 460l-62 13v32h197v-30l-49 -10l-8 -30l96 -268l24 -93h12l23 93l94 270l-12 30l-45 8v30h175v-32zM281 678l-103 -93l-22 20
l113 150h26l113 -150l-22 -20z" />
    <glyph glyph-name="Ydieresis" unicode="&#x178;" horiz-adv-x="641" 
d="M11 0zM455 0h-274v35l85 10l18 42v202l-206 354l-67 16v35h226v-34l-57 -11l-12 -29l118 -207l33 -73h14l36 74l114 198l-12 36l-57 12v34h212v-35l-64 -16l-211 -352v-204l18 -42l86 -10v-35zM481 816q0 -22 -14.5 -37.5t-36.5 -15.5q-21 0 -36 15.5t-15 37.5t15 38
t36 16q22 0 36.5 -15.5t14.5 -38.5zM287 816q0 -22 -15 -37.5t-36 -15.5t-36 15.5t-15 37.5t15 38t36 16q22 0 36.5 -15.5t14.5 -38.5z" />
    <glyph glyph-name="Zacute" unicode="&#x179;" horiz-adv-x="595" 
d="M55 0zM534 0h-479v39l337 519l59 82l-3 12l-100 -3h-175l-38 -30l-16 -126h-40v201h455v-39l-337 -519l-60 -82l4 -12l99 3h200l38 30l16 128h40v-203zM396 823l-114 -73l-19 21l88 107q15 18 26.5 26t24.5 8q14 0 25.5 -11.5t11.5 -26.5q0 -13 -10 -25t-33 -26z" />
    <glyph glyph-name="zacute" unicode="&#x17a;" horiz-adv-x="496" 
d="M50 0zM434 0h-384v35l256 355l54 66l-5 10l-82 -2h-121l-31 -30l-13 -86h-38v157h369v-34l-257 -356l-51 -66l6 -10l81 3h134l31 30l13 92h38v-164zM331 685l-94 -103l-22 14l61 131q11 23 21 32.5t25 9.5q14 0 25 -10t11 -25q0 -10 -6 -21t-21 -28z" />
    <glyph glyph-name="Zdotaccent" unicode="&#x17b;" horiz-adv-x="595" 
d="M55 0zM534 0h-479v39l337 519l59 82l-3 12l-100 -3h-175l-38 -30l-16 -126h-40v201h455v-39l-337 -519l-60 -82l4 -12l99 3h200l38 30l16 128h40v-203zM362 832q0 -23 -15.5 -39t-38.5 -16t-38.5 15.5t-15.5 38.5t15.5 39t38.5 16t38.5 -16t15.5 -38z" />
    <glyph glyph-name="zdotaccent" unicode="&#x17c;" horiz-adv-x="496" 
d="M50 0zM434 0h-384v35l256 355l54 66l-5 10l-82 -2h-121l-31 -30l-13 -86h-38v157h369v-34l-257 -356l-51 -66l6 -10l81 3h134l31 30l13 92h38v-164zM308 661q0 -22 -15 -37t-37 -15t-37 15t-15 37t15 37t37 15t37 -15t15 -37z" />
    <glyph glyph-name="Zcaron" unicode="&#x17d;" horiz-adv-x="595" 
d="M55 0zM534 0h-479v39l337 519l59 82l-3 12l-100 -3h-175l-38 -30l-16 -126h-40v201h455v-39l-337 -519l-60 -82l4 -12l99 3h200l38 30l16 128h40v-203zM309 822l117 86l22 -23l-124 -132h-32l-124 132l22 23z" />
    <glyph glyph-name="zcaron" unicode="&#x17e;" horiz-adv-x="496" 
d="M50 0zM434 0h-384v35l256 355l54 66l-5 10l-82 -2h-121l-31 -30l-13 -86h-38v157h369v-34l-257 -356l-51 -66l6 -10l81 3h134l31 30l13 92h38v-164zM130 738l22 20l105 -92l103 92l22 -20l-113 -149h-26z" />
    <glyph glyph-name="uni018F" unicode="&#x18f;" horiz-adv-x="640" 
d="M306 710q127 0 202 -94.5t75 -262.5q0 -156 -79.5 -262.5t-200.5 -106.5q-114 0 -178 87t-64 244v36h447q-1 153 -57 233t-159 80q-29 0 -58 -6.5t-55 -18.5l-29 -144h-40v162q38 25 90.5 39t105.5 14zM309 30q84 0 138.5 76.5t59.5 199.5h-377q4 -137 49 -206.5
t130 -69.5z" />
    <glyph glyph-name="Ohorn" unicode="&#x1a0;" horiz-adv-x="684" 
d="M623 351q0 -164 -80 -265.5t-206 -101.5q-122 0 -201 100t-79 260q0 164 79.5 265t206.5 101q22 0 42 -1.5t53 -7.5q29 -4 44 -5.5t31 -1.5q38 0 59 7t30 23l-37 47q9 17 23 25.5t30 8.5q23 0 38 -16t15 -42q0 -47 -45.5 -74t-116.5 -20l-4 -8q59 -50 88.5 -123.5
t29.5 -170.5zM132 351q0 -146 57 -233.5t150 -87.5t151 86t58 227q0 146 -57 233.5t-150 87.5t-151 -86t-58 -227z" />
    <glyph glyph-name="ohorn" unicode="&#x1a1;" horiz-adv-x="543" 
d="M491 256q0 -117 -64 -194.5t-160 -77.5q-95 0 -157 75t-62 191q0 118 64 194.5t160 76.5q11 0 23.5 -1t36.5 -4q24 -4 37 -5t25 -1q28 0 44 6t22 18l-31 40q9 15 21.5 23t26.5 8q19 0 31.5 -14t12.5 -36q0 -38 -26.5 -59.5t-75.5 -21.5h-10l-2 -6q41 -37 62.5 -91.5
t21.5 -120.5zM116 262q0 -106 43 -170.5t113 -64.5q65 0 107 61.5t42 154.5q0 105 -43 170t-113 65q-66 0 -107.5 -61.5t-41.5 -154.5z" />
    <glyph glyph-name="Uhorn" unicode="&#x1af;" horiz-adv-x="714" 
d="M564 613v-411q0 -99 -61 -157.5t-164 -58.5q-104 0 -163 57.5t-59 160.5v403l-18 42l-76 10v35h249v-34l-71 -10l-17 -42v-401q0 -81 42.5 -126t118.5 -45q79 0 122 45t43 128v399l-18 42l-70 10v34h156q39 0 60 7t29 22l-37 48q9 16 22.5 25t30.5 9q23 0 38 -16t15 -42
q0 -41 -41.5 -67.5t-112.5 -27.5z" />
    <glyph glyph-name="uhorn" unicode="&#x1b0;" horiz-adv-x="605" 
d="M387 467l-72 7v31h145q36 0 55 7t26 22l-31 40q8 15 20.5 23t27.5 8q19 0 31.5 -14t12.5 -36q0 -37 -31 -60.5t-84 -23.5h-1l-19 -38v-352l19 -42l67 -7v-32h-148v44l7 105l-6 2q-53 -91 -95.5 -128t-92.5 -37q-56 0 -87.5 38t-31.5 106v295l-19 41l-63 7v32h145v-365
q0 -49 19 -74t56 -25q20 0 40 9.5t38 27.5q40 40 65 86.5t25 83.5v179z" />
    <glyph glyph-name="uni01CD" unicode="&#x1cd;" horiz-adv-x="686" 
d="M16 0zM161 46l63 -11v-35h-208v35l64 17l226 648h80l216 -647l65 -18v-35h-223v35l63 10l16 31l-53 162h-270l-55 -163zM330 636l-25 -90l-89 -263h239l-87 263l-23 90h-15zM347 827l117 86l22 -23l-124 -132h-32l-124 132l22 23z" />
    <glyph glyph-name="uni01CE" unicode="&#x1ce;" horiz-adv-x="516" 
d="M50 0zM358 104h-7q-48 -65 -87 -90t-86 -25q-57 0 -92.5 37.5t-35.5 98.5q0 31 10 55.5t31 45.5q29 29 75 43t110 14h78v77q0 55 -27 84t-78 29q-28 0 -53 -6.5t-53 -20.5l23 -61q-9 -13 -21.5 -19.5t-27.5 -6.5q-19 0 -31 14t-12 36q0 21 16 39.5t48 34.5
q37 18 70.5 26.5t66.5 8.5q65 0 103.5 -39.5t38.5 -109.5v-274q0 -34 14 -46t62 -20v-27l-70 -11q-36 13 -50.5 32.5t-14.5 54.5v26zM354 226v20h-74q-82 0 -124.5 -29.5t-42.5 -86.5q0 -41 23.5 -66.5t62.5 -25.5q27 0 52 13t56 44q26 26 36.5 54.5t10.5 76.5zM135 743
l22 20l105 -92l103 92l22 -20l-113 -149h-26z" />
    <glyph glyph-name="uni01CF" unicode="&#x1cf;" horiz-adv-x="342" 
d="M31 0zM304 0h-267v35l82 10l18 42v520l-18 42l-82 10v35h267v-35l-82 -10l-18 -42v-520l18 -42l82 -10v-35zM172 822l117 86l22 -23l-124 -132h-32l-124 132l22 23z" />
    <glyph glyph-name="uni01D0" unicode="&#x1d0;" horiz-adv-x="299" 
d="M20 0zM270 0h-233v32l66 7l19 42v344l-19 41l-66 7v32h148v-424l20 -42l65 -7v-32zM20 738l22 20l105 -92l103 92l22 -20l-113 -149h-26z" />
    <glyph glyph-name="uni01D1" unicode="&#x1d1;" horiz-adv-x="679" 
d="M57 0zM623 351q0 -164 -80 -265.5t-206 -101.5q-122 0 -201 100t-79 260q0 164 79.5 265t206.5 101q121 0 200.5 -100t79.5 -259zM132 351q0 -146 57 -233.5t150 -87.5t151 86t58 227q0 146 -57 233.5t-150 87.5t-151 -86t-58 -227zM344 827l117 86l22 -23l-124 -132h-32
l-124 132l22 23z" />
    <glyph glyph-name="uni01D2" unicode="&#x1d2;" horiz-adv-x="539" 
d="M48 0zM491 256q0 -117 -64 -194.5t-160 -77.5q-95 0 -157 75t-62 191q0 118 64 194.5t160 76.5q95 0 157 -74t62 -191zM117 262q0 -106 43 -170.5t113 -64.5q65 0 107 61.5t42 154.5q0 105 -43 170t-113 65q-66 0 -107.5 -61.5t-41.5 -154.5zM145 743l22 20l105 -92
l103 92l22 -20l-113 -149h-26z" />
    <glyph glyph-name="uni01D3" unicode="&#x1d3;" horiz-adv-x="681" 
d="M23 0zM339 -14q-104 0 -163 57.5t-59 160.5v403l-18 42l-76 10v35h249v-34l-71 -10l-17 -42v-401q0 -81 42.5 -126t118.5 -45q79 0 122 45t43 128v399l-18 42l-70 10v34h235v-35l-75 -10l-18 -42v-405q0 -99 -61 -157.5t-164 -58.5zM350 822l117 86l22 -23l-124 -132h-32
l-124 132l22 23z" />
    <glyph glyph-name="uni01D4" unicode="&#x1d4;" horiz-adv-x="578" 
d="M17 0zM218 -14q-56 0 -87.5 38t-31.5 106v295l-19 41l-63 7v32h145v-365q0 -49 19 -74t56 -25q20 0 40 9.5t38 27.5q39 39 64.5 86t25.5 84v179l-18 40l-72 7v31h152v-424l19 -42l67 -7v-32h-148v44l7 105l-6 2q-53 -91 -95.5 -128t-92.5 -37zM140 738l22 20l105 -92
l103 92l22 -20l-113 -149h-26z" />
    <glyph glyph-name="uni01D5" unicode="&#x1d5;" horiz-adv-x="681" 
d="M23 0zM339 -14q-104 0 -163 57.5t-59 160.5v403l-18 42l-76 10v35h249v-34l-71 -10l-17 -42v-401q0 -81 42.5 -126t118.5 -45q79 0 122 45t43 128v399l-18 42l-70 10v34h235v-35l-75 -10l-18 -42v-405q0 -99 -61 -157.5t-164 -58.5zM509 932h-320v48h320v-48zM303 816
q0 -22 -15 -37.5t-36 -15.5t-36 15.5t-15 37.5t15 38t36 16q22 0 36.5 -15.5t14.5 -38.5zM497 816q0 -22 -14.5 -37.5t-36.5 -15.5q-21 0 -36 15.5t-15 37.5t15 38t36 16q22 0 36.5 -15.5t14.5 -38.5z" />
    <glyph glyph-name="uni01D6" unicode="&#x1d6;" horiz-adv-x="578" 
d="M17 0zM218 -14q-56 0 -87.5 38t-31.5 106v295l-19 41l-63 7v32h145v-365q0 -49 19 -74t56 -25q20 0 40 9.5t38 27.5q39 39 64.5 86t25.5 84v179l-18 40l-72 7v31h152v-424l19 -42l67 -7v-32h-148v44l7 105l-6 2q-53 -91 -95.5 -128t-92.5 -37zM410 771h-288v47h288v-47z
M224 647q0 -21 -13.5 -35.5t-33.5 -14.5q-21 0 -35 14.5t-14 35.5q0 22 14 36.5t35 14.5q20 0 33.5 -14.5t13.5 -36.5zM404 647q0 -21 -13.5 -35.5t-33.5 -14.5q-21 0 -35 14.5t-14 35.5q0 22 14 36.5t35 14.5q20 0 33.5 -14.5t13.5 -36.5z" />
    <glyph glyph-name="uni01D7" unicode="&#x1d7;" horiz-adv-x="681" 
d="M23 0zM339 -14q-104 0 -163 57.5t-59 160.5v403l-18 42l-76 10v35h249v-34l-71 -10l-17 -42v-401q0 -81 42.5 -126t118.5 -45q79 0 122 45t43 128v399l-18 42l-70 10v34h235v-35l-75 -10l-18 -42v-405q0 -99 -61 -157.5t-164 -58.5zM444 974l-112 -72l-19 22l88 104
q14 17 25 24t24 7q14 0 24.5 -11t10.5 -26q0 -12 -10 -23.5t-31 -24.5zM497 816q0 -22 -14.5 -37.5t-36.5 -15.5q-21 0 -36 15.5t-15 37.5t15 38t36 16q22 0 36.5 -15.5t14.5 -38.5zM303 816q0 -22 -15 -37.5t-36 -15.5t-36 15.5t-15 37.5t15 38t36 16q22 0 36.5 -15.5
t14.5 -38.5z" />
    <glyph glyph-name="uni01D8" unicode="&#x1d8;" horiz-adv-x="578" 
d="M17 0zM218 -14q-56 0 -87.5 38t-31.5 106v295l-19 41l-63 7v32h145v-365q0 -49 19 -74t56 -25q20 0 40 9.5t38 27.5q39 39 64.5 86t25.5 84v179l-18 40l-72 7v31h152v-424l19 -42l67 -7v-32h-148v44l7 105l-6 2q-53 -91 -95.5 -128t-92.5 -37zM344 830l-80 -88l-23 15
l51 110q12 25 22 34.5t25 9.5q13 0 23 -9.5t10 -22.5q0 -11 -6.5 -22t-21.5 -27zM404 647q0 -21 -13.5 -35.5t-33.5 -14.5q-21 0 -35 14.5t-14 35.5q0 22 14 36.5t35 14.5q20 0 33.5 -14.5t13.5 -36.5zM224 647q0 -21 -13.5 -35.5t-33.5 -14.5q-21 0 -35 14.5t-14 35.5
q0 22 14 36.5t35 14.5q20 0 33.5 -14.5t13.5 -36.5z" />
    <glyph glyph-name="uni01D9" unicode="&#x1d9;" horiz-adv-x="681" 
d="M23 0zM339 -14q-104 0 -163 57.5t-59 160.5v403l-18 42l-76 10v35h249v-34l-71 -10l-17 -42v-401q0 -81 42.5 -126t118.5 -45q79 0 122 45t43 128v399l-18 42l-70 10v34h235v-35l-75 -10l-18 -42v-405q0 -99 -61 -157.5t-164 -58.5zM350 966l117 83l22 -25l-124 -125h-31
l-125 125l22 25zM497 816q0 -22 -14.5 -37.5t-36.5 -15.5q-21 0 -36 15.5t-15 37.5t15 38t36 16q22 0 36.5 -15.5t14.5 -38.5zM303 816q0 -22 -15 -37.5t-36 -15.5t-36 15.5t-15 37.5t15 38t36 16q22 0 36.5 -15.5t14.5 -38.5z" />
    <glyph glyph-name="uni01DA" unicode="&#x1da;" horiz-adv-x="578" 
d="M17 0zM218 -14q-56 0 -87.5 38t-31.5 106v295l-19 41l-63 7v32h145v-365q0 -49 19 -74t56 -25q20 0 40 9.5t38 27.5q39 39 64.5 86t25.5 84v179l-18 40l-72 7v31h152v-424l19 -42l67 -7v-32h-148v44l7 105l-6 2q-53 -91 -95.5 -128t-92.5 -37zM138 880l21 20l108 -87
l106 87l21 -20l-115 -138h-26zM404 647q0 -21 -13.5 -35.5t-33.5 -14.5q-21 0 -35 14.5t-14 35.5q0 22 14 36.5t35 14.5q20 0 33.5 -14.5t13.5 -36.5zM224 647q0 -21 -13.5 -35.5t-33.5 -14.5q-21 0 -35 14.5t-14 35.5q0 22 14 36.5t35 14.5q20 0 33.5 -14.5t13.5 -36.5z
" />
    <glyph glyph-name="uni01DB" unicode="&#x1db;" horiz-adv-x="681" 
d="M23 0zM339 -14q-104 0 -163 57.5t-59 160.5v403l-18 42l-76 10v35h249v-34l-71 -10l-17 -42v-401q0 -81 42.5 -126t118.5 -45q79 0 122 45t43 128v399l-18 42l-70 10v34h235v-35l-75 -10l-18 -42v-405q0 -99 -61 -157.5t-164 -58.5zM386 924l-19 -22l-112 72
q-22 13 -32 24.5t-10 23.5q0 15 11 26t25 11q12 0 23 -7t26 -24zM497 816q0 -22 -14.5 -37.5t-36.5 -15.5q-21 0 -36 15.5t-15 37.5t15 38t36 16q22 0 36.5 -15.5t14.5 -38.5zM303 816q0 -22 -15 -37.5t-36 -15.5t-36 15.5t-15 37.5t15 38t36 16q22 0 36.5 -15.5t14.5 -38.5
z" />
    <glyph glyph-name="uni01DC" unicode="&#x1dc;" horiz-adv-x="578" 
d="M17 0zM218 -14q-56 0 -87.5 38t-31.5 106v295l-19 41l-63 7v32h145v-365q0 -49 19 -74t56 -25q20 0 40 9.5t38 27.5q39 39 64.5 86t25.5 84v179l-18 40l-72 7v31h152v-424l19 -42l67 -7v-32h-148v44l7 105l-6 2q-53 -91 -95.5 -128t-92.5 -37zM291 757l-23 -15l-80 88
q-15 16 -21.5 27t-6.5 22q0 13 10 22.5t23 9.5q15 0 25 -9.5t22 -34.5zM404 647q0 -21 -13.5 -35.5t-33.5 -14.5q-21 0 -35 14.5t-14 35.5q0 22 14 36.5t35 14.5q20 0 33.5 -14.5t13.5 -36.5zM224 647q0 -21 -13.5 -35.5t-33.5 -14.5q-21 0 -35 14.5t-14 35.5q0 22 14 36.5
t35 14.5q20 0 33.5 -14.5t13.5 -36.5z" />
    <glyph glyph-name="Gcaron" unicode="&#x1e6;" horiz-adv-x="661" 
d="M57 0zM554 249v-200q-45 -31 -97 -47t-104 -16q-137 0 -216.5 96t-79.5 262q0 157 85 260.5t212 103.5q39 0 71.5 -8.5t68.5 -29.5l23 35h27v-213h-40l-32 134q-27 18 -56 27t-61 9q-100 0 -162 -88t-62 -225q0 -149 59.5 -233.5t166.5 -84.5q41 0 75 10t59 29v177
l-18 42l-87 10v34h241v-33l-56 -11zM353 827l117 86l22 -23l-124 -132h-32l-124 132l22 23z" />
    <glyph glyph-name="gcaron" unicode="&#x1e7;" horiz-adv-x="547" 
d="M21 0zM496 -11q0 -70 -82 -123.5t-188 -53.5q-91 0 -148 32.5t-57 82.5q0 29 27.5 56.5t94.5 63.5v5q-29 11 -44.5 26.5t-15.5 33.5q0 20 16 36.5t59 40.5v6q-44 21 -71.5 61t-27.5 87q0 71 57 123t132 52q37 0 67.5 -11.5t57.5 -36.5l137 46h6v-68l-116 -8l-3 -7
q17 -21 25.5 -44t8.5 -46q0 -72 -56 -120.5t-133 -48.5q-13 0 -25.5 2t-22.5 5q-27 -18 -38.5 -29.5t-11.5 -22.5q0 -15 19 -24t55 -12l144 -9q69 -5 101.5 -28t32.5 -67zM126 342q0 -56 34 -93.5t86 -37.5q50 0 84 37.5t34 95.5t-33.5 96.5t-85.5 38.5q-51 0 -85 -38.5
t-34 -98.5zM88 -67q0 -37 39.5 -59t107.5 -22q83 0 143 36t60 83q0 28 -23 42t-73 17l-158 10q-50 -31 -73 -56.5t-23 -50.5zM132 743l22 20l105 -92l103 92l22 -20l-113 -149h-26z" />
    <glyph glyph-name="uni01EA" unicode="&#x1ea;" horiz-adv-x="679" 
d="M417 -151l15 -22q-22 -22 -50.5 -34.5t-57.5 -12.5q-37 0 -60.5 21t-23.5 56q0 25 15.5 51t45.5 52l28 24q-119 4 -195.5 103.5t-76.5 256.5q0 164 79.5 265t206.5 101q121 0 200.5 -100t79.5 -259q0 -149 -67 -248t-177 -116l-41 -37q-22 -20 -33.5 -40t-11.5 -37
q0 -23 14 -36.5t38 -13.5q16 0 36.5 7.5t35.5 18.5zM132 351q0 -146 57 -233.5t150 -87.5t151 86t58 227q0 146 -57 233.5t-150 87.5t-151 -86t-58 -227z" />
    <glyph glyph-name="uni01EB" unicode="&#x1eb;" horiz-adv-x="539" 
d="M360 -151l15 -22q-22 -22 -50.5 -34.5t-57.5 -12.5q-37 0 -60.5 21t-23.5 56q0 25 15.5 51t45.5 52l28 24h-5q-95 0 -157 75t-62 191q0 118 64 194.5t160 76.5q95 0 157 -74t62 -191q0 -95 -44.5 -166.5t-117.5 -95.5l-48 -44q-22 -20 -33.5 -40t-11.5 -37
q0 -23 14 -36.5t38 -13.5q16 0 36.5 7.5t35.5 18.5zM117 262q0 -106 43 -170.5t113 -64.5q65 0 107 61.5t42 154.5q0 105 -43 170t-113 65q-66 0 -107.5 -61.5t-41.5 -154.5z" />
    <glyph glyph-name="uni01F0" unicode="&#x1f0;" horiz-adv-x="286" 
d="M0 0zM135 -144q-20 -21 -48 -32.5t-58 -11.5q-36 0 -58 14t-22 37q0 22 22 34t48 5l24 -53q41 5 62 41.5t21 102.5v432l-20 41l-69 7v32h151v-463q0 -68 -12.5 -113t-40.5 -73zM16 738l22 20l105 -92l103 92l22 -20l-113 -149h-26z" />
    <glyph glyph-name="uni01F8" unicode="&#x1f8;" horiz-adv-x="722" 
d="M35 0zM279 0h-244v35l78 10l18 42v520l-18 42l-78 10v35h189l264 -484l49 -110h13l-3 112v396l-18 42l-77 10v34h242v-35l-77 -10l-18 -42v-609h-72l-284 520l-50 108h-12l3 -111v-429l18 -42l77 -10v-34zM406 758l-19 -21l-114 73q-23 14 -33 26t-10 25q0 15 11.5 26.5
t25.5 11.5q13 0 24.5 -8t26.5 -26z" />
    <glyph glyph-name="uni01F9" unicode="&#x1f9;" horiz-adv-x="586" 
d="M34 0zM250 0h-216v32l66 7l19 42v344l-19 41l-66 7v32h148v-44l-8 -104l6 -3q53 91 95.5 128t92.5 37q56 0 87.5 -37.5t31.5 -104.5v-296l19 -42l63 -7v-32h-208v31l48 9l15 38v288q0 48 -19 73t-56 25q-20 0 -40 -9.5t-38 -26.5q-39 -40 -64 -87t-25 -84v-179l17 -39
l51 -8v-31zM337 601l-22 -14l-94 103q-15 17 -21 28t-6 21q0 14 11.5 24.5t25.5 10.5t24.5 -9.5t20.5 -32.5z" />
    <glyph glyph-name="uni0218" unicode="&#x218;" horiz-adv-x="569" 
d="M68 0zM309 386q110 -47 154 -94t44 -116q0 -81 -62 -134t-156 -53q-42 0 -82.5 12t-86.5 40l-25 -46h-27v227h40l32 -136q35 -25 73.5 -38t77.5 -13q65 0 107 36.5t42 92.5q0 54 -36 89t-129 75q-103 44 -146 89.5t-43 111.5q0 76 58 126t140 50q37 0 72 -9.5t69 -28.5
l25 35h26v-207h-40l-33 131q-28 17 -56 25t-60 8q-59 0 -96.5 -33.5t-37.5 -88.5q0 -48 35 -81.5t121 -69.5zM291 -87q23 0 37 -16.5t14 -43.5q0 -40 -29.5 -77t-80.5 -61l-13 25q29 17 47.5 38t24.5 43l-52 30q0 1 -0.5 2t-0.5 2q0 23 15.5 40.5t37.5 17.5z" />
    <glyph glyph-name="uni0219" unicode="&#x219;" horiz-adv-x="459" 
d="M55 0zM253 287q87 -34 119 -67.5t32 -85.5q0 -67 -52.5 -107.5t-134.5 -40.5q-37 0 -76.5 8.5t-85.5 27.5v132h38l24 -105q22 -11 47.5 -16.5t54.5 -5.5q52 0 87.5 26.5t35.5 66.5q0 39 -27 63.5t-98 52.5q-86 34 -117.5 65.5t-31.5 79.5q0 61 50.5 99.5t125.5 38.5
q37 0 72.5 -7t62.5 -19v-119h-39l-24 94q-19 6 -35.5 8.5t-36.5 2.5q-48 0 -80.5 -24.5t-32.5 -58.5q0 -36 25 -58t97 -51zM227 -92q23 0 37 -16.5t14 -43.5q0 -40 -29.5 -77t-80.5 -61l-13 25q29 17 47.5 38t24.5 43l-52 30q0 1 -0.5 2t-0.5 2q0 23 15.5 40.5t37.5 17.5z
" />
    <glyph glyph-name="uni021A" unicode="&#x21a;" horiz-adv-x="640" 
d="M50 0zM457 0h-274v35l85 10l18 42v561h-143l-37 -29l-15 -128h-41v203h540v-203h-41l-15 128l-38 29h-143v-561l18 -42l86 -10v-35zM321 -82q23 0 37 -16.5t14 -43.5q0 -40 -29.5 -77t-80.5 -61l-13 25q29 17 47.5 38t24.5 43l-52 30q0 1 -0.5 2t-0.5 2q0 23 15.5 40.5
t37.5 17.5z" />
    <glyph glyph-name="uni021B" unicode="&#x21b;" horiz-adv-x="384" 
d="M20 0zM226 -11q-55 0 -86 33.5t-31 92.5v344h-89v38l87 11l23 150h41v-153h172v-46h-172v-321q0 -49 18.5 -73.5t56.5 -24.5q17 0 38.5 7t58.5 26l16 -28q-34 -27 -68.5 -41.5t-64.5 -14.5zM215 -92q23 0 37 -16.5t14 -43.5q0 -40 -29.5 -77t-80.5 -61l-13 25
q29 17 47.5 38t24.5 43l-52 30q0 1 -0.5 2t-0.5 2q0 23 15.5 40.5t37.5 17.5z" />
    <glyph glyph-name="uni0226" unicode="&#x226;" horiz-adv-x="686" 
d="M16 0zM161 46l63 -11v-35h-208v35l64 17l226 648h80l216 -647l65 -18v-35h-223v35l63 10l16 31l-53 162h-270l-55 -163zM330 636l-25 -90l-89 -263h239l-87 263l-23 90h-15zM400 837q0 -23 -15.5 -39t-38.5 -16t-38.5 15.5t-15.5 38.5t15.5 39t38.5 16t38.5 -16t15.5 -38
z" />
    <glyph glyph-name="uni0227" unicode="&#x227;" horiz-adv-x="516" 
d="M50 0zM358 104h-7q-48 -65 -87 -90t-86 -25q-57 0 -92.5 37.5t-35.5 98.5q0 31 10 55.5t31 45.5q29 29 75 43t110 14h78v77q0 55 -27 84t-78 29q-28 0 -53 -6.5t-53 -20.5l23 -61q-9 -13 -21.5 -19.5t-27.5 -6.5q-19 0 -31 14t-12 36q0 21 16 39.5t48 34.5
q37 18 70.5 26.5t66.5 8.5q65 0 103.5 -39.5t38.5 -109.5v-274q0 -34 14 -46t62 -20v-27l-70 -11q-36 13 -50.5 32.5t-14.5 54.5v26zM354 226v20h-74q-82 0 -124.5 -29.5t-42.5 -86.5q0 -41 23.5 -66.5t62.5 -25.5q27 0 52 13t56 44q26 26 36.5 54.5t10.5 76.5zM313 666
q0 -22 -15 -37t-37 -15t-37 15t-15 37t15 37t37 15t37 -15t15 -37z" />
    <glyph glyph-name="uni022E" unicode="&#x22e;" horiz-adv-x="679" 
d="M57 0zM623 351q0 -164 -80 -265.5t-206 -101.5q-122 0 -201 100t-79 260q0 164 79.5 265t206.5 101q121 0 200.5 -100t79.5 -259zM132 351q0 -146 57 -233.5t150 -87.5t151 86t58 227q0 146 -57 233.5t-150 87.5t-151 -86t-58 -227zM397 837q0 -23 -15.5 -39t-38.5 -16
t-38.5 15.5t-15.5 38.5t15.5 39t38.5 16t38.5 -16t15.5 -38z" />
    <glyph glyph-name="uni022F" unicode="&#x22f;" horiz-adv-x="539" 
d="M48 0zM491 256q0 -117 -64 -194.5t-160 -77.5q-95 0 -157 75t-62 191q0 118 64 194.5t160 76.5q95 0 157 -74t62 -191zM117 262q0 -106 43 -170.5t113 -64.5q65 0 107 61.5t42 154.5q0 105 -43 170t-113 65q-66 0 -107.5 -61.5t-41.5 -154.5zM323 666q0 -22 -15 -37
t-37 -15t-37 15t-15 37t15 37t37 15t37 -15t15 -37z" />
    <glyph glyph-name="uni0232" unicode="&#x232;" horiz-adv-x="641" 
d="M11 0zM455 0h-274v35l85 10l18 42v202l-206 354l-67 16v35h226v-34l-57 -11l-12 -29l118 -207l33 -73h14l36 74l114 198l-12 36l-57 12v34h212v-35l-64 -16l-211 -352v-204l18 -42l86 -10v-35zM489 781h-312v49h312v-49z" />
    <glyph glyph-name="uni0233" unicode="&#x233;" horiz-adv-x="525" 
d="M9 0zM460 460l-165 -457q-34 -95 -80 -142.5t-105 -47.5q-33 0 -54 15t-21 39q0 21 18 34.5t45 12.5l34 -55q34 7 61 40.5t51 100.5l-173 460l-62 13v32h197v-30l-49 -10l-8 -30l96 -268l24 -93h12l23 93l94 270l-12 30l-45 8v30h175v-32zM426 618h-288v47h288v-47z" />
    <glyph glyph-name="uni0237" unicode="&#x237;" horiz-adv-x="286" 
d="M135 -144q-20 -21 -48 -32.5t-58 -11.5q-36 0 -58 14t-22 37q0 22 22 34t48 5l24 -53q41 5 62 41.5t21 102.5v432l-20 41l-69 7v32h151v-463q0 -68 -12.5 -113t-40.5 -73z" />
    <glyph glyph-name="uni0259" unicode="&#x259;" horiz-adv-x="501" 
d="M87 427l-21 31q38 32 79 47.5t87 15.5q100 0 160 -72.5t60 -190.5t-62.5 -195t-154.5 -77q-82 0 -132 65.5t-50 175.5v30h332q-3 102 -48 158.5t-122 56.5q-32 0 -63 -11t-65 -34zM243 28q59 0 98.5 53.5t43.5 135.5h-268q4 -90 37 -139.5t89 -49.5z" />
    <glyph glyph-name="uni02B9" unicode="&#x2b9;" horiz-adv-x="267" 
d="M68 466zM209 713l-114 -247l-27 6l57 251h84v-10z" />
    <glyph glyph-name="uni02BA" unicode="&#x2ba;" horiz-adv-x="448" 
d="M68 466zM209 713l-114 -247l-27 6l57 251h84v-10zM390 713l-113 -247l-27 6l57 251h83v-10z" />
    <glyph glyph-name="uni02BB" unicode="&#x2bb;" horiz-adv-x="283" 
d="M70 464zM121 588l64 -47q4 -32 -11.5 -54.5t-42.5 -22.5q-28 0 -44.5 24t-16.5 65q0 59 34.5 107.5t96.5 76.5l14 -26q-43 -23 -66.5 -54t-27.5 -69z" />
    <glyph glyph-name="uni02BC" unicode="&#x2bc;" horiz-adv-x="283" 
d="M68 459zM152 732q28 0 44.5 -24t16.5 -66q0 -59 -34.5 -107t-96.5 -76l-14 26q41 22 65.5 53.5t29.5 69.5l-65 47q-4 32 11.5 54.5t42.5 22.5z" />
    <glyph glyph-name="uni02BE" unicode="&#x2be;" horiz-adv-x="235" 
d="M195 654q0 -61 -42.5 -102.5t-107.5 -41.5v42q43 0 72 29t29 73t-29 72.5t-72 28.5v42q65 0 107.5 -41.5t42.5 -101.5z" />
    <glyph glyph-name="uni02BF" unicode="&#x2bf;" horiz-adv-x="235" 
d="M190 552v-42q-65 0 -107.5 41.5t-42.5 102.5t42.5 102t107.5 41v-42q-44 0 -72.5 -28.5t-28.5 -72.5q0 -45 28.5 -73.5t72.5 -28.5z" />
    <glyph glyph-name="circumflex" unicode="&#x2c6;" horiz-adv-x="500" 
d="M124 585zM249 678l-103 -93l-22 20l113 150h26l113 -150l-22 -20z" />
    <glyph glyph-name="caron" unicode="&#x2c7;" horiz-adv-x="500" 
d="M124 589zM124 738l22 20l105 -92l103 92l22 -20l-113 -149h-26z" />
    <glyph glyph-name="uni02C8" unicode="&#x2c8;" horiz-adv-x="149" 
d="M99 510h-49v287h49v-287z" />
    <glyph glyph-name="uni02CC" unicode="&#x2cc;" horiz-adv-x="149" 
d="M99 -105h-49v287h49v-287z" />
    <glyph glyph-name="uni02CD" unicode="&#x2cd;" horiz-adv-x="500" 
d="M106 -87zM394 -135h-288v48h288v-48z" />
    <glyph glyph-name="breve" unicode="&#x2d8;" horiz-adv-x="500" 
d="M118 591zM250 591q-50 0 -86.5 41.5t-45.5 108.5l27 9q22 -53 46 -75t59 -22t59 22t46 75l27 -9q-9 -67 -45.5 -108.5t-86.5 -41.5z" />
    <glyph glyph-name="dotaccent" unicode="&#x2d9;" horiz-adv-x="500" 
d="M198 609zM302 661q0 -22 -15 -37t-37 -15t-37 15t-15 37t15 37t37 15t37 -15t15 -37z" />
    <glyph glyph-name="ring" unicode="&#x2da;" horiz-adv-x="500" 
d="M137 590zM363 699q0 -46 -32.5 -77.5t-80.5 -31.5t-80.5 31.5t-32.5 77.5q0 45 33 77t80 32t80 -32t33 -77zM180 699q0 -32 19.5 -52.5t50.5 -20.5t50.5 20.5t19.5 52.5q0 31 -19.5 51.5t-50.5 20.5t-50.5 -20.5t-19.5 -51.5z" />
    <glyph glyph-name="ogonek" unicode="&#x2db;" horiz-adv-x="500" 
d="M137 0zM242 -177q16 0 36.5 7.5t35.5 18.5l15 -22q-22 -22 -50.5 -34.5t-57.5 -12.5q-37 0 -60.5 21t-23.5 56q0 25 15.5 51t45.5 52l67 58h45l-75 -68q-22 -20 -33.5 -40t-11.5 -37q0 -23 14 -36.5t38 -13.5z" />
    <glyph glyph-name="tilde" unicode="&#x2dc;" horiz-adv-x="500" 
d="M100 590zM182 659q-15 0 -28 -17t-26 -52l-28 10q17 64 38 91.5t52 27.5q13 0 30 -7t50 -30q25 -17 36 -22t19 -5q15 0 28.5 17t26.5 51l28 -9q-18 -66 -39 -93t-52 -27q-13 0 -29 7t-49 29q-26 18 -37.5 23.5t-19.5 5.5z" />
    <glyph glyph-name="hungarumlaut" unicode="&#x2dd;" horiz-adv-x="500" 
d="M144 583zM255 687l-90 -104l-21 13l60 130q10 23 20.5 33t25.5 10q14 0 23.5 -9t9.5 -23q0 -10 -6.5 -22t-21.5 -28zM403 687l-90 -104l-21 13l60 130q10 23 20.5 33t25.5 10q14 0 23 -9t9 -23q0 -10 -6.5 -21.5t-20.5 -28.5z" />
    <glyph glyph-name="uni0300" unicode="&#x300;" 
d="M41 596l-22 -14l-94 103q-15 17 -21 28t-6 21q0 14 11.5 24.5t25.5 10.5t24.5 -9.5t20.5 -32.5z" />
    <glyph glyph-name="uni0301" unicode="&#x301;" 
d="M75 685l-94 -103l-22 14l61 131q11 23 21 32.5t25 9.5q14 0 25 -10t11 -25q0 -10 -6 -21t-21 -28z" />
    <glyph glyph-name="uni0302" unicode="&#x302;" 
d="M-1 678l-103 -93l-22 20l113 150h26l113 -150l-22 -20z" />
    <glyph glyph-name="uni0303" unicode="&#x303;" 
d="M-67 659q-15 0 -28 -17t-26 -52l-28 10q17 64 38 91.5t52 27.5q13 0 30 -7t50 -30q25 -17 36 -22t19 -5q15 0 28.5 17t26.5 51l28 -9q-18 -66 -39 -93t-52 -27q-13 0 -29 7t-49 29q-26 18 -37.5 23.5t-19.5 5.5z" />
    <glyph glyph-name="uni0304" unicode="&#x304;" 
d="M144 618h-288v47h288v-47z" />
    <glyph glyph-name="uni0306" unicode="&#x306;" 
d="M0 591q-50 0 -86.5 41.5t-45.5 108.5l27 9q22 -53 46 -75t59 -22t59 22t46 75l27 -9q-9 -67 -45.5 -108.5t-86.5 -41.5z" />
    <glyph glyph-name="uni0307" unicode="&#x307;" 
d="M52 661q0 -22 -15 -37t-37 -15t-37 15t-15 37t15 37t37 15t37 -15t15 -37z" />
    <glyph glyph-name="uni0308" unicode="&#x308;" 
d="M138 647q0 -21 -13.5 -35.5t-33.5 -14.5q-22 0 -35.5 14t-13.5 36t13.5 36.5t35.5 14.5q20 0 33.5 -14.5t13.5 -36.5zM-42 647q0 -22 -13.5 -36t-33.5 -14q-21 0 -35 14.5t-14 35.5q0 22 14 36.5t35 14.5t34 -14.5t13 -36.5z" />
    <glyph glyph-name="uni0309" unicode="&#x309;" 
d="M-8 761q56 0 88.5 -20t32.5 -54q0 -37 -41.5 -61.5t-113.5 -31.5v32q50 8 75 21t25 30q0 16 -19 25.5t-54 9.5q-11 0 -24 -1.5t-41 -5.5l-7 45q20 5 40 8t39 3z" />
    <glyph glyph-name="uni030A" unicode="&#x30a;" 
d="M113 699q0 -46 -32.5 -77.5t-80.5 -31.5t-80.5 31.5t-32.5 77.5q0 45 33 77t80 32t80 -32t33 -77zM-70 699q0 -32 19.5 -52.5t50.5 -20.5t50.5 20.5t19.5 52.5q0 31 -19.5 51.5t-50.5 20.5t-50.5 -20.5t-19.5 -51.5z" />
    <glyph glyph-name="uni030B" unicode="&#x30b;" 
d="M15 687l-90 -104l-21 13l60 130q10 23 20.5 33t25.5 10q14 0 23.5 -9t9.5 -23q0 -10 -6.5 -22t-21.5 -28zM163 687l-90 -104l-21 13l60 130q10 23 20.5 33t25.5 10q14 0 23 -9t9 -23q0 -10 -6.5 -21.5t-20.5 -28.5z" />
    <glyph glyph-name="uni030C" unicode="&#x30c;" 
d="M-126 738l22 20l105 -92l103 92l22 -20l-113 -149h-26z" />
    <glyph glyph-name="uni0312" unicode="&#x312;" 
d="M53 672v-4q0 -24 -15.5 -41.5t-37.5 -17.5q-23 0 -37 16.5t-14 43.5q0 40 29.5 77t80.5 61l13 -25q-29 -17 -47.5 -38t-23.5 -43z" />
    <glyph glyph-name="uni0315" unicode="&#x315;" 
d="M63 689l-38 -124l-25 2v150q0 30 9.5 44.5t29.5 14.5q17 0 26 -9.5t9 -26.5q0 -7 -1.5 -15t-9.5 -36z" />
    <glyph glyph-name="uni0323" unicode="&#x323;" 
d="M52 -133q0 -23 -15 -38t-37 -15t-37 15t-15 37t15 37t37 15t37 -15t15 -36z" />
    <glyph glyph-name="uni0324" unicode="&#x324;" 
d="M138 -120q0 -21 -13.5 -35.5t-33.5 -14.5q-21 0 -35 14.5t-14 35.5q0 22 14 36.5t35 14.5q20 0 33.5 -14.5t13.5 -36.5zM-42 -120q0 -21 -13.5 -35.5t-33.5 -14.5q-21 0 -35 14.5t-14 35.5q0 22 14 36.5t35 14.5q20 0 33.5 -14.5t13.5 -36.5z" />
    <glyph glyph-name="uni0326" unicode="&#x326;" 
d="M1 -82q23 0 37 -16.5t14 -43.5q0 -40 -29.5 -77t-80.5 -61l-13 25q29 17 47.5 38t24.5 43l-52 30q0 1 -0.5 2t-0.5 2q0 23 15.5 40.5t37.5 17.5z" />
    <glyph glyph-name="uni0327" unicode="&#x327;" 
d="M98 -139q0 -37 -31.5 -60t-78.5 -23q-28 0 -52.5 6t-45.5 18l12 27q19 -9 37 -13.5t36 -4.5q31 0 50 12.5t19 32.5q0 22 -21 34.5t-58 12.5h-20l-14 17l74 98h43l-63 -79q53 -1 83 -21.5t30 -56.5z" />
    <glyph glyph-name="uni0328" unicode="&#x328;" 
d="M-11 -177q16 0 36.5 7.5t35.5 18.5l15 -22q-22 -22 -50.5 -34.5t-57.5 -12.5q-37 0 -60.5 21t-23.5 56q0 25 15.5 51t45.5 52l67 58h45l-75 -68q-22 -20 -33.5 -40t-11.5 -37q0 -23 14 -36.5t38 -13.5z" />
    <glyph glyph-name="uni032D" unicode="&#x32d;" 
d="M-1 -136l-103 -93l-22 20l113 150h26l113 -150l-22 -20z" />
    <glyph glyph-name="uni032E" unicode="&#x32e;" 
d="M0 -211q-50 0 -86.5 41.5t-45.5 107.5l27 9q22 -53 46 -74.5t59 -21.5t59 22t46 74l27 -9q-9 -66 -45.5 -107.5t-86.5 -41.5z" />
    <glyph glyph-name="uni0331" unicode="&#x331;" 
d="M144 -135h-288v48h288v-48z" />
    <glyph glyph-name="uni0E3F" unicode="&#xe3f;" horiz-adv-x="629" 
d="M572 180q0 -79 -60 -126t-167 -53v-129h-43v128h-267v35l78 10l18 42v520l-18 42l-78 10v35h267v94h43v-95q99 -4 154 -45.5t55 -112.5q0 -61 -46.5 -106t-129.5 -66v-6q91 -15 142.5 -61.5t51.5 -115.5zM196 651v-272h76q6 0 13.5 0.5t18.5 1.5v270h-108zM482 529
q0 54 -36 85t-103 36v-263q64 15 101.5 53t37.5 89zM196 336v-293h108v292q-4 1 -9 1h-16h-83zM499 181q0 58 -41.5 97.5t-114.5 52.5v-287q75 6 115.5 41.5t40.5 95.5z" />
    <glyph glyph-name="uni1E06" unicode="&#x1e06;" horiz-adv-x="615" 
d="M35 0zM296 0h-261v35l78 10l18 42v520l-18 42l-78 10v35h272q108 0 169.5 -42t61.5 -117q0 -62 -47 -106.5t-130 -64.5v-7q92 -15 143.5 -61t51.5 -116q0 -85 -69.5 -132.5t-190.5 -47.5zM198 650v-271h54q93 0 153 42.5t60 109.5q0 58 -42.5 88.5t-122.5 30.5h-102z
M198 336v-292h95q90 0 140.5 36t50.5 101q0 71 -61.5 113t-163.5 42h-61zM456 -135h-288v48h288v-48z" />
    <glyph glyph-name="uni1E07" unicode="&#x1e07;" horiz-adv-x="558" 
d="M6 0zM111 -12h-29l10 151v524l-18 42l-68 7v32h149v-280l-7 -94l7 -2q49 82 90 116.5t86 34.5q79 0 128.5 -71t49.5 -188q0 -116 -60 -193t-145 -77q-40 0 -76.5 13.5t-86.5 48.5zM298 36q62 0 102.5 58.5t40.5 150.5q0 102 -34.5 162t-89.5 60q-19 0 -37.5 -8.5
t-34.5 -24.5q-46 -47 -68 -89t-22 -81v-161q41 -36 75 -51.5t68 -15.5zM423 -145h-288v48h288v-48z" />
    <glyph glyph-name="uni1E0C" unicode="&#x1e0c;" horiz-adv-x="669" 
d="M35 0zM272 0h-237v35l78 10l18 42v520l-18 42l-78 10v35h240q158 0 247.5 -88.5t89.5 -249.5q0 -168 -90.5 -262t-249.5 -94zM198 649v-604h70q134 0 202 77t68 228q0 146 -69.5 222.5t-201.5 76.5h-69zM375 -133q0 -23 -15 -38t-37 -15t-37 15t-15 37t15 37t37 15
t37 -15t15 -36z" />
    <glyph glyph-name="uni1E0D" unicode="&#x1e0d;" horiz-adv-x="576" 
d="M49 0zM227 -11q-79 0 -128.5 71.5t-49.5 189.5q0 116 60 192.5t143 76.5q36 0 71 -12.5t82 -44.5l5 3l-7 64v134l-19 42l-68 7v32h150v-663l19 -42l67 -7v-32h-149v47l7 94l-7 2q-51 -85 -91.5 -119.5t-84.5 -34.5zM117 266q0 -103 34 -163.5t90 -60.5q19 0 37 8.5
t35 25.5q45 45 67.5 87.5t22.5 81.5v164q-38 33 -72.5 48.5t-69.5 15.5q-62 0 -103 -58.5t-41 -148.5zM327 -143q0 -23 -15 -38t-37 -15t-37 15t-15 37t15 37t37 15t37 -15t15 -36z" />
    <glyph glyph-name="uni1E0E" unicode="&#x1e0e;" horiz-adv-x="669" 
d="M35 0zM272 0h-237v35l78 10l18 42v520l-18 42l-78 10v35h240q158 0 247.5 -88.5t89.5 -249.5q0 -168 -90.5 -262t-249.5 -94zM198 649v-604h70q134 0 202 77t68 228q0 146 -69.5 222.5t-201.5 76.5h-69zM467 -135h-288v48h288v-48z" />
    <glyph glyph-name="uni1E0F" unicode="&#x1e0f;" horiz-adv-x="576" 
d="M49 0zM227 -11q-79 0 -128.5 71.5t-49.5 189.5q0 116 60 192.5t143 76.5q36 0 71 -12.5t82 -44.5l5 3l-7 64v134l-19 42l-68 7v32h150v-663l19 -42l67 -7v-32h-149v47l7 94l-7 2q-51 -85 -91.5 -119.5t-84.5 -34.5zM117 266q0 -103 34 -163.5t90 -60.5q19 0 37 8.5
t35 25.5q45 45 67.5 87.5t22.5 81.5v164q-38 33 -72.5 48.5t-69.5 15.5q-62 0 -103 -58.5t-41 -148.5zM419 -145h-288v48h288v-48z" />
    <glyph glyph-name="uni1E12" unicode="&#x1e12;" horiz-adv-x="669" 
d="M35 0zM272 0h-237v35l78 10l18 42v520l-18 42l-78 10v35h240q158 0 247.5 -88.5t89.5 -249.5q0 -168 -90.5 -262t-249.5 -94zM198 649v-604h70q134 0 202 77t68 228q0 146 -69.5 222.5t-201.5 76.5h-69zM322 -136l-103 -93l-22 20l113 150h26l113 -150l-22 -20z" />
    <glyph glyph-name="uni1E13" unicode="&#x1e13;" horiz-adv-x="576" 
d="M49 0zM227 -11q-79 0 -128.5 71.5t-49.5 189.5q0 116 60 192.5t143 76.5q36 0 71 -12.5t82 -44.5l5 3l-7 64v134l-19 42l-68 7v32h150v-663l19 -42l67 -7v-32h-149v47l7 94l-7 2q-51 -85 -91.5 -119.5t-84.5 -34.5zM117 266q0 -103 34 -163.5t90 -60.5q19 0 37 8.5
t35 25.5q45 45 67.5 87.5t22.5 81.5v164q-38 33 -72.5 48.5t-69.5 15.5q-62 0 -103 -58.5t-41 -148.5zM274 -146l-103 -93l-22 20l113 150h26l113 -150l-22 -20z" />
    <glyph glyph-name="uni1E20" unicode="&#x1e20;" horiz-adv-x="661" 
d="M57 0zM554 249v-200q-45 -31 -97 -47t-104 -16q-137 0 -216.5 96t-79.5 262q0 157 85 260.5t212 103.5q39 0 71.5 -8.5t68.5 -29.5l23 35h27v-213h-40l-32 134q-27 18 -56 27t-61 9q-100 0 -162 -88t-62 -225q0 -149 59.5 -233.5t166.5 -84.5q41 0 75 10t59 29v177
l-18 42l-87 10v34h241v-33l-56 -11zM508 786h-312v49h312v-49z" />
    <glyph glyph-name="uni1E21" unicode="&#x1e21;" horiz-adv-x="547" 
d="M21 0zM496 -11q0 -70 -82 -123.5t-188 -53.5q-91 0 -148 32.5t-57 82.5q0 29 27.5 56.5t94.5 63.5v5q-29 11 -44.5 26.5t-15.5 33.5q0 20 16 36.5t59 40.5v6q-44 21 -71.5 61t-27.5 87q0 71 57 123t132 52q37 0 67.5 -11.5t57.5 -36.5l137 46h6v-68l-116 -8l-3 -7
q17 -21 25.5 -44t8.5 -46q0 -72 -56 -120.5t-133 -48.5q-13 0 -25.5 2t-22.5 5q-27 -18 -38.5 -29.5t-11.5 -22.5q0 -15 19 -24t55 -12l144 -9q69 -5 101.5 -28t32.5 -67zM126 342q0 -56 34 -93.5t86 -37.5q50 0 84 37.5t34 95.5t-33.5 96.5t-85.5 38.5q-51 0 -85 -38.5
t-34 -98.5zM88 -67q0 -37 39.5 -59t107.5 -22q83 0 143 36t60 83q0 28 -23 42t-73 17l-158 10q-50 -31 -73 -56.5t-23 -50.5zM402 623h-288v47h288v-47z" />
    <glyph glyph-name="uni1E24" unicode="&#x1e24;" horiz-adv-x="718" 
d="M35 0zM288 0h-253v35l78 10l18 42v520l-18 42l-78 10v35h253v-34l-72 -10l-18 -42v-231h322v231l-18 42l-72 10v34h253v-35l-78 -10l-18 -42v-520l18 -42l78 -10v-35h-253v34l72 10l18 42v246h-322v-246l18 -42l72 -10v-34zM411 -133q0 -23 -15 -38t-37 -15t-37 15
t-15 37t15 37t37 15t37 -15t15 -36z" />
    <glyph glyph-name="uni1E25" unicode="&#x1e25;" horiz-adv-x="573" 
d="M20 0zM237 0h-217v32l67 7l19 42v582l-19 42l-67 7v32h148v-283l-7 -104l6 -3q53 91 95.5 128t92.5 37q56 0 87.5 -37.5t31.5 -104.5v-296l19 -42l63 -7v-32h-208v31l47 9l16 38v288q0 48 -19 73t-56 25q-20 0 -40 -9.5t-38 -26.5q-40 -41 -65 -87.5t-25 -83.5v-179
l17 -39l52 -8v-31zM338 -138q0 -23 -15 -38t-37 -15t-37 15t-15 37t15 37t37 15t37 -15t15 -36z" />
    <glyph glyph-name="uni1E28" unicode="&#x1e28;" horiz-adv-x="718" 
d="M243 -139q0 -37 -31.5 -60t-78.5 -23q-28 0 -52.5 6t-45.5 18l12 27q19 -9 37 -13.5t36 -4.5q31 0 50 12.5t19 32.5q0 22 -21 34.5t-58 12.5h-20l-14 17l60 80h-101v35l78 10l18 42v520l-18 42l-78 10v35h253v-34l-72 -10l-18 -42v-231h322v231l-18 42l-72 10v34h253v-35
l-78 -10l-18 -42v-520l18 -42l78 -10v-35h-253v34l72 10l18 42v246h-322v-246l18 -42l72 -10v-34h-109l-49 -61q53 -1 83 -21.5t30 -56.5z" />
    <glyph glyph-name="uni1E29" unicode="&#x1e29;" horiz-adv-x="573" 
d="M227 -139q0 -37 -31.5 -60t-78.5 -23q-28 0 -52.5 6t-45.5 18l12 27q19 -9 37 -13.5t36 -4.5q31 0 50 12.5t19 32.5q0 22 -21 34.5t-58 12.5h-20l-14 17l60 80h-100v32l67 7l19 42v582l-19 42l-67 7v32h148v-283l-7 -104l6 -3q53 91 95.5 128t92.5 37q56 0 87.5 -37.5
t31.5 -104.5v-296l19 -42l63 -7v-32h-208v31l47 9l16 38v288q0 48 -19 73t-56 25q-20 0 -40 -9.5t-38 -26.5q-40 -41 -65 -87.5t-25 -83.5v-179l17 -39l52 -8v-31h-74l-49 -61q53 -1 83 -21.5t30 -56.5z" />
    <glyph glyph-name="uni1E2A" unicode="&#x1e2a;" horiz-adv-x="718" 
d="M35 0zM288 0h-253v35l78 10l18 42v520l-18 42l-78 10v35h253v-34l-72 -10l-18 -42v-231h322v231l-18 42l-72 10v34h253v-35l-78 -10l-18 -42v-520l18 -42l78 -10v-35h-253v34l72 10l18 42v246h-322v-246l18 -42l72 -10v-34zM359 -211q-50 0 -86.5 41.5t-45.5 107.5l27 9
q22 -53 46 -74.5t59 -21.5t59 22t46 74l27 -9q-9 -66 -45.5 -107.5t-86.5 -41.5z" />
    <glyph glyph-name="uni1E2B" unicode="&#x1e2b;" horiz-adv-x="573" 
d="M20 0zM237 0h-217v32l67 7l19 42v582l-19 42l-67 7v32h148v-283l-7 -104l6 -3q53 91 95.5 128t92.5 37q56 0 87.5 -37.5t31.5 -104.5v-296l19 -42l63 -7v-32h-208v31l47 9l16 38v288q0 48 -19 73t-56 25q-20 0 -40 -9.5t-38 -26.5q-40 -41 -65 -87.5t-25 -83.5v-179
l17 -39l52 -8v-31zM286 -216q-50 0 -86.5 41.5t-45.5 107.5l27 9q22 -53 46 -74.5t59 -21.5t59 22t46 74l27 -9q-9 -66 -45.5 -107.5t-86.5 -41.5z" />
    <glyph glyph-name="uni1E32" unicode="&#x1e32;" horiz-adv-x="649" 
d="M35 0zM216 44l72 -10v-34h-253v35l78 10l18 42v520l-18 42l-78 10v35h253v-34l-72 -10l-18 -42v-227h66l175 212l35 101h140v-35l-71 -16l-228 -274l246 -321l64 -13v-35h-139l-6 43l-221 291h-61v-248zM395 -133q0 -23 -15 -38t-37 -15t-37 15t-15 37t15 37t37 15
t37 -15t15 -36z" />
    <glyph glyph-name="uni1E33" unicode="&#x1e33;" horiz-adv-x="516" 
d="M20 0zM185 39l57 -8v-31h-222v32l67 7l19 42v582l-19 42l-67 7v32h148v-456h42l115 132l21 85h133v-32l-58 -14l-161 -178l194 -235l48 -14v-32h-122l-10 51l-162 196h-40v-169zM320 -138q0 -23 -15 -38t-37 -15t-37 15t-15 37t15 37t37 15t37 -15t15 -36z" />
    <glyph glyph-name="uni1E34" unicode="&#x1e34;" horiz-adv-x="649" 
d="M35 0zM216 44l72 -10v-34h-253v35l78 10l18 42v520l-18 42l-78 10v35h253v-34l-72 -10l-18 -42v-227h66l175 212l35 101h140v-35l-71 -16l-228 -274l246 -321l64 -13v-35h-139l-6 43l-221 291h-61v-248zM487 -135h-288v48h288v-48z" />
    <glyph glyph-name="uni1E35" unicode="&#x1e35;" horiz-adv-x="516" 
d="M20 0zM185 39l57 -8v-31h-222v32l67 7l19 42v582l-19 42l-67 7v32h148v-456h42l115 132l21 85h133v-32l-58 -14l-161 -178l194 -235l48 -14v-32h-122l-10 51l-162 196h-40v-169zM412 -140h-288v48h288v-48z" />
    <glyph glyph-name="uni1E36" unicode="&#x1e36;" horiz-adv-x="568" 
d="M35 0zM520 0h-485v35l78 10l18 42v520l-18 42l-78 10v35h271v-35l-90 -10l-18 -42v-562h236l34 27l13 130h39v-202zM355 -133q0 -23 -15 -38t-37 -15t-37 15t-15 37t15 37t37 15t37 -15t15 -36z" />
    <glyph glyph-name="uni1E37" unicode="&#x1e37;" horiz-adv-x="289" 
d="M27 0zM261 0h-234v32l67 7l19 42v582l-19 42l-67 7v32h149v-663l19 -42l66 -7v-32zM201 -138q0 -23 -15 -38t-37 -15t-37 15t-15 37t15 37t37 15t37 -15t15 -36z" />
    <glyph glyph-name="uni1E38" unicode="&#x1e38;" horiz-adv-x="568" 
d="M35 0zM520 0h-485v35l78 10l18 42v520l-18 42l-78 10v35h271v-35l-90 -10l-18 -42v-562h236l34 27l13 130h39v-202zM308 781h-270v49h270v-49zM355 -133q0 -23 -15 -38t-37 -15t-37 15t-15 37t15 37t37 15t37 -15t15 -36z" />
    <glyph glyph-name="uni1E39" unicode="&#x1e39;" horiz-adv-x="289" 
d="M24 0zM261 0h-234v32l67 7l19 42v582l-19 42l-67 7v32h149v-663l19 -42l66 -7v-32zM262 841h-238v47h238v-47zM201 -138q0 -23 -15 -38t-37 -15t-37 15t-15 37t15 37t37 15t37 -15t15 -36z" />
    <glyph glyph-name="uni1E3A" unicode="&#x1e3a;" horiz-adv-x="568" 
d="M35 0zM520 0h-485v35l78 10l18 42v520l-18 42l-78 10v35h271v-35l-90 -10l-18 -42v-562h236l34 27l13 130h39v-202zM447 -135h-288v48h288v-48z" />
    <glyph glyph-name="uni1E3B" unicode="&#x1e3b;" horiz-adv-x="289" 
d="M27 0zM261 0h-234v32l67 7l19 42v582l-19 42l-67 7v32h149v-663l19 -42l66 -7v-32zM265 -140h-232v48h232v-48z" />
    <glyph glyph-name="uni1E3C" unicode="&#x1e3c;" horiz-adv-x="568" 
d="M35 0zM520 0h-485v35l78 10l18 42v520l-18 42l-78 10v35h271v-35l-90 -10l-18 -42v-562h236l34 27l13 130h39v-202zM302 -136l-103 -93l-22 20l113 150h26l113 -150l-22 -20z" />
    <glyph glyph-name="uni1E3D" unicode="&#x1e3d;" horiz-adv-x="289" 
d="M23 0zM261 0h-234v32l67 7l19 42v582l-19 42l-67 7v32h149v-663l19 -42l66 -7v-32zM148 -141l-103 -93l-22 20l113 150h26l113 -150l-22 -20z" />
    <glyph glyph-name="uni1E3E" unicode="&#x1e3e;" horiz-adv-x="899" 
d="M35 0zM468 -2h-55l-213 634h-22l5 -77v-469l17 -42l71 -10v-34h-236v35l78 10l18 42v520l-18 42l-78 10v35h214l173 -523l17 -77h14l20 77l177 523h214v-35l-78 -10l-18 -42v-520l18 -42l78 -10v-35h-251v34l71 10l17 42v470l5 76h-22zM538 789l-114 -73l-19 21l88 107
q15 18 26.5 26t24.5 8q14 0 25.5 -11.5t11.5 -26.5q0 -13 -10 -25t-33 -26z" />
    <glyph glyph-name="uni1E3F" unicode="&#x1e3f;" horiz-adv-x="868" 
d="M34 0zM250 0h-216v32l66 7l19 42v344l-19 41l-66 7v32h148v-44l-8 -103l6 -2q47 86 89 124.5t89 38.5q56 0 86 -37t31 -106l6 -3q47 79 87.5 112.5t85.5 33.5q54 0 84.5 -37.5t30.5 -103.5v-297l19 -42l63 -7v-32h-209v31l48 9l16 38v288q0 47 -18.5 72.5t-53.5 25.5
q-19 0 -37 -9t-36 -27q-38 -38 -62 -84.5t-24 -84.5v-181l17 -39l55 -8v-31h-199v31l48 9l17 38v288q0 47 -19 72.5t-54 25.5q-19 0 -36 -8.5t-37 -27.5q-35 -36 -60 -85t-25 -86v-179l17 -39l51 -8v-31zM521 690l-94 -103l-22 14l61 131q11 23 21 32.5t25 9.5q14 0 25 -10
t11 -25q0 -10 -6 -21t-21 -28z" />
    <glyph glyph-name="uni1E40" unicode="&#x1e40;" horiz-adv-x="899" 
d="M35 0zM468 -2h-55l-213 634h-22l5 -77v-469l17 -42l71 -10v-34h-236v35l78 10l18 42v520l-18 42l-78 10v35h214l173 -523l17 -77h14l20 77l177 523h214v-35l-78 -10l-18 -42v-520l18 -42l78 -10v-35h-251v34l71 10l17 42v470l5 76h-22zM504 798q0 -23 -15.5 -39
t-38.5 -16t-38.5 15.5t-15.5 38.5t15.5 39t38.5 16t38.5 -16t15.5 -38z" />
    <glyph glyph-name="uni1E41" unicode="&#x1e41;" horiz-adv-x="868" 
d="M34 0zM250 0h-216v32l66 7l19 42v344l-19 41l-66 7v32h148v-44l-8 -103l6 -2q47 86 89 124.5t89 38.5q56 0 86 -37t31 -106l6 -3q47 79 87.5 112.5t85.5 33.5q54 0 84.5 -37.5t30.5 -103.5v-297l19 -42l63 -7v-32h-209v31l48 9l16 38v288q0 47 -18.5 72.5t-53.5 25.5
q-19 0 -37 -9t-36 -27q-38 -38 -62 -84.5t-24 -84.5v-181l17 -39l55 -8v-31h-199v31l48 9l17 38v288q0 47 -19 72.5t-54 25.5q-19 0 -36 -8.5t-37 -27.5q-35 -36 -60 -85t-25 -86v-179l17 -39l51 -8v-31zM498 666q0 -22 -15 -37t-37 -15t-37 15t-15 37t15 37t37 15t37 -15
t15 -37z" />
    <glyph glyph-name="uni1E42" unicode="&#x1e42;" horiz-adv-x="899" 
d="M35 0zM468 -2h-55l-213 634h-22l5 -77v-469l17 -42l71 -10v-34h-236v35l78 10l18 42v520l-18 42l-78 10v35h214l173 -523l17 -77h14l20 77l177 523h214v-35l-78 -10l-18 -42v-520l18 -42l78 -10v-35h-251v34l71 10l17 42v470l5 76h-22zM488 -133q0 -23 -15 -38t-37 -15
t-37 15t-15 37t15 37t37 15t37 -15t15 -36z" />
    <glyph glyph-name="uni1E43" unicode="&#x1e43;" horiz-adv-x="868" 
d="M34 0zM250 0h-216v32l66 7l19 42v344l-19 41l-66 7v32h148v-44l-8 -103l6 -2q47 86 89 124.5t89 38.5q56 0 86 -37t31 -106l6 -3q47 79 87.5 112.5t85.5 33.5q54 0 84.5 -37.5t30.5 -103.5v-297l19 -42l63 -7v-32h-209v31l48 9l16 38v288q0 47 -18.5 72.5t-53.5 25.5
q-19 0 -37 -9t-36 -27q-38 -38 -62 -84.5t-24 -84.5v-181l17 -39l55 -8v-31h-199v31l48 9l17 38v288q0 47 -19 72.5t-54 25.5q-19 0 -36 -8.5t-37 -27.5q-35 -36 -60 -85t-25 -86v-179l17 -39l51 -8v-31zM493 -138q0 -23 -15 -38t-37 -15t-37 15t-15 37t15 37t37 15t37 -15
t15 -36z" />
    <glyph glyph-name="uni1E44" unicode="&#x1e44;" horiz-adv-x="722" 
d="M35 0zM279 0h-244v35l78 10l18 42v520l-18 42l-78 10v35h189l264 -484l49 -110h13l-3 112v396l-18 42l-77 10v34h242v-35l-77 -10l-18 -42v-609h-72l-284 520l-50 108h-12l3 -111v-429l18 -42l77 -10v-34zM415 819q0 -23 -15.5 -39t-38.5 -16t-38.5 15.5t-15.5 38.5
t15.5 39t38.5 16t38.5 -16t15.5 -38z" />
    <glyph glyph-name="uni1E45" unicode="&#x1e45;" horiz-adv-x="586" 
d="M34 0zM250 0h-216v32l66 7l19 42v344l-19 41l-66 7v32h148v-44l-8 -104l6 -3q53 91 95.5 128t92.5 37q56 0 87.5 -37.5t31.5 -104.5v-296l19 -42l63 -7v-32h-208v31l48 9l15 38v288q0 48 -19 73t-56 25q-20 0 -40 -9.5t-38 -26.5q-39 -40 -64 -87t-25 -84v-179l17 -39
l51 -8v-31zM348 666q0 -22 -15 -37t-37 -15t-37 15t-15 37t15 37t37 15t37 -15t15 -37z" />
    <glyph glyph-name="uni1E46" unicode="&#x1e46;" horiz-adv-x="722" 
d="M35 0zM279 0h-244v35l78 10l18 42v520l-18 42l-78 10v35h189l264 -484l49 -110h13l-3 112v396l-18 42l-77 10v34h242v-35l-77 -10l-18 -42v-609h-72l-284 520l-50 108h-12l3 -111v-429l18 -42l77 -10v-34zM424 -120q0 -23 -15 -38t-37 -15t-37 15t-15 37t15 37t37 15
t37 -15t15 -36z" />
    <glyph glyph-name="uni1E47" unicode="&#x1e47;" horiz-adv-x="586" 
d="M34 0zM250 0h-216v32l66 7l19 42v344l-19 41l-66 7v32h148v-44l-8 -104l6 -3q53 91 95.5 128t92.5 37q56 0 87.5 -37.5t31.5 -104.5v-296l19 -42l63 -7v-32h-208v31l48 9l15 38v288q0 48 -19 73t-56 25q-20 0 -40 -9.5t-38 -26.5q-39 -40 -64 -87t-25 -84v-179l17 -39
l51 -8v-31zM350 -138q0 -23 -15 -38t-37 -15t-37 15t-15 37t15 37t37 15t37 -15t15 -36z" />
    <glyph glyph-name="uni1E48" unicode="&#x1e48;" horiz-adv-x="722" 
d="M35 0zM279 0h-244v35l78 10l18 42v520l-18 42l-78 10v35h189l264 -484l49 -110h13l-3 112v396l-18 42l-77 10v34h242v-35l-77 -10l-18 -42v-609h-72l-284 520l-50 108h-12l3 -111v-429l18 -42l77 -10v-34zM512 -135h-288v48h288v-48z" />
    <glyph glyph-name="uni1E49" unicode="&#x1e49;" horiz-adv-x="586" 
d="M34 0zM250 0h-216v32l66 7l19 42v344l-19 41l-66 7v32h148v-44l-8 -104l6 -3q53 91 95.5 128t92.5 37q56 0 87.5 -37.5t31.5 -104.5v-296l19 -42l63 -7v-32h-208v31l48 9l15 38v288q0 48 -19 73t-56 25q-20 0 -40 -9.5t-38 -26.5q-39 -40 -64 -87t-25 -84v-179l17 -39
l51 -8v-31zM442 -140h-288v48h288v-48z" />
    <glyph glyph-name="uni1E4A" unicode="&#x1e4a;" horiz-adv-x="722" 
d="M35 0zM279 0h-244v35l78 10l18 42v520l-18 42l-78 10v35h189l264 -484l49 -110h13l-3 112v396l-18 42l-77 10v34h242v-35l-77 -10l-18 -42v-609h-72l-284 520l-50 108h-12l3 -111v-429l18 -42l77 -10v-34zM371 -123l-103 -93l-22 20l113 150h26l113 -150l-22 -20z" />
    <glyph glyph-name="uni1E4B" unicode="&#x1e4b;" horiz-adv-x="586" 
d="M34 0zM250 0h-216v32l66 7l19 42v344l-19 41l-66 7v32h148v-44l-8 -104l6 -3q53 91 95.5 128t92.5 37q56 0 87.5 -37.5t31.5 -104.5v-296l19 -42l63 -7v-32h-208v31l48 9l15 38v288q0 48 -19 73t-56 25q-20 0 -40 -9.5t-38 -26.5q-39 -40 -64 -87t-25 -84v-179l17 -39
l51 -8v-31zM297 -141l-103 -93l-22 20l113 150h26l113 -150l-22 -20z" />
    <glyph glyph-name="uni1E58" unicode="&#x1e58;" horiz-adv-x="647" 
d="M35 0zM292 0h-257v35l78 10l18 42v520l-18 42l-78 10v35h261q120 0 185 -45t65 -130q0 -73 -53 -123t-145 -68v-5q50 -10 79.5 -34t60.5 -85l76 -148l70 -21v-35h-133l-7 45l-76 150q-32 63 -72.5 86t-116.5 23h-31v-218l18 -42l76 -10v-34zM198 649v-301h35
q105 0 172.5 45.5t67.5 121.5q0 66 -46 100t-135 34h-94zM371 832q0 -23 -15.5 -39t-38.5 -16t-38.5 15.5t-15.5 38.5t15.5 39t38.5 16t38.5 -16t15.5 -38z" />
    <glyph glyph-name="uni1E59" unicode="&#x1e59;" horiz-adv-x="428" 
d="M34 0zM200 39l71 -7v-32h-237v32l66 7l19 42v344l-19 41l-66 7v32h148v-43l-7 -123l7 -2q33 80 78.5 130t88.5 50q24 0 39.5 -15t15.5 -38q0 -28 -23 -43.5t-54 -10.5l-17 44q-41 -15 -84.5 -90.5t-43.5 -129.5v-153zM280 661q0 -22 -15 -37t-37 -15t-37 15t-15 37t15 37
t37 15t37 -15t15 -37z" />
    <glyph glyph-name="uni1E5A" unicode="&#x1e5a;" horiz-adv-x="647" 
d="M35 0zM292 0h-257v35l78 10l18 42v520l-18 42l-78 10v35h261q120 0 185 -45t65 -130q0 -73 -53 -123t-145 -68v-5q50 -10 79.5 -34t60.5 -85l76 -148l70 -21v-35h-133l-7 45l-76 150q-32 63 -72.5 86t-116.5 23h-31v-218l18 -42l76 -10v-34zM198 649v-301h35
q105 0 172.5 45.5t67.5 121.5q0 66 -46 100t-135 34h-94zM404 -133q0 -23 -15 -38t-37 -15t-37 15t-15 37t15 37t37 15t37 -15t15 -36z" />
    <glyph glyph-name="uni1E5B" unicode="&#x1e5b;" horiz-adv-x="428" 
d="M34 0zM200 39l71 -7v-32h-237v32l66 7l19 42v344l-19 41l-66 7v32h148v-43l-7 -123l7 -2q33 80 78.5 130t88.5 50q24 0 39.5 -15t15.5 -38q0 -28 -23 -43.5t-54 -10.5l-17 44q-41 -15 -84.5 -90.5t-43.5 -129.5v-153zM208 -138q0 -23 -15 -38t-37 -15t-37 15t-15 37
t15 37t37 15t37 -15t15 -36z" />
    <glyph glyph-name="uni1E5C" unicode="&#x1e5c;" horiz-adv-x="647" 
d="M35 0zM292 0h-257v35l78 10l18 42v520l-18 42l-78 10v35h261q120 0 185 -45t65 -130q0 -73 -53 -123t-145 -68v-5q50 -10 79.5 -34t60.5 -85l76 -148l70 -21v-35h-133l-7 45l-76 150q-32 63 -72.5 86t-116.5 23h-31v-218l18 -42l76 -10v-34zM198 649v-301h35
q105 0 172.5 45.5t67.5 121.5q0 66 -46 100t-135 34h-94zM473 781h-312v49h312v-49zM404 -133q0 -23 -15 -38t-37 -15t-37 15t-15 37t15 37t37 15t37 -15t15 -36z" />
    <glyph glyph-name="uni1E5D" unicode="&#x1e5d;" horiz-adv-x="428" 
d="M34 0zM200 39l71 -7v-32h-237v32l66 7l19 42v344l-19 41l-66 7v32h148v-43l-7 -123l7 -2q33 80 78.5 130t88.5 50q24 0 39.5 -15t15.5 -38q0 -28 -23 -43.5t-54 -10.5l-17 44q-41 -15 -84.5 -90.5t-43.5 -129.5v-153zM347 618h-238v47h238v-47zM208 -138q0 -23 -15 -38
t-37 -15t-37 15t-15 37t15 37t37 15t37 -15t15 -36z" />
    <glyph glyph-name="uni1E5E" unicode="&#x1e5e;" horiz-adv-x="647" 
d="M35 0zM292 0h-257v35l78 10l18 42v520l-18 42l-78 10v35h261q120 0 185 -45t65 -130q0 -73 -53 -123t-145 -68v-5q50 -10 79.5 -34t60.5 -85l76 -148l70 -21v-35h-133l-7 45l-76 150q-32 63 -72.5 86t-116.5 23h-31v-218l18 -42l76 -10v-34zM198 649v-301h35
q105 0 172.5 45.5t67.5 121.5q0 66 -46 100t-135 34h-94zM496 -135h-288v48h288v-48z" />
    <glyph glyph-name="uni1E5F" unicode="&#x1e5f;" horiz-adv-x="428" 
d="M34 0zM200 39l71 -7v-32h-237v32l66 7l19 42v344l-19 41l-66 7v32h148v-43l-7 -123l7 -2q33 80 78.5 130t88.5 50q24 0 39.5 -15t15.5 -38q0 -28 -23 -43.5t-54 -10.5l-17 44q-41 -15 -84.5 -90.5t-43.5 -129.5v-153zM272 -140h-232v48h232v-48z" />
    <glyph glyph-name="uni1E62" unicode="&#x1e62;" horiz-adv-x="569" 
d="M68 0zM309 386q110 -47 154 -94t44 -116q0 -81 -62 -134t-156 -53q-42 0 -82.5 12t-86.5 40l-25 -46h-27v227h40l32 -136q35 -25 73.5 -38t77.5 -13q65 0 107 36.5t42 92.5q0 54 -36 89t-129 75q-103 44 -146 89.5t-43 111.5q0 76 58 126t140 50q37 0 72 -9.5t69 -28.5
l25 35h26v-207h-40l-33 131q-28 17 -56 25t-60 8q-59 0 -96.5 -33.5t-37.5 -88.5q0 -48 35 -81.5t121 -69.5zM342 -138q0 -23 -15 -38t-37 -15t-37 15t-15 37t15 37t37 15t37 -15t15 -36z" />
    <glyph glyph-name="uni1E63" unicode="&#x1e63;" horiz-adv-x="459" 
d="M55 0zM253 287q87 -34 119 -67.5t32 -85.5q0 -67 -52.5 -107.5t-134.5 -40.5q-37 0 -76.5 8.5t-85.5 27.5v132h38l24 -105q22 -11 47.5 -16.5t54.5 -5.5q52 0 87.5 26.5t35.5 66.5q0 39 -27 63.5t-98 52.5q-86 34 -117.5 65.5t-31.5 79.5q0 61 50.5 99.5t125.5 38.5
q37 0 72.5 -7t62.5 -19v-119h-39l-24 94q-19 6 -35.5 8.5t-36.5 2.5q-48 0 -80.5 -24.5t-32.5 -58.5q0 -36 25 -58t97 -51zM278 -143q0 -23 -15 -38t-37 -15t-37 15t-15 37t15 37t37 15t37 -15t15 -36z" />
    <glyph glyph-name="uni1E6C" unicode="&#x1e6c;" horiz-adv-x="640" 
d="M50 0zM457 0h-274v35l85 10l18 42v561h-143l-37 -29l-15 -128h-41v203h540v-203h-41l-15 128l-38 29h-143v-561l18 -42l86 -10v-35zM372 -133q0 -23 -15 -38t-37 -15t-37 15t-15 37t15 37t37 15t37 -15t15 -36z" />
    <glyph glyph-name="uni1E6D" unicode="&#x1e6d;" horiz-adv-x="384" 
d="M20 0zM226 -11q-55 0 -86 33.5t-31 92.5v344h-89v38l87 11l23 150h41v-153h172v-46h-172v-321q0 -49 18.5 -73.5t56.5 -24.5q17 0 38.5 7t58.5 26l16 -28q-34 -27 -68.5 -41.5t-64.5 -14.5zM266 -143q0 -23 -15 -38t-37 -15t-37 15t-15 37t15 37t37 15t37 -15t15 -36z
" />
    <glyph glyph-name="uni1E6E" unicode="&#x1e6e;" horiz-adv-x="640" 
d="M50 0zM457 0h-274v35l85 10l18 42v561h-143l-37 -29l-15 -128h-41v203h540v-203h-41l-15 128l-38 29h-143v-561l18 -42l86 -10v-35zM464 -135h-288v48h288v-48z" />
    <glyph glyph-name="uni1E6F" unicode="&#x1e6f;" horiz-adv-x="384" 
d="M20 0zM226 -11q-55 0 -86 33.5t-31 92.5v344h-89v38l87 11l23 150h41v-153h172v-46h-172v-321q0 -49 18.5 -73.5t56.5 -24.5q17 0 38.5 7t58.5 26l16 -28q-34 -27 -68.5 -41.5t-64.5 -14.5zM330 -145h-232v48h232v-48z" />
    <glyph glyph-name="uni1E70" unicode="&#x1e70;" horiz-adv-x="640" 
d="M50 0zM457 0h-274v35l85 10l18 42v561h-143l-37 -29l-15 -128h-41v203h540v-203h-41l-15 128l-38 29h-143v-561l18 -42l86 -10v-35zM319 -136l-103 -93l-22 20l113 150h26l113 -150l-22 -20z" />
    <glyph glyph-name="uni1E71" unicode="&#x1e71;" horiz-adv-x="384" 
d="M20 0zM226 -11q-55 0 -86 33.5t-31 92.5v344h-89v38l87 11l23 150h41v-153h172v-46h-172v-321q0 -49 18.5 -73.5t56.5 -24.5q17 0 38.5 7t58.5 26l16 -28q-34 -27 -68.5 -41.5t-64.5 -14.5zM213 -146l-103 -93l-22 20l113 150h26l113 -150l-22 -20z" />
    <glyph glyph-name="uni1E7E" unicode="&#x1e7e;" horiz-adv-x="668" 
d="M20 0zM370 -8h-72l-213 650l-65 17v35h224v-35l-62 -10l-17 -31l148 -464l20 -86h14l24 86l151 465l-16 29l-62 11v35h208v-35l-65 -17zM385 -138q0 -23 -15 -38t-37 -15t-37 15t-15 37t15 37t37 15t37 -15t15 -36z" />
    <glyph glyph-name="uni1E7F" unicode="&#x1e7f;" horiz-adv-x="523" 
d="M7 0zM295 -7h-64l-161 467l-63 13v32h197v-30l-49 -10l-9 -32l98 -292l19 -80h13l22 80l100 296l-12 30l-45 8v30h175v-32l-56 -13zM316 -143q0 -23 -15 -38t-37 -15t-37 15t-15 37t15 37t37 15t37 -15t15 -36z" />
    <glyph glyph-name="Wgrave" unicode="&#x1e80;" horiz-adv-x="971" 
d="M21 0zM320 -8h-75l-159 650l-65 17v35h218v-35l-62 -10l-17 -31l104 -449l17 -97h15l19 97l147 525h72l134 -525l16 -97h16l18 97l106 451l-17 28l-55 11v35h201v-35l-64 -17l-163 -650h-76l-131 505l-20 105h-13l-23 -105zM543 771l-19 -21l-114 73q-23 14 -33 26
t-10 25q0 15 11.5 26.5t25.5 11.5q13 0 24.5 -8t26.5 -26z" />
    <glyph glyph-name="wgrave" unicode="&#x1e81;" horiz-adv-x="788" 
d="M10 0zM266 -5h-68l-125 465l-63 13v32h194v-30l-49 -10l-9 -31l73 -290l13 -79h14l17 79l112 363h58l107 -363l16 -79h13l15 79l75 294l-12 29l-45 8v30h175v-32l-57 -13l-129 -465h-65l-103 344l-17 80h-14l-19 -80zM448 596l-22 -14l-94 103q-15 17 -21 28t-6 21
q0 14 11.5 24.5t25.5 10.5t24.5 -9.5t20.5 -32.5z" />
    <glyph glyph-name="Wacute" unicode="&#x1e82;" horiz-adv-x="971" 
d="M21 0zM320 -8h-75l-159 650l-65 17v35h218v-35l-62 -10l-17 -31l104 -449l17 -97h15l19 97l147 525h72l134 -525l16 -97h16l18 97l106 451l-17 28l-55 11v35h201v-35l-64 -17l-163 -650h-76l-131 505l-20 105h-13l-23 -105zM586 823l-114 -73l-19 21l88 107
q15 18 26.5 26t24.5 8q14 0 25.5 -11.5t11.5 -26.5q0 -13 -10 -25t-33 -26z" />
    <glyph glyph-name="wacute" unicode="&#x1e83;" horiz-adv-x="788" 
d="M10 0zM266 -5h-68l-125 465l-63 13v32h194v-30l-49 -10l-9 -31l73 -290l13 -79h14l17 79l112 363h58l107 -363l16 -79h13l15 79l75 294l-12 29l-45 8v30h175v-32l-57 -13l-129 -465h-65l-103 344l-17 80h-14l-19 -80zM482 685l-94 -103l-22 14l61 131q11 23 21 32.5
t25 9.5q14 0 25 -10t11 -25q0 -10 -6 -21t-21 -28z" />
    <glyph glyph-name="Wdieresis" unicode="&#x1e84;" horiz-adv-x="971" 
d="M21 0zM320 -8h-75l-159 650l-65 17v35h218v-35l-62 -10l-17 -31l104 -449l17 -97h15l19 97l147 525h72l134 -525l16 -97h16l18 97l106 451l-17 28l-55 11v35h201v-35l-64 -17l-163 -650h-76l-131 505l-20 105h-13l-23 -105zM646 816q0 -22 -14.5 -37.5t-36.5 -15.5
q-21 0 -36 15.5t-15 37.5t15 38t36 16q22 0 36.5 -15.5t14.5 -38.5zM452 816q0 -22 -15 -37.5t-36 -15.5t-36 15.5t-15 37.5t15 38t36 16q22 0 36.5 -15.5t14.5 -38.5z" />
    <glyph glyph-name="wdieresis" unicode="&#x1e85;" horiz-adv-x="788" 
d="M10 0zM266 -5h-68l-125 465l-63 13v32h194v-30l-49 -10l-9 -31l73 -290l13 -79h14l17 79l112 363h58l107 -363l16 -79h13l15 79l75 294l-12 29l-45 8v30h175v-32l-57 -13l-129 -465h-65l-103 344l-17 80h-14l-19 -80zM545 647q0 -21 -13.5 -35.5t-33.5 -14.5
q-22 0 -35.5 14t-13.5 36t13.5 36.5t35.5 14.5q20 0 33.5 -14.5t13.5 -36.5zM365 647q0 -22 -13.5 -36t-33.5 -14q-21 0 -35 14.5t-14 35.5q0 22 14 36.5t35 14.5t34 -14.5t13 -36.5z" />
    <glyph glyph-name="uni1E8C" unicode="&#x1e8c;" horiz-adv-x="668" 
d="M23 0zM245 0h-222v35l71 15l204 300l-195 295l-66 14v35h226v-34l-58 -9l-10 -30l106 -163l31 -55h15l30 55l104 158l-9 31l-55 13v34h207v-35l-63 -16l-191 -281l210 -314l68 -13v-35h-233v34l59 11l11 32l-118 176l-32 54h-14l-30 -54l-112 -172l9 -34l57 -13v-34z
M497 816q0 -22 -14.5 -37.5t-36.5 -15.5q-21 0 -36 15.5t-15 37.5t15 38t36 16q22 0 36.5 -15.5t14.5 -38.5zM303 816q0 -22 -15 -37.5t-36 -15.5t-36 15.5t-15 37.5t15 38t36 16q22 0 36.5 -15.5t14.5 -38.5z" />
    <glyph glyph-name="uni1E8D" unicode="&#x1e8d;" horiz-adv-x="513" 
d="M19 0zM186 0h-167v32l55 11l144 209l-140 211l-52 10v32h179v-29l-30 -6l-12 -26l63 -93l28 -53h12l33 53l64 95l-10 24l-35 6v29h164v-32l-56 -11l-138 -201l152 -218l54 -11v-32h-185v30l34 6l13 26l-70 98l-32 55h-13l-35 -55l-65 -99l11 -25l34 -6v-30zM402 647
q0 -21 -13.5 -35.5t-33.5 -14.5q-22 0 -35.5 14t-13.5 36t13.5 36.5t35.5 14.5q20 0 33.5 -14.5t13.5 -36.5zM222 647q0 -22 -13.5 -36t-33.5 -14q-21 0 -35 14.5t-14 35.5q0 22 14 36.5t35 14.5t34 -14.5t13 -36.5z" />
    <glyph glyph-name="uni1E8E" unicode="&#x1e8e;" horiz-adv-x="641" 
d="M11 0zM455 0h-274v35l85 10l18 42v202l-206 354l-67 16v35h226v-34l-57 -11l-12 -29l118 -207l33 -73h14l36 74l114 198l-12 36l-57 12v34h212v-35l-64 -16l-211 -352v-204l18 -42l86 -10v-35zM387 832q0 -23 -15.5 -39t-38.5 -16t-38.5 15.5t-15.5 38.5t15.5 39t38.5 16
t38.5 -16t15.5 -38z" />
    <glyph glyph-name="uni1E8F" unicode="&#x1e8f;" horiz-adv-x="525" 
d="M9 0zM460 460l-165 -457q-34 -95 -80 -142.5t-105 -47.5q-33 0 -54 15t-21 39q0 21 18 34.5t45 12.5l34 -55q34 7 61 40.5t51 100.5l-173 460l-62 13v32h197v-30l-49 -10l-8 -30l96 -268l24 -93h12l23 93l94 270l-12 30l-45 8v30h175v-32zM334 661q0 -22 -15 -37t-37 -15
t-37 15t-15 37t15 37t37 15t37 -15t15 -37z" />
    <glyph glyph-name="uni1E90" unicode="&#x1e90;" horiz-adv-x="595" 
d="M55 0zM534 0h-479v39l337 519l59 82l-3 12l-100 -3h-175l-38 -30l-16 -126h-40v201h455v-39l-337 -519l-60 -82l4 -12l99 3h200l38 30l16 128h40v-203zM307 833l-117 -86l-22 23l124 132h32l124 -132l-22 -23z" />
    <glyph glyph-name="uni1E91" unicode="&#x1e91;" horiz-adv-x="496" 
d="M50 0zM434 0h-384v35l256 355l54 66l-5 10l-82 -2h-121l-31 -30l-13 -86h-38v157h369v-34l-257 -356l-51 -66l6 -10l81 3h134l31 30l13 92h38v-164zM255 678l-103 -93l-22 20l113 150h26l113 -150l-22 -20z" />
    <glyph glyph-name="uni1E92" unicode="&#x1e92;" horiz-adv-x="595" 
d="M55 0zM534 0h-479v39l337 519l59 82l-3 12l-100 -3h-175l-38 -30l-16 -126h-40v201h455v-39l-337 -519l-60 -82l4 -12l99 3h200l38 30l16 128h40v-203zM356 -133q0 -23 -15 -38t-37 -15t-37 15t-15 37t15 37t37 15t37 -15t15 -36z" />
    <glyph glyph-name="uni1E93" unicode="&#x1e93;" horiz-adv-x="496" 
d="M50 0zM434 0h-384v35l256 355l54 66l-5 10l-82 -2h-121l-31 -30l-13 -86h-38v157h369v-34l-257 -356l-51 -66l6 -10l81 3h134l31 30l13 92h38v-164zM300 -138q0 -23 -15 -38t-37 -15t-37 15t-15 37t15 37t37 15t37 -15t15 -36z" />
    <glyph glyph-name="uni1E94" unicode="&#x1e94;" horiz-adv-x="595" 
d="M55 0zM534 0h-479v39l337 519l59 82l-3 12l-100 -3h-175l-38 -30l-16 -126h-40v201h455v-39l-337 -519l-60 -82l4 -12l99 3h200l38 30l16 128h40v-203zM448 -135h-288v48h288v-48z" />
    <glyph glyph-name="uni1E95" unicode="&#x1e95;" horiz-adv-x="496" 
d="M50 0zM434 0h-384v35l256 355l54 66l-5 10l-82 -2h-121l-31 -30l-13 -86h-38v157h369v-34l-257 -356l-51 -66l6 -10l81 3h134l31 30l13 92h38v-164zM392 -140h-288v48h288v-48z" />
    <glyph glyph-name="uni1E96" unicode="&#x1e96;" horiz-adv-x="573" 
d="M20 0zM237 0h-217v32l67 7l19 42v582l-19 42l-67 7v32h148v-283l-7 -104l6 -3q53 91 95.5 128t92.5 37q56 0 87.5 -37.5t31.5 -104.5v-296l19 -42l63 -7v-32h-208v31l47 9l16 38v288q0 48 -19 73t-56 25q-20 0 -40 -9.5t-38 -26.5q-40 -41 -65 -87.5t-25 -83.5v-179
l17 -39l52 -8v-31zM430 -140h-288v48h288v-48z" />
    <glyph glyph-name="uni1E9E" unicode="&#x1e9e;" horiz-adv-x="673" 
d="M626 174q0 -80 -61 -131t-153 -51q-32 0 -63 4.5t-55 13.5v153h39l26 -125q8 -2 19 -3t26 -1q65 0 107 38.5t42 100.5q0 78 -56.5 121t-174.5 54v42l123 176l60 75l-4 12l-104 -4h-199v-649h-163v35l78 10l18 42v520l-18 42l-78 10v35h553v-43l-155 -211l-42 -49l2 -11
q117 -17 175 -68.5t58 -137.5z" />
    <glyph glyph-name="uni1EA0" unicode="&#x1ea0;" horiz-adv-x="686" 
d="M16 0zM161 46l63 -11v-35h-208v35l64 17l226 648h80l216 -647l65 -18v-35h-223v35l63 10l16 31l-53 162h-270l-55 -163zM330 636l-25 -90l-89 -263h239l-87 263l-23 90h-15zM382 -133q0 -23 -15 -38t-37 -15t-37 15t-15 37t15 37t37 15t37 -15t15 -36z" />
    <glyph glyph-name="uni1EA1" unicode="&#x1ea1;" horiz-adv-x="516" 
d="M50 0zM358 104h-7q-48 -65 -87 -90t-86 -25q-57 0 -92.5 37.5t-35.5 98.5q0 31 10 55.5t31 45.5q29 29 75 43t110 14h78v77q0 55 -27 84t-78 29q-28 0 -53 -6.5t-53 -20.5l23 -61q-9 -13 -21.5 -19.5t-27.5 -6.5q-19 0 -31 14t-12 36q0 21 16 39.5t48 34.5
q37 18 70.5 26.5t66.5 8.5q65 0 103.5 -39.5t38.5 -109.5v-274q0 -34 14 -46t62 -20v-27l-70 -11q-36 13 -50.5 32.5t-14.5 54.5v26zM354 226v20h-74q-82 0 -124.5 -29.5t-42.5 -86.5q0 -41 23.5 -66.5t62.5 -25.5q27 0 52 13t56 44q26 26 36.5 54.5t10.5 76.5zM288 -143
q0 -23 -15 -38t-37 -15t-37 15t-15 37t15 37t37 15t37 -15t15 -36z" />
    <glyph glyph-name="uni1EA2" unicode="&#x1ea2;" horiz-adv-x="686" 
d="M16 0zM161 46l63 -11v-35h-208v35l64 17l226 648h80l216 -647l65 -18v-35h-223v35l63 10l16 31l-53 162h-270l-55 -163zM330 636l-25 -90l-89 -263h239l-87 263l-23 90h-15zM338 934q59 0 93 -19.5t34 -53.5q0 -38 -43 -63t-118 -32v35q52 8 77.5 20t25.5 29
q0 15 -19.5 23.5t-55.5 8.5q-17 0 -34 -2t-34 -5l-7 49q19 5 39.5 7.5t41.5 2.5z" />
    <glyph glyph-name="uni1EA3" unicode="&#x1ea3;" horiz-adv-x="516" 
d="M50 0zM358 104h-7q-48 -65 -87 -90t-86 -25q-57 0 -92.5 37.5t-35.5 98.5q0 31 10 55.5t31 45.5q29 29 75 43t110 14h78v77q0 55 -27 84t-78 29q-28 0 -53 -6.5t-53 -20.5l23 -61q-9 -13 -21.5 -19.5t-27.5 -6.5q-19 0 -31 14t-12 36q0 21 16 39.5t48 34.5
q37 18 70.5 26.5t66.5 8.5q65 0 103.5 -39.5t38.5 -109.5v-274q0 -34 14 -46t62 -20v-27l-70 -11q-36 13 -50.5 32.5t-14.5 54.5v26zM354 226v20h-74q-82 0 -124.5 -29.5t-42.5 -86.5q0 -41 23.5 -66.5t62.5 -25.5q27 0 52 13t56 44q26 26 36.5 54.5t10.5 76.5zM253 766
q56 0 88.5 -20t32.5 -54q0 -37 -41.5 -61.5t-113.5 -31.5v32q50 8 75 21t25 30q0 16 -19 25.5t-54 9.5q-11 0 -24 -1.5t-41 -5.5l-7 45q20 5 40 8t39 3z" />
    <glyph glyph-name="uni1EA4" unicode="&#x1ea4;" horiz-adv-x="686" 
d="M16 0zM161 46l63 -11v-35h-208v35l64 17l226 648h80l216 -647l65 -18v-35h-223v35l63 10l16 31l-53 162h-270l-55 -163zM330 636l-25 -90l-89 -263h239l-87 263l-23 90h-15zM559 935l-112 -72l-19 22l88 103q14 17 25.5 24.5t23.5 7.5q14 0 24.5 -11t10.5 -26
q0 -12 -10 -23.5t-31 -24.5zM345 819l-121 -72l-20 23l126 116h31l127 -116l-20 -23z" />
    <glyph glyph-name="uni1EA5" unicode="&#x1ea5;" horiz-adv-x="516" 
d="M50 0zM358 104h-7q-48 -65 -87 -90t-86 -25q-57 0 -92.5 37.5t-35.5 98.5q0 31 10 55.5t31 45.5q29 29 75 43t110 14h78v77q0 55 -27 84t-78 29q-28 0 -53 -6.5t-53 -20.5l23 -61q-9 -13 -21.5 -19.5t-27.5 -6.5q-19 0 -31 14t-12 36q0 21 16 39.5t48 34.5
q37 18 70.5 26.5t66.5 8.5q65 0 103.5 -39.5t38.5 -109.5v-274q0 -34 14 -46t62 -20v-27l-70 -11q-36 13 -50.5 32.5t-14.5 54.5v26zM354 226v20h-74q-82 0 -124.5 -29.5t-42.5 -86.5q0 -41 23.5 -66.5t62.5 -25.5q27 0 52 13t56 44q26 26 36.5 54.5t10.5 76.5zM449 816
l-83 -90l-22 15l52 113q10 24 21 34t25 10q13 0 23.5 -9.5t10.5 -23.5q0 -10 -6 -21t-21 -28zM260 663l-106 -73l-21 21l114 125h27l114 -125l-20 -21z" />
    <glyph glyph-name="uni1EA6" unicode="&#x1ea6;" horiz-adv-x="686" 
d="M16 0zM161 46l63 -11v-35h-208v35l64 17l226 648h80l216 -647l65 -18v-35h-223v35l63 10l16 31l-53 162h-270l-55 -163zM330 636l-25 -90l-89 -263h239l-87 263l-23 90h-15zM529 886l-18 -22l-113 71q-21 13 -31 24.5t-10 23.5q0 15 10.5 26t24.5 11q12 0 23 -7t26 -24z
M345 819l-121 -72l-20 23l126 116h31l127 -116l-20 -23z" />
    <glyph glyph-name="uni1EA7" unicode="&#x1ea7;" horiz-adv-x="516" 
d="M50 0zM358 104h-7q-48 -65 -87 -90t-86 -25q-57 0 -92.5 37.5t-35.5 98.5q0 31 10 55.5t31 45.5q29 29 75 43t110 14h78v77q0 55 -27 84t-78 29q-28 0 -53 -6.5t-53 -20.5l23 -61q-9 -13 -21.5 -19.5t-27.5 -6.5q-19 0 -31 14t-12 36q0 21 16 39.5t48 34.5
q37 18 70.5 26.5t66.5 8.5q65 0 103.5 -39.5t38.5 -109.5v-274q0 -34 14 -46t62 -20v-27l-70 -11q-36 13 -50.5 32.5t-14.5 54.5v26zM354 226v20h-74q-82 0 -124.5 -29.5t-42.5 -86.5q0 -41 23.5 -66.5t62.5 -25.5q27 0 52 13t56 44q26 26 36.5 54.5t10.5 76.5zM410 741
l-23 -15l-82 90q-16 18 -22 28.5t-6 20.5q0 14 10.5 23.5t24.5 9.5t24.5 -10t21.5 -34zM260 662l-106 -72l-21 21l114 125h27l114 -125l-20 -21z" />
    <glyph glyph-name="uni1EA8" unicode="&#x1ea8;" horiz-adv-x="686" 
d="M16 0zM161 46l63 -11v-35h-208v35l64 17l226 648h80l216 -647l65 -18v-35h-223v35l63 10l16 31l-53 162h-270l-55 -163zM330 636l-25 -90l-89 -263h239l-87 263l-23 90h-15zM342 1088q59 0 92.5 -19.5t33.5 -52.5q0 -37 -43 -61.5t-118 -31.5v34q53 8 78 20t25 28
q0 15 -19.5 23t-55.5 8q-17 0 -34.5 -2t-33.5 -5l-7 48q21 6 41.5 8.5t40.5 2.5zM345 819l-121 -72l-20 23l126 116h31l127 -116l-20 -23z" />
    <glyph glyph-name="uni1EA9" unicode="&#x1ea9;" horiz-adv-x="516" 
d="M50 0zM358 104h-7q-48 -65 -87 -90t-86 -25q-57 0 -92.5 37.5t-35.5 98.5q0 31 10 55.5t31 45.5q29 29 75 43t110 14h78v77q0 55 -27 84t-78 29q-28 0 -53 -6.5t-53 -20.5l23 -61q-9 -13 -21.5 -19.5t-27.5 -6.5q-19 0 -31 14t-12 36q0 21 16 39.5t48 34.5
q37 18 70.5 26.5t66.5 8.5q65 0 103.5 -39.5t38.5 -109.5v-274q0 -34 14 -46t62 -20v-27l-70 -11q-36 13 -50.5 32.5t-14.5 54.5v26zM354 226v20h-74q-82 0 -124.5 -29.5t-42.5 -86.5q0 -41 23.5 -66.5t62.5 -25.5q27 0 52 13t56 44q26 26 36.5 54.5t10.5 76.5zM254 934
q57 0 89 -17.5t32 -48.5q0 -35 -41 -58t-114 -30v30q50 8 75 19.5t25 26.5q0 14 -19 21.5t-54 7.5q-14 0 -30.5 -2t-30.5 -6l-7 47q18 5 37.5 7.5t37.5 2.5zM388 611l-20 -21l-108 73l-106 -73l-21 21l114 125h27z" />
    <glyph glyph-name="uni1EAA" unicode="&#x1eaa;" horiz-adv-x="686" 
d="M16 0zM161 46l63 -11v-35h-208v35l64 17l226 648h80l216 -647l65 -18v-35h-223v35l63 10l16 31l-53 162h-270l-55 -163zM330 636l-25 -90l-89 -263h239l-87 263l-23 90h-15zM294 977q-15 0 -28 -12.5t-23 -35.5l-30 10q15 52 36 75t50 23q14 0 31.5 -6t53.5 -26
q27 -15 39 -19.5t20 -4.5q16 0 29 14t24 42l29 -10q-16 -57 -36.5 -81.5t-50.5 -24.5q-14 0 -31.5 6t-53.5 26q-28 15 -39.5 19.5t-19.5 4.5zM345 819l-121 -72l-20 23l126 116h31l127 -116l-20 -23z" />
    <glyph glyph-name="uni1EAB" unicode="&#x1eab;" horiz-adv-x="516" 
d="M50 0zM358 104h-7q-48 -65 -87 -90t-86 -25q-57 0 -92.5 37.5t-35.5 98.5q0 31 10 55.5t31 45.5q29 29 75 43t110 14h78v77q0 55 -27 84t-78 29q-28 0 -53 -6.5t-53 -20.5l23 -61q-9 -13 -21.5 -19.5t-27.5 -6.5q-19 0 -31 14t-12 36q0 21 16 39.5t48 34.5
q37 18 70.5 26.5t66.5 8.5q65 0 103.5 -39.5t38.5 -109.5v-274q0 -34 14 -46t62 -20v-27l-70 -11q-36 13 -50.5 32.5t-14.5 54.5v26zM354 226v20h-74q-82 0 -124.5 -29.5t-42.5 -86.5q0 -41 23.5 -66.5t62.5 -25.5q27 0 52 13t56 44q26 26 36.5 54.5t10.5 76.5zM219 838
q-15 0 -28.5 -16t-24.5 -49l-28 10q14 59 36 85t55 26q11 0 25 -6.5t41 -27.5q22 -16 31.5 -21t16.5 -5q15 0 28.5 16t25.5 48l28 -9q-15 -59 -37 -85t-55 -26q-11 0 -24.5 6.5t-40.5 26.5q-23 17 -32.5 22t-16.5 5zM260 663l-106 -73l-21 21l114 125h27l114 -125l-20 -21z
" />
    <glyph glyph-name="uni1EAC" unicode="&#x1eac;" horiz-adv-x="686" 
d="M16 0zM161 46l63 -11v-35h-208v35l64 17l226 648h80l216 -647l65 -18v-35h-223v35l63 10l16 31l-53 162h-270l-55 -163zM330 636l-25 -90l-89 -263h239l-87 263l-23 90h-15zM345 833l-117 -86l-22 23l124 132h32l124 -132l-22 -23zM382 -133q0 -23 -15 -38t-37 -15
t-37 15t-15 37t15 37t37 15t37 -15t15 -36z" />
    <glyph glyph-name="uni1EAD" unicode="&#x1ead;" horiz-adv-x="516" 
d="M50 0zM358 104h-7q-48 -65 -87 -90t-86 -25q-57 0 -92.5 37.5t-35.5 98.5q0 31 10 55.5t31 45.5q29 29 75 43t110 14h78v77q0 55 -27 84t-78 29q-28 0 -53 -6.5t-53 -20.5l23 -61q-9 -13 -21.5 -19.5t-27.5 -6.5q-19 0 -31 14t-12 36q0 21 16 39.5t48 34.5
q37 18 70.5 26.5t66.5 8.5q65 0 103.5 -39.5t38.5 -109.5v-274q0 -34 14 -46t62 -20v-27l-70 -11q-36 13 -50.5 32.5t-14.5 54.5v26zM354 226v20h-74q-82 0 -124.5 -29.5t-42.5 -86.5q0 -41 23.5 -66.5t62.5 -25.5q27 0 52 13t56 44q26 26 36.5 54.5t10.5 76.5zM260 683
l-103 -93l-22 20l113 150h26l113 -150l-22 -20zM288 -143q0 -23 -15 -38t-37 -15t-37 15t-15 37t15 37t37 15t37 -15t15 -36z" />
    <glyph glyph-name="uni1EAE" unicode="&#x1eae;" horiz-adv-x="686" 
d="M16 0zM161 46l63 -11v-35h-208v35l64 17l226 648h80l216 -647l65 -18v-35h-223v35l63 10l16 31l-53 162h-270l-55 -163zM330 636l-25 -90l-89 -263h239l-87 263l-23 90h-15zM432 999l-112 -71l-19 22l88 103q14 17 25.5 24.5t23.5 7.5q14 0 24.5 -11t10.5 -26
q0 -12 -10 -23.5t-31 -25.5zM346 766q-50 0 -88 35t-55 96l28 13q25 -43 52.5 -63t62.5 -20t62.5 20t52.5 63l28 -13q-17 -61 -55 -96t-88 -35z" />
    <glyph glyph-name="uni1EAF" unicode="&#x1eaf;" horiz-adv-x="516" 
d="M50 0zM358 104h-7q-48 -65 -87 -90t-86 -25q-57 0 -92.5 37.5t-35.5 98.5q0 31 10 55.5t31 45.5q29 29 75 43t110 14h78v77q0 55 -27 84t-78 29q-28 0 -53 -6.5t-53 -20.5l23 -61q-9 -13 -21.5 -19.5t-27.5 -6.5q-19 0 -31 14t-12 36q0 21 16 39.5t48 34.5
q37 18 70.5 26.5t66.5 8.5q65 0 103.5 -39.5t38.5 -109.5v-274q0 -34 14 -46t62 -20v-27l-70 -11q-36 13 -50.5 32.5t-14.5 54.5v26zM354 226v20h-74q-82 0 -124.5 -29.5t-42.5 -86.5q0 -41 23.5 -66.5t62.5 -25.5q27 0 52 13t56 44q26 26 36.5 54.5t10.5 76.5zM334 842
l-91 -98l-21 14l58 124q12 24 22.5 33.5t24.5 9.5q13 0 23.5 -10.5t10.5 -23.5q0 -11 -6 -22t-21 -27zM261 596q-50 0 -86.5 35.5t-49.5 95.5l27 9q21 -41 46.5 -60t62.5 -19t62.5 19t46.5 60l27 -9q-13 -60 -49.5 -95.5t-86.5 -35.5z" />
    <glyph glyph-name="uni1EB0" unicode="&#x1eb0;" horiz-adv-x="686" 
d="M16 0zM161 46l63 -11v-35h-208v35l64 17l226 648h80l216 -647l65 -18v-35h-223v35l63 10l16 31l-53 162h-270l-55 -163zM330 636l-25 -90l-89 -263h239l-87 263l-23 90h-15zM392 950l-19 -22l-112 71q-22 14 -32 25.5t-10 23.5q0 15 11 26t25 11q12 0 22.5 -7t26.5 -25z
M346 766q-50 0 -88 35t-55 96l28 13q25 -43 52.5 -63t62.5 -20t62.5 20t52.5 63l28 -13q-17 -61 -55 -96t-88 -35z" />
    <glyph glyph-name="uni1EB1" unicode="&#x1eb1;" horiz-adv-x="516" 
d="M50 0zM358 104h-7q-48 -65 -87 -90t-86 -25q-57 0 -92.5 37.5t-35.5 98.5q0 31 10 55.5t31 45.5q29 29 75 43t110 14h78v77q0 55 -27 84t-78 29q-28 0 -53 -6.5t-53 -20.5l23 -61q-9 -13 -21.5 -19.5t-27.5 -6.5q-19 0 -31 14t-12 36q0 21 16 39.5t48 34.5
q37 18 70.5 26.5t66.5 8.5q65 0 103.5 -39.5t38.5 -109.5v-274q0 -34 14 -46t62 -20v-27l-70 -11q-36 13 -50.5 32.5t-14.5 54.5v26zM354 226v20h-74q-82 0 -124.5 -29.5t-42.5 -86.5q0 -41 23.5 -66.5t62.5 -25.5q27 0 52 13t56 44q26 26 36.5 54.5t10.5 76.5zM300 758
l-21 -14l-91 98q-15 16 -21 27t-6 22q0 13 10.5 23.5t23.5 10.5q14 0 24.5 -9.5t22.5 -33.5zM261 596q-50 0 -86.5 35.5t-49.5 95.5l27 9q21 -41 46.5 -60t62.5 -19t62.5 19t46.5 60l27 -9q-13 -60 -49.5 -95.5t-86.5 -35.5z" />
    <glyph glyph-name="uni1EB2" unicode="&#x1eb2;" horiz-adv-x="686" 
d="M16 0zM161 46l63 -11v-35h-208v35l64 17l226 648h80l216 -647l65 -18v-35h-223v35l63 10l16 31l-53 162h-270l-55 -163zM330 636l-25 -90l-89 -263h239l-87 263l-23 90h-15zM338 1088q59 0 93 -19.5t34 -52.5q0 -37 -43 -61.5t-118 -31.5v34q53 9 78 20.5t25 27.5
q0 15 -19.5 23t-55.5 8q-17 0 -34.5 -2t-34.5 -5l-6 48q21 6 41.5 8.5t39.5 2.5zM346 766q-50 0 -88 35t-55 96l28 13q25 -43 52.5 -63t62.5 -20t62.5 20t52.5 63l28 -13q-17 -61 -55 -96t-88 -35z" />
    <glyph glyph-name="uni1EB3" unicode="&#x1eb3;" horiz-adv-x="516" 
d="M50 0zM358 104h-7q-48 -65 -87 -90t-86 -25q-57 0 -92.5 37.5t-35.5 98.5q0 31 10 55.5t31 45.5q29 29 75 43t110 14h78v77q0 55 -27 84t-78 29q-28 0 -53 -6.5t-53 -20.5l23 -61q-9 -13 -21.5 -19.5t-27.5 -6.5q-19 0 -31 14t-12 36q0 21 16 39.5t48 34.5
q37 18 70.5 26.5t66.5 8.5q65 0 103.5 -39.5t38.5 -109.5v-274q0 -34 14 -46t62 -20v-27l-70 -11q-36 13 -50.5 32.5t-14.5 54.5v26zM354 226v20h-74q-82 0 -124.5 -29.5t-42.5 -86.5q0 -41 23.5 -66.5t62.5 -25.5q27 0 52 13t56 44q26 26 36.5 54.5t10.5 76.5zM255 920
q56 0 88.5 -19.5t32.5 -51.5q0 -37 -41.5 -61.5t-114.5 -31.5v32q50 7 75 20t25 30q0 15 -19 24t-53 9q-16 0 -33 -2t-33 -5l-7 45q20 5 40 8t40 3zM261 596q-50 0 -86.5 35.5t-49.5 95.5l27 9q21 -41 46.5 -60t62.5 -19t62.5 19t46.5 60l27 -9q-13 -60 -49.5 -95.5
t-86.5 -35.5z" />
    <glyph glyph-name="uni1EB4" unicode="&#x1eb4;" horiz-adv-x="686" 
d="M16 0zM161 46l63 -11v-35h-208v35l64 17l226 648h80l216 -647l65 -18v-35h-223v35l63 10l16 31l-53 162h-270l-55 -163zM330 636l-25 -90l-89 -263h239l-87 263l-23 90h-15zM278 1010q-14 0 -27 -12t-24 -37l-29 12q15 51 35.5 74t49.5 23q14 0 31.5 -6t53.5 -26
q27 -15 39 -19.5t20 -4.5q16 0 29.5 14t23.5 42l29 -10q-14 -55 -35 -80.5t-52 -25.5q-14 0 -31.5 6t-52.5 26q-28 15 -40 19.5t-20 4.5zM346 766q-50 0 -88 35t-55 96l28 13q25 -43 52.5 -63t62.5 -20t62.5 20t52.5 63l28 -13q-17 -61 -55 -96t-88 -35z" />
    <glyph glyph-name="uni1EB5" unicode="&#x1eb5;" horiz-adv-x="516" 
d="M50 0zM358 104h-7q-48 -65 -87 -90t-86 -25q-57 0 -92.5 37.5t-35.5 98.5q0 31 10 55.5t31 45.5q29 29 75 43t110 14h78v77q0 55 -27 84t-78 29q-28 0 -53 -6.5t-53 -20.5l23 -61q-9 -13 -21.5 -19.5t-27.5 -6.5q-19 0 -31 14t-12 36q0 21 16 39.5t48 34.5
q37 18 70.5 26.5t66.5 8.5q65 0 103.5 -39.5t38.5 -109.5v-274q0 -34 14 -46t62 -20v-27l-70 -11q-36 13 -50.5 32.5t-14.5 54.5v26zM354 226v20h-74q-82 0 -124.5 -29.5t-42.5 -86.5q0 -41 23.5 -66.5t62.5 -25.5q27 0 52 13t56 44q26 26 36.5 54.5t10.5 76.5zM199 837
q-15 0 -28 -15t-23 -45l-29 9q14 57 35.5 82t54.5 25q13 0 28.5 -7t46.5 -29q24 -18 34.5 -23t18.5 -5q15 0 28.5 17t26.5 51l28 -9q-17 -63 -38.5 -89t-53.5 -26q-12 0 -28 7t-46 29q-25 17 -36 22.5t-19 5.5zM261 596q-50 0 -86.5 35.5t-49.5 95.5l27 9q21 -41 46.5 -60
t62.5 -19t62.5 19t46.5 60l27 -9q-13 -60 -49.5 -95.5t-86.5 -35.5z" />
    <glyph glyph-name="uni1EB6" unicode="&#x1eb6;" horiz-adv-x="686" 
d="M16 0zM161 46l63 -11v-35h-208v35l64 17l226 648h80l216 -647l65 -18v-35h-223v35l63 10l16 31l-53 162h-270l-55 -163zM330 636l-25 -90l-89 -263h239l-87 263l-23 90h-15zM346 766q-50 0 -88 35t-55 96l28 13q25 -43 52.5 -63t62.5 -20t62.5 20t52.5 63l28 -13
q-17 -61 -55 -96t-88 -35zM382 -133q0 -23 -15 -38t-37 -15t-37 15t-15 37t15 37t37 15t37 -15t15 -36z" />
    <glyph glyph-name="uni1EB7" unicode="&#x1eb7;" horiz-adv-x="516" 
d="M50 0zM358 104h-7q-48 -65 -87 -90t-86 -25q-57 0 -92.5 37.5t-35.5 98.5q0 31 10 55.5t31 45.5q29 29 75 43t110 14h78v77q0 55 -27 84t-78 29q-28 0 -53 -6.5t-53 -20.5l23 -61q-9 -13 -21.5 -19.5t-27.5 -6.5q-19 0 -31 14t-12 36q0 21 16 39.5t48 34.5
q37 18 70.5 26.5t66.5 8.5q65 0 103.5 -39.5t38.5 -109.5v-274q0 -34 14 -46t62 -20v-27l-70 -11q-36 13 -50.5 32.5t-14.5 54.5v26zM354 226v20h-74q-82 0 -124.5 -29.5t-42.5 -86.5q0 -41 23.5 -66.5t62.5 -25.5q27 0 52 13t56 44q26 26 36.5 54.5t10.5 76.5zM261 596
q-50 0 -86.5 41.5t-45.5 108.5l27 9q22 -53 46 -75t59 -22t59 22t46 75l27 -9q-9 -67 -45.5 -108.5t-86.5 -41.5zM288 -143q0 -23 -15 -38t-37 -15t-37 15t-15 37t15 37t37 15t37 -15t15 -36z" />
    <glyph glyph-name="uni1EB8" unicode="&#x1eb8;" horiz-adv-x="614" 
d="M35 0zM554 0h-519v35l78 10l18 42v520l-18 42l-78 10v35h503v-172h-40l-16 97l-39 30h-245v-271h128l61 14l7 82h36v-238h-36l-7 83l-61 14h-128v-288h262l38 30l16 108h40v-183zM368 -133q0 -23 -15 -38t-37 -15t-37 15t-15 37t15 37t37 15t37 -15t15 -36z" />
    <glyph glyph-name="uni1EB9" unicode="&#x1eb9;" horiz-adv-x="501" 
d="M49 0zM414 80l21 -31q-38 -32 -79 -47.5t-87 -15.5q-100 0 -160 72.5t-60 190.5t62.5 195t154.5 77q82 0 132 -65.5t50 -175.5v-30h-332q3 -102 48 -158.5t122 -56.5q32 0 63 11t65 34zM258 479q-59 0 -98.5 -53.5t-43.5 -135.5h268q-4 90 -37 139.5t-89 49.5zM315 -143
q0 -23 -15 -38t-37 -15t-37 15t-15 37t15 37t37 15t37 -15t15 -36z" />
    <glyph glyph-name="uni1EBA" unicode="&#x1eba;" horiz-adv-x="614" 
d="M35 0zM554 0h-519v35l78 10l18 42v520l-18 42l-78 10v35h503v-172h-40l-16 97l-39 30h-245v-271h128l61 14l7 82h36v-238h-36l-7 83l-61 14h-128v-288h262l38 30l16 108h40v-183zM308 929q59 0 93 -19.5t34 -53.5q0 -38 -43 -63t-118 -32v35q52 8 77.5 20t25.5 29
q0 15 -19.5 23.5t-55.5 8.5q-17 0 -34 -2t-34 -5l-7 49q19 5 39.5 7.5t41.5 2.5z" />
    <glyph glyph-name="uni1EBB" unicode="&#x1ebb;" horiz-adv-x="501" 
d="M49 0zM414 80l21 -31q-38 -32 -79 -47.5t-87 -15.5q-100 0 -160 72.5t-60 190.5t62.5 195t154.5 77q82 0 132 -65.5t50 -175.5v-30h-332q3 -102 48 -158.5t122 -56.5q32 0 63 11t65 34zM258 479q-59 0 -98.5 -53.5t-43.5 -135.5h268q-4 90 -37 139.5t-89 49.5zM254 766
q56 0 88.5 -20t32.5 -54q0 -37 -41.5 -61.5t-113.5 -31.5v32q50 8 75 21t25 30q0 16 -19 25.5t-54 9.5q-11 0 -24 -1.5t-41 -5.5l-7 45q20 5 40 8t39 3z" />
    <glyph glyph-name="uni1EBC" unicode="&#x1ebc;" horiz-adv-x="614" 
d="M35 0zM554 0h-519v35l78 10l18 42v520l-18 42l-78 10v35h503v-172h-40l-16 97l-39 30h-245v-271h128l61 14l7 82h36v-238h-36l-7 83l-61 14h-128v-288h262l38 30l16 108h40v-183zM245 817q-15 0 -28.5 -14.5t-24.5 -42.5l-30 10q16 59 37.5 84.5t51.5 25.5q14 0 32 -6.5
t54 -26.5q28 -16 40 -20.5t20 -4.5q16 0 29.5 14.5t23.5 42.5l30 -10q-15 -57 -36.5 -83t-51.5 -26q-14 0 -32 6.5t-53 25.5q-29 16 -41 20.5t-21 4.5z" />
    <glyph glyph-name="uni1EBD" unicode="&#x1ebd;" horiz-adv-x="501" 
d="M49 0zM414 80l21 -31q-38 -32 -79 -47.5t-87 -15.5q-100 0 -160 72.5t-60 190.5t62.5 195t154.5 77q82 0 132 -65.5t50 -175.5v-30h-332q3 -102 48 -158.5t122 -56.5q32 0 63 11t65 34zM258 479q-59 0 -98.5 -53.5t-43.5 -135.5h268q-4 90 -37 139.5t-89 49.5zM195 664
q-15 0 -28 -17t-26 -52l-28 10q17 64 38 91.5t52 27.5q13 0 30 -7t50 -30q25 -17 36 -22t19 -5q15 0 28.5 17t26.5 51l28 -9q-18 -66 -39 -93t-52 -27q-13 0 -29 7t-49 29q-26 18 -37.5 23.5t-19.5 5.5z" />
    <glyph glyph-name="uni1EBE" unicode="&#x1ebe;" horiz-adv-x="614" 
d="M35 0zM554 0h-519v35l78 10l18 42v520l-18 42l-78 10v35h503v-172h-40l-16 97l-39 30h-245v-271h128l61 14l7 82h36v-238h-36l-7 83l-61 14h-128v-288h262l38 30l16 108h40v-183zM529 935l-112 -72l-19 22l88 103q14 17 25.5 24.5t23.5 7.5q14 0 24.5 -11t10.5 -26
q0 -12 -10 -23.5t-31 -24.5zM315 819l-121 -72l-20 23l126 116h31l127 -116l-20 -23z" />
    <glyph glyph-name="uni1EBF" unicode="&#x1ebf;" horiz-adv-x="501" 
d="M49 0zM414 80l21 -31q-38 -32 -79 -47.5t-87 -15.5q-100 0 -160 72.5t-60 190.5t62.5 195t154.5 77q82 0 132 -65.5t50 -175.5v-30h-332q3 -102 48 -158.5t122 -56.5q32 0 63 11t65 34zM258 479q-59 0 -98.5 -53.5t-43.5 -135.5h268q-4 90 -37 139.5t-89 49.5zM450 816
l-83 -90l-22 15l52 113q10 24 21 34t25 10q13 0 23.5 -9.5t10.5 -23.5q0 -10 -6 -21t-21 -28zM261 663l-106 -73l-21 21l114 125h27l114 -125l-20 -21z" />
    <glyph glyph-name="uni1EC0" unicode="&#x1ec0;" horiz-adv-x="614" 
d="M35 0zM554 0h-519v35l78 10l18 42v520l-18 42l-78 10v35h503v-172h-40l-16 97l-39 30h-245v-271h128l61 14l7 82h36v-238h-36l-7 83l-61 14h-128v-288h262l38 30l16 108h40v-183zM499 886l-18 -22l-113 71q-21 13 -31 24.5t-10 23.5q0 15 10.5 26t24.5 11q12 0 23 -7
t26 -24zM315 819l-121 -72l-20 23l126 116h31l127 -116l-20 -23z" />
    <glyph glyph-name="uni1EC1" unicode="&#x1ec1;" horiz-adv-x="501" 
d="M49 0zM414 80l21 -31q-38 -32 -79 -47.5t-87 -15.5q-100 0 -160 72.5t-60 190.5t62.5 195t154.5 77q82 0 132 -65.5t50 -175.5v-30h-332q3 -102 48 -158.5t122 -56.5q32 0 63 11t65 34zM258 479q-59 0 -98.5 -53.5t-43.5 -135.5h268q-4 90 -37 139.5t-89 49.5zM411 741
l-23 -15l-82 90q-16 18 -22 28.5t-6 20.5q0 14 10.5 23.5t24.5 9.5t24.5 -10t21.5 -34zM261 662l-106 -72l-21 21l114 125h27l114 -125l-20 -21z" />
    <glyph glyph-name="uni1EC2" unicode="&#x1ec2;" horiz-adv-x="614" 
d="M35 0zM554 0h-519v35l78 10l18 42v520l-18 42l-78 10v35h503v-172h-40l-16 97l-39 30h-245v-271h128l61 14l7 82h36v-238h-36l-7 83l-61 14h-128v-288h262l38 30l16 108h40v-183zM312 1088q59 0 92.5 -19.5t33.5 -52.5q0 -37 -43 -61.5t-118 -31.5v34q53 8 78 20t25 28
q0 15 -19.5 23t-55.5 8q-17 0 -34.5 -2t-33.5 -5l-7 48q21 6 41.5 8.5t40.5 2.5zM315 819l-121 -72l-20 23l126 116h31l127 -116l-20 -23z" />
    <glyph glyph-name="uni1EC3" unicode="&#x1ec3;" horiz-adv-x="501" 
d="M49 0zM414 80l21 -31q-38 -32 -79 -47.5t-87 -15.5q-100 0 -160 72.5t-60 190.5t62.5 195t154.5 77q82 0 132 -65.5t50 -175.5v-30h-332q3 -102 48 -158.5t122 -56.5q32 0 63 11t65 34zM258 479q-59 0 -98.5 -53.5t-43.5 -135.5h268q-4 90 -37 139.5t-89 49.5zM255 934
q57 0 89 -17.5t32 -48.5q0 -35 -41 -58t-114 -30v30q50 8 75 19.5t25 26.5q0 14 -19 21.5t-54 7.5q-14 0 -30.5 -2t-30.5 -6l-7 47q18 5 37.5 7.5t37.5 2.5zM389 611l-20 -21l-108 73l-106 -73l-21 21l114 125h27z" />
    <glyph glyph-name="uni1EC4" unicode="&#x1ec4;" horiz-adv-x="614" 
d="M35 0zM554 0h-519v35l78 10l18 42v520l-18 42l-78 10v35h503v-172h-40l-16 97l-39 30h-245v-271h128l61 14l7 82h36v-238h-36l-7 83l-61 14h-128v-288h262l38 30l16 108h40v-183zM264 977q-15 0 -28 -12.5t-23 -35.5l-30 10q15 52 36 75t50 23q14 0 31.5 -6t53.5 -26
q27 -15 39 -19.5t20 -4.5q16 0 29 14t24 42l29 -10q-16 -57 -36.5 -81.5t-50.5 -24.5q-14 0 -31.5 6t-53.5 26q-28 15 -39.5 19.5t-19.5 4.5zM315 819l-121 -72l-20 23l126 116h31l127 -116l-20 -23z" />
    <glyph glyph-name="uni1EC5" unicode="&#x1ec5;" horiz-adv-x="501" 
d="M49 0zM414 80l21 -31q-38 -32 -79 -47.5t-87 -15.5q-100 0 -160 72.5t-60 190.5t62.5 195t154.5 77q82 0 132 -65.5t50 -175.5v-30h-332q3 -102 48 -158.5t122 -56.5q32 0 63 11t65 34zM258 479q-59 0 -98.5 -53.5t-43.5 -135.5h268q-4 90 -37 139.5t-89 49.5zM220 838
q-15 0 -28.5 -16t-24.5 -49l-28 10q14 59 36 85t55 26q11 0 25 -6.5t41 -27.5q22 -16 31.5 -21t16.5 -5q15 0 28.5 16t25.5 48l28 -9q-15 -59 -37 -85t-55 -26q-11 0 -24.5 6.5t-40.5 26.5q-23 17 -32.5 22t-16.5 5zM261 663l-106 -73l-21 21l114 125h27l114 -125l-20 -21z
" />
    <glyph glyph-name="uni1EC6" unicode="&#x1ec6;" horiz-adv-x="614" 
d="M35 0zM554 0h-519v35l78 10l18 42v520l-18 42l-78 10v35h503v-172h-40l-16 97l-39 30h-245v-271h128l61 14l7 82h36v-238h-36l-7 83l-61 14h-128v-288h262l38 30l16 108h40v-183zM315 833l-117 -86l-22 23l124 132h32l124 -132l-22 -23zM368 -133q0 -23 -15 -38t-37 -15
t-37 15t-15 37t15 37t37 15t37 -15t15 -36z" />
    <glyph glyph-name="uni1EC7" unicode="&#x1ec7;" horiz-adv-x="501" 
d="M49 0zM414 80l21 -31q-38 -32 -79 -47.5t-87 -15.5q-100 0 -160 72.5t-60 190.5t62.5 195t154.5 77q82 0 132 -65.5t50 -175.5v-30h-332q3 -102 48 -158.5t122 -56.5q32 0 63 11t65 34zM258 479q-59 0 -98.5 -53.5t-43.5 -135.5h268q-4 90 -37 139.5t-89 49.5zM261 683
l-103 -93l-22 20l113 150h26l113 -150l-22 -20zM315 -143q0 -23 -15 -38t-37 -15t-37 15t-15 37t15 37t37 15t37 -15t15 -36z" />
    <glyph glyph-name="uni1EC8" unicode="&#x1ec8;" horiz-adv-x="342" 
d="M37 0zM304 0h-267v35l82 10l18 42v520l-18 42l-82 10v35h267v-35l-82 -10l-18 -42v-520l18 -42l82 -10v-35zM163 929q59 0 93 -19.5t34 -53.5q0 -38 -43 -63t-118 -32v35q52 8 77.5 20t25.5 29q0 15 -19.5 23.5t-55.5 8.5q-17 0 -34 -2t-34 -5l-7 49q19 5 39.5 7.5
t41.5 2.5z" />
    <glyph glyph-name="uni1EC9" unicode="&#x1ec9;" horiz-adv-x="299" 
d="M37 0zM270 0h-233v32l66 7l19 42v344l-19 41l-66 7v32h148v-424l20 -42l65 -7v-32zM138 761q56 0 88.5 -20t32.5 -54q0 -37 -41.5 -61.5t-113.5 -31.5v32q50 8 75 21t25 30q0 16 -19 25.5t-54 9.5q-11 0 -24 -1.5t-41 -5.5l-7 45q20 5 40 8t39 3z" />
    <glyph glyph-name="uni1ECA" unicode="&#x1eca;" horiz-adv-x="342" 
d="M37 0zM304 0h-267v35l82 10l18 42v520l-18 42l-82 10v35h267v-35l-82 -10l-18 -42v-520l18 -42l82 -10v-35zM223 -133q0 -23 -15 -38t-37 -15t-37 15t-15 37t15 37t37 15t37 -15t15 -36z" />
    <glyph glyph-name="uni1ECB" unicode="&#x1ecb;" horiz-adv-x="299" 
d="M37 0zM198 693q0 -23 -15 -38t-38 -15q-24 0 -39 15t-15 38t15 38.5t39 15.5q23 0 38 -15.5t15 -38.5zM270 0h-233v32l66 7l19 42v344l-19 41l-66 7v32h148v-424l20 -42l65 -7v-32zM210 -138q0 -23 -15 -38t-37 -15t-37 15t-15 37t15 37t37 15t37 -15t15 -36z" />
    <glyph glyph-name="uni1ECC" unicode="&#x1ecc;" horiz-adv-x="679" 
d="M57 0zM623 351q0 -164 -80 -265.5t-206 -101.5q-122 0 -201 100t-79 260q0 164 79.5 265t206.5 101q121 0 200.5 -100t79.5 -259zM132 351q0 -146 57 -233.5t150 -87.5t151 86t58 227q0 146 -57 233.5t-150 87.5t-151 -86t-58 -227zM387 -138q0 -23 -15 -38t-37 -15
t-37 15t-15 37t15 37t37 15t37 -15t15 -36z" />
    <glyph glyph-name="uni1ECD" unicode="&#x1ecd;" horiz-adv-x="539" 
d="M48 0zM491 256q0 -117 -64 -194.5t-160 -77.5q-95 0 -157 75t-62 191q0 118 64 194.5t160 76.5q95 0 157 -74t62 -191zM117 262q0 -106 43 -170.5t113 -64.5q65 0 107 61.5t42 154.5q0 105 -43 170t-113 65q-66 0 -107.5 -61.5t-41.5 -154.5zM326 -143q0 -23 -15 -38
t-37 -15t-37 15t-15 37t15 37t37 15t37 -15t15 -36z" />
    <glyph glyph-name="uni1ECE" unicode="&#x1ece;" horiz-adv-x="679" 
d="M57 0zM623 351q0 -164 -80 -265.5t-206 -101.5q-122 0 -201 100t-79 260q0 164 79.5 265t206.5 101q121 0 200.5 -100t79.5 -259zM132 351q0 -146 57 -233.5t150 -87.5t151 86t58 227q0 146 -57 233.5t-150 87.5t-151 -86t-58 -227zM335 934q59 0 93 -19.5t34 -53.5
q0 -38 -43 -63t-118 -32v35q52 8 77.5 20t25.5 29q0 15 -19.5 23.5t-55.5 8.5q-17 0 -34 -2t-34 -5l-7 49q19 5 39.5 7.5t41.5 2.5z" />
    <glyph glyph-name="uni1ECF" unicode="&#x1ecf;" horiz-adv-x="539" 
d="M48 0zM491 256q0 -117 -64 -194.5t-160 -77.5q-95 0 -157 75t-62 191q0 118 64 194.5t160 76.5q95 0 157 -74t62 -191zM117 262q0 -106 43 -170.5t113 -64.5q65 0 107 61.5t42 154.5q0 105 -43 170t-113 65q-66 0 -107.5 -61.5t-41.5 -154.5zM263 766q56 0 88.5 -20
t32.5 -54q0 -37 -41.5 -61.5t-113.5 -31.5v32q50 8 75 21t25 30q0 16 -19 25.5t-54 9.5q-11 0 -24 -1.5t-41 -5.5l-7 45q20 5 40 8t39 3z" />
    <glyph glyph-name="uni1ED0" unicode="&#x1ed0;" horiz-adv-x="679" 
d="M57 0zM623 351q0 -164 -80 -265.5t-206 -101.5q-122 0 -201 100t-79 260q0 164 79.5 265t206.5 101q121 0 200.5 -100t79.5 -259zM132 351q0 -146 57 -233.5t150 -87.5t151 86t58 227q0 146 -57 233.5t-150 87.5t-151 -86t-58 -227zM556 940l-112 -72l-19 22l88 103
q14 17 25.5 24.5t23.5 7.5q14 0 24.5 -11t10.5 -26q0 -12 -10 -23.5t-31 -24.5zM342 824l-121 -72l-20 23l126 116h31l127 -116l-20 -23z" />
    <glyph glyph-name="uni1ED1" unicode="&#x1ed1;" horiz-adv-x="539" 
d="M48 0zM491 256q0 -117 -64 -194.5t-160 -77.5q-95 0 -157 75t-62 191q0 118 64 194.5t160 76.5q95 0 157 -74t62 -191zM117 262q0 -106 43 -170.5t113 -64.5q65 0 107 61.5t42 154.5q0 105 -43 170t-113 65q-66 0 -107.5 -61.5t-41.5 -154.5zM459 816l-83 -90l-22 15
l52 113q10 24 21 34t25 10q13 0 23.5 -9.5t10.5 -23.5q0 -10 -6 -21t-21 -28zM270 663l-106 -73l-21 21l114 125h27l114 -125l-20 -21z" />
    </font>
</defs>
</svg>
